<svg width="512" height="512" viewBox="0 0 512 512" fill="none" xmlns="http://www.w3.org/2000/svg">
  <g clip-path="url(#clip0)">
    <circle cx="255.364" cy="255.517" r="252.517" fill="#4384EC" />
    <path opacity="0.5"
      d="M472.971 381.039C403.24 501.816 248.803 543.197 128.026 473.466C235.945 506.688 366.481 480.593 436.212 359.816C505.942 239.038 478.379 108.363 380.543 36.0934C501.32 105.824 542.702 260.261 472.971 381.039Z"
      fill="#0D5AD7" />
    <mask id="mask0" mask-type="alpha" maskUnits="userSpaceOnUse" x="-560" y="47" width="1053" height="417">
      <path opacity="0.5"
        d="M-533.318 148.811C-536.064 148.261 -534.417 152.111 -537.163 152.661C-539.909 153.211 -542.655 154.311 -540.458 154.861C-538.261 155.411 -533.867 154.861 -533.318 153.761C-533.318 153.211 -532.769 148.811 -533.318 148.811ZM-553.091 154.311C-555.837 154.311 -559.132 154.311 -559.681 155.411C-560.231 156.511 -556.935 157.061 -554.738 157.061C-552.541 157.061 -548.697 155.961 -549.246 155.411C-550.344 155.411 -553.091 154.311 -553.091 154.311ZM-536.064 132.86C-537.163 133.41 -534.417 135.06 -533.318 135.06C-532.22 135.06 -530.572 132.31 -532.769 132.31C-534.966 132.31 -533.867 132.31 -536.064 132.86ZM-527.277 113.058L-525.629 114.158C-523.981 115.258 -521.784 115.808 -519.587 116.359C-517.39 116.359 -517.39 115.258 -519.038 113.608C-520.686 111.958 -521.235 112.508 -522.883 111.958C-524.53 111.958 -524.53 110.308 -528.924 110.308C-532.769 110.308 -532.22 108.108 -532.769 107.558C-533.318 106.458 -528.924 104.258 -527.826 104.808C-526.727 104.808 -522.883 104.258 -522.883 104.258C-522.883 104.258 -516.292 102.058 -515.743 102.058C-515.194 102.608 -511.349 101.508 -509.701 100.958C-508.054 100.408 -506.955 97.6573 -506.955 97.6573C-506.955 97.6573 -504.758 98.2074 -503.66 99.8575C-502.561 100.958 -499.815 99.8575 -498.717 99.8575C-498.167 99.8575 -493.773 100.408 -493.773 100.408C-493.773 100.408 -489.929 99.8575 -487.732 99.8575C-485.535 99.8575 -480.043 101.508 -477.846 102.058C-475.649 102.608 -465.213 100.408 -464.115 100.408C-463.016 100.408 -459.721 104.808 -456.426 104.258C-453.13 103.708 -451.483 104.808 -450.933 104.808C-450.384 104.808 -449.286 104.808 -448.187 106.458C-447.089 108.108 -445.441 106.458 -443.793 105.908C-442.146 104.808 -442.146 103.708 -442.146 103.708H-440.498C-438.85 103.708 -437.752 104.258 -433.907 104.258C-429.513 104.258 -430.612 103.708 -427.866 102.608C-425.119 101.508 -421.824 103.708 -420.726 103.708C-419.627 103.708 -418.529 101.508 -417.979 102.608C-417.43 103.708 -415.782 105.358 -415.782 105.358C-415.782 105.358 -412.487 103.158 -411.389 103.158C-410.29 103.158 -404.798 103.708 -403.15 103.158C-401.502 103.158 -397.109 103.158 -396.01 104.808C-394.362 105.908 -390.518 105.908 -388.87 107.008C-386.673 108.108 -385.025 105.908 -386.124 105.358C-387.222 104.808 -389.419 103.158 -389.419 103.158C-389.419 103.158 -393.264 98.7574 -393.813 98.2074C-394.362 97.6573 -394.912 97.6573 -396.01 99.3074C-397.109 101.508 -400.953 101.508 -404.798 101.508C-409.192 101.508 -406.446 99.3074 -410.839 99.3074C-415.782 99.3074 -413.586 97.1073 -412.487 97.1073C-411.389 97.1073 -409.741 94.3571 -409.741 92.707C-409.192 91.0569 -407.544 91.0569 -403.699 91.607C-400.404 91.607 -399.306 91.0569 -395.461 91.607C-392.165 92.157 -392.166 89.9569 -388.87 90.5069C-385.575 90.5069 -387.222 91.0569 -385.025 92.707C-382.829 93.8071 -381.73 93.8071 -378.984 94.9072C-376.238 96.0072 -377.336 96.0072 -376.238 96.5573C-375.139 96.5573 -370.745 96.0072 -367.999 96.0072C-365.253 96.0072 -363.605 95.4572 -361.958 97.1073C-360.859 98.7574 -360.859 100.408 -359.212 101.508C-357.564 102.608 -360.31 97.1073 -360.31 94.9072C-360.31 92.707 -357.015 94.9072 -354.268 94.9072C-352.072 94.9072 -349.325 94.3571 -348.776 94.9072C-348.227 96.0072 -352.072 97.1073 -349.875 99.3074C-347.678 101.508 -346.03 102.058 -343.833 102.058C-341.636 102.058 -337.242 102.608 -339.439 105.358C-341.636 108.108 -346.579 107.558 -348.227 107.558C-349.875 107.558 -353.17 108.658 -352.072 109.758C-351.522 111.408 -347.128 110.308 -344.382 110.308C-341.636 110.308 -332.848 110.858 -330.651 110.308C-328.455 109.758 -329.004 106.458 -331.201 105.908C-333.947 105.358 -331.75 103.708 -329.004 104.258C-326.258 104.808 -324.061 103.708 -324.61 104.258C-325.159 104.808 -324.61 106.458 -324.61 108.658C-324.61 110.858 -324.061 111.958 -321.864 111.408C-320.216 110.858 -320.216 109.208 -318.568 109.208C-316.921 109.208 -317.47 106.458 -318.019 104.258C-319.118 102.058 -319.667 100.958 -319.667 99.8575C-319.667 98.7574 -316.921 98.2074 -315.273 99.8575C-313.625 100.958 -311.978 103.708 -311.978 103.708C-311.978 103.708 -309.231 105.358 -308.133 107.558C-307.035 109.758 -307.035 109.208 -304.838 107.558C-302.641 106.458 -302.091 106.458 -300.444 107.558C-298.796 108.658 -299.895 111.408 -299.895 111.958C-299.895 112.508 -297.148 111.958 -297.148 110.308C-296.599 108.658 -294.402 108.658 -293.304 108.108C-292.205 107.558 -292.205 104.808 -292.205 104.808C-292.205 104.808 -295.501 104.258 -298.796 104.258C-302.091 104.258 -303.19 104.258 -305.387 102.058C-308.133 100.408 -306.485 99.3075 -307.584 97.6573C-308.682 96.0072 -303.739 94.9072 -300.444 93.2571C-297.148 91.607 -293.853 92.707 -294.402 96.5573C-294.951 100.408 -295.501 99.8575 -291.656 98.7574C-287.811 98.2074 -291.656 94.9072 -290.008 94.3571C-288.361 94.3571 -283.967 93.2571 -282.319 93.8071C-280.671 93.8071 -272.433 93.2571 -270.785 93.2571C-268.588 93.2571 -265.293 94.9072 -263.096 96.0072C-260.899 97.1073 -254.857 98.7574 -253.21 99.8575C-251.562 100.408 -241.127 102.058 -240.028 102.058C-238.93 102.058 -238.93 105.358 -237.831 107.558C-236.733 109.758 -233.987 108.108 -232.888 108.108C-231.79 108.108 -228.494 109.758 -227.396 110.858C-226.297 111.958 -218.608 113.058 -218.608 113.058C-218.608 113.058 -220.256 115.258 -221.354 115.808C-221.904 116.359 -224.1 116.909 -225.199 118.009C-226.847 119.109 -228.494 118.009 -230.691 116.359C-232.888 115.258 -236.184 114.158 -236.733 114.708C-237.282 115.258 -236.733 116.359 -236.733 116.909C-236.184 117.459 -232.888 118.559 -230.691 120.209C-228.494 121.859 -229.044 122.959 -229.044 125.159C-229.044 127.359 -231.24 124.609 -233.437 124.059C-236.184 123.509 -236.184 126.259 -236.184 126.259H-241.127C-242.774 126.259 -241.127 126.259 -243.873 124.059C-246.619 121.859 -246.07 125.159 -247.717 124.059C-249.365 122.959 -250.464 121.859 -251.562 121.859C-252.111 122.409 -254.857 119.659 -256.505 119.659C-258.153 119.659 -264.194 119.109 -265.293 119.659C-266.941 120.209 -268.039 120.209 -269.138 120.759C-270.236 121.309 -270.785 117.459 -270.236 116.359C-269.687 115.258 -267.49 114.708 -264.194 115.808C-260.899 116.359 -260.899 115.808 -259.801 114.708C-259.251 113.608 -258.153 112.508 -254.857 111.408C-251.562 110.308 -254.857 109.758 -255.956 109.208C-257.054 108.658 -258.153 107.558 -258.702 109.208C-259.251 110.858 -261.448 112.508 -261.448 112.508H-266.391C-269.138 112.508 -266.941 111.408 -265.842 110.858C-264.744 110.308 -263.096 107.558 -264.194 106.458C-265.293 105.908 -265.842 105.358 -268.039 105.908C-270.236 106.458 -268.588 104.258 -270.236 103.708C-271.884 103.158 -271.334 104.258 -271.334 105.358C-271.334 106.458 -273.531 105.908 -273.531 105.908C-273.531 105.908 -276.827 105.358 -278.474 105.908C-279.573 106.458 -281.77 107.558 -281.221 108.108C-280.671 108.658 -277.925 108.658 -277.376 110.858C-276.827 113.058 -280.671 113.608 -281.221 113.608C-281.77 113.608 -285.065 114.708 -285.065 114.708C-285.065 114.708 -287.811 114.158 -290.558 114.158C-293.304 114.158 -293.853 114.158 -293.304 115.258C-292.754 116.359 -291.656 115.808 -290.558 115.808C-290.008 115.808 -290.008 116.909 -287.811 116.359C-285.614 115.808 -286.164 115.258 -283.967 116.909C-281.77 119.109 -280.122 118.559 -276.827 120.209C-273.531 121.859 -277.376 124.059 -279.024 124.059C-280.671 124.059 -280.671 122.409 -281.77 121.309C-282.868 119.659 -286.713 121.309 -286.713 121.309C-286.713 121.309 -290.008 122.959 -291.656 122.959C-293.304 122.959 -294.402 122.959 -292.205 120.759C-290.008 119.109 -294.951 118.559 -294.951 116.359C-294.951 114.158 -296.599 120.759 -296.599 121.859C-296.599 122.959 -298.247 120.209 -302.641 120.759C-307.035 121.309 -305.936 122.959 -311.428 126.259C-316.921 129.559 -315.273 129.009 -315.273 132.31C-314.724 135.61 -316.371 136.16 -314.175 136.71C-311.978 137.26 -312.527 141.11 -310.879 140.56C-309.231 140.56 -308.133 138.91 -304.288 140.56C-300.993 142.21 -298.796 142.76 -294.951 143.31C-290.558 143.86 -288.361 143.86 -286.164 143.31C-283.967 142.76 -281.77 144.96 -281.77 147.16C-281.77 148.811 -280.122 149.361 -280.671 151.561C-280.671 153.761 -277.925 149.361 -277.925 149.361C-277.925 149.361 -276.827 153.211 -277.925 153.761C-279.024 154.311 -277.925 156.511 -276.278 155.961C-275.179 155.961 -273.531 156.511 -271.884 155.411C-270.236 154.311 -272.433 150.461 -272.433 148.811C-272.433 147.16 -274.081 146.61 -274.63 144.96C-275.179 143.31 -272.433 143.31 -271.884 144.96C-270.785 146.61 -269.137 144.96 -267.49 143.86C-265.842 142.76 -265.842 140.56 -265.842 140.56C-265.842 140.56 -268.588 136.71 -271.334 135.61C-273.531 134.51 -272.433 134.51 -270.236 133.96C-268.039 133.41 -270.236 132.86 -269.687 130.109C-269.137 127.359 -269.138 125.709 -268.039 125.709C-266.941 125.709 -261.997 125.159 -258.702 125.159C-254.857 125.159 -253.21 127.909 -250.464 128.459C-247.717 128.459 -243.873 129.009 -243.324 130.659C-242.774 131.759 -247.717 132.86 -246.07 134.51C-244.422 136.71 -242.225 135.61 -240.577 136.71C-238.93 137.26 -236.733 136.71 -234.536 133.96C-232.339 131.209 -231.24 130.659 -230.691 131.209C-230.142 131.759 -225.199 137.26 -224.1 138.36C-223.002 139.46 -221.904 143.31 -221.354 144.41C-221.354 145.51 -216.411 144.96 -215.313 144.96C-214.214 144.96 -210.37 147.711 -209.82 149.361C-209.271 151.011 -208.173 151.561 -204.877 152.111C-201.582 152.661 -204.877 155.411 -205.427 157.061C-205.976 158.711 -206.525 159.261 -207.623 160.911C-208.722 162.561 -207.623 160.911 -206.525 161.461C-205.427 162.011 -204.877 163.111 -202.68 162.561C-200.483 162.011 -199.934 162.561 -198.836 164.212C-198.287 165.862 -197.188 166.962 -196.09 168.062C-195.54 169.162 -196.09 171.362 -197.188 170.262C-198.287 169.162 -201.582 169.712 -201.582 169.712C-201.582 169.712 -203.23 171.362 -203.779 170.262C-204.328 169.712 -205.427 168.612 -207.074 169.162C-208.722 169.712 -210.37 169.162 -212.567 169.162C-214.764 169.162 -215.313 168.062 -214.214 166.962C-213.116 165.862 -212.567 162.561 -210.37 160.911C-207.623 159.261 -208.722 157.061 -210.37 157.061C-212.017 157.061 -213.116 159.261 -213.665 159.811C-214.764 160.361 -218.059 158.711 -219.707 160.361C-221.354 161.461 -224.1 162.561 -222.453 163.111C-220.805 163.662 -225.199 165.312 -226.297 165.312C-227.945 165.312 -227.396 162.011 -227.396 160.911C-227.396 159.811 -229.593 161.461 -229.593 161.461C-229.593 161.461 -233.437 159.261 -235.085 160.911C-236.733 162.561 -242.225 162.011 -243.873 163.111C-245.52 164.762 -246.619 168.612 -246.619 168.612C-246.619 168.612 -244.971 168.062 -242.225 166.962C-239.479 166.412 -239.479 166.412 -236.733 165.312C-233.987 164.212 -231.79 163.662 -230.142 165.862C-228.494 168.062 -230.691 169.162 -230.691 169.162C-230.691 169.162 -229.593 170.812 -228.494 171.362C-227.396 171.912 -227.396 170.812 -225.748 169.712C-224.1 168.612 -224.65 171.912 -224.1 172.462C-223.551 173.562 -221.904 173.562 -220.805 172.462C-219.707 171.362 -219.157 170.262 -218.059 170.812C-217.51 171.362 -216.411 173.012 -215.862 175.212C-215.313 176.862 -221.354 177.412 -221.904 177.412C-223.002 177.412 -227.945 178.512 -228.494 179.062C-229.044 179.062 -231.79 181.263 -233.987 181.263C-236.184 181.263 -235.634 178.512 -236.184 176.862C-236.184 175.212 -238.93 176.862 -238.93 177.962C-238.93 178.512 -241.676 178.512 -243.324 178.512C-244.971 178.512 -248.267 180.713 -248.267 182.363C-248.267 184.563 -244.971 186.213 -245.52 187.313C-246.07 188.413 -252.111 187.863 -253.759 187.313C-255.407 186.763 -258.153 187.863 -257.054 188.963C-256.505 190.063 -257.054 191.163 -258.702 191.163C-260.35 191.163 -260.899 192.813 -259.801 193.913C-259.251 195.013 -261.997 197.764 -262.547 196.664C-263.096 195.564 -264.744 195.013 -264.744 196.664C-264.744 198.314 -263.096 199.964 -261.997 202.164C-260.35 204.364 -266.391 204.364 -268.039 206.014C-269.687 207.664 -273.531 212.615 -276.278 213.715C-279.024 214.815 -280.671 217.565 -279.573 218.665C-278.474 219.765 -276.827 225.265 -276.278 226.916C-275.728 228.566 -276.278 233.516 -279.024 233.516C-281.221 233.516 -280.122 230.216 -282.319 229.666C-284.516 229.116 -285.614 224.715 -286.164 221.415C-286.713 218.665 -287.262 220.315 -288.91 221.415C-290.558 222.515 -291.656 219.215 -292.754 218.665C-293.304 218.115 -297.148 220.315 -300.444 219.765C-303.19 219.765 -304.838 220.315 -304.838 220.865C-304.838 221.415 -305.387 223.615 -308.133 222.515C-311.978 220.315 -312.527 220.315 -315.273 220.315C-318.019 220.315 -320.765 220.315 -321.315 220.865C-321.864 221.965 -324.61 224.165 -326.258 224.715C-327.905 225.265 -331.201 227.466 -329.553 228.016C-327.905 228.566 -327.905 231.866 -329.004 234.066C-330.102 236.266 -329.553 239.566 -329.004 242.867C-328.455 246.167 -325.708 248.367 -322.962 250.567C-320.216 252.767 -319.118 253.317 -316.371 251.667C-313.625 249.467 -312.527 251.117 -311.978 251.117C-311.428 251.117 -309.231 250.017 -309.781 247.817C-310.33 245.617 -308.682 243.417 -306.485 243.967C-304.288 243.967 -300.993 243.417 -299.345 243.417C-297.698 243.417 -296.599 248.367 -299.345 250.017C-302.091 252.217 -300.444 254.967 -300.993 257.167C-301.542 259.368 -303.739 259.918 -300.993 259.918C-298.247 259.918 -298.796 260.468 -297.148 260.468C-295.501 260.468 -293.853 258.818 -291.656 258.818C-290.008 258.818 -285.614 262.668 -286.164 264.318C-286.713 266.518 -287.811 269.818 -287.262 272.568C-287.262 275.869 -286.164 275.869 -285.614 276.969C-285.065 278.069 -282.868 280.269 -280.671 279.169C-278.474 278.069 -276.278 277.519 -275.179 276.419C-274.63 275.319 -269.687 278.069 -270.236 278.619C-270.785 279.169 -268.588 280.269 -266.941 279.169C-265.293 278.619 -264.744 276.969 -263.096 275.319C-261.448 273.118 -259.251 271.468 -257.604 271.468C-256.505 271.468 -253.21 268.168 -251.562 268.718C-249.365 269.268 -252.111 271.468 -252.661 273.118C-252.661 274.769 -252.661 278.619 -251.562 279.169C-250.464 279.169 -251.013 276.419 -249.914 274.218C-248.816 272.018 -246.07 270.918 -244.971 270.918C-243.873 270.918 -242.774 275.869 -241.127 274.769C-239.479 273.118 -235.634 273.668 -235.085 274.769C-234.536 276.419 -233.437 276.969 -233.437 276.969C-233.437 276.969 -232.339 275.869 -232.339 274.769C-232.339 273.668 -228.494 272.568 -225.748 273.668C-223.002 275.319 -224.1 275.869 -223.002 275.869C-221.904 275.869 -220.256 272.568 -219.707 272.568C-219.157 272.568 -219.707 276.419 -221.354 278.619C-223.002 280.819 -219.707 280.269 -219.707 280.269L-219.157 280.819C-218.608 281.369 -215.862 280.269 -214.763 281.369C-213.665 283.019 -212.017 283.569 -210.37 285.769C-208.722 288.519 -207.074 286.319 -204.328 285.769C-201.582 285.219 -197.188 289.069 -193.893 291.82C-191.147 295.12 -191.147 297.32 -189.499 297.32C-187.302 297.32 -186.753 300.07 -186.753 301.17C-186.753 302.27 -191.147 304.47 -193.893 305.02C-196.639 305.57 -196.639 307.771 -192.245 307.221C-188.4 306.671 -190.048 305.02 -187.302 304.47C-184.556 303.92 -182.359 305.57 -184.556 308.321C-186.753 311.071 -191.147 311.621 -187.302 312.171C-183.457 312.721 -185.654 311.621 -183.457 308.871C-181.26 306.12 -181.26 306.671 -180.162 306.671C-178.514 306.671 -175.219 307.221 -174.12 308.321C-173.022 309.421 -169.726 310.521 -167.53 312.171C-165.333 313.271 -163.136 312.721 -161.488 312.171C-159.84 311.621 -155.446 313.821 -154.348 315.471C-152.7 317.671 -148.856 317.671 -147.208 318.221C-146.109 319.321 -143.363 322.622 -143.363 324.822C-143.363 327.022 -146.109 332.522 -146.109 333.622C-146.109 334.722 -150.503 339.123 -154.348 341.873C-158.193 344.623 -155.996 348.473 -155.446 349.573C-155.446 351.223 -158.193 356.174 -157.094 357.824C-156.545 358.924 -158.193 361.674 -159.84 363.324C-161.488 364.974 -162.586 368.274 -163.136 369.374C-164.234 371.025 -167.53 370.475 -170.276 371.025C-173.022 371.575 -174.67 372.675 -174.67 372.675C-174.67 372.675 -180.162 374.875 -182.908 377.075C-185.654 379.275 -181.81 382.575 -183.457 385.325C-185.105 388.076 -186.203 385.876 -187.851 388.626C-189.499 391.926 -190.597 391.376 -191.696 391.926C-192.794 392.476 -193.893 394.676 -193.893 396.326C-193.893 398.526 -196.639 400.176 -199.934 402.927C-203.23 405.677 -205.427 405.127 -208.722 404.577C-212.017 403.477 -211.468 395.226 -212.017 396.326C-212.567 397.426 -214.214 401.827 -213.665 402.377C-213.116 402.927 -209.82 405.677 -208.173 406.777C-207.074 407.327 -207.074 408.977 -208.173 410.077C-209.271 411.177 -212.017 415.577 -213.116 416.127C-214.214 416.127 -221.904 417.228 -223.551 416.677C-225.199 416.127 -225.748 418.328 -225.748 419.978C-225.748 421.628 -224.1 423.278 -226.847 422.728C-229.593 422.178 -233.437 420.528 -233.437 421.628C-233.437 422.728 -232.888 425.478 -231.24 425.478C-229.593 425.478 -228.494 424.378 -229.044 426.028C-229.593 427.678 -231.79 429.328 -232.888 429.878C-233.987 430.428 -235.085 433.179 -237.831 434.829C-240.577 436.479 -240.577 437.579 -240.028 438.129C-239.479 438.679 -235.634 438.129 -235.085 438.679C-234.536 439.229 -235.634 442.529 -236.733 443.079C-237.831 443.629 -242.225 447.479 -243.873 448.029C-245.52 449.13 -245.521 451.88 -244.971 453.53C-244.422 455.18 -240.577 458.48 -238.38 459.58C-236.184 460.13 -231.24 460.13 -231.79 460.68C-232.339 461.23 -237.831 462.33 -238.38 462.33C-238.93 462.33 -243.324 463.43 -244.971 463.43C-247.168 463.43 -251.013 461.23 -251.562 461.23C-252.111 461.23 -251.013 460.13 -248.816 458.48C-246.07 456.28 -249.914 454.08 -250.464 456.83C-251.013 459.58 -252.111 460.13 -253.21 460.13C-254.308 460.13 -255.956 458.48 -256.505 457.93C-257.054 457.38 -260.35 456.28 -259.801 453.53C-259.251 450.78 -261.448 450.78 -262.547 449.68C-264.194 448.579 -260.35 447.479 -260.899 446.379C-261.448 445.279 -263.645 445.829 -263.645 444.179C-263.645 442.529 -261.448 439.779 -261.448 439.229C-261.448 438.679 -263.096 437.029 -263.096 435.929C-263.096 434.829 -261.997 433.729 -260.35 431.528C-258.702 429.328 -257.604 427.128 -257.604 426.578C-257.604 426.028 -258.702 423.278 -258.702 421.078C-258.702 418.878 -257.604 418.328 -257.054 415.577C-256.505 412.827 -258.702 413.927 -258.702 411.727C-258.702 409.527 -255.956 410.077 -256.505 407.877C-257.054 405.677 -255.407 404.027 -254.308 402.927C-253.759 401.276 -252.661 399.076 -251.562 397.426C-250.464 395.776 -252.661 391.926 -252.661 390.826C-252.661 390.276 -249.365 389.176 -251.013 387.526C-252.661 385.876 -249.914 385.326 -248.267 384.225C-246.619 383.125 -249.365 378.725 -248.816 374.325C-248.267 369.925 -247.168 362.224 -247.168 361.674C-247.168 361.124 -247.168 357.824 -248.267 356.174C-249.365 353.974 -251.013 352.873 -252.661 351.773C-254.308 351.223 -256.505 349.023 -258.153 348.473C-259.251 348.473 -266.941 346.273 -266.941 342.973C-266.941 339.673 -269.687 336.922 -270.236 334.172C-270.785 331.972 -274.63 326.472 -274.63 323.722C-274.63 321.521 -280.122 320.421 -280.671 317.671C-281.221 314.921 -279.573 313.271 -279.024 311.621C-278.474 309.971 -279.573 306.121 -279.573 305.02C-279.573 303.92 -277.376 299.52 -275.728 298.97C-274.081 298.42 -271.334 295.67 -270.236 295.67C-269.137 295.67 -269.687 292.92 -268.588 290.17C-267.49 287.419 -269.137 283.569 -269.687 283.569C-270.236 283.019 -271.334 279.719 -272.433 279.169C-275.179 280.269 -277.925 280.819 -277.925 280.819C-277.925 280.819 -277.376 283.019 -279.573 284.119C-281.77 285.219 -282.319 284.119 -282.868 283.019C-283.418 282.469 -286.164 281.919 -287.811 280.819C-288.91 279.719 -291.107 278.069 -292.754 276.969C-294.402 276.419 -297.698 275.869 -297.698 272.568C-297.698 269.818 -299.345 267.618 -300.444 267.618C-301.542 267.068 -303.19 265.968 -304.838 266.518C-305.936 267.068 -308.133 264.868 -310.33 265.418C-311.978 265.418 -315.822 262.668 -316.921 261.018C-318.019 259.918 -319.118 258.267 -321.315 258.267C-323.511 258.267 -324.061 258.818 -325.159 260.468C-326.807 262.118 -329.004 259.368 -329.553 258.267C-330.102 257.717 -333.947 258.818 -336.693 258.818C-339.439 258.818 -340.538 254.417 -341.087 253.317C-341.636 249.467 -349.325 249.467 -350.973 248.917C-352.621 247.817 -354.268 244.517 -353.719 243.417C-353.17 242.316 -354.818 239.016 -354.818 239.016C-354.818 239.016 -358.113 235.166 -359.761 235.166C-360.859 235.166 -365.253 228.566 -367.45 226.365C-369.647 224.165 -375.139 219.765 -376.238 217.565C-377.336 215.365 -377.336 212.065 -380.082 213.715C-382.829 215.365 -380.632 217.015 -377.885 219.215C-375.139 221.415 -375.689 223.065 -372.393 225.815C-369.098 228.566 -370.196 231.316 -369.098 232.416C-367.45 233.516 -362.507 236.816 -364.704 238.466C-366.901 240.666 -369.098 236.266 -370.196 235.716C-371.295 235.716 -373.492 235.166 -372.942 233.516C-372.942 231.866 -375.139 230.766 -376.787 228.566C-378.435 226.365 -379.533 227.466 -381.73 227.466C-383.927 227.466 -381.73 224.715 -380.632 223.615C-379.533 222.515 -381.73 220.865 -383.378 220.315C-385.025 219.765 -386.673 214.265 -388.87 210.964C-391.067 207.664 -392.166 206.014 -394.912 206.014C-397.109 206.014 -400.953 204.364 -402.601 203.264C-404.249 202.164 -403.699 196.664 -405.896 194.463C-408.642 192.263 -410.839 187.313 -410.29 184.563C-410.29 181.813 -409.192 175.212 -409.192 173.562C-409.192 171.912 -411.389 168.612 -411.389 168.062C-411.389 167.512 -411.938 165.312 -413.036 164.762C-414.135 164.762 -417.43 162.011 -419.627 162.011C-421.824 162.011 -422.923 158.711 -422.373 157.061C-421.824 155.411 -424.57 152.661 -425.669 152.661C-426.767 152.661 -428.964 149.361 -429.513 147.71C-430.063 146.06 -432.259 146.06 -431.71 147.16C-431.161 148.261 -431.71 149.911 -430.612 150.461C-429.513 151.011 -428.415 154.861 -429.513 155.411C-430.612 155.961 -432.809 153.761 -435.555 152.661C-438.301 151.561 -437.203 146.61 -437.203 145.51C-437.203 144.41 -440.498 143.31 -442.146 143.31C-443.793 143.31 -444.892 143.31 -445.441 140.56C-445.441 137.26 -450.384 135.61 -451.483 135.61C-453.13 135.61 -461.369 133.41 -464.115 133.41C-466.861 133.41 -470.706 130.659 -471.804 131.209C-473.452 132.31 -476.198 129.559 -477.846 129.559C-479.493 129.559 -478.395 132.86 -481.141 134.51C-483.887 136.16 -485.535 132.86 -487.183 133.96C-488.83 135.06 -492.675 136.16 -491.027 133.41C-489.929 130.659 -489.929 130.109 -491.577 130.659C-493.773 131.209 -494.323 133.41 -494.323 134.51C-494.323 135.61 -497.618 137.81 -497.618 137.81H-493.224C-492.126 137.81 -493.224 140.56 -494.323 141.11C-495.421 141.66 -497.069 143.86 -499.266 143.31C-501.463 142.76 -501.463 141.11 -502.561 141.11C-503.66 141.11 -505.307 144.41 -509.701 146.61C-514.095 148.811 -514.644 145.51 -516.841 146.61C-518.489 147.16 -525.08 149.361 -527.277 149.911C-529.474 149.911 -528.924 147.16 -527.826 147.16C-526.727 147.16 -521.784 144.96 -520.686 144.41C-519.587 143.86 -514.095 141.66 -512.447 141.11C-510.8 140.56 -508.603 138.91 -509.701 137.81C-509.152 135.61 -512.447 137.81 -512.447 137.81C-512.447 137.81 -515.194 135.61 -515.743 135.06C-516.292 134.51 -517.94 137.26 -517.94 137.26C-517.94 137.26 -521.235 136.71 -520.686 133.96C-519.587 131.209 -521.784 131.209 -522.334 132.31C-522.883 133.41 -527.277 135.61 -527.277 134.51C-527.277 133.41 -531.121 130.659 -532.22 129.009C-533.318 126.809 -531.67 126.259 -529.474 124.609C-527.277 122.959 -523.981 122.409 -521.235 122.409C-518.489 122.409 -516.841 119.659 -517.94 119.109C-519.038 119.109 -520.686 118.559 -522.334 119.659C-523.981 120.759 -527.826 120.759 -527.826 120.759C-527.826 120.759 -533.318 120.759 -535.515 119.109C-537.712 117.459 -538.811 115.258 -538.811 115.258C-538.811 115.258 -534.417 113.608 -530.572 113.058H-527.277ZM-297.698 185.663C-294.951 185.663 -294.951 182.363 -295.501 181.263C-295.501 180.163 -295.501 176.312 -294.951 175.212C-293.853 174.662 -292.754 172.462 -290.008 171.912C-287.262 171.912 -285.614 173.562 -285.614 175.762C-285.614 177.962 -285.065 180.163 -283.967 180.163C-282.868 180.163 -280.122 178.512 -281.221 176.862C-282.319 175.212 -280.671 170.262 -280.671 172.462C-280.671 174.112 -278.474 175.212 -277.376 175.212C-276.278 175.212 -278.474 170.812 -280.122 170.262H-286.164C-286.713 170.262 -291.107 169.162 -293.304 169.162C-295.501 169.162 -298.247 170.262 -299.345 171.912C-300.444 174.112 -299.345 177.412 -299.345 179.062C-299.345 181.263 -299.894 185.113 -297.698 185.663ZM-283.418 185.663C-282.868 186.763 -280.122 185.663 -278.474 184.563C-276.827 182.913 -273.531 182.363 -272.433 181.263C-271.334 180.163 -270.785 180.163 -268.039 179.062C-265.293 177.962 -263.645 177.962 -264.744 176.862C-265.842 175.762 -270.785 176.862 -271.884 176.312C-272.433 175.762 -277.925 181.813 -277.925 181.813C-277.925 181.813 -282.319 183.463 -282.868 184.013C-283.418 185.113 -283.967 184.013 -283.418 185.663ZM-309.781 166.962C-309.781 168.062 -307.035 168.612 -305.936 167.512C-304.288 166.962 -302.091 166.412 -300.993 165.862C-299.894 165.862 -300.444 166.962 -298.247 166.962C-296.05 166.962 -293.304 167.512 -292.205 167.512C-291.656 167.512 -289.459 164.212 -291.107 164.212C-292.754 164.212 -295.501 162.011 -297.148 160.911C-298.796 159.261 -302.091 163.111 -305.387 164.212C-308.682 165.312 -309.781 164.762 -309.781 166.962ZM-412.487 158.711C-414.684 158.161 -411.938 161.461 -410.29 162.561C-409.192 163.111 -406.446 163.111 -406.446 164.762C-406.446 165.862 -405.347 169.162 -404.249 168.612C-403.15 168.612 -403.15 165.862 -404.249 164.762C-405.347 163.662 -409.192 160.911 -409.741 160.911C-410.29 160.361 -411.938 159.261 -412.487 158.711ZM-288.361 125.159C-288.91 125.709 -285.614 126.809 -284.516 125.709C-283.967 125.159 -286.713 123.509 -288.361 125.159ZM-278.474 126.809C-281.221 127.359 -278.474 129.559 -276.827 129.009C-275.728 127.909 -276.278 126.259 -278.474 126.809ZM-403.699 87.2067C-403.699 88.3068 -402.052 88.3068 -399.855 88.3068C-397.658 88.3068 -394.362 88.3068 -393.264 87.7567C-392.166 87.2067 -387.222 86.1066 -387.222 87.7567C-387.222 89.4068 -385.025 91.607 -383.927 91.0569C-382.829 90.5069 -380.632 88.8568 -378.984 89.4068C-377.885 89.9569 -377.885 92.157 -376.238 92.707C-375.139 93.2571 -371.844 93.2571 -370.196 92.707C-368.549 92.157 -364.704 92.157 -362.507 92.707C-360.859 93.2571 -355.367 93.8071 -354.818 93.2571C-354.268 92.157 -352.621 92.157 -352.621 91.0569C-352.621 89.9569 -351.522 87.2067 -351.522 87.2067C-351.522 87.2067 -352.621 85.5566 -354.268 86.1066C-355.916 86.6567 -356.465 87.2067 -358.113 87.2067C-359.761 86.6567 -359.761 84.4565 -362.507 85.0065C-365.253 85.5566 -365.802 87.2067 -366.352 87.7567C-367.45 88.3068 -369.098 88.8568 -369.647 88.3068C-370.196 87.7567 -374.041 86.1066 -374.041 86.1066C-374.041 86.1066 -382.279 85.5566 -382.279 85.0065C-382.829 83.9065 -383.927 82.2564 -387.772 82.8064C-391.616 83.3564 -397.658 85.0065 -398.756 85.0065C-399.855 85.0065 -397.658 87.2067 -398.756 87.2067C-401.502 86.1066 -403.15 85.5566 -403.699 87.2067ZM-375.139 80.6063C-377.336 81.1563 -376.787 82.8064 -375.139 82.8064C-374.041 82.8064 -370.196 81.7063 -369.647 82.2564C-368.549 82.8064 -366.352 82.2564 -366.352 81.7063C-366.352 81.1563 -365.253 77.8561 -367.45 77.3061C-369.098 77.8561 -372.393 79.5062 -375.139 80.6063ZM-352.621 78.4061C-352.621 79.5062 -351.522 80.6063 -349.325 80.6063C-347.128 80.6063 -342.735 79.5062 -342.735 80.6063C-342.185 81.1563 -342.735 82.2564 -340.538 82.2564C-338.341 82.8064 -337.242 82.8064 -335.595 82.8064C-334.496 82.8064 -334.496 80.6063 -336.144 78.9562C-337.242 77.3061 -337.242 77.8561 -339.988 76.756C-342.735 76.206 -346.03 76.206 -348.227 76.206C-349.875 76.756 -352.072 76.206 -352.621 78.4061ZM-349.325 86.1066C-350.424 87.2067 -349.325 90.5069 -349.875 91.0569C-350.424 91.607 -349.875 92.707 -348.227 92.707C-347.128 92.157 -346.03 89.4068 -345.481 89.4068C-344.382 89.4068 -339.439 88.3068 -338.341 89.9569C-337.242 91.607 -337.242 91.0569 -335.045 91.0569C-332.848 91.0569 -330.651 88.8568 -330.651 87.7567C-330.651 87.2067 -331.75 85.5566 -335.045 85.5566C-338.341 85.5566 -347.678 85.0066 -349.325 86.1066ZM-343.284 94.3571C-344.382 94.9072 -343.833 97.6573 -342.185 97.6573C-340.538 97.6573 -337.242 96.5573 -336.693 97.6573C-336.144 98.7574 -335.045 103.158 -332.299 101.508C-329.553 99.8575 -329.553 98.7574 -328.455 98.7574C-327.356 98.7574 -328.455 94.9072 -330.102 94.3571C-331.201 93.8071 -335.595 93.8071 -336.693 94.3571C-337.792 94.9072 -341.087 93.2571 -343.284 94.3571ZM-324.061 96.0072C-324.061 96.5573 -322.413 97.1073 -320.216 97.1073C-318.019 96.5573 -314.724 96.5573 -313.625 96.5573C-311.978 96.5573 -311.978 93.8071 -313.625 93.8071C-315.273 93.8071 -316.371 92.157 -318.019 92.707C-319.667 92.707 -324.61 94.9072 -324.061 96.0072ZM-324.61 89.4068C-325.159 91.0569 -318.019 92.157 -318.568 89.9569C-319.667 87.7567 -323.511 87.2067 -324.61 89.4068ZM-323.511 80.6063C-325.708 80.0562 -329.004 79.5062 -329.004 78.9562C-329.004 78.4061 -330.102 81.1563 -327.905 82.2564C-326.258 82.8064 -322.962 84.4565 -320.765 85.5566C-318.568 86.1066 -314.175 86.6567 -313.076 88.3068C-311.978 89.9569 -307.035 91.0569 -307.035 91.0569L-301.542 91.607C-301.542 91.607 -297.698 91.0569 -293.853 91.0569C-290.008 91.607 -284.516 91.607 -281.221 91.607C-277.925 91.607 -277.376 90.5069 -277.376 89.9569C-276.827 89.4068 -283.418 87.7567 -284.516 88.3068H-304.838C-307.035 88.3068 -308.133 87.2067 -309.781 86.1066C-311.428 85.5566 -314.724 82.8064 -316.371 82.2564C-319.667 81.7063 -319.118 81.7063 -323.511 80.6063ZM-113.156 114.708C-113.705 115.808 -115.352 115.808 -113.705 118.009C-112.606 120.209 -111.508 121.309 -110.409 121.309C-109.311 121.309 -105.466 120.759 -104.917 122.409C-104.368 123.509 -103.269 124.609 -99.974 124.059C-97.2278 123.509 -95.0308 122.959 -93.9324 121.859C-93.3832 120.759 -88.9893 120.759 -88.9893 120.759C-88.9893 120.759 -85.1447 118.009 -86.7924 116.909C-87.8908 115.808 -91.1863 114.708 -92.834 114.708C-94.4817 114.708 -95.5801 115.808 -99.4247 115.808C-102.72 115.808 -104.917 116.909 -106.565 115.808C-107.114 114.708 -112.606 113.608 -113.156 114.708ZM-255.956 82.2564C-254.308 83.3564 -253.21 82.8064 -251.013 83.3564C-248.816 83.9065 -246.619 87.2067 -245.52 87.7567C-244.422 88.3068 -242.774 87.7567 -241.676 86.6566C-241.127 85.5566 -240.028 82.2564 -240.028 82.2564C-240.028 82.2564 -240.028 85.5566 -238.38 86.1066C-236.733 86.6567 -231.79 85.5566 -230.691 85.5566C-229.593 85.5566 -222.453 86.6567 -220.256 87.7567C-218.059 88.8568 -213.116 89.4068 -212.017 91.607C-210.37 93.8071 -210.37 100.958 -209.82 102.058C-209.271 102.608 -206.525 99.3074 -205.976 98.7574C-205.427 98.2074 -202.131 98.2074 -201.033 99.3074C-199.934 100.408 -197.737 103.158 -197.737 104.258C-197.737 105.358 -198.287 107.008 -199.385 106.458C-200.483 105.908 -201.582 105.908 -201.033 104.808C-200.483 103.708 -199.934 100.958 -201.582 100.958H-203.779C-203.779 100.958 -205.976 100.408 -207.623 102.608C-209.271 104.808 -208.173 107.558 -207.074 107.558C-205.976 107.558 -203.779 107.558 -203.779 108.108C-203.779 108.658 -206.525 110.858 -205.976 111.958C-205.976 113.058 -203.779 116.909 -203.23 118.009C-202.68 118.559 -199.385 119.659 -198.287 119.659C-197.188 119.659 -200.483 120.209 -199.934 121.309C-199.385 122.409 -197.737 125.159 -196.09 125.709C-194.442 126.259 -189.499 129.009 -188.95 130.659C-188.4 131.759 -184.556 129.559 -184.007 129.559C-183.457 129.559 -183.457 132.86 -181.26 132.86C-179.063 132.86 -178.514 132.31 -176.317 131.209C-174.67 129.559 -174.67 127.909 -174.67 126.259C-174.67 124.609 -174.67 123.509 -172.473 124.059C-170.276 124.609 -169.177 123.509 -169.726 121.859C-169.726 120.209 -171.374 118.009 -168.079 118.009C-164.783 117.459 -163.136 115.258 -160.939 115.258C-158.742 115.258 -153.249 115.808 -152.7 115.258C-152.151 114.708 -149.405 109.758 -147.757 109.208C-146.109 109.208 -141.716 109.758 -137.871 109.208C-134.026 108.658 -129.632 105.908 -127.985 106.458C-126.337 106.458 -123.042 106.458 -124.14 105.908C-125.239 104.808 -126.886 102.608 -129.083 102.608C-131.28 102.608 -131.829 97.6573 -131.28 97.6573C-130.731 97.6573 -125.239 99.3075 -125.239 100.958C-125.239 102.608 -124.14 104.808 -121.394 104.258C-118.099 103.708 -118.648 100.958 -119.197 100.408C-119.746 99.8575 -120.296 98.2074 -120.845 97.1073C-121.394 96.0072 -123.042 92.157 -119.746 92.157C-116.451 91.607 -110.409 95.4572 -110.409 92.707C-110.409 89.9569 -110.409 87.2067 -109.311 86.1066C-108.212 84.4565 -106.565 83.9065 -107.663 83.3564C-108.762 82.8064 -109.86 83.9065 -110.959 81.7063C-112.057 79.5062 -109.86 77.3061 -108.762 76.756C-107.663 75.656 -101.072 69.6056 -97.777 68.5055C-94.4816 67.4054 -91.7355 63.5552 -94.4816 63.0052C-96.6786 62.4551 -101.622 60.805 -104.917 63.5552C-108.212 66.3054 -109.86 68.5055 -113.705 67.9555C-117.549 67.4054 -118.099 63.0052 -120.296 60.805C-123.591 57.5048 -121.394 51.4544 -124.689 52.0045L-127.985 52.5545C-127.985 52.5545 -131.829 52.0045 -134.026 52.5545C-137.322 53.1045 -138.969 54.7546 -140.617 54.7546C-143.913 54.2046 -147.208 55.8547 -147.757 55.8547C-155.446 57.5048 -161.488 55.3047 -162.586 55.3047C-163.685 55.3047 -157.094 55.8547 -152.7 55.3047C-148.856 54.7546 -142.814 53.6546 -140.068 53.1045C-137.322 50.9044 -139.519 49.8043 -140.617 49.8043C-144.462 49.2543 -150.503 47.6042 -154.897 47.6042C-158.742 47.6042 -160.939 48.7043 -164.783 48.7043C-169.177 48.7043 -175.219 48.7043 -178.514 50.9044C-181.81 52.5545 -185.654 53.1045 -186.203 53.1045C-187.851 55.3047 -189.499 59.705 -191.146 58.6049C-192.794 56.9548 -193.343 53.6546 -195.54 55.3047C-197.737 56.4047 -195.54 59.705 -197.737 61.9051C-199.385 64.1052 -204.877 64.1052 -206.525 63.0052C-208.173 62.4551 -209.82 61.3551 -215.862 61.9051C-221.904 62.4551 -228.494 64.1052 -227.396 66.3054C-225.748 68.5055 -230.142 69.6056 -231.24 68.5055C-232.339 67.4054 -237.282 69.6056 -236.733 71.8057C-236.184 74.0059 -237.282 76.206 -240.028 75.656C-242.774 75.1059 -244.422 76.756 -244.422 78.4061C-244.422 80.0562 -250.464 81.1563 -251.013 81.1563C-251.013 80.6063 -258.702 80.6063 -255.956 82.2564ZM-290.008 240.116C-290.008 242.316 -287.811 241.766 -284.516 241.766C-281.77 241.766 -276.278 241.216 -275.179 242.316C-274.081 243.417 -269.687 245.617 -268.588 246.717C-267.49 247.817 -263.096 247.817 -263.096 246.717C-263.096 245.617 -265.842 242.867 -267.49 243.417C-269.137 243.417 -272.982 241.766 -275.179 240.116C-277.376 238.466 -281.221 238.466 -282.319 238.466C-283.967 238.466 -290.008 240.116 -290.008 240.116ZM-271.884 233.516C-274.081 233.516 -273.531 236.266 -270.785 235.716C-268.039 235.166 -269.687 232.966 -271.884 233.516ZM-270.785 253.317C-272.982 253.867 -272.433 258.267 -269.687 257.167C-266.941 256.617 -268.588 253.317 -270.785 253.317ZM-237.282 250.567C-239.479 251.117 -238.93 255.517 -236.184 254.417C-233.437 253.867 -235.085 250.567 -237.282 250.567ZM-260.35 251.667C-260.35 251.667 -257.604 252.217 -255.956 252.217C-254.308 252.217 -253.21 253.317 -251.562 253.867C-249.914 254.417 -247.168 252.767 -246.07 252.767C-244.971 252.767 -243.873 255.517 -243.324 252.767C-243.324 249.467 -246.07 248.367 -248.267 247.817C-250.464 247.267 -252.661 247.817 -254.308 247.817C-255.956 248.367 -260.35 251.667 -260.35 251.667ZM-49.9938 204.364C-48.8953 203.814 -45.0507 202.714 -42.8538 201.614C-40.6569 200.514 -33.5169 198.314 -32.4184 198.314C-31.3199 198.314 -18.6876 198.314 -17.0399 197.764C-15.3922 197.214 -8.25215 196.114 -6.60445 201.614C-4.40752 207.114 -8.80142 204.914 -10.9984 206.014C-13.1953 207.114 -10.4491 209.314 -9.35061 209.314C-8.25215 209.314 -4.95677 212.615 -3.30907 212.615C-1.66138 212.615 2.73247 214.265 2.73247 214.265C2.73247 214.265 7.12634 217.565 9.32327 217.565C11.5202 217.565 15.3648 221.415 18.111 218.665C20.8571 216.465 21.9556 210.964 24.1525 211.515C26.8987 212.065 29.6448 213.715 32.9402 213.715C36.2356 213.715 42.2772 213.165 43.3757 214.265C44.4741 215.365 36.7849 219.765 37.3341 220.865C37.8834 221.965 38.9818 221.415 41.1787 218.665C43.9249 215.915 47.2203 215.915 50.5157 214.815C53.2618 214.265 54.9095 218.665 55.4587 220.315C56.008 221.965 58.2049 224.715 59.8526 227.466C61.5003 230.766 63.148 235.166 65.3449 238.466C67.5419 241.766 65.345 248.917 66.9927 251.117C69.1896 253.317 74.1327 254.967 75.7804 258.267C76.8788 261.018 80.1742 264.318 81.2727 264.318C82.3712 264.318 86.765 270.368 86.765 271.468C86.765 273.118 85.1173 275.869 89.5112 276.419C93.3558 276.419 97.2004 274.769 98.2989 274.218C99.3974 273.668 109.284 269.818 110.382 271.468C111.48 273.118 108.734 279.169 108.185 280.819C108.185 282.469 100.496 290.72 100.496 292.92C100.496 295.12 96.1019 298.97 93.3558 299.52C90.6096 300.07 84.568 306.671 82.9203 308.871C80.7234 311.071 77.428 316.021 76.3296 316.571C74.6819 317.121 73.5834 323.722 74.6819 324.272C75.2311 325.372 75.7804 329.772 77.9773 331.422C80.1742 333.622 80.7235 334.722 80.1742 336.372C79.0758 338.023 80.7235 341.873 80.1742 345.173C79.625 348.473 75.2311 351.223 74.1326 352.323C73.0342 353.423 68.0911 356.174 66.4434 358.374C64.2465 360.574 62.5988 362.774 63.148 364.424C63.6973 365.524 65.8942 371.575 65.3449 373.225C65.3449 374.875 58.2049 375.425 56.5572 376.525C54.3603 377.625 57.6557 380.375 58.2049 382.575C58.7541 384.775 54.9095 387.526 52.7126 389.176C51.0649 390.826 46.1218 396.876 42.8265 399.076C39.5311 401.277 34.588 400.726 31.8418 400.726C28.5464 400.726 23.054 402.927 21.9556 404.027C20.8571 405.127 19.2094 405.127 16.4633 404.027C13.7171 402.927 13.7171 401.277 13.7171 398.526C13.7171 395.776 12.6186 394.126 12.6186 394.126C12.6186 394.126 12.0694 389.726 9.87248 388.076C7.67555 385.876 7.12633 383.675 5.47863 382.575C4.38017 380.925 7.67558 377.075 7.67558 374.325C7.67558 371.575 3.28169 368.274 1.63399 366.624C0.535526 364.974 -2.21061 360.024 -3.30907 358.374C-4.40754 356.724 -5.50603 353.423 -5.50603 348.473C-5.50603 343.523 -2.75984 340.773 -0.56291 339.123C1.63402 337.472 0.535524 335.822 -1.11217 333.072C-2.75987 330.322 -1.11218 325.372 -2.21065 323.722C-3.85835 322.072 -6.05524 312.721 -8.8014 311.071C-11.5476 309.421 -14.2938 309.421 -13.1953 306.12C-11.5476 302.82 -13.1953 299.52 -10.4491 297.32C-7.70298 295.12 -9.35062 293.47 -12.0968 292.37C-14.8429 290.72 -13.7445 290.17 -15.9415 291.82C-18.1384 293.47 -21.4337 294.57 -23.0814 292.92C-24.7291 291.27 -24.1799 288.519 -27.4753 286.319C-30.7707 284.119 -35.7138 285.219 -37.3615 285.769C-38.4599 286.319 -41.2061 290.72 -44.5015 290.72C-47.7969 291.27 -50.5431 290.72 -53.8385 290.72C-57.1338 290.72 -60.4292 290.72 -60.9785 292.92C-61.5277 294.57 -62.0769 295.67 -64.2738 294.02C-66.4708 292.37 -70.8646 288.519 -70.8646 288.519C-70.8646 288.519 -75.2585 281.919 -76.357 278.619C-77.4554 275.869 -81.8493 275.869 -86.7924 273.668C-91.7355 271.468 -88.9893 269.268 -89.5385 266.518C-90.0878 264.318 -92.2847 263.218 -91.1863 262.668C-90.0878 262.668 -90.0878 260.468 -87.3416 257.167C-84.5955 253.867 -86.2431 250.017 -86.7924 248.367C-87.3416 246.167 -89.5386 243.417 -87.3416 240.116C-84.5955 236.816 -83.497 229.666 -81.3 227.466C-79.1031 225.265 -73.0615 223.615 -70.3154 222.515C-67.5692 221.415 -69.2169 218.115 -67.5692 214.265C-65.9215 210.414 -63.7247 208.764 -63.1754 208.764C-62.6262 208.764 -59.88 206.014 -56.5846 204.364C-56.0354 203.264 -51.0923 204.364 -49.9938 204.364ZM59.8526 304.47C59.3034 303.37 54.9095 303.92 53.8111 305.02C53.2618 306.121 52.1634 311.621 54.3603 312.171C57.1065 312.721 60.9511 306.121 59.8526 304.47ZM105.439 340.223C102.144 339.123 102.143 343.523 99.3973 346.273C96.6512 349.023 93.905 351.223 93.3558 350.673C92.2573 350.673 86.765 352.323 88.4127 356.174C90.0604 360.024 90.0604 363.324 88.4127 364.974C86.765 366.624 90.0604 371.575 89.5112 374.325C88.962 377.075 90.0604 378.725 93.905 378.725C97.2004 378.725 98.8481 377.625 99.9466 374.325C101.594 371.025 101.594 367.724 103.242 365.524C104.89 362.774 105.988 357.274 106.537 355.624C107.087 353.974 108.734 349.573 108.734 346.823C108.185 344.073 107.636 340.773 105.439 340.223ZM196.611 277.519C194.964 278.069 193.316 290.169 196.062 290.72C198.808 291.82 201.005 283.569 199.907 282.469C199.358 281.369 199.358 276.419 196.611 277.519ZM-14.8429 186.763C-17.0399 186.763 -18.1384 190.613 -17.0399 191.713C-15.3922 192.813 -13.7445 192.813 -12.646 191.163C-10.9983 189.513 -13.1952 186.763 -14.8429 186.763ZM-33.5169 190.613C-34.0661 191.713 -31.3199 191.713 -30.7707 190.613C-30.7707 190.063 -31.8692 187.863 -33.5169 190.613ZM-3.85834 195.013C-4.9568 195.564 -2.21064 197.214 -1.11217 197.764C-0.0137086 198.314 1.08479 199.964 2.18325 199.964C3.28172 199.964 6.5771 199.964 5.47863 197.764C4.38017 195.564 2.18322 195.564 1.63399 195.564C0.535526 195.013 -2.75987 193.913 -3.85834 195.013ZM-63.7246 145.51C-65.9216 146.06 -66.4708 148.261 -67.5692 148.261C-69.2169 148.261 -70.8646 148.811 -70.3154 150.461C-69.7662 152.111 -68.6677 153.211 -70.3154 154.311C-71.9631 154.861 -70.3155 158.161 -68.1185 158.161C-65.9216 158.161 -63.7246 157.061 -62.0769 155.961C-60.4292 155.411 -57.6831 153.761 -57.6831 151.561C-57.6831 149.361 -58.2323 147.16 -59.3308 146.61C-60.4292 145.51 -62.6262 145.51 -63.7246 145.51ZM-60.9785 138.36C-63.1754 138.91 -62.0769 141.66 -60.9785 142.76C-59.88 143.86 -58.2323 146.61 -55.4861 147.71C-52.74 148.811 -47.7969 149.911 -49.4446 150.461C-51.6415 151.561 -57.1339 155.961 -57.6831 157.611C-58.2323 159.261 -51.0923 158.161 -51.0923 158.161C-51.0923 158.161 -52.74 159.811 -51.0923 160.361C-49.9938 160.911 -48.8953 158.711 -47.2476 158.711C-45.0507 158.711 -41.2061 159.811 -39.0092 159.811C-36.8123 159.811 -33.5169 157.061 -34.0661 155.411C-34.0661 153.761 -36.8123 151.011 -39.0092 149.911C-41.2061 148.811 -43.9523 144.41 -45.0507 143.31C-46.6984 142.21 -39.5584 138.91 -41.2061 137.26C-44.5015 136.71 -49.9939 137.81 -51.6416 136.16C-53.8385 135.06 -55.4862 136.16 -56.5846 137.81C-58.2323 139.46 -59.88 137.81 -60.9785 138.36ZM-44.5015 172.462C-44.5015 170.262 -49.9938 168.062 -53.2892 168.062C-56.5846 167.512 -56.0354 165.862 -52.74 165.862C-49.4446 165.862 -49.4446 164.212 -46.6984 163.662C-43.9523 163.111 -40.6569 162.561 -38.4599 162.011C-36.263 162.011 -36.263 159.811 -36.263 158.161C-36.263 156.511 -30.2215 155.961 -30.2215 155.961C-30.2215 155.961 -26.9261 152.661 -24.7292 151.561C-22.5322 149.911 -19.2368 150.461 -16.4907 151.011C-13.7445 151.561 -16.4906 149.361 -17.5891 148.261C-18.6876 147.16 -17.5891 144.41 -17.0399 142.76C-16.4907 141.11 -11.5476 140.56 -10.4491 141.11C-9.35068 141.66 -10.4491 143.86 -10.4491 145.51C-10.4491 147.711 -8.25219 148.811 -8.25219 148.811H-2.75986C0.535532 148.811 0.535518 148.811 3.28168 148.261C6.02784 147.71 7.67554 148.261 8.77401 147.71C9.87247 147.16 12.6187 147.16 16.4633 148.261C20.3079 149.361 18.111 146.06 19.2095 143.86C19.7587 141.66 21.4064 138.36 24.1525 138.91C26.8987 138.91 28.5464 140.56 30.7433 139.46C32.9402 138.36 26.8987 136.71 26.8987 135.61C26.8987 135.06 31.8418 135.06 35.6864 134.51C40.0802 134.51 42.2772 134.51 44.4741 133.96C46.671 133.41 42.8264 130.109 42.2772 130.109C41.728 130.109 36.2357 130.659 34.0387 130.109C31.2926 130.109 28.5464 131.759 26.3495 132.31C24.1525 132.86 23.6033 129.559 22.5048 127.909C21.4064 126.259 20.8571 123.509 24.1525 122.409C27.4479 120.759 32.9403 118.009 34.0387 116.359C35.1372 114.708 30.1941 115.258 25.251 115.258C20.3079 115.258 25.8002 116.909 21.4064 121.309C17.0125 125.709 14.8156 122.959 10.971 125.709C7.67557 128.459 9.87247 129.009 13.1679 130.109C16.4633 131.209 13.7171 133.96 13.1679 134.51C12.6186 135.06 8.77404 137.81 9.32327 140.01C9.8725 142.21 6.57711 143.31 6.57711 143.31C6.57711 143.31 -2.75985 145.51 -4.40755 145.51C-6.05525 145.51 -6.60447 144.41 -6.05524 142.76C-5.50601 141.11 -8.25219 137.81 -8.25219 135.61C-8.25219 133.41 -12.0968 136.71 -12.646 137.81C-12.646 139.46 -17.5891 139.46 -20.3353 138.36C-23.0814 137.26 -24.7291 133.96 -24.1799 132.86C-23.6307 132.31 -25.8276 128.459 -25.8276 127.359C-25.8276 126.259 -19.7861 119.109 -15.3922 118.559C-10.4491 117.459 -4.95678 115.258 -1.66139 112.508C1.63401 110.308 3.28169 107.008 4.38015 106.458C5.47862 105.908 22.5048 97.6573 29.0956 96.5573C35.1372 95.4572 49.4172 101.508 51.6142 102.058C53.8111 102.608 54.9095 103.158 60.4019 105.358C65.8942 107.558 71.3865 105.358 74.6819 105.908C77.9773 106.458 80.1742 109.758 82.3711 110.308C84.568 111.408 82.3711 111.958 76.8788 113.608C71.3865 115.258 67.5419 114.708 64.7957 113.608C61.5003 112.508 59.8526 112.508 62.0495 114.158C64.2465 115.808 63.6972 116.359 63.6972 118.559C63.6972 120.759 67.5419 118.559 68.0911 118.559C68.6403 118.009 68.6403 116.909 71.3865 118.559C74.1326 120.209 75.2311 119.109 76.3296 119.109C77.428 119.109 76.3296 116.359 77.4281 115.258C77.9773 114.158 81.2727 114.158 81.8219 113.608C82.3711 113.058 84.568 112.508 85.6665 111.958C87.3142 111.958 86.765 114.158 88.4127 114.708C90.0604 115.258 88.9619 111.408 88.4127 110.308C87.8634 109.208 87.3142 106.458 88.4127 105.908C88.9619 105.358 94.4543 104.808 95.5527 105.908C96.6512 107.008 93.3558 109.758 94.4543 111.408C95.0035 113.058 97.2004 110.308 98.2989 109.208C99.3974 107.558 102.144 109.208 107.087 108.658C111.48 108.108 110.382 105.358 115.325 107.008C120.268 108.658 118.62 108.658 120.268 107.008C121.916 105.358 124.662 107.008 127.408 106.458C130.154 105.358 130.154 106.458 132.351 107.558C134.548 108.658 136.745 105.358 137.844 104.808C138.942 103.708 142.787 103.708 144.984 104.258C147.181 104.258 149.377 105.908 151.574 105.908C153.771 105.908 157.067 107.558 157.067 107.558C157.067 107.558 161.461 109.208 162.559 108.108C163.658 107.008 162.559 105.908 158.714 104.258C154.87 102.608 156.517 99.8575 158.714 99.3074C160.911 99.3074 160.911 97.6573 162.559 97.1073C164.207 96.0072 166.404 92.707 168.601 93.2571C170.798 93.8071 172.445 95.4572 174.642 96.5573C177.388 97.6573 174.642 99.3075 174.642 100.958C174.093 102.058 175.191 107.008 175.741 107.558C176.29 108.108 175.191 110.858 172.994 111.958C170.798 113.058 168.051 115.808 169.15 116.359C169.699 116.909 175.741 114.158 175.741 114.158C175.741 114.158 179.585 109.758 181.233 108.658C182.881 107.558 184.528 107.558 185.078 108.658C185.627 110.308 188.373 110.858 191.119 109.758C193.865 108.658 191.119 108.108 191.119 105.908C191.119 103.708 186.725 104.808 184.528 105.358C182.331 105.908 180.684 108.108 179.585 108.108C179.036 108.108 179.036 106.458 179.585 104.258C180.135 102.058 178.487 100.958 178.487 99.8575C178.487 98.7574 179.036 98.7574 181.233 96.0072C182.881 93.8071 182.881 97.6573 183.43 99.8575C183.43 102.058 185.627 100.958 186.725 100.958C188.373 100.958 187.275 97.6573 188.922 96.5573C190.021 94.9072 192.767 94.9072 195.513 97.1073C198.259 99.3074 197.71 98.7574 201.005 99.3074C203.751 100.408 204.301 100.408 204.301 102.608C204.301 104.808 206.498 104.808 207.596 104.258C208.695 103.708 207.596 100.408 207.047 99.8575C206.498 98.7574 200.456 97.1073 198.259 95.4572C196.062 93.8071 199.358 93.8071 201.555 93.8071H208.145C208.145 93.8071 213.088 92.707 215.285 91.0569C218.032 89.4068 219.679 89.4068 221.876 88.3068C224.622 87.2067 228.467 87.2067 230.664 87.7567C233.41 88.3068 235.058 86.6567 237.255 85.5566C240.001 84.4565 243.296 78.4061 243.296 84.4565C243.296 85.0065 250.436 86.6567 251.535 86.1066C252.633 86.1066 254.83 85.5566 258.675 83.9065C265.815 80.0562 259.773 78.4061 262.519 81.7063C263.618 82.8064 266.364 80.6063 271.856 82.8064C277.349 85.0065 271.856 82.8064 273.504 84.4565C275.152 86.1066 275.701 84.4565 279.546 83.9065C282.841 83.3564 285.587 83.9065 287.784 83.9065C289.981 83.9065 294.924 83.9065 297.121 85.5566C299.318 87.2067 295.473 89.9569 294.375 91.0569C293.276 92.157 296.572 92.707 297.121 92.707C298.219 92.707 306.458 92.707 310.303 93.2571C314.147 93.8071 315.795 95.4572 317.442 95.4572C319.09 95.4572 321.836 94.9072 322.935 93.8071C324.033 92.707 330.075 92.157 332.272 92.157C334.469 92.157 339.961 92.157 340.51 92.707C341.06 93.2571 342.158 95.4572 342.158 97.6573C342.158 99.8575 344.355 101.508 346.003 101.508C347.65 101.508 350.946 98.7574 352.044 98.2074C353.143 97.6573 354.79 100.408 355.34 99.8575C355.889 99.3074 362.48 99.8575 364.676 98.7574C367.423 97.6573 368.521 98.7574 370.169 98.2074C371.267 97.6573 373.464 94.9072 373.464 93.8071C373.464 92.707 374.563 92.157 373.464 90.5069C372.366 88.8568 369.07 89.9569 365.226 88.8568C361.381 87.7567 365.226 82.8064 366.324 85.5566C366.873 87.2067 370.169 85.5566 372.915 86.1066C375.661 86.6567 374.563 85.5566 375.661 85.5566C376.76 85.5566 381.703 86.6566 383.9 86.6566C386.646 86.6566 388.293 89.4068 388.293 89.4068C388.293 89.4068 381.153 91.607 379.506 91.607C377.858 91.607 378.957 93.8071 380.055 93.8071C381.154 93.8071 382.801 94.3571 384.998 96.0072C386.646 97.1073 394.335 96.0072 395.434 96.0072C396.532 96.0072 399.278 97.1073 402.574 98.7574C405.32 100.408 407.517 100.958 407.517 100.958C407.517 100.958 411.91 100.958 416.304 100.408C420.698 99.8575 426.19 99.8575 427.289 100.408C428.387 100.958 431.134 102.058 433.331 103.708C435.527 105.358 436.626 104.808 439.372 104.258C442.118 104.258 444.864 103.708 447.611 103.708C450.357 103.708 458.595 103.708 459.694 105.908C461.341 108.108 462.989 107.558 462.989 107.558C462.989 107.558 465.186 103.708 466.285 103.158C467.383 102.608 470.678 103.708 472.326 104.808C474.523 105.908 483.86 104.808 486.606 105.358C489.352 105.908 492.648 108.108 490.451 110.308C488.254 112.508 492.098 115.808 491 117.459C490.451 119.659 488.254 119.659 486.057 120.209C483.86 120.759 488.254 122.959 489.902 124.609C491.549 126.259 488.803 126.809 487.155 126.259C485.508 125.709 481.114 126.259 475.072 127.909C469.031 129.559 466.834 132.31 460.792 132.31H449.808C442.118 132.31 442.667 134.51 441.02 136.71C439.372 138.91 441.569 138.91 441.02 140.56C440.47 142.76 438.823 144.96 438.823 146.61C438.823 148.261 434.429 148.811 432.781 149.911C431.134 151.561 428.937 154.861 424.543 157.611C420.149 160.361 417.403 164.212 417.403 164.212C417.403 164.212 417.952 159.811 420.149 157.061C422.346 154.311 417.952 149.911 417.403 146.61C417.403 143.31 418.501 142.21 421.247 139.46C423.994 136.71 430.035 135.61 432.232 133.96C434.978 132.31 444.864 125.709 444.864 125.709L440.471 127.909C437.724 129.009 434.978 130.659 432.781 130.659C430.584 130.659 431.683 128.459 431.134 126.809C431.134 124.609 426.191 126.259 424.543 128.459C422.895 130.659 419.6 131.759 415.755 133.96C412.46 136.16 413.009 136.16 410.812 136.16C408.615 136.16 404.77 135.06 403.123 133.96C401.475 132.86 399.827 135.06 394.335 135.06C388.843 135.06 382.252 134.51 380.055 135.06C377.309 135.06 371.267 142.21 367.423 143.31C363.578 144.41 358.635 146.61 360.283 148.261C361.381 149.911 363.578 146.61 364.676 146.61C365.775 146.61 364.127 149.911 366.324 149.911C368.521 149.911 369.62 148.811 372.366 148.261C374.563 148.261 376.21 149.911 376.76 152.661C377.309 155.411 375.661 157.611 374.563 160.911C373.464 164.212 371.817 167.512 367.972 170.812C364.127 173.562 357.536 179.062 355.889 180.713C354.79 182.363 349.847 180.713 349.298 180.163C348.749 179.062 346.552 182.363 344.355 182.913C342.707 183.463 341.059 185.113 341.059 187.313C341.059 189.513 336.116 189.513 336.116 190.613C336.116 191.713 338.863 195.013 340.51 197.214C341.609 198.864 340.51 204.364 337.764 205.464C335.567 206.564 334.469 208.214 331.723 206.564C328.976 204.914 331.173 203.814 332.272 201.064C333.37 198.314 331.173 196.664 330.624 196.114C330.075 195.564 327.878 197.764 327.329 197.764C326.23 197.764 326.23 195.564 327.329 193.913C327.878 192.263 326.78 189.513 326.23 188.963C325.681 188.963 320.738 192.813 318.541 192.263C316.344 192.263 318.541 187.863 319.09 186.213C319.639 185.113 317.443 186.213 316.344 187.313C314.696 188.413 311.401 191.163 310.303 191.163C309.204 191.163 306.458 193.363 308.655 194.463C310.852 196.114 311.401 197.214 312.499 197.214C313.598 197.214 316.893 196.664 318.541 196.664C319.639 196.664 322.386 198.314 319.639 200.514C316.893 202.714 311.95 202.714 313.049 204.364C314.147 206.014 316.344 208.214 318.541 211.515C320.738 214.815 319.639 218.665 320.189 221.415C320.738 224.165 313.049 229.666 310.852 231.316C308.655 232.966 306.458 237.366 302.613 239.016C298.769 241.216 290.53 242.867 289.432 241.766C288.333 241.216 284.489 242.867 285.038 245.617C285.038 248.367 287.235 247.817 287.235 248.917C287.235 249.467 284.489 252.767 283.939 253.867C282.841 254.967 279.546 253.867 280.095 250.017C280.644 246.167 282.841 245.067 282.841 243.417C282.841 241.766 280.095 240.666 278.996 242.316C277.349 243.967 272.955 247.817 272.955 247.817C272.955 247.817 274.602 252.217 276.799 253.867C278.996 255.517 280.644 258.267 283.39 261.568C286.136 265.418 283.939 268.168 283.39 270.918C282.841 273.668 280.095 273.668 277.898 274.218C275.701 274.769 275.152 275.319 274.602 276.969C274.053 278.619 270.209 285.219 269.659 284.119C269.11 283.019 265.815 274.769 265.815 274.769C265.815 274.769 263.618 270.368 260.322 268.168C257.027 265.968 255.929 264.868 255.929 267.068C255.929 269.268 253.732 273.118 253.732 274.769C253.732 276.419 249.338 270.368 249.338 268.168C249.338 265.968 248.788 261.568 248.788 257.717C248.788 253.867 243.296 257.717 243.296 257.717C243.296 257.717 238.902 266.518 237.804 266.518C236.705 266.518 237.804 258.267 237.804 255.517C237.804 252.767 236.705 250.017 235.607 248.917C235.058 247.817 230.664 243.967 229.565 241.216C229.016 238.466 227.368 239.566 225.721 241.216C224.073 242.867 224.622 242.867 218.581 242.867C212.539 242.867 212.539 246.717 209.793 248.917C207.047 251.117 204.301 255.517 201.005 256.617C197.71 258.267 196.062 259.368 196.062 261.018C196.062 262.668 197.71 268.168 196.611 270.918C196.062 273.118 193.865 275.319 192.218 278.069C190.57 280.269 188.922 284.669 187.274 284.669C185.627 284.669 185.078 281.369 185.078 279.169C185.078 276.969 180.684 272.018 179.585 270.368C178.487 268.718 174.642 261.018 174.642 261.018C174.642 261.018 171.896 252.767 171.896 250.567V242.316C171.896 242.316 168.051 246.167 165.854 246.167C164.207 246.167 162.559 243.417 162.559 240.116C162.559 236.816 159.813 237.366 157.616 236.816C155.968 236.266 153.771 231.866 152.124 231.866C151.025 231.866 149.927 231.866 149.377 233.516C148.279 235.166 143.336 234.616 141.688 234.616C140.59 234.616 132.901 234.616 130.704 233.516C128.507 232.966 125.761 228.566 124.662 228.016C123.564 227.466 119.719 230.766 118.071 230.216C116.424 229.666 113.677 227.466 110.382 225.815C107.087 224.165 105.988 220.865 104.89 218.665C103.791 216.465 99.3973 219.765 99.9466 222.515C100.496 224.715 105.988 228.016 105.988 229.666C105.988 231.316 107.087 231.866 109.833 234.066C112.579 236.266 110.382 237.366 112.03 237.916C113.677 238.466 116.424 235.716 118.62 234.616C121.367 233.516 120.817 231.866 121.916 231.866C123.014 231.866 123.014 235.166 124.662 235.166C126.859 235.166 131.802 238.466 133.45 240.116C134.548 242.316 132.351 243.417 131.253 245.067C130.154 246.717 127.408 251.667 124.662 253.867C121.916 256.067 119.17 258.267 115.874 259.368C112.03 259.918 111.48 262.118 108.734 262.118C105.988 262.118 97.2004 266.518 96.1019 267.068C95.0035 267.618 87.8635 269.818 86.2158 269.268C84.0188 268.718 83.4696 263.768 82.9203 259.918C82.3711 256.067 81.2727 254.417 80.1742 252.767C79.625 251.117 74.6819 247.267 74.1326 246.717C73.0342 246.167 70.8373 240.116 70.288 237.916C70.288 235.716 67.5419 236.266 66.9927 233.516C66.4434 230.766 63.6973 226.916 63.148 225.265C62.5988 223.615 57.6557 225.265 55.4587 225.815C53.2618 225.815 49.4172 224.165 49.9664 220.315C50.5156 216.465 52.7126 216.465 54.9095 216.465C57.6557 216.465 56.5572 215.365 58.7542 212.615C61.5003 210.414 62.0495 205.464 62.0495 202.164C62.0495 198.864 60.4018 200.514 58.2049 201.064C56.008 201.614 53.2618 202.164 52.1634 202.164C51.0649 202.164 47.2203 200.514 46.1218 201.614C45.5726 202.164 41.1788 201.614 40.0803 200.514C38.9818 199.414 34.0387 197.764 33.4894 196.664C32.9402 195.564 33.4895 190.063 32.391 188.413C31.2925 186.763 29.0956 188.413 27.9972 189.513C26.8987 190.613 23.0541 191.163 24.1525 191.713C25.251 192.263 28.5464 193.913 27.9972 196.114C27.9972 198.314 25.251 198.314 24.1525 199.414C23.0541 200.514 18.111 204.364 17.5618 203.264C17.0125 202.164 16.4633 194.463 15.3648 193.363C14.8156 192.263 12.6186 190.063 11.5202 187.863C10.9709 185.663 8.22477 185.113 6.02784 183.463C4.38015 181.813 -0.562932 179.062 -2.75986 177.412C-4.95679 175.212 -8.25217 174.112 -8.8014 176.312C-8.8014 178.512 -5.50603 179.062 -3.85834 181.813C-2.21064 184.013 1.08477 185.663 2.73247 186.213C4.38016 186.763 9.32327 190.063 9.32327 190.063C9.32327 190.063 7.12633 190.613 5.47863 190.613C3.83093 190.613 6.57708 196.114 6.02784 197.764C6.02784 199.414 2.73249 197.214 2.18325 195.013C1.63402 192.813 -0.0136774 190.613 -0.56291 190.063C-1.66137 189.513 -8.25215 187.313 -9.35061 186.763C-10.4491 186.213 -14.843 183.463 -15.3922 181.263C-15.9414 179.062 -19.786 179.062 -20.8845 179.062C-21.9829 179.613 -25.8276 182.363 -27.4753 182.363C-29.123 182.363 -31.8692 181.263 -34.0661 180.713C-36.263 180.713 -36.263 184.013 -36.8123 185.663C-37.3615 187.863 -40.6569 186.213 -42.8538 187.863C-44.5015 189.513 -47.7969 191.163 -46.6984 192.813C-46.1492 194.463 -44.5015 194.463 -46.6984 195.564C-48.8954 196.664 -49.9938 199.414 -52.74 199.414C-54.9369 199.414 -58.2323 200.514 -59.3308 199.964C-60.4292 199.414 -61.5277 202.164 -62.0769 203.264C-62.6262 203.814 -64.2739 201.064 -65.3724 199.964C-66.4708 198.864 -69.7662 199.964 -70.8646 199.414C-71.9631 199.414 -73.0616 197.214 -74.1601 196.114C-75.2585 195.013 -75.2585 192.813 -74.1601 192.263C-73.0616 191.713 -71.9631 190.063 -73.0615 187.863C-73.6108 185.663 -74.1601 180.713 -71.9631 179.613C-69.217 178.512 -63.1754 179.613 -60.4293 179.613C-57.6831 179.613 -52.1908 180.713 -51.6416 179.062C-45.0508 176.862 -44.5015 174.662 -44.5015 172.462ZM49.9664 129.559C48.868 131.759 56.008 133.96 57.1065 131.759C58.2049 130.109 51.6141 125.709 49.9664 129.559ZM41.7279 188.413C42.2772 189.513 44.4741 186.763 46.671 186.763C48.868 186.763 53.2619 187.313 54.3603 185.663C55.4588 184.013 59.8526 183.463 63.148 184.013C66.4434 184.563 69.1895 186.763 71.3865 186.763C73.5834 186.763 79.625 186.763 81.8219 186.213C84.0188 185.663 83.4696 182.363 80.1742 180.713C76.8788 179.062 74.1326 176.312 71.3865 175.212C68.6403 174.112 67.5419 173.012 69.1896 173.012C70.8373 172.462 73.0342 170.812 70.8373 170.812C68.0911 170.812 65.8942 171.362 65.8942 173.012C65.8942 174.112 64.2465 175.762 63.148 176.312C62.0496 176.862 59.8526 178.512 58.7542 177.412C58.2049 175.762 55.4588 171.362 53.8111 171.362C52.7126 171.362 50.5157 171.362 48.868 173.562C47.2203 175.762 45.5726 178.512 43.9249 179.613C42.2772 180.713 40.6295 183.463 41.7279 184.013C43.3756 184.013 41.7279 188.413 41.7279 188.413ZM99.3973 171.362C96.1019 173.562 95.5527 175.762 96.6512 177.962C97.7496 179.613 101.594 185.113 103.242 185.663C104.89 186.213 111.48 187.313 108.734 189.513C105.988 191.713 105.988 192.263 103.242 192.263C101.045 192.263 102.144 198.314 103.791 198.864C105.439 199.414 110.931 201.064 112.579 201.064C114.227 201.064 120.268 200.514 119.719 198.864C119.719 197.214 118.62 191.713 116.424 190.063C114.227 188.413 119.17 187.313 118.071 185.663C116.973 184.563 115.325 185.113 114.227 183.463C113.128 181.813 112.579 180.713 111.48 179.613C109.833 178.512 108.734 180.713 108.734 177.962C108.734 175.212 112.579 173.562 114.227 175.212C115.874 176.862 120.268 175.762 121.367 175.212C122.465 174.662 119.17 172.462 118.62 170.812C118.071 169.162 112.579 168.062 112.03 168.612C111.48 169.162 109.284 170.812 107.087 171.912C104.89 172.462 100.496 170.262 99.3973 171.362ZM127.957 102.058C126.31 103.708 121.916 103.158 119.17 102.058C116.424 100.408 113.128 100.408 111.48 99.8575C109.833 99.3074 111.48 96.5573 113.677 95.4572C115.325 94.9072 120.268 92.707 123.564 91.0569C126.859 89.4068 127.957 86.6566 130.704 86.6566C133.45 86.6566 145.533 84.4565 146.631 84.4565C148.279 85.0065 155.419 85.5566 157.067 83.3564C158.714 81.1563 163.658 82.8064 162.559 84.4565C161.461 86.1066 156.518 89.9569 153.771 89.4068C151.025 88.8568 142.237 88.8568 138.393 89.4068C134.548 89.9569 131.253 92.157 127.957 93.8071C124.662 95.4572 125.211 97.6573 126.859 97.6573C128.507 98.2074 129.605 100.958 127.957 102.058ZM382.252 151.011C380.604 151.561 376.21 150.461 377.858 153.761C379.506 157.061 379.506 159.811 379.506 162.011C379.506 164.762 379.506 170.262 380.055 170.812C380.604 171.362 382.801 173.012 383.9 173.012C384.998 172.462 383.35 167.512 383.35 166.412C383.35 165.312 384.998 164.212 386.097 163.662C387.195 163.662 386.097 159.261 384.998 157.611C383.9 155.961 382.252 154.861 382.801 154.861C383.9 154.861 384.998 152.661 384.449 152.111C383.35 152.111 383.9 150.461 382.252 151.011ZM379.506 175.762C377.858 176.312 376.76 178.512 376.76 179.613C376.76 180.163 369.62 181.813 371.817 184.013C374.013 186.213 376.21 184.563 380.055 184.013C383.35 184.013 386.646 182.913 386.646 182.913C386.646 182.913 392.138 182.913 391.04 180.713C390.49 178.512 384.998 177.962 383.9 178.512C383.35 177.962 381.703 175.212 379.506 175.762ZM374.013 185.113C372.366 186.213 373.464 190.613 371.817 193.363C370.169 196.114 369.07 198.864 367.972 198.864C366.874 198.864 361.93 201.064 360.283 202.164C358.635 203.814 351.495 201.064 350.396 202.164C349.298 203.264 347.65 204.914 346.003 206.014C344.904 207.114 341.059 206.014 342.158 209.314C342.707 212.065 344.904 214.815 346.003 214.815C347.65 214.815 349.298 213.715 349.298 210.964C349.298 208.214 352.593 210.964 354.79 210.964C356.438 210.964 357.537 208.764 358.086 207.114C358.635 204.914 356.987 208.214 360.283 208.764C363.029 209.314 364.127 207.664 364.127 206.564C364.127 206.014 369.62 204.364 370.718 203.814C371.817 203.264 375.661 201.614 376.21 201.064C376.21 199.964 376.21 194.463 377.309 193.913C378.407 193.363 380.055 193.363 378.407 190.063C376.21 186.763 376.21 183.463 374.013 185.113ZM318.541 232.966C314.696 233.516 312.5 241.216 315.795 241.216C318.541 240.666 321.836 232.416 318.541 232.966ZM473.425 405.677C472.326 406.227 473.424 408.977 474.523 410.077C475.621 411.177 476.171 414.477 475.621 415.577C475.621 416.677 471.228 417.778 472.875 418.878C475.072 419.978 478.917 418.878 478.368 420.528C477.818 422.178 475.621 423.828 478.368 424.378C480.565 424.928 481.114 422.728 482.212 421.078C483.311 419.428 483.86 417.778 485.508 416.677C487.155 415.577 485.508 413.377 484.409 413.377C483.311 413.377 482.761 414.477 480.565 413.377C478.368 412.277 478.917 412.827 477.269 410.077C476.171 407.327 476.171 404.577 473.425 405.677ZM471.777 421.078C471.228 422.178 469.031 422.728 467.932 423.828C466.285 424.928 467.932 425.478 463.538 428.228C459.144 430.428 454.201 433.179 453.103 435.379C452.004 437.579 454.201 438.679 458.046 439.229C461.891 439.229 460.792 440.329 464.088 437.029C466.834 434.279 469.58 432.628 472.875 429.878C476.171 427.678 476.171 423.828 476.171 423.828C476.171 423.828 471.777 420.528 471.777 421.078ZM387.744 423.278C384.998 426.028 390.49 426.028 389.941 428.778C389.392 431.528 393.786 430.428 394.884 429.878C395.983 429.328 399.278 423.828 398.729 422.178C398.18 420.528 393.237 424.378 392.138 424.378C390.49 423.828 387.744 423.278 387.744 423.278ZM369.62 404.027C369.62 401.277 367.972 406.777 366.873 404.577C365.775 402.377 367.972 398.526 365.226 400.176C362.48 401.827 361.381 402.927 361.381 404.027C361.381 405.127 356.438 405.677 356.987 404.577C356.987 403.477 359.184 400.176 356.987 399.076C355.34 397.976 352.044 397.426 349.847 396.876C347.65 396.326 349.847 393.576 343.806 394.676C337.764 395.776 335.567 397.426 335.567 397.426C335.567 397.426 330.075 395.776 328.427 397.426C326.779 399.626 325.681 405.677 325.681 405.677C325.681 405.677 316.893 403.477 315.795 403.477C314.147 403.477 311.95 405.677 309.753 406.227C307.556 406.777 303.712 407.877 302.064 406.227C300.416 405.127 298.219 402.927 298.769 401.277C299.318 399.626 304.81 397.976 303.163 395.226C300.966 393.026 299.867 392.476 299.867 390.826C299.867 389.176 300.416 388.626 297.67 385.876C294.924 383.125 295.473 379.275 296.572 379.275C297.67 378.725 292.178 375.975 291.629 374.875C290.53 373.775 293.826 369.375 296.022 368.274C298.219 367.174 304.261 362.224 305.909 362.224C307.556 362.224 310.302 362.774 311.95 361.674C313.598 360.574 319.09 361.124 319.09 360.024C319.09 358.924 317.442 351.223 319.09 350.123C320.189 349.023 327.329 351.773 328.427 350.673C328.976 349.573 330.624 345.723 331.723 344.623C333.37 344.073 334.469 342.423 336.666 344.623C338.863 346.823 341.059 347.923 342.158 345.723C343.256 343.523 342.158 344.073 344.904 341.873C347.101 339.673 344.904 335.822 347.101 338.023L350.946 341.873C350.946 341.873 350.946 336.922 352.044 336.922C353.692 336.922 354.79 339.123 355.889 339.123C356.438 339.123 363.578 337.472 364.676 339.123C365.775 340.773 361.381 345.723 363.029 347.373C364.677 349.023 368.521 350.123 370.718 351.773C373.464 353.424 376.21 356.724 377.309 353.974C378.407 351.223 381.153 346.823 379.506 344.623C377.858 342.423 380.055 335.272 380.604 334.722C381.153 334.172 382.801 340.223 384.998 342.973C387.744 345.723 389.941 347.373 391.04 350.673C392.138 353.423 392.687 358.924 394.884 360.574C397.081 362.224 405.869 362.224 405.32 364.424C405.32 366.624 406.418 371.025 409.164 374.875C411.911 379.275 417.403 388.626 417.403 392.476C417.403 396.326 409.164 400.727 406.967 403.477C404.771 406.227 404.221 410.077 403.123 411.727C402.024 413.377 402.574 412.827 398.729 413.927C394.884 415.027 392.138 417.778 391.04 416.677C389.941 415.577 386.646 413.927 385.547 415.027C384.449 416.127 383.35 418.878 381.703 416.127C380.055 413.377 375.661 413.927 375.112 413.377C374.563 412.827 374.563 411.177 374.563 408.977C374.563 406.777 371.267 406.227 371.267 405.677C370.169 405.677 369.62 404.577 369.62 404.027ZM484.958 356.174C488.254 357.274 493.746 351.773 491.549 351.223C489.902 350.673 484.958 356.174 484.958 356.174ZM453.103 368.274C452.554 370.475 449.808 369.374 448.16 367.174C446.512 364.974 443.766 363.324 448.16 364.424C452.554 365.524 453.652 367.174 453.103 368.274ZM241.649 289.069C238.353 289.619 246.042 295.12 247.141 295.67C247.69 296.22 254.83 302.27 254.83 304.47C254.83 307.221 257.027 315.471 258.126 316.571C259.224 317.671 268.012 319.321 269.11 320.971C270.209 323.172 272.405 323.172 272.405 320.971C272.405 318.221 272.955 314.921 274.053 313.821C275.152 312.171 274.602 309.971 272.955 310.521C270.758 310.521 269.11 307.221 265.815 305.02C262.519 302.82 259.773 301.17 257.027 298.42C254.281 295.12 250.436 293.47 248.239 291.82C246.042 289.619 242.747 289.069 241.649 289.069ZM251.535 276.419C249.338 276.419 249.338 280.269 250.436 281.369C251.535 282.469 253.182 281.919 254.83 286.319C255.929 290.72 258.675 295.12 259.773 296.77C260.872 298.42 265.265 301.17 266.364 302.27C268.012 303.37 270.209 301.72 269.11 300.07C268.012 298.42 265.815 296.22 265.815 294.57C265.815 292.92 264.167 290.17 262.519 287.419C260.322 284.669 258.675 283.569 257.576 281.919C255.929 279.719 251.535 276.419 251.535 276.419ZM272.405 322.072C270.758 324.272 272.955 325.922 273.504 326.472C274.053 327.022 276.799 327.572 279.546 327.022C282.292 327.022 285.587 325.922 282.841 324.822C280.095 323.172 276.799 324.822 275.701 322.622C275.152 320.971 273.504 320.971 272.405 322.072ZM287.235 324.272C285.587 324.822 282.841 325.372 284.489 327.022C286.686 328.672 287.784 329.222 290.53 329.222C293.276 329.222 298.219 330.872 298.219 329.222C298.219 327.572 295.473 325.372 294.375 325.372C293.276 325.372 287.235 324.272 287.235 324.272ZM311.401 331.972C310.852 334.172 315.246 335.272 315.246 332.522C315.795 330.322 311.95 330.322 311.401 331.972ZM325.132 334.172C325.681 336.922 330.624 332.522 330.624 332.522C330.624 332.522 334.469 331.972 334.469 330.322C334.469 328.672 330.624 326.472 328.976 328.122C327.329 330.322 324.583 331.972 325.132 334.172ZM313.598 306.671C311.95 307.221 312.499 308.321 311.95 311.071C311.401 313.271 309.204 315.471 311.401 316.571C313.598 317.671 317.443 312.171 317.992 314.371C319.09 316.021 317.992 316.571 319.639 318.771C321.287 320.971 324.583 320.971 324.583 320.971C324.583 320.971 324.583 314.921 321.836 313.821C319.09 312.171 317.443 310.521 320.738 311.071C324.033 311.621 325.681 310.521 325.132 308.871C324.583 307.221 319.639 308.321 317.992 308.321C316.344 307.771 313.598 306.671 313.598 306.671ZM315.246 301.72C313.598 303.37 314.696 305.02 317.442 305.02C320.189 305.02 326.23 303.92 327.329 303.92C328.427 303.92 330.075 300.62 329.526 300.62C328.427 300.62 321.287 301.72 320.738 302.27C319.64 302.27 315.246 301.72 315.246 301.72ZM341.059 298.42C338.863 297.32 334.469 306.671 337.764 307.221C340.51 307.771 342.707 298.97 341.059 298.42ZM306.458 285.219C306.458 283.569 302.613 285.769 302.064 287.419C302.064 289.069 304.81 290.72 299.867 290.72C294.924 290.72 294.924 294.57 293.826 295.12C292.727 295.67 291.629 296.22 289.981 296.77C287.784 297.32 287.235 298.97 287.235 300.62C286.686 301.72 283.39 298.42 282.292 299.52C281.193 300.62 282.292 305.02 283.939 308.871C285.587 312.721 289.981 315.471 291.629 315.471C292.727 315.471 295.473 315.471 297.121 316.021C298.769 316.571 304.81 317.121 304.261 314.921C304.261 312.721 303.712 309.421 305.909 307.221C308.655 305.02 310.852 303.92 309.753 300.62C308.655 297.32 305.909 295.67 307.556 294.02C309.204 292.37 311.401 291.82 311.401 290.72C311.401 289.069 307.007 293.47 306.458 285.219ZM319.09 251.117C317.442 251.117 319.09 253.867 316.893 255.517C314.147 257.167 311.401 257.717 313.049 261.018C314.696 263.768 319.639 265.968 318.541 267.618C317.443 268.718 313.598 271.468 313.049 273.668C312.499 275.869 319.09 270.368 320.738 268.168C322.386 265.968 326.23 267.068 326.78 265.968L327.329 264.868C327.329 264.868 324.583 264.318 322.386 263.768C320.189 263.218 317.443 265.968 318.541 261.568C319.639 257.717 323.484 258.267 322.935 255.517C322.386 251.667 319.639 251.117 319.09 251.117ZM321.287 272.568C320.189 273.118 318.541 276.969 321.287 276.969C324.033 276.969 328.976 277.519 327.878 276.419C326.23 275.319 324.033 271.468 321.287 272.568ZM329.526 268.718C328.427 268.718 325.132 273.668 329.526 273.668C334.469 273.118 332.821 268.718 329.526 268.718ZM330.075 277.519C326.779 281.919 326.78 280.819 324.033 279.719C321.287 278.619 317.443 281.919 317.992 283.019C318.541 284.119 324.033 283.019 325.681 285.219C326.78 287.419 326.78 287.419 329.526 287.419C332.272 286.869 334.469 283.569 333.919 281.919C333.37 280.269 330.075 277.519 330.075 277.519ZM347.101 306.12C345.453 307.771 344.355 308.321 348.749 308.871C353.143 309.421 354.241 309.421 352.593 311.621C350.946 313.821 349.847 316.021 350.946 316.021C352.593 316.021 356.987 314.921 357.536 316.021C358.086 317.121 356.438 317.121 361.381 318.221C366.324 318.771 367.423 320.421 368.521 321.521C369.62 322.622 372.366 325.922 370.718 325.922C368.521 325.922 366.324 328.122 367.972 328.672C369.62 328.672 374.013 328.122 374.013 328.672C374.013 329.222 376.76 334.172 379.506 333.622C382.252 333.622 383.35 329.222 384.998 327.572C386.097 326.472 391.04 325.372 391.589 327.572C392.138 329.772 393.786 331.972 396.532 333.622C399.278 335.272 403.123 336.372 403.123 335.272C403.123 334.172 401.475 329.222 399.827 328.672C397.63 328.122 394.335 323.722 394.335 322.072C394.335 320.421 391.589 319.871 389.941 318.771C388.293 317.671 387.195 314.371 383.35 313.271C379.506 312.721 378.407 311.071 374.563 309.421C370.718 307.221 361.381 307.221 361.381 308.871C361.381 309.971 361.381 308.871 358.635 307.771C355.889 306.671 353.143 307.771 352.593 306.12C351.495 304.47 349.298 304.47 347.101 306.12Z"
        fill="#2C6CD3">
        <animateTransform
          attributeName="transform"
          type="translate"
          repeatCount="indefinite"
          dur="5s"
          keyTimes="0;1"
          values="0 0;1000 0"
        ></animateTransform>
        </path>
    </mask>
    <g mask="url(#mask0)">
      <circle cx="253.925" cy="254.078" r="252.517" fill="white" />
    </g>
  </g>
  <defs>
    <clipPath id="clip0">
      <rect width="512" height="512" fill="white" />
    </clipPath>
  </defs>
</svg>
