<svg viewBox="0 0 225 249" fill="none" xmlns="http://www.w3.org/2000/svg">
  <defs>
    <style>
    @keyframes dash {
      to {
        stroke-dashoffset: 1000;
      }
    }

    .bindings path {
      stroke-dasharray: 100;
      animation: dash 25s linear infinite;
    }
    </style>
  </defs>
  <circle cx="127.5" cy="122.5" r="96.5" fill="#03a9f4" />
  <g opacity="0.3">
    <path opacity="0.3"
      d="M126.572 28C115.029 27.9899 103.58 30.0911 92.7925 34.2C97.1461 33.5926 101.537 33.2886 105.932 33.29C158.382 33.29 200.932 71.81 200.932 124.29C200.932 148.06 192.192 173.8 177.762 190.45C177.821 190.568 163.5 204 125 217.5C129.5 217.5 143.801 217.208 159 211.5C171.445 206.827 180.839 201 182.222 200C198.499 188.238 210.63 171.621 216.873 152.534C223.116 133.447 223.151 112.873 216.971 93.7652C210.791 74.6579 198.715 58.0003 182.477 46.1845C166.239 34.3687 146.674 28.0025 126.592 28H126.572Z"
      fill="#303f9f" />
    <path opacity="0.3"
      d="M128.723 181.28C126.33 181.278 123.945 181.523 121.603 182.01C122.944 183.66 123.775 185.665 123.993 187.78C126.035 185.296 128.434 183.129 131.113 181.35C130.343 181.31 129.553 181.28 128.723 181.28Z"
      fill="#303f9f" />
  </g>
  <path
    d="M142.59 36.75C141.84 39.05 139.71 38.62 138.1 39.13L138.18 39.49L140.94 40.03L140.47 40.96L131.16 40.51C132.95 38.79 135.16 39.64 137.09 38.69L135.51 37.77C134.98 35.9 137.17 37.1 137.51 36.17L135.15 34.34L139.34 32.92L139.19 32.43H135.77L135.71 32.18L136.92 31.41C136.759 31.3383 136.591 31.2814 136.42 31.24C135.035 31.0303 133.639 30.8902 132.24 30.82C127.65 30.82 123.05 30.64 118.47 30.9C111.09 31.32 104.03 33.36 97.11 35.9C87.1938 39.3256 77.9566 44.4671 69.82 51.09C65.0759 55.0472 60.7226 59.4507 56.82 64.24C53.63 68.16 50.16 71.86 47.17 75.93C41.2632 83.777 36.7817 92.6013 33.93 102C33.8485 102.218 33.7482 102.429 33.63 102.63C40.63 65.42 72.7 31.74 115.85 26.53C138.528 23.6612 161.486 28.9693 180.604 41.5016C199.721 54.0338 213.745 72.9696 220.16 94.91C233.33 140.37 211.86 183.21 179.16 203.16C180.62 201.98 182.09 200.81 183.53 199.62C194.941 190.221 203.821 178.117 209.36 164.41C209.76 163.46 210.14 162.5 210.49 161.53C210.75 160.82 211.28 160.13 210.49 159.34C210.32 159.17 210.49 158.54 210.69 158.18C211.498 156.86 211.885 155.325 211.8 153.78C211.829 153.314 211.977 152.863 212.23 152.47C212.498 151.947 212.639 151.368 212.639 150.78C212.639 150.192 212.498 149.613 212.23 149.09C212.092 148.632 212.075 148.146 212.18 147.68C212.438 146.645 212.582 145.586 212.61 144.52C212.408 143.753 211.922 143.091 211.25 142.67C210.43 142.12 209.63 142.56 209.08 143.34C207.84 145.13 205.98 145.04 204.14 144.91C203.87 144.91 203.57 144.48 203.39 144.19C202.73 143.06 202.1 141.91 201.47 140.76C200.918 139.918 200.574 138.956 200.466 137.955C200.358 136.953 200.49 135.941 200.85 135C201.16 133.871 201.258 132.695 201.14 131.53C201.138 129.073 201.783 126.659 203.01 124.53C204.29 122.21 205.47 119.83 206.58 117.43C206.774 116.939 207.082 116.502 207.478 116.154C207.875 115.807 208.348 115.558 208.86 115.43C210.22 115.08 211.54 114.61 212.86 114.13C213.61 113.86 214.01 114.06 214.2 114.82C214.39 115.58 214.7 116.62 214.98 117.51C215.69 119.81 216.69 120.38 219.22 119.82C218.9 117.48 218.69 115.11 218.22 112.82C218.12 112.35 216.97 112.1 216.3 111.75L216.11 112.07L213.73 107.55H211.12C210.71 109.14 210.33 110.77 209.87 112.36C209.3 114.29 208.17 114.58 206.7 113.22C204.46 111.14 205.22 108.53 205.25 105.85L209.05 106.62C210.11 103.93 208.39 102.11 206.85 99.95C209.98 99.54 210.14 97.34 210.32 95.06C210.46 93.31 210.88 91.58 211.06 89.84C211.047 89.5979 210.981 89.3617 210.865 89.1488C210.749 88.9359 210.587 88.7518 210.39 88.61C209.595 88.0344 208.942 87.2847 208.481 86.4181C208.02 85.5515 207.763 84.591 207.73 83.61C207.7 83.3776 207.7 83.1424 207.73 82.91C208.41 77.14 205.35 72.91 202.01 68.73C199.59 65.73 197.35 62.54 194.82 59.61C193.052 57.6892 191.162 55.8854 189.16 54.21C187.09 52.4 184.92 50.71 182.79 48.97C182.505 48.7479 182.151 48.6345 181.79 48.65C182.67 49.97 183.58 51.28 184.41 52.65C185.03 53.65 185.55 54.77 186.08 55.86C186.21 56.13 186.34 56.63 186.2 56.76C185.2 57.76 186.08 58.33 186.65 58.97C187.37 59.77 188.11 60.55 188.9 61.4C187.9 63.28 186.12 64.03 184.17 64.51C183.694 64.6976 183.269 64.9958 182.93 65.38C182.02 66.21 181.15 67.07 180.27 67.94C179.82 68.38 179.18 68.78 178.99 69.33C178.27 71.33 177.71 73.49 177.05 75.57C176.85 76.22 176.53 76.83 176.05 77.95C174.73 76.41 173.65 75.19 172.61 73.95C171.57 72.71 170.46 71.27 169.31 69.84C170.63 68.84 169.76 67.99 168.83 67.05C168.087 66.2964 167.469 65.4288 167 64.48C166.663 63.8867 166.521 63.2022 166.595 62.5238C166.668 61.8453 166.953 61.2072 167.41 60.7C168.72 59.06 168.65 58.7 167.25 57.06L166.31 58.43L165.87 58.53L164.96 55.61L167.36 56.69C166.92 55.56 166.81 54.43 166.2 53.95C165.59 53.47 164.51 53.75 163.55 53.69C163.483 53.2668 163.46 52.8379 163.48 52.41C163.542 51.9737 163.49 51.5288 163.328 51.1187C163.167 50.7086 162.902 50.3473 162.56 50.07C161.851 49.3428 161.254 48.5136 160.79 47.61C160.156 46.1863 159.101 44.991 157.767 44.1847C156.434 43.3784 154.885 42.9999 153.33 43.1C151.315 43.2198 149.329 42.5733 147.77 41.29L149.19 40.15L146.31 37.47H150.92L150.28 35.24L151.99 34.33V33.88C151.326 33.5764 150.628 33.3548 149.91 33.22C147.647 33.113 145.41 33.7371 143.53 35C143.125 35.2726 142.636 35.3931 142.15 35.34C140.95 35.05 140.97 34.98 140.45 36.25L142.59 36.75ZM187.9 61.59L185.81 59.78C185.69 61.59 186 61.92 187.9 61.59Z"
    fill="#303f9f" />
  <path
    d="M104.82 55.89C106.9 54.97 109.37 56.51 110.65 54.02C108.41 53.1 106.5 54.34 104.53 54.72L104.41 54.29L106.59 52.68L106.35 52.27L105.23 52.81L104.05 51.58L107.8 48.88L108.62 50.45C109.46 49.45 110.18 49.53 111.07 50.45C111.32 50.7 112.28 50.24 112.98 50.1L113.49 51.89L115.34 51.26C115.193 50.9749 115.095 50.6674 115.05 50.35C115.107 49.9121 115.204 49.4803 115.34 49.06C115.7 49.28 116.23 49.41 116.34 49.74C117.34 51.56 118.15 53.43 119.06 55.33L118.27 55.66L118.4 56.98C117.86 56.98 117.22 57.06 116.81 56.81C116.229 56.4495 115.55 56.2807 114.868 56.3273C114.186 56.374 113.536 56.6338 113.01 57.07C112.389 57.5776 111.625 57.8777 110.825 57.9279C110.025 57.9781 109.229 57.776 108.55 57.35C107.99 57.01 107.18 57.12 106.55 56.89C105.946 56.6056 105.368 56.2711 104.82 55.89V55.89Z"
    fill="#303f9f" />
  <path
    d="M205.19 91.21C204.97 90.61 204.7 89.92 204.46 89.21C204.145 88.4435 203.888 87.6547 203.69 86.85C203.63 86.57 203.99 86.2 204.16 85.85C204.51 86.04 205.03 86.13 205.16 86.42C205.457 87.1497 205.718 87.894 205.94 88.65C206.197 89.7061 206.612 90.7174 207.17 91.65C207.704 92.33 208.096 93.1111 208.321 93.9462C208.546 94.7814 208.6 95.6534 208.48 96.51C208.39 97.38 208.29 97.4 206.48 97.2C206.39 96.42 206.27 95.67 206.21 94.91C206.117 94.4735 206.148 94.0196 206.3 93.6C206.97 92.49 206.36 92.12 205.36 91.79C204.88 93.06 205.64 94.79 203.95 95.62L202.95 94.68L203.33 94.57C203.26 93.82 203.14 93.06 203.13 92.31C203.13 91.93 203.21 91.31 203.4 91.23C203.993 91.1477 204.595 91.141 205.19 91.21V91.21Z"
    fill="#303f9f" />
  <path
    d="M190.83 72.32C190.855 71.857 190.855 71.393 190.83 70.93C190.729 70.501 190.685 70.0605 190.7 69.62C191.7 70.88 193.07 70.86 194.43 71.11C195.35 71.27 196.21 72.36 196.86 73.21C197.31 73.81 196.06 75.32 195.2 75.09C194.168 74.7588 193.191 74.2769 192.3 73.66C191.767 73.2624 191.275 72.8136 190.83 72.32V72.32Z"
    fill="#303f9f" />
  <path d="M123.4 51.8C121.4 50.58 120.4 49.08 121.56 46.8H123.86L123.3 48.55C125.07 49.8 125.11 50.62 123.4 51.8Z"
    fill="#303f9f" />
  <path
    d="M121.54 43.72L122.05 42.38L120.81 42.14C121.22 40.23 122.33 40.14 124.46 41.72C123.53 43.39 123.05 43.73 121.54 43.72Z"
    fill="#303f9f" />
  <path
    d="M117.1 42.55C116.19 44.46 114.76 43.81 113.74 43.86C113.566 43.1014 113.465 42.3278 113.44 41.55C113.44 41.23 113.99 40.94 114.44 40.43L114.89 42.18L117.1 42.55Z"
    fill="#303f9f" />
  <path
    d="M123.75 58.05C123.26 57.6306 122.827 57.15 122.46 56.62C122.38 56.49 123.11 55.62 123.46 55.62C124.255 55.8001 125.021 56.086 125.74 56.47L123.75 58.05Z"
    fill="#303f9f" />
  <path d="M126.91 42.55L127.91 44.92L125.61 44.31L126.33 42.46L126.91 42.55Z" fill="#303f9f" />
  <path d="M105 42.12L102.73 43.25L102.42 42.64L104.62 41.5L105 42.12Z" fill="#303f9f" />
  <path d="M125.72 40H128.12C127.53 40.6 127.12 41.25 126.89 41.2C126.39 41.11 125.97 40.63 125.52 40.31L125.72 40Z"
    fill="#303f9f" />
  <path
    d="M151.53 175.91C151.66 175.16 151.78 174.4 151.91 173.65C151.981 173.349 151.99 173.037 151.935 172.733C151.88 172.428 151.763 172.139 151.592 171.881C151.42 171.624 151.197 171.405 150.937 171.238C150.677 171.071 150.385 170.959 150.08 170.91C146.95 170.01 145.19 167.91 144.27 164.83C143.694 163.417 142.882 162.112 141.87 160.97C141.38 160.31 140.98 159.85 141.55 158.97C141.851 158.447 142.01 157.854 142.01 157.25C142.032 156.17 142.293 155.108 142.776 154.141C143.258 153.174 143.95 152.327 144.8 151.66C145.449 151.089 145.866 150.299 145.97 149.44C146.18 146.92 145.45 146.35 142.97 146.79C142.271 146.943 141.547 146.932 140.853 146.759C140.159 146.585 139.515 146.254 138.97 145.79C137.53 144.58 136.03 143.5 135.4 141.59C135.293 141.321 135.123 141.082 134.904 140.894C134.684 140.706 134.422 140.574 134.14 140.51C133.489 140.434 132.851 140.276 132.24 140.04C130.633 139.187 129.057 138.267 127.51 137.28C126.86 136.86 126.39 136.87 125.94 137.42C125.31 138.22 124.76 138.02 123.94 137.61C121.67 136.51 119.32 135.56 116.94 134.61C115.6 134.09 114.94 133.38 115.39 131.86C115.436 131.691 115.444 131.514 115.415 131.341C115.385 131.169 115.319 131.004 115.22 130.86C113.71 129.17 112.22 127.43 110.56 125.86C109.047 124.594 107.92 122.927 107.31 121.05C106.95 119.76 106.62 119.59 104.93 119.66C105.93 123.33 108.77 125.82 110.49 128.97C109.29 129.19 108.43 128.65 107.87 127.15C107.48 126.08 107.23 125 105.87 124.81C105.67 124.81 105.32 124.27 105.39 124.11C105.81 122.98 104.96 122.39 104.47 121.62C103.991 120.948 103.605 120.215 103.32 119.44C102.74 117.66 101.9 116.23 99.94 115.64C99.2562 115.375 98.6891 114.875 98.34 114.23C97.0464 111.959 95.8715 109.623 94.82 107.23C94.4896 106.23 94.4896 105.15 94.82 104.15C95.45 101.92 96.11 99.78 95.47 97.41C95.0965 95.8495 94.1461 94.4883 92.8099 93.6C92.1399 93.15 92.09 92.69 92.36 91.95C92.5115 91.4042 92.4763 90.8235 92.26 90.3C91.26 87.53 88.96 85.86 86.71 84.19C85.34 83.19 84.2 82.09 84.5 80.19C84.4808 79.9973 84.4141 79.8124 84.3059 79.6518C84.1977 79.4913 84.0514 79.3601 83.8799 79.27C81.5299 78.52 79.14 77.89 76.8 77.11C75.54 76.69 74.7499 76.89 74.2699 78.19C74.2384 78.4058 74.1504 78.6095 74.015 78.7804C73.8796 78.9514 73.7014 79.0836 73.4986 79.1638C73.2957 79.2439 73.0753 79.2691 72.8596 79.2368C72.6439 79.2046 72.4405 79.116 72.2699 78.98L73.62 76.98C73.0561 76.9584 72.4986 77.1045 72.0179 77.4001C71.5373 77.6956 71.1551 78.1271 70.92 78.64C69.92 80.2 69.04 81.88 68 83.43C67.2124 84.5442 66.2848 85.5525 65.24 86.43C65.63 84.77 67.84 83.84 66.86 81.67L64 82.39L63.75 80.27L62.42 80.57C61.49 78.37 61.81 77.3 63.85 75.74C64.5525 75.2714 65.2209 74.7534 65.85 74.19C66.16 73.87 66.2 73.3 66.44 72.63C65.68 72.69 65.18 72.72 64.68 72.77L63.33 72.91C62.99 71.28 63.33 70.75 64.57 70.36C65.18 70.17 66.26 69.74 66.24 69.5C66.0732 68.6827 65.7796 67.8966 65.37 67.17C65.194 66.9048 64.993 66.657 64.7699 66.43C66.8999 64.43 68.98 62.34 71.21 60.43C71.974 60.0358 72.8329 59.8627 73.69 59.93C75.69 59.79 77.69 59.71 79.69 59.64C80.86 59.64 82.0299 59.58 83.1999 59.64C84.3699 59.7 85.85 59.46 86.76 60.78C86.9 60.99 87.33 61.01 87.76 61.16L88.8399 59.16C88.971 59.2364 89.0979 59.3199 89.22 59.41C89.6 59.78 89.9599 60.17 90.3399 60.55C90.7746 60.1714 91.1459 59.7258 91.44 59.23C91.5476 58.8562 91.7754 58.5283 92.0881 58.2969C92.4008 58.0655 92.781 57.9436 93.17 57.95C93.9766 57.7081 94.7371 57.3329 95.42 56.84L96.27 57.98L97.68 56.91L98.88 58.01C100.08 56.72 101.31 57.09 102.72 57.67C103.895 58.0238 105.106 58.2484 106.33 58.34L106.1 60.45C107.68 60.45 109.17 60.45 110.65 60.45C111.037 60.3909 111.432 60.4465 111.788 60.6101C112.143 60.7736 112.443 61.0378 112.65 61.37C113.01 61.94 113.51 62.56 114.37 62.02C115.23 61.48 114.8 61.02 114.37 60.42C114.22 60.15 114.56 59.35 114.91 59.09C115.126 58.9597 115.368 58.8787 115.618 58.8527C115.869 58.8268 116.122 58.8566 116.36 58.94C117.582 59.4601 118.901 59.714 120.228 59.6847C121.556 59.6553 122.862 59.3435 124.06 58.77L125.21 60.66L127.86 56.85C127.05 55.76 126.25 54.78 125.57 53.73C125.285 53.3042 125.174 52.7852 125.26 52.28C125.35 51.98 126.16 51.56 126.36 51.68C126.923 52.0962 127.434 52.5798 127.88 53.12C128.154 53.3405 128.336 53.6541 128.394 54.0008C128.451 54.3476 128.378 54.7033 128.19 55C128.08 55.19 128.37 55.88 128.53 55.9C130.1 56.12 130.63 57.17 130.65 58.81L132.43 57.25L133.33 60.43C135.07 60.35 135.43 58.95 135.78 57.85C136.47 55.7 136.35 55.66 134.27 54.6C133.62 54.27 132.97 53.91 132.27 53.53L133.2 52.24C132.71 52.24 132.42 52.17 132.12 52.17C131.25 52.17 130.92 51.68 131.12 50.88C131.261 49.8668 131.601 48.8915 132.12 48.01C132.62 47.42 133.75 47.37 134.82 47.25C132.53 48.76 133.75 50.31 134.55 51.72C134.88 52.28 135.68 52.57 136.26 52.99L136.65 52.67L136.17 48.38L138.68 47.25L139.32 51.17C142.71 51.06 143.14 50.62 142.25 48.17C142.782 48.4272 143.271 48.7644 143.7 49.17C144.332 50.0371 144.887 50.9572 145.36 51.92C145.92 53.01 146.59 53.41 147.67 52.58C147.873 52.4879 148.089 52.4272 148.31 52.4C148.37 52.86 148.42 53.25 148.48 53.64C148.54 54.03 148.48 54.35 148.66 54.42C149.81 54.97 150.99 55.42 152.29 56.01C151.43 58.09 152.7 59.27 154.44 60.23C155.21 60.66 155.99 61.1 156.72 61.59C159.28 63.29 159.41 63.87 157.82 67C157.41 66.45 157.03 66 156.72 65.54C156.41 65.08 156.39 64.54 156.06 64.33C155.611 64.0602 155.121 63.8644 154.61 63.75C154.405 64.2312 154.293 64.747 154.28 65.27C154.434 65.8073 154.708 66.3029 155.08 66.72C155.412 67.1754 155.806 67.5826 156.25 67.93C157.36 68.78 157.96 70.09 157.25 71.09C156.81 71.73 155.17 71.94 154.25 71.72C152.57 71.34 150.69 71.2 149.74 69.13C149.103 68.1455 148.123 67.4327 146.99 67.13C145.915 66.9818 144.821 67.0224 143.76 67.25C143.93 65.14 144.62 64.55 146.76 64.78C146.922 64.7694 147.08 64.7226 147.222 64.643C147.364 64.5634 147.486 64.453 147.58 64.32C147.81 63.9046 147.985 63.4608 148.1 63L151.75 63.66C151.52 63.31 151.45 63.04 151.29 62.97C148.08 61.69 146.73 58.55 144.55 56.23C144.27 55.93 144.12 55.46 143.79 55.23C143.46 55 142.61 54.64 142.43 54.8C141.43 55.73 140.56 55.15 139.62 54.8C139.154 54.541 138.609 54.461 138.088 54.5752C137.567 54.6893 137.105 54.9897 136.79 55.42L139.14 57.42C139.284 58.4131 139.33 59.4178 139.28 60.42C139.085 61.4115 138.769 62.3753 138.34 63.29C138.053 63.835 137.718 64.3537 137.34 64.84C138.44 66.13 140.87 66.04 140.99 68.57L137.81 67L136.67 69.16C134.98 68.92 134.67 67.62 134.57 66.16C132.756 66.9429 131.197 68.2176 130.07 69.84C129.15 70.95 128.07 71.92 127.17 73.06C126.68 73.7098 126.363 74.4738 126.25 75.28C126.173 76.3065 126.197 77.338 126.32 78.36C126.316 78.9472 126.484 79.5227 126.804 80.0151C127.124 80.5075 127.582 80.8951 128.12 81.13C128.97 80.13 129.85 79.21 130.66 78.21C131.97 76.6 132.82 76.46 134.26 77.99C135.257 79.1633 136.192 80.3883 137.06 81.66C137.43 82.14 137.75 82.77 138.25 83.02C139.94 83.87 140.15 85.39 140.39 87.02C140.519 87.846 140.826 88.6342 141.29 89.33C141.51 89.65 142.29 89.61 142.77 89.73C142.87 89.27 143.19 88.73 143.04 88.36C142.32 86.64 142.88 85.42 144.04 84.08C146.21 81.63 146.24 80.08 144.48 78.15C144.213 77.8664 144.025 77.5175 143.936 77.1383C143.846 76.7592 143.858 76.3631 143.97 75.99C144.24 74.61 144.32 73.2 144.5 71.81C144.542 71.6244 144.602 71.4435 144.68 71.27C146.02 71.27 147.33 71.27 148.68 71.27C148.97 71.27 149.28 71.61 149.53 71.84C150.232 72.5925 150.98 73.3005 151.77 73.96C152.228 74.2273 152.62 74.593 152.919 75.0305C153.219 75.468 153.417 75.9665 153.5 76.49C153.62 77.22 154.41 77.86 154.9 78.49C155.51 77.99 156.14 77.49 156.74 76.98C156.881 76.7952 156.993 76.5894 157.07 76.37C157.78 75.15 158.19 75.09 158.89 76.3C159.545 77.4938 160.119 78.7299 160.61 80C161.82 82.9 163.33 85.52 166.3 87C167.3 87.53 168.14 90.42 167.72 91.69C167.11 93.6 167.2 93.6 168.79 94.69C169.684 95.3963 170.475 96.2244 171.14 97.15C171.56 97.68 171.39 98.15 170.66 98.44C169.6 98.77 168.54 99.15 167.28 99.58C167.22 98.8869 166.916 98.2376 166.421 97.7484C165.926 97.2592 165.274 96.962 164.58 96.91C163.66 96.72 163.98 96.04 164.33 95.48C164.68 95.0705 164.897 94.5649 164.954 94.0295C165.011 93.4942 164.905 92.954 164.65 92.48C163.041 93.3803 161.804 94.8227 161.16 96.55C161.07 96.79 161.51 97.4 161.84 97.61C162.17 97.82 162.84 97.79 163.31 97.99C164.52 98.51 164.71 99.28 163.66 100.08C160.66 102.34 157.92 104.89 154.31 106.16C153.126 106.593 151.981 107.128 150.89 107.76C150.075 108.185 149.381 108.81 148.872 109.576C148.363 110.342 148.056 111.224 147.98 112.14C147.989 112.888 147.767 113.62 147.345 114.238C146.922 114.855 146.32 115.327 145.62 115.59C144.309 116.299 143.117 117.21 142.09 118.29C141.846 118.665 141.757 119.12 141.84 119.56C142.04 121.37 142.32 123.18 142.55 124.99C142.62 125.58 142.65 126.17 142.69 126.77C142.464 126.839 142.225 126.854 141.992 126.813C141.759 126.773 141.539 126.678 141.349 126.537C141.159 126.396 141.005 126.213 140.9 126.001C140.794 125.79 140.739 125.556 140.74 125.32C140.46 123.2 139.47 121.85 137.17 121.72C136.62 121.72 136.09 121.31 135.55 121.3C134.703 121.202 133.845 121.281 133.03 121.53C132.519 121.804 131.951 121.956 131.372 121.974C130.792 121.991 130.216 121.873 129.69 121.63C127.28 120.49 124.02 122.54 123.78 125.2C123.617 126.152 123.397 127.094 123.12 128.02C123.05 128.38 123.05 128.75 123.12 129.11C123.24 129.85 123.44 130.57 123.59 131.3C124.34 134.73 125.11 135.3 128.5 135.06C128.917 135.054 129.324 134.933 129.677 134.711C130.03 134.489 130.314 134.173 130.5 133.8C130.89 132.904 131.487 132.113 132.24 131.49C132.91 131.08 133.98 131.31 134.87 131.25C134.892 131.949 134.79 132.646 134.57 133.31C133.08 135.97 133.44 137.24 136.74 138.62C137 138.73 137.27 138.8 137.54 138.89C139.43 139.52 139.46 139.62 139.06 141.6C138.9 142.39 138.58 143.67 138.93 143.95C139.955 144.658 141.105 145.164 142.32 145.44C143.418 145.733 144.556 145.848 145.69 145.78C146.029 145.745 146.356 145.638 146.649 145.465C146.942 145.293 147.195 145.059 147.39 144.78C148.56 142.52 150.53 142.44 152.73 142.12C155.73 141.68 158.36 142.62 161.12 143.24C161.802 143.247 162.479 143.132 163.12 142.9C162.79 145.3 162.8 145.27 165.05 146.68C165.433 146.963 165.694 147.382 165.78 147.85C165.97 148.85 166.02 149.85 166.11 150.92C166.2 151.99 166.48 152.5 167.61 152.05C167.69 152.05 167.81 151.94 167.87 151.97C169.57 152.73 170.26 151.64 170.74 150.2C172.95 151.78 172.12 153.26 170.65 154.74L170.98 154.93C172.48 154.73 173.98 154.47 175.5 154.35C175.96 154.35 176.74 154.5 176.87 154.8C177.27 155.73 177.97 155.8 178.79 155.86C180.234 155.892 181.666 156.134 183.04 156.58C185.54 157.69 186.13 159.16 184.32 161.22C183.82 161.78 183.32 162.37 182.81 162.88C182.149 163.474 181.617 164.198 181.249 165.006C180.881 165.815 180.684 166.691 180.67 167.58C180.525 169.191 179.915 170.724 178.914 171.994C177.912 173.264 176.563 174.214 175.03 174.73C173.19 175.36 171.57 176.17 171.03 178.5C170.7 179.89 169.39 181.04 168.5 182.29L165.59 180.99L157.45 178.24L151.53 175.91Z"
    fill="#303f9f" />
  <path opacity="0.3"
    d="M153.28 177.66C153.4 176.9 153.53 176.15 153.66 175.4C153.731 175.099 153.74 174.787 153.685 174.483C153.63 174.178 153.513 173.889 153.342 173.631C153.17 173.374 152.947 173.155 152.687 172.988C152.427 172.821 152.135 172.709 151.83 172.66C148.7 171.76 146.94 169.66 146.02 166.58C145.441 165.165 144.63 163.857 143.62 162.71C143.12 162.05 142.73 161.6 143.3 160.71C143.603 160.185 143.759 159.587 143.75 158.98C143.774 157.9 144.037 156.84 144.521 155.875C145.006 154.91 145.699 154.064 146.55 153.4C147.193 152.824 147.608 152.036 147.72 151.18C147.93 148.66 147.2 148.08 144.72 148.53C144.012 148.692 143.276 148.686 142.571 148.512C141.866 148.338 141.212 148.002 140.66 147.53C139.23 146.33 137.73 145.25 137.1 143.34C136.993 143.071 136.823 142.832 136.604 142.644C136.384 142.456 136.122 142.324 135.84 142.26C135.19 142.179 134.552 142.021 133.94 141.79C132.33 140.93 130.74 140.02 129.21 139.03C128.56 138.6 128.08 138.62 127.64 139.17C127 139.96 126.46 139.77 125.64 139.36C123.37 138.26 121.02 137.3 118.64 136.36C117.29 135.84 116.64 135.13 117.09 133.61C117.133 133.441 117.14 133.264 117.111 133.092C117.082 132.92 117.017 132.756 116.92 132.61C115.4 130.91 113.92 129.18 112.26 127.61C110.747 126.344 109.62 124.677 109.01 122.8C108.64 121.51 108.32 121.34 106.63 121.41C107.63 125.08 110.47 127.57 112.19 130.72C110.99 130.94 110.12 130.4 109.57 128.9C109.18 127.82 108.93 126.75 107.57 126.56C107.37 126.56 107.02 126.02 107.08 125.86C107.51 124.73 106.66 124.14 106.17 123.37C105.693 122.696 105.307 121.964 105.02 121.19C104.44 119.41 103.6 117.98 101.64 117.39C100.943 117.141 100.36 116.647 100 116C98.7047 113.73 97.5297 111.393 96.48 109C96.1363 108.005 96.1153 106.927 96.42 105.92C97.05 103.7 97.72 101.56 97.08 99.19C96.7033 97.6283 95.754 96.265 94.42 95.37C93.75 94.93 93.69 94.47 93.97 93.73C94.1163 93.1837 94.0812 92.6046 93.87 92.08C92.87 89.31 90.57 87.64 88.32 85.97C86.95 84.97 85.8 83.87 86.1 81.97C86.0836 81.7778 86.0191 81.5928 85.9125 81.432C85.806 81.2712 85.6606 81.1399 85.49 81.05C83.14 80.29 80.75 79.67 78.41 78.89C77.15 78.47 76.3599 78.67 75.8799 79.97C75.8484 80.1858 75.7604 80.3895 75.625 80.5604C75.4896 80.7314 75.3114 80.8636 75.1086 80.9438C74.9057 81.0239 74.6853 81.0491 74.4696 81.0168C74.2539 80.9846 74.0505 80.896 73.8799 80.76L75.23 78.76C74.6661 78.7383 74.1086 78.8845 73.6279 79.18C73.1473 79.4756 72.7651 79.9071 72.53 80.42C71.53 81.97 70.65 83.66 69.6 85.21C68.8181 86.3288 67.8898 87.3378 66.8399 88.21C67.2399 86.54 69.45 85.62 68.47 83.45L65.71 84.19L65.5 82L64.17 82.3C63.24 80.1 63.56 79.03 65.6 77.47C66.3007 76.9989 66.9689 76.481 67.6 75.92C67.8811 75.436 68.0804 74.9089 68.19 74.36L66.43 74.49L65.08 74.64C64.74 73.01 65.08 72.47 66.31 72.09C66.93 71.89 68.01 71.47 67.99 71.23C67.8253 70.4121 67.5316 69.6256 67.12 68.9C66.9405 68.6373 66.7399 68.3898 66.5199 68.16C68.6499 66.16 70.72 64.07 72.96 62.16C73.7207 61.7666 74.5761 61.5935 75.43 61.66C77.43 61.51 79.43 61.44 81.43 61.37C82.6 61.37 83.77 61.31 84.94 61.37C86.11 61.43 87.59 61.19 88.49 62.51C88.64 62.72 89.07 62.74 89.49 62.88L90.57 60.88C90.7017 60.9501 90.8257 61.0339 90.94 61.13C91.32 61.5 91.69 61.89 92.07 62.27C92.5022 61.8853 92.8732 61.4368 93.17 60.94C93.2794 60.568 93.508 60.2423 93.8205 60.0129C94.1331 59.7835 94.5123 59.663 94.9 59.67C95.7066 59.4281 96.4671 59.0529 97.15 58.56L98 59.68L99.4 58.6L100.61 59.71C101.81 58.41 103.04 58.79 104.45 59.37C105.609 59.7013 106.798 59.9124 108 60L107.77 62.11C109.35 62.11 110.84 62.11 112.32 62.11C112.707 62.0509 113.102 62.1065 113.458 62.2701C113.813 62.4336 114.113 62.6978 114.32 63.03C114.69 63.6 115.19 64.22 116.05 63.68C116.91 63.14 116.48 62.68 116.05 62.07C115.89 61.81 116.24 61 116.59 60.75C116.806 60.6197 117.048 60.5387 117.298 60.5127C117.549 60.4868 117.802 60.5166 118.04 60.6C119.263 61.1151 120.581 61.3662 121.908 61.3369C123.235 61.3076 124.541 60.9986 125.74 60.43L127 62.35L129.65 58.54C128.84 57.44 128.04 56.47 127.36 55.42C127.075 54.9942 126.964 54.4752 127.05 53.97C127.13 53.67 127.95 53.25 128.14 53.37C128.71 53.7781 129.222 54.2626 129.66 54.81C129.936 55.0292 130.12 55.3429 130.177 55.6903C130.234 56.0377 130.161 56.394 129.97 56.69C129.87 56.88 130.15 57.57 130.32 57.59C131.89 57.8 132.42 58.86 132.44 60.5L134.22 58.94L135.12 62.11C136.86 62.04 137.22 60.64 137.57 59.54C138.26 57.39 138.14 57.35 136.06 56.29L134.06 55.22L134.99 53.93C134.5 53.93 134.21 53.86 133.91 53.85C133.04 53.85 132.71 53.37 132.91 52.56C133.05 51.5465 133.39 50.5709 133.91 49.69C134.41 49.11 135.53 49.05 136.61 48.94C134.32 50.45 135.54 52 136.34 53.41C136.66 53.97 137.46 54.26 138.05 54.67L138.44 54.36L138 50.07L140.51 48.93L141.15 52.85C144.54 52.74 144.97 52.3 144.08 49.8C144.61 50.0602 145.098 50.3971 145.53 50.8C146.159 51.672 146.715 52.5952 147.19 53.56C147.75 54.65 148.41 55.05 149.49 54.22C149.697 54.1296 149.916 54.069 150.14 54.04C150.2 54.5 150.25 54.89 150.31 55.28C150.37 55.67 150.31 55.99 150.49 56.06C151.64 56.61 152.82 57.06 154.12 57.65C153.26 59.73 154.53 60.91 156.27 61.87C157.04 62.3 157.82 62.74 158.55 63.23C161.11 64.93 161.23 65.51 159.65 68.64C159.23 68.09 158.86 67.64 158.55 67.17C158.24 66.7 158.22 66.23 157.89 65.97C157.438 65.6986 156.945 65.5027 156.43 65.39C156.217 65.9002 156.105 66.447 156.1 67C156.254 67.5373 156.528 68.0329 156.9 68.45C157.235 68.9031 157.628 69.31 158.07 69.66C159.17 70.5 159.78 71.82 159.07 72.82C158.63 73.45 156.99 73.67 156.07 73.45C154.39 73.06 152.51 72.92 151.56 70.86C150.919 69.8788 149.941 69.1671 148.81 68.86C147.81 68.55 146.65 68.92 145.58 68.99C145.75 66.88 146.44 66.29 148.58 66.52C148.742 66.5094 148.9 66.4625 149.042 66.3829C149.184 66.3034 149.306 66.193 149.4 66.06C149.594 65.6592 149.739 65.236 149.83 64.8L153.47 65.46C153.25 65.11 153.18 64.84 153.02 64.77C149.81 63.49 148.46 60.34 146.28 58.03C146 57.72 145.84 57.25 145.52 57.03C145.2 56.81 144.34 56.43 144.16 56.6C143.16 57.53 142.29 56.94 141.34 56.6C140.875 56.3416 140.332 56.262 139.813 56.3762C139.293 56.4904 138.834 56.7905 138.52 57.22L140.87 59.22C141.014 60.2131 141.06 61.2178 141.01 62.22C140.815 63.2082 140.499 64.1688 140.07 65.08C139.787 65.6277 139.453 66.1468 139.07 66.63C140.17 67.93 142.6 67.84 142.71 70.37L139.54 68.8L138.4 70.96C136.71 70.72 136.4 69.42 136.3 67.96C134.489 68.7424 132.931 70.0131 131.8 71.63C130.88 72.75 129.8 73.72 128.89 74.86C128.426 75.4915 128.12 76.2255 128 77C127.918 78.0264 127.942 79.0584 128.07 80.08C128.066 80.6672 128.234 81.2427 128.554 81.7351C128.874 82.2275 129.332 82.6151 129.87 82.85C130.72 81.85 131.6 80.93 132.41 79.93C133.72 78.32 134.57 78.18 136.01 79.71C137.007 80.8833 137.942 82.1083 138.81 83.38C139.18 83.86 139.5 84.49 140 84.74C141.69 85.59 141.89 87.1 142.14 88.74C142.264 89.5455 142.557 90.3157 143 91C143.22 91.32 144 91.28 144.47 91.4C144.58 90.94 144.9 90.4 144.75 90.03C144.03 88.3 144.59 87.09 145.75 85.74C147.92 83.3 147.95 81.74 146.18 79.82C145.915 79.5328 145.73 79.1817 145.643 78.8012C145.555 78.4207 145.568 78.024 145.68 77.65C145.95 76.28 146.03 74.87 146.21 73.48C146.253 73.2916 146.313 73.1075 146.39 72.93C147.73 72.93 149.03 72.93 150.39 72.93C150.68 72.93 150.99 73.26 151.24 73.5C151.942 74.2523 152.69 74.9604 153.48 75.62C153.936 75.889 154.328 76.255 154.627 76.6923C154.926 77.1295 155.125 77.6272 155.21 78.15C155.33 78.88 156.12 79.51 156.6 80.15C157.22 79.65 157.85 79.15 158.45 78.64C158.61 78.5 158.66 78.23 158.78 78.03C159.49 76.81 159.89 76.75 160.6 77.96C161.265 79.1391 161.85 80.3619 162.35 81.62C163.56 84.52 165.07 87.13 168.04 88.62C169.04 89.15 169.88 92.03 169.46 93.31C168.84 95.22 168.94 95.22 170.53 96.31C171.422 97.019 172.212 97.8466 172.88 98.77C173.3 99.3 173.13 99.77 172.4 100.05C171.33 100.39 170.28 100.77 169.02 101.19C168.947 100.502 168.638 99.8601 168.146 99.3735C167.654 98.8868 167.009 98.5853 166.32 98.52C165.39 98.34 165.72 97.66 166.07 97.1C166.418 96.6899 166.635 96.1844 166.692 95.6493C166.749 95.1142 166.644 94.5744 166.39 94.1C164.779 94.9975 163.541 96.4409 162.9 98.17C162.81 98.41 163.24 99.02 163.58 99.23C163.92 99.44 164.58 99.4 165.05 99.6C166.26 100.13 166.44 100.89 165.4 101.69C162.4 103.95 159.66 106.51 156.05 107.78C154.862 108.213 153.715 108.748 152.62 109.38C151.806 109.806 151.113 110.431 150.606 111.197C150.099 111.963 149.794 112.844 149.72 113.76C149.728 114.509 149.505 115.242 149.08 115.86C148.656 116.477 148.052 116.949 147.35 117.21C146.038 117.917 144.846 118.829 143.82 119.91C143.58 120.283 143.493 120.735 143.58 121.17C143.78 122.99 144.05 124.8 144.29 126.61C144.36 127.2 144.38 127.79 144.43 128.38C144.204 128.453 143.965 128.472 143.731 128.434C143.497 128.396 143.275 128.302 143.085 128.161C142.894 128.021 142.74 127.836 142.634 127.624C142.529 127.411 142.476 127.177 142.48 126.94C142.2 124.81 141.21 123.47 138.9 123.34C138.36 123.34 137.83 122.93 137.28 122.91C136.436 122.821 135.582 122.902 134.77 123.15C134.257 123.425 133.688 123.577 133.107 123.594C132.525 123.611 131.948 123.494 131.42 123.25C129.02 122.1 125.76 124.16 125.52 126.82C125.358 127.769 125.138 128.708 124.86 129.63C124.779 129.991 124.762 130.363 124.81 130.73C124.94 131.46 125.13 132.19 125.29 132.92C126.03 136.35 126.81 136.92 130.2 136.68C130.618 136.674 131.027 136.552 131.38 136.328C131.733 136.104 132.017 135.786 132.2 135.41C132.597 134.518 133.197 133.731 133.95 133.11C134.62 132.7 135.68 132.93 136.57 132.87C136.601 133.565 136.503 134.26 136.28 134.92C134.79 137.59 135.15 138.86 138.45 140.24C138.71 140.35 138.98 140.42 139.25 140.51C141.14 141.14 141.17 141.24 140.77 143.22C140.61 144.01 140.29 145.29 140.64 145.56C141.664 146.271 142.815 146.78 144.03 147.06C145.125 147.352 146.259 147.467 147.39 147.4C147.73 147.364 148.058 147.256 148.352 147.084C148.647 146.911 148.902 146.678 149.1 146.4C150.27 144.14 152.24 144.06 154.44 143.73C157.44 143.29 160.07 144.23 162.83 144.86C163.496 144.863 164.157 144.745 164.78 144.51C164.44 146.91 164.46 146.89 166.71 148.3C167.093 148.583 167.354 149.002 167.44 149.47C167.602 150.487 167.709 151.512 167.76 152.54C167.84 153.49 168.14 154.12 169.27 153.67C169.35 153.67 169.47 153.56 169.53 153.59C171.22 154.34 171.92 153.26 172.4 151.82C174.61 153.4 173.78 154.82 172.3 156.36L172.63 156.55C174.14 156.35 175.63 156.09 177.16 155.97C177.62 155.97 178.4 156.11 178.53 156.41C178.93 157.35 179.63 157.41 180.45 157.48C181.891 157.511 183.32 157.754 184.69 158.2C187.2 159.31 187.79 160.77 185.98 162.83C185.48 163.4 184.98 163.99 184.47 164.5C183.807 165.092 183.274 165.816 182.906 166.625C182.537 167.434 182.341 168.311 182.33 169.2C182.184 170.81 181.573 172.343 180.572 173.613C179.571 174.882 178.222 175.833 176.69 176.35C174.85 176.98 173.23 177.79 172.69 180.12C172.36 181.5 171.05 182.66 170.16 183.91L167.25 182.61L159.13 180L153.28 177.66Z"
    fill="#303f9f" />
  <path
    d="M168.379 183.34C168.368 183.117 168.157 182.297 169 182.121C168.674 181.904 167.343 181.153 166 180.621C159 178.621 152.046 175.731 152.19 175.794C152.424 176.007 151.763 176.373 151.997 176.585C152.192 176.889 152.386 177.193 152.409 177.64C152.471 177.995 152.23 178.545 152.19 178.637L152.19 178.637C152.15 178.728 151.403 179.93 150.99 180.623C150.576 181.316 150.713 182.25 150.358 182.312C150.002 182.375 149.504 182.265 149.658 182.661C149.812 183.056 149.182 182.998 149.142 183.09C149.061 183.273 149.146 184.075 148.842 184.27C148.539 184.464 148.194 184.75 147.982 184.984C147.718 185.087 147.323 185.241 147.254 185.648C147.184 186.055 146.766 185.762 146.605 186.128C146.445 186.495 146.892 186.472 146.599 186.89C146.306 187.308 146.083 187.319 145.922 187.686C145.761 188.052 145.743 188.591 145.703 188.682C145.663 188.774 145.318 189.06 144.883 189.306C144.447 189.551 144.183 189.654 144.103 189.837C144.022 190.021 144.176 190.416 144.136 190.508C144.096 190.599 143.528 190.896 143.408 191.171C143.287 191.446 143.694 191.515 143.705 191.739C143.716 191.962 142.994 191.864 143.189 192.168C143.292 192.431 143.658 192.592 143.365 193.01C143.073 193.428 143.542 193.853 143.594 193.985C143.645 194.116 143.799 194.512 143.983 194.592C144.166 194.673 144.389 194.662 144.682 194.244C144.975 193.826 145.455 194.474 144.836 194.639C144.349 194.753 144.085 194.856 144.177 194.896C144.269 194.936 144.749 195.585 145.116 195.745C145.391 195.866 146.204 196.005 146.296 196.045C146.388 196.085 147.385 196.304 147.516 196.253C147.648 196.202 146.823 195.84 146.497 195.587C146.211 195.243 145.811 194.412 145.84 194.097C145.869 193.781 146.07 193.323 146.425 193.261C146.74 193.29 147.755 192.971 147.979 192.959C148.202 192.948 148.627 192.479 148.575 192.347C148.524 192.215 147.842 192.025 147.791 191.894C147.739 191.762 147.82 191.578 148.399 191.505C148.977 191.431 149.362 191.054 149.585 191.042C149.809 191.031 150.296 190.917 150.508 190.683C150.721 190.448 150.457 190.551 150.182 190.43C149.907 190.31 150.017 189.811 150.097 189.628C150.177 189.445 150.698 190.001 151.116 190.294C151.534 190.587 151.38 190.191 151.501 189.916C151.621 189.642 151.874 189.315 152.109 189.528C152.343 189.74 153.707 190.12 153.89 190.201C154.113 190.189 154.893 189.658 155.157 189.555C155.421 189.452 155.542 189.177 155.398 189.005C155.204 188.701 154.855 188.002 154.804 187.87C154.752 187.738 155.349 187.126 155.521 186.983C155.693 186.84 154.998 188.174 155.468 188.599C155.977 188.932 156.304 189.184 157.055 188.968C157.806 188.751 158.384 188.677 158.545 188.311C158.666 188.036 159.01 187.75 159.234 187.739C159.457 187.728 159.6 187.9 160.116 187.471C160.592 187.133 160.615 187.58 161.091 187.243C161.567 186.906 161.167 186.074 161.786 185.909C162.405 185.744 163.482 185.78 163.482 185.78C163.482 185.78 163.838 185.717 164.336 185.827C164.834 185.936 165.344 186.269 165.648 186.075C165.82 185.932 166.245 185.463 166.64 185.309C167.036 185.154 167.512 184.817 167.501 184.594C167.438 184.238 168.258 183.615 168.379 183.34Z"
    fill="#303f9f" />
  <path
    d="M95.76 116.19C97.7648 116.19 99.39 114.565 99.39 112.56C99.39 110.555 97.7648 108.93 95.76 108.93C93.7552 108.93 92.13 110.555 92.13 112.56C92.13 114.565 93.7552 116.19 95.76 116.19Z"
    fill="#B1D8FF" stroke="#1976D2" stroke-width="2.31" stroke-linecap="round" stroke-linejoin="round" />
  <path
    d="M129.86 134.34C131.865 134.34 133.49 132.715 133.49 130.71C133.49 128.705 131.865 127.08 129.86 127.08C127.855 127.08 126.23 128.705 126.23 130.71C126.23 132.715 127.855 134.34 129.86 134.34Z"
    fill="#B1D8FF" stroke="#1976D2" stroke-width="2.31" stroke-linecap="round" stroke-linejoin="round" />
  <path
    d="M150.53 112.6C152.535 112.6 154.16 110.975 154.16 108.97C154.16 106.965 152.535 105.34 150.53 105.34C148.525 105.34 146.9 106.965 146.9 108.97C146.9 110.975 148.525 112.6 150.53 112.6Z"
    fill="#B1D8FF" stroke="#1976D2" stroke-width="2.31" stroke-linecap="round" stroke-linejoin="round" />
  <path
    d="M208.13 101.38C210.135 101.38 211.76 99.7548 211.76 97.75C211.76 95.7452 210.135 94.12 208.13 94.12C206.125 94.12 204.5 95.7452 204.5 97.75C204.5 99.7548 206.125 101.38 208.13 101.38Z"
    fill="#B1D8FF" stroke="#1976D2" stroke-width="2.31" stroke-linecap="round" stroke-linejoin="round" />
  <g class="bindings">
    <path d="M96 111C96 111 122.49 -25.41 168.49 35.58" stroke="#fff" stroke-width="3.31" stroke-linecap="round"
      stroke-linejoin="round" stroke-dasharray="100 100" />
    <path d="M130.24 129.9C130.24 129.9 104.24 -32.34 68.58 46.83" stroke="#fff" stroke-width="3.27"
      stroke-linecap="round" stroke-linejoin="round" stroke-dasharray="100 100" />
    <path d="M151.46 109.76C151.46 109.76 28.58 9.68002 47.39 70.81" stroke="#fff" stroke-width="3.27"
      stroke-linecap="round" stroke-linejoin="round" stroke-dasharray="100 100" />
    <path d="M207.76 97.75C207.76 97.75 119.12 -36 108.24 27.68" stroke="#fff" stroke-width="3.27"
      stroke-linecap="round" stroke-linejoin="round" stroke-dasharray="100 100" />
    <path d="M39.7 90C39.7 90 206.76 -16.88 209.13 71.09" stroke="#fff" stroke-width="3.27" stroke-linecap="round"
      stroke-linejoin="round" stroke-dasharray="100 100" />
  </g>
  <path d="M60.59 55C50.1 65.45 42.12 77.92 39 90" stroke="#1976D2" stroke-width="2.32" stroke-linecap="round"
    stroke-linejoin="round" />
  <path d="M92.33 33.7C82.2921 37.7884 73.0436 43.5953 65 50.86" stroke="#1976D2" stroke-width="2.32"
    stroke-linecap="round" stroke-linejoin="round" />
  <path d="M121.87 27.26C115.868 27.6485 109.911 28.5654 104.07 30" stroke="#1976D2" stroke-width="2.32"
    stroke-linecap="round" stroke-linejoin="round" />
  <path
    d="M39.08 93.6C41.0847 93.6 42.7099 91.9748 42.7099 89.97C42.7099 87.9652 41.0847 86.34 39.08 86.34C37.0752 86.34 35.45 87.9652 35.45 89.97C35.45 91.9748 37.0752 93.6 39.08 93.6Z"
    fill="#B1D8FF" stroke="#1976D2" stroke-width="2.31" stroke-linecap="round" stroke-linejoin="round" />
  <path d="M221.93 109.18C217.45 79.3 200.39 53.9 175.29 39.56" stroke="#1976D2" stroke-width="2.32"
    stroke-linecap="round" stroke-linejoin="round" />
  </svg>
