<svg
  id="Globe"
  xmlns="http://www.w3.org/2000/svg"
  width="149.143"
  height="149.143"
  viewBox="0 0 149.143 149.143"
  class="spinning"
>
  <circle
    id="ElipseGlobe"
    cx="52.839"
    cy="52.839"
    r="52.839"
    transform="translate(0 79.353) rotate(-48.669)"
    fill="#4384ec"
  />
  <g id="Right">
    <path
      id="shadow"
      d="M204.477,88.98a52.694,52.694,0,0,0-16.958-10.038q1.045.83,2.059,1.721a52.848,52.848,0,0,1-52.827,89.4A52.839,52.839,0,0,0,204.477,88.98Z"
      transform="translate(-7.842 -121.44) rotate(30)"
      fill="#2c6cd3"
    />
    <path
      id="right-part"
      d="M162.678,270.631l.835,10.123,4.253,5.8-.023.164a3.93,3.93,0,0,1-4.6,3.312l-.154-.028a1.4,1.4,0,0,0-.974,2.595l13.191,7.568a4.1,4.1,0,0,0,3.694.2l3.155-1.389a4.735,4.735,0,0,1,4.318.257l6.738,3.983.014.008a3.23,3.23,0,0,0,2.939.182l6.437-2.809a3.07,3.07,0,0,0,1.836-2.615l.086-1.328a3.07,3.07,0,0,1,3-2.871l4.872-.1a5.593,5.593,0,0,0,1.055-.123l3.153-.677a5.593,5.593,0,0,0,3.978-3.292l3.635-8.605a2.444,2.444,0,0,0,.057-1.756l-.75-2.153a2.446,2.446,0,0,1,1.09-2.924h0a2.446,2.446,0,0,1,3.657,1.913l.185,2.186a3.458,3.458,0,0,0,4.656,2.948l2.788-1.042a52.735,52.735,0,0,0,4.562-19.983l-.5-.565a8.9,8.9,0,0,0-10.121-2.3l-9.9,5.845c-2.782,1.265-3.4,3.684-4.34,5.524a7.4,7.4,0,0,0-.7,2.4,3.26,3.26,0,0,1-3.8,2.765l-1.545-.277a2.34,2.34,0,0,0-2.241,3.766l1.059,1.322a8.346,8.346,0,0,1,1.827,4.976l.028.984a2.75,2.75,0,0,1-3.63,2.684,3.919,3.919,0,0,0-4.3,1.115l-2.454,2.922a5.824,5.824,0,0,1-6.89-4.141l-3.488-12.706a8.881,8.881,0,0,0-8.336-7.135l-.767-.028a4.285,4.285,0,0,1-3.783-2.6l-.042-.1a4.476,4.476,0,0,0-6.823-1.828c-1.795,1.36-3.76,2.845-5.172,3.912A4.471,4.471,0,0,0,162.678,270.631Z"
      transform="translate(-112.974 -184.026)"
      fill="#fff"
    />
    <path
      id="right-part-2"
      d="M294.7,215.412a3.462,3.462,0,0,1,2.342,4.082c-.5,2.18-1.237,4.717-1.949,4.865-.581.121-2.515.291-4.432.438a3.465,3.465,0,0,1-3.678-4.065h0a3.463,3.463,0,0,1,1.2-2.06l3.2-2.647a3.464,3.464,0,0,1,3.24-.635Z"
      transform="translate(-204.845 -153.772)"
      fill="#fff"
    />
    <path
      id="right-part-cyan"
      d="M314.108,259.6a8.9,8.9,0,0,0-10.121-2.3l-5.475,2.307a52.879,52.879,0,0,1-35.684,40.925l4.533,2.68.014.008a3.136,3.136,0,0,0,2.862.215l6.514-2.843a3.07,3.07,0,0,0,1.836-2.615l.086-1.328a3.07,3.07,0,0,1,3-2.871l4.872-.1a5.593,5.593,0,0,0,1.055-.123l3.154-.677a5.593,5.593,0,0,0,3.978-3.292l3.635-8.605a2.446,2.446,0,0,0,.057-1.756l-.75-2.153a2.446,2.446,0,1,1,4.747-1.01l.185,2.186a3.458,3.458,0,0,0,4.656,2.948l2.788-1.042a52.73,52.73,0,0,0,4.562-19.983Z"
      transform="translate(-187.221 -184.027)"
      fill="#f2f2f2"
    />
  </g>

  <g class="spinning-line" transform=" matrix(0.866, -0.5, 0.25, 0.433, 80, 80)">
    <path

      d="M 0,70 A 65,70 0 0,0 65,0 5,5 0 0,1 75,0 75,70 0 0,1 0,70Z"
      fill="#FFC107"
    >
      <animateTransform
        attributeName="transform"
        type="rotate"
        from="360 0 0"
        to="0 0 0"
        dur="1s"
        repeatCount="indefinite"
      />
    </path>
  </g>
  <g id="Left" transform="translate(24 20)">
    <path
      id="left-globe"
      d="M52.839,0a52.839,52.839,0,0,1,52.839,52.839c0,29.182-18.9,1.865-54.2-12.253-19.91-7.963-36.74-15.614-45.2-6.754C.793,30.874.846,65.785.846,53.062.846,23.88,23.657,0,52.839,0Z"
      transform="translate(-24 60.353) rotate(-48.669)"
      fill="#4384ec"
    />
    <path
      id="left-part"
      d="M65.025,99.608l4.018-1.156,1.271.482A2.53,2.53,0,0,0,73.621,95.8l-.233-.729,7.271-7.365a2.782,2.782,0,0,1,4.118.175h0a2.782,2.782,0,0,1-.95,4.295l-.718.339a2.3,2.3,0,0,0-.821,3.515l1.292,1.628a2.3,2.3,0,0,1,.3,2.374l-2.114,4.717a2.53,2.53,0,0,1-3.1,2.407l-2.2-.513a30.014,30.014,0,0,0-12.907-.156l-.766.159a53.039,53.039,0,0,0-1.129,18.706l4.6,4.045a1.211,1.211,0,0,0,1.909-1.4l-.87-1.986a1.21,1.21,0,0,1-.085-.688l1.213-7.156a5.934,5.934,0,0,1,7.768-1.525l4.618,2.744a7.985,7.985,0,0,0,1.822.092l2.787-.179A6.411,6.411,0,0,0,90.9,115.43l2.368-5.528a3.29,3.29,0,0,0-.163-2.919h0a3.29,3.29,0,0,1-.1-3.047l2.437-5.076A3.29,3.29,0,0,1,96.642,97.5l2.075-1.314a3.662,3.662,0,0,0,.459-5.844l-2.935-2.581a3.662,3.662,0,0,1-.387-5.1l3.194-3.808a3.654,3.654,0,0,1,4.7-.77h0a3.654,3.654,0,0,0,4.7-.769l4.453-5.3s.979-3.335,1.624-5.7a53.187,53.187,0,0,0-7.839.527l-1.762,2.285a15.56,15.56,0,0,1-8.773,5.649l-.121.028a3.657,3.657,0,0,1-4.507-3.423h0a52.991,52.991,0,0,0-26.5,28.226Z"
      transform="translate(-63.823 -64.859)"
      fill="#fff"
    />
  </g>
</svg>
