<svg width="597" height="597" viewBox="0 0 597 597" fill="none" xmlns="http://www.w3.org/2000/svg">
  <circle cx="252.517" cy="252.517" r="252.517" fill="#4384EC"/>
  <path opacity="0.5" d="M470.124 378.039C400.394 498.816 245.956 540.197 125.179 470.466C233.098 503.688 363.634 477.593 433.365 356.816C503.096 236.038 475.532 105.363 377.697 33.0935C498.474 102.824 539.855 257.261 470.124 378.039Z" fill="#0D5AD7"/>
  <mask id="mask0" mask-type="alpha" maskUnits="userSpaceOnUse" x="-859" y="3" width="2223" height="501">
  <g>
        <path opacity="0.5" d="M-71.8379 11.0028C-65.3585 10.7436 -59.1383 12.0395 -53.1772 14.6313C-54.4731 15.9272 -55.7689 16.9639 -57.5832 17.7414C-63.5442 21.1107 -70.542 22.1474 -78.0581 21.1107C-84.2784 21.629 -90.2394 22.6658 -96.2005 24.48C-97.4964 24.9983 -98.2739 25.7759 -99.0514 26.8126C-101.643 33.5512 -106.568 37.1796 -113.306 38.4755C-112.529 38.9939 -112.01 39.7714 -111.492 40.8081C-111.492 40.8081 -111.751 41.0673 -112.01 41.0673C-112.529 41.5856 -113.306 42.104 -113.565 42.3632C-114.084 42.8815 -114.343 43.3999 -114.343 43.9182C-107.604 46.7692 -106.568 51.1752 -110.974 56.6179C-111.751 57.6546 -112.269 58.4321 -113.047 59.4688C-115.38 63.8748 -119.008 66.7258 -123.414 68.54C-129.375 70.6134 -135.595 72.6868 -141.556 74.5011C-144.666 70.6134 -147.258 66.4666 -149.332 61.8014C-150.109 59.9872 -151.405 58.9505 -152.96 58.1729C-157.107 55.8403 -161.513 54.0261 -166.437 52.4711C-168.77 51.6935 -171.103 50.916 -173.435 50.3976C-184.061 49.6201 -193.651 46.51 -202.981 41.0673L-202.722 37.9572C-198.316 36.9205 -195.206 35.1062 -193.392 32.7736L-204.536 30.441L-205.573 28.3676L-209.979 27.8493C-210.238 27.3309 -210.497 27.0718 -210.497 26.5534C-211.016 25.2575 -210.497 23.9616 -209.461 22.9249C-210.757 22.6658 -211.534 22.4066 -212.83 22.1474C-215.422 21.3699 -216.718 19.5556 -216.718 16.9639L-211.016 16.1863L-211.534 14.3721L-214.385 12.817L-212.312 10.4845C-217.495 11.0028 -221.642 9.44775 -225.011 5.5601L-223.715 4.78257C-215.681 5.04175 -207.387 6.07846 -199.353 7.89269L-197.279 5.30093C-175.508 4.26422 -154.515 3.22752 -133.522 3.48669C-131.967 4.00504 -129.893 4.00504 -128.338 4.00504C-123.155 4.78257 -118.23 5.04175 -113.306 4.78257C-109.159 4.5234 -105.012 4.78257 -101.125 5.30093C-91.017 7.37434 -80.9091 8.15187 -70.542 7.89269L-71.8379 11.0028ZM-299.395 126.336L-299.136 127.373L-302.246 129.446L-302.764 125.818C-301.209 125.559 -300.172 125.818 -299.395 126.336ZM-212.83 52.9894L-211.534 54.2853C-208.165 52.2119 -204.536 51.6935 -200.649 52.7302C-198.834 55.8403 -199.612 58.6913 -202.981 61.0239C-207.906 64.6523 -213.089 65.1707 -219.309 63.0973C-220.864 62.5789 -222.16 62.0606 -223.456 61.0239C-228.381 57.6546 -227.862 55.0628 -222.679 52.7302L-212.83 52.9894ZM-320.907 146.034L-321.425 141.369L-320.388 139.814L-311.835 140.591L-319.092 145.775L-320.907 146.034ZM-382.85 148.885L-380.517 148.366L-375.593 148.885L-375.852 150.44C-378.444 150.958 -380.776 150.44 -382.85 148.885ZM-38.1449 33.0328C-34.5165 31.7369 -30.6288 30.7002 -26.7412 30.1819C-18.9659 29.1452 -10.9314 29.1452 -3.15611 30.441C0.731537 30.1819 3.06413 31.7369 4.61918 35.6246C4.87836 36.1429 4.87836 36.6613 4.87836 37.1796C-5.22953 39.2531 -15.8558 40.0306 -26.2228 39.7714C-33.4798 39.2531 -39.7 41.3265 -45.1427 46.51L-44.8835 47.8059L-42.0326 49.8793L-34.2573 48.5834L-29.8513 54.5445L-30.888 55.8403C-40.9959 55.322 -50.5854 56.6179 -59.6566 60.2463C-61.4708 60.7647 -63.0259 61.0239 -64.8401 61.2831C-67.6911 60.7647 -70.2828 59.9872 -72.6154 58.6913L-72.8746 57.1362L-65.6177 51.6935C-70.8012 51.9527 -75.7256 51.1752 -80.3907 49.6201C-66.6544 42.8815 -52.3997 37.4388 -38.1449 33.0328ZM-353.822 147.848L-345.528 147.33L-346.565 149.921L-354.081 149.662L-353.822 147.848ZM-100.347 102.233C-100.866 101.455 -100.866 100.16 -100.866 99.1228H-98.0147L-89.2027 112.6C-96.2005 115.451 -103.457 115.71 -110.455 113.896C-109.159 108.712 -106.049 105.343 -100.866 104.566C-100.347 104.306 -99.829 103.788 -99.5698 103.529V103.01C-99.829 103.27 -100.088 102.751 -100.347 102.233ZM40.1264 16.9639C35.4612 19.0373 31.5735 18.5189 27.9451 15.9272C31.5735 14.1129 34.9428 13.3354 39.3488 13.8538C40.3856 14.3721 40.9039 15.1496 40.6447 16.4455C40.6447 16.4455 40.3855 16.7047 40.1264 16.9639ZM39.3488 24.7392C34.9428 25.2575 30.796 25.2575 26.6492 23.7025C23.5391 26.035 20.6881 26.5534 17.8372 24.9983V24.2208C17.8372 21.3699 16.5413 19.2965 14.4679 18.0006C16.2821 14.8905 18.8739 13.5946 22.2432 13.5946L23.5391 17.223L24.0574 20.074C27.9451 20.3332 31.8327 20.8515 35.7204 21.629C36.4979 21.8882 37.5346 21.629 38.053 21.1107C42.459 19.0373 45.3099 19.8148 46.0874 23.9616C45.8283 24.2208 45.3099 24.48 44.7915 24.7392C43.2365 25.2575 41.4223 25.2575 39.3488 24.7392ZM-8.85799 57.6546L-8.59881 61.5422L-6.52541 64.134C-9.37636 64.6523 -12.2273 65.1707 -15.0782 65.6891C-16.8925 63.8748 -19.225 63.3565 -21.8168 63.3565C-23.631 63.8748 -25.4453 63.8748 -27.2595 63.8748L-26.482 62.3198C-20.7801 59.728 -15.0782 57.9138 -9.11718 56.8771L-8.85799 57.6546ZM-7.04376 13.5946C-6.78458 13.0762 -6.78459 12.817 -6.52541 12.2987C-5.74788 10.7436 -4.71117 9.9661 -2.89694 9.9661C3.06412 7.89269 8.766 8.41105 14.2087 11.0028L13.9495 13.8538C7.21095 17.223 0.213184 17.223 -7.04376 13.5946ZM34.4245 37.4388C33.1286 37.4388 31.8327 37.1796 30.5368 36.9205L30.0185 33.292L32.8694 32.5145L30.0185 30.7002C33.1286 29.6635 35.9796 29.4043 39.3488 29.4043C39.8672 29.4043 40.3855 29.9227 40.9039 29.9227L40.3856 33.0328L44.7915 34.0695C41.9406 36.4021 38.3121 37.4388 34.4245 37.4388ZM-21.2985 26.035L-21.8168 25.2575C-21.0393 23.9616 -20.0026 23.4433 -18.7067 23.4433C-8.59882 23.1841 2.02742 22.9249 12.3945 22.9249C11.617 23.7025 11.0986 24.2208 10.0619 24.48C-0.305173 28.1085 -10.6722 28.6268 -21.2985 26.035ZM20.4289 30.1819C23.5391 32.2553 24.0574 34.3287 22.5024 35.8838L19.6514 35.6246C19.1331 35.3654 18.8739 35.1062 18.6147 34.8471C14.7271 34.5879 11.617 33.0328 9.28437 30.441L13.9495 29.4043C16.5413 28.6268 18.8739 28.886 20.4289 30.1819ZM-3.41528 20.8515C-4.71117 21.8882 -6.5254 22.4066 -8.59881 22.1474C-10.1539 21.629 -11.7089 21.629 -13.5232 22.1474C-20.5209 23.1841 -26.7412 21.3699 -32.7022 17.4822C-33.9981 16.7047 -35.294 15.9272 -36.8491 15.4088C-48.512 12.0395 -60.1749 8.41105 -72.0971 5.30093L-61.73 4.78257C-56.2873 5.30093 -50.8446 5.30093 -45.4019 4.26422C-31.9247 4.00504 -18.9659 5.5601 -6.78459 8.67022L-8.85799 15.4088L-3.41528 20.8515ZM-529.284 235.19V234.154L-523.323 226.378C-521.25 228.452 -520.473 230.784 -520.473 233.376C-520.473 236.227 -521.768 238.301 -524.36 239.078L-529.284 235.19ZM-299.654 137.999L-303.542 136.444L-304.06 132.557L-303.283 131.261H-299.136C-298.358 133.334 -298.877 135.667 -299.654 137.999ZM-474.339 9.18858L-466.823 11.262L-474.339 11.7803V9.18858ZM-466.564 8.41105C-462.935 7.11516 -459.566 7.89269 -457.493 11.0028C-456.974 11.5212 -456.715 11.5212 -456.456 12.0395C-460.603 13.3354 -464.231 12.2987 -466.564 8.41105ZM-411.359 330.308C-412.137 333.937 -414.21 335.233 -418.357 334.196C-421.726 330.308 -423.54 325.643 -424.577 320.978C-426.132 313.203 -427.428 305.687 -428.465 297.911C-428.724 295.838 -427.687 294.283 -425.873 293.764L-408.767 310.093C-410.063 314.758 -410.582 319.423 -410.322 324.347C-410.322 326.421 -410.582 328.494 -411.359 330.308ZM-244.19 100.419C-247.819 99.9004 -250.67 98.8637 -253.261 97.3086C-253.261 96.7902 -253.261 96.5311 -253.521 96.0127C-254.039 93.1618 -254.557 90.8292 -254.817 89.2741L-248.855 87.9782L-247.56 88.2374L-246.005 91.0884L-241.08 92.3842V93.6801C-241.339 94.976 -241.08 96.0127 -240.562 97.0494C-239.525 98.3453 -239.525 99.382 -240.043 100.419C-241.339 100.678 -242.894 100.678 -244.19 100.419ZM-263.369 93.1618L-258.445 94.976L-256.372 99.9004L-257.667 101.974L-256.631 105.343L-275.551 100.937L-277.883 95.7535C-270.885 93.1618 -267.516 88.7558 -266.998 82.2763C-266.998 81.2396 -267.257 80.4621 -267.516 79.6846L-262.592 78.3887L-261.037 76.3153L-260 76.0561C-256.631 77.6112 -255.076 80.4621 -255.076 84.3498C-256.89 88.2374 -259.482 91.0883 -263.369 93.1618ZM-453.864 9.70693H-449.199L-448.162 8.9294C-445.311 8.9294 -442.979 9.18857 -440.646 10.2253C-440.646 10.2253 -440.646 10.4845 -440.646 10.7436C-445.052 11.262 -449.717 11.7803 -453.605 11.7803L-453.864 9.70693ZM-434.167 37.698L-458.011 39.5122L-457.493 38.4755C-454.123 38.2163 -451.013 36.6613 -448.681 34.0695C-452.309 29.1452 -457.233 26.2942 -464.231 25.5167C-471.229 24.9983 -477.708 24.48 -484.447 23.1841C-484.188 22.6658 -483.929 22.1474 -483.151 22.1474C-470.192 22.1474 -457.493 23.7025 -445.052 27.0718C-441.424 28.1085 -438.314 30.1819 -436.24 33.5512C-435.203 34.8471 -434.944 36.1429 -434.167 37.698ZM-312.613 15.9272L-326.09 19.2965L-329.459 16.7047L-344.232 16.9639L-340.863 14.8905C-344.751 15.4088 -347.861 14.6313 -349.934 12.5579C-343.973 10.7436 -337.753 10.2253 -331.533 11.262L-329.459 13.8538L-326.608 13.3354L-324.535 15.668L-320.647 15.4088L-320.388 14.8905C-320.907 14.6313 -320.907 14.6313 -321.684 14.3721L-322.202 13.0762L-319.611 11.7803L-315.723 13.8538L-312.095 12.5579L-311.058 12.817L-310.54 13.8538L-311.058 15.1496L-312.613 15.9272ZM-437.536 12.0395C-437.018 11.7803 -437.018 11.5212 -436.758 11.5212C-429.242 8.9294 -422.245 8.67022 -415.247 10.2253C-422.504 12.2987 -430.02 12.817 -437.536 12.0395ZM-44.6244 195.277L-40.2184 191.649C-37.8858 190.353 -35.294 189.316 -32.9614 188.02C-26.2228 184.651 -20.2618 184.91 -14.8191 188.539V190.094C-16.8925 191.39 -18.9659 191.39 -20.7801 190.612C-26.7412 188.02 -30.888 189.575 -32.4431 195.536C-37.1082 197.351 -41.2551 197.351 -44.6244 195.277ZM204.703 77.8704L195.373 72.946L198.742 76.8336L197.447 79.4254L182.673 75.5378L182.933 72.6868L180.859 71.3909C168.16 76.0561 154.942 78.3887 141.464 77.6112L137.058 85.6456L138.613 88.4966L136.022 91.0884L133.948 88.2374L121.508 100.937L123.581 103.27L112.696 108.972L108.808 135.148L105.957 135.667C97.4044 147.33 88.5924 158.993 79.0028 170.656L80.2987 171.951L60.3421 191.39L61.3789 186.984C70.7092 179.208 78.2253 170.137 84.4456 159.77L79.262 161.844C75.8927 169.1 70.9684 174.802 64.2298 178.949L65.5257 179.986L52.3077 190.871L50.7526 195.796L36.4979 202.016L35.202 204.867L18.8739 210.31L17.578 207.977H14.9862C9.80272 212.124 4.10083 215.752 -1.60106 218.862C-3.41529 219.64 -4.71117 221.195 -6.00705 223.268C-8.85799 228.452 -13.0048 232.34 -18.4475 234.413C-22.8535 236.486 -27.7779 236.486 -32.7022 234.672L-35.5532 235.45L-35.8124 247.113L-33.4798 250.482L-31.4064 251.259C-28.2962 255.925 -26.2228 261.108 -24.6678 266.292L-28.2962 267.328L-28.0371 269.143L-23.8902 270.698L-22.8535 271.994C-28.8146 281.065 -34.5165 290.395 -40.2184 299.985C-44.106 306.982 -49.5487 311.648 -56.8056 314.239C-56.2873 323.051 -55.769 331.863 -54.7322 340.675L-52.6588 341.971C-53.6955 350.524 -53.1772 358.559 -50.5854 366.852L-48.512 368.148V371.258L-46.4386 371.777C-46.1794 374.627 -46.6978 377.738 -47.7345 380.589C-48.2528 382.403 -48.7712 384.217 -48.7712 386.031L-50.0671 387.586L-49.5487 389.66L-46.957 389.919L-45.6611 390.696C-47.7345 394.325 -47.7345 397.694 -45.6611 400.804L-43.0693 401.582V406.247L-46.1794 409.616L-45.1427 412.467L-45.6611 414.022L-48.512 414.541L-49.0304 415.059L-49.5487 420.243L-54.7322 424.13L-58.8791 422.575C-64.8401 427.24 -71.3195 428.277 -78.5765 425.426L-78.0581 424.13L-68.4686 419.724L-69.2461 415.318L-65.0993 414.281L-64.3218 412.986L-65.0993 411.431C-70.0237 409.357 -73.3929 406.247 -74.948 401.323C-71.5787 401.841 -69.2461 400.286 -67.6911 397.435C-67.4319 397.176 -67.4319 396.917 -67.1727 396.398L-72.3562 394.843L-73.3929 390.178L-78.3173 387.068L-77.0214 384.995C-73.9113 385.513 -71.8379 383.958 -70.2828 381.107L-81.6866 380.589C-82.4641 378.774 -82.4641 376.96 -81.4274 375.405C-86.3518 376.183 -90.7578 375.923 -95.423 375.146C-99.0514 374.368 -100.866 372.036 -101.384 368.148C-99.5698 366.852 -98.7923 365.038 -98.5331 362.965L-96.4597 360.632C-99.3106 362.705 -101.643 362.705 -104.235 361.15C-109.159 358.04 -114.084 354.412 -118.49 350.783C-121.859 348.191 -123.932 344.822 -125.487 341.453C-126.006 339.379 -126.006 337.565 -125.228 335.233C-131.189 332.382 -137.15 329.531 -143.371 326.68C-144.926 325.643 -146.222 324.866 -147.258 323.57C-150.368 319.941 -152.442 315.794 -152.96 311.648C-153.479 309.833 -153.479 308.019 -153.738 306.464C-154.774 299.725 -157.884 294.283 -163.068 290.136C-164.105 289.099 -164.882 287.803 -165.141 286.507C-165.66 279.51 -162.55 274.326 -155.293 271.216C-153.738 270.698 -152.183 269.661 -150.628 268.883L-146.74 267.588H-137.41L-136.114 269.402L-134.818 268.624L-135.336 265.255C-133.263 262.145 -130.671 260.849 -126.783 260.849H-124.969L-125.487 262.922L-124.192 264.218L-123.155 263.7L-123.673 259.812L-123.155 259.035L-121.859 258.257C-119.008 259.035 -116.675 260.331 -114.861 262.922L-113.824 261.108L-114.343 259.035C-116.416 258.776 -117.971 257.739 -118.749 256.184C-116.675 247.372 -110.974 241.67 -102.939 238.819C-102.162 238.56 -101.125 238.56 -100.088 238.819C-96.4597 238.301 -93.8679 236.746 -91.5353 233.635C-87.9069 228.97 -83.76 225.86 -78.3173 224.823C-76.2439 224.305 -74.1705 224.564 -72.0971 225.342L-71.5787 220.158L-70.2828 219.381L-69.2461 219.899L-66.3952 223.268C-64.0626 222.75 -61.9892 221.195 -60.175 219.122C-56.5465 220.677 -54.4731 223.268 -53.4364 226.897C-52.1405 223.787 -52.6588 220.936 -54.7322 217.826C-51.363 218.862 -47.9936 219.899 -44.8835 221.195C-43.5876 221.972 -42.2918 222.491 -40.9959 222.75C-40.7367 225.601 -39.1817 228.452 -36.8491 230.525L-37.3674 233.376L-32.7022 234.672L-35.294 233.117L-35.5532 232.08C-29.3329 231.562 -23.1127 230.007 -16.8925 227.934C-16.3741 227.674 -16.1149 227.156 -16.3741 226.638C-16.6333 223.787 -16.8925 221.195 -17.4108 218.085C-17.67 215.752 -17.67 213.16 -16.8925 210.828C-12.4865 208.754 -7.82129 207.459 -3.15611 207.199L-9.11718 191.39L-8.33964 190.612C-1.0827 188.798 3.84165 190.871 6.43341 196.573C6.95177 197.869 7.7293 198.647 8.50683 199.424C13.9495 202.275 18.8739 201.498 23.5391 196.314C29.241 189.835 29.7593 182.837 25.3533 175.58C24.0574 173.247 22.2432 171.692 19.9106 170.656C16.2821 168.582 11.8761 167.805 7.7293 168.841L6.95178 169.878L3.84165 169.619L3.58247 166.25H-8.59881L-9.37635 168.064L-12.2273 168.582L-12.7456 167.545L-14.8191 167.027C-16.3741 170.915 -17.67 174.802 -19.225 178.69C-21.2985 181.541 -23.6311 182.578 -27.0003 182.318C-27.7779 175.062 -26.482 168.064 -23.1127 161.584L-29.5921 156.919L-30.6288 154.846C-35.0348 153.55 -38.9225 151.217 -42.2918 147.848C-39.7 145.256 -38.9225 142.664 -40.2184 139.554L-43.0693 139.036L-43.8468 135.408C-49.2895 135.926 -54.4731 134.371 -59.1382 131.779L-56.2873 129.706L-56.0281 127.632C-58.1015 126.336 -59.3974 124.781 -59.6566 122.449L-68.4686 119.598C-66.6544 121.671 -66.6544 124.004 -68.2094 125.818C-70.542 126.077 -72.6154 124.781 -73.9113 122.708C-78.0581 123.226 -81.6866 121.93 -84.7967 119.079L-84.0192 116.747C-78.8357 118.043 -74.6888 116.228 -71.5787 112.341C-70.8012 111.045 -70.2828 109.749 -69.7645 108.194V107.157C-63.8034 106.639 -58.3607 107.935 -53.4364 111.563C-63.2851 103.788 -74.6888 100.678 -87.1293 101.715C-87.6476 102.233 -88.4252 102.233 -88.9436 101.974C-90.2394 101.196 -91.0169 99.9004 -91.0169 98.3453C-93.8679 97.8269 -95.6821 96.7902 -97.2372 94.7168C-94.6454 88.7558 -90.2394 85.3865 -83.2416 84.0906C-82.7233 84.0906 -82.7233 83.8314 -82.4641 83.3131C-81.1683 78.3887 -79.354 74.7602 -75.7255 72.1685C-72.3562 74.2419 -68.7278 75.7969 -65.0993 76.3153C-60.6933 72.4276 -56.5465 68.54 -53.1772 64.134C-46.4386 60.5055 -39.9592 58.6913 -33.2206 57.9138L-31.9247 59.2096C-33.9981 62.8381 -34.2573 66.7258 -32.7022 70.6134L-34.7756 74.2419L-31.1472 79.4254L-31.6655 80.2029C-34.5165 81.2396 -35.5532 83.0539 -34.7756 85.9048L-27.2595 90.8292L-27.7779 100.16L-23.3719 101.455L-16.8925 90.57C-9.89471 89.2741 -3.15611 86.9415 3.06413 84.3498C4.36001 83.8314 5.91506 83.5722 7.47012 83.8314C13.6904 82.7947 16.8005 79.4254 17.3188 73.7235C17.3188 70.8726 16.2821 68.7992 13.6904 67.5033C11.617 66.4666 9.28437 65.4299 6.95178 64.6523C2.02742 62.5789 -1.34188 58.6913 -3.15611 53.7669C-8.08047 53.5078 -13.0048 53.2486 -17.9292 52.2119L-18.4475 50.1385L-15.5966 47.8059L-17.4108 45.7325C-14.0415 43.3999 -9.63552 42.8815 -4.97034 43.9182L-6.26622 47.5467L-1.86023 49.6201C4.87836 47.8059 10.8394 45.2141 16.5413 41.0673C20.1698 38.7347 23.7983 38.7347 27.4267 41.5856C24.835 42.8815 22.5024 44.4366 20.1698 46.51C19.9106 47.0283 19.6514 47.2875 19.3922 47.8059L23.2799 49.6201V51.4343C25.8717 49.3609 28.7226 48.5834 32.3511 48.5834C37.5346 49.1018 42.459 49.6201 47.6425 50.1385L48.9384 48.5834H62.4156L60.3421 50.1385H79.262L79.7804 47.2875C93.5167 43.659 107.512 42.8815 121.508 44.6958C127.987 44.1774 134.726 44.1774 141.464 45.2141C145.352 45.9916 149.499 46.51 153.646 46.2508C178.008 43.3999 202.63 43.1407 226.993 45.7325C230.88 45.7325 234.768 46.2508 238.137 47.0283L222.846 57.9138L243.839 59.2096L240.988 63.8748L226.474 63.0973V64.9115L240.729 70.0951L237.878 76.0561L230.621 76.8336L231.399 80.7213L226.993 81.758L225.697 79.6846L224.142 81.4988L217.144 80.7213L249.541 94.976L248.763 98.0861L203.667 80.2029L204.703 77.8704ZM90.6658 34.3287C87.5557 32.7736 84.1864 30.9594 80.8171 29.4043L81.0763 28.3676C87.8149 26.2942 94.2943 25.7759 100.774 27.8493C103.884 28.886 106.476 30.9594 108.031 34.0695L107.512 36.1429C102.329 37.9572 96.6269 37.1796 90.6658 34.3287ZM53.8627 17.223C53.6036 17.223 53.6036 17.223 53.8627 17.223C58.2687 15.9272 62.6747 16.7047 67.0807 18.7781L66.8216 20.8515C62.1564 21.3699 57.7504 20.3332 53.8627 17.223ZM61.638 34.3287C66.044 34.5879 69.9317 34.5879 74.3377 34.5879C78.7437 34.5879 82.8905 35.1062 87.0373 35.6246L89.1107 38.9939C83.9272 45.9916 76.4111 48.5834 66.5624 46.7692C62.9339 46.2508 59.3054 46.2508 55.677 46.51C49.9751 46.7692 44.5324 45.2141 39.608 42.8815L39.0897 41.5856C45.3099 40.8081 49.9751 37.1796 52.826 30.9594C55.677 32.7736 58.7871 34.0695 61.638 34.3287ZM27.9451 44.4366L34.4245 43.1407L37.2754 45.2141L27.1675 45.7325L27.9451 44.4366ZM79.7804 24.2208L77.4478 27.8493H75.8927L72.5234 25.7759H71.2275V28.6268C64.489 28.1085 57.7504 27.3309 51.5301 26.5534C50.4934 26.035 49.9751 25.7759 48.9384 25.2575C53.6035 20.8515 58.2687 20.8515 62.4156 24.9983C66.044 23.1841 69.4133 21.3699 73.301 19.5556L92.48 21.1107L93.2576 22.4066L91.1842 24.7392L79.7804 24.2208ZM-66.136 202.275H-71.0604V200.202H-66.136V202.275ZM-31.6655 200.461L-38.4041 202.016L-38.6633 200.72L-31.6655 199.165V200.461V200.461ZM-53.9547 203.312C-56.2873 201.238 -59.1382 200.202 -62.7667 200.461L-61.9892 198.128C-57.8424 195.277 -53.4364 194.241 -48.512 194.5L-47.4753 196.314L-48.7712 199.683C-46.1794 199.424 -44.3652 199.942 -42.8101 200.979L-44.106 201.757C-47.7345 200.461 -50.8446 201.238 -53.9547 203.312ZM-733.775 381.366C-731.183 382.144 -728.591 382.921 -726.259 383.699L-725.74 385.772L-728.073 387.586L-728.591 392.511L-729.628 392.77C-730.146 392.511 -730.924 392.511 -731.183 392.251C-735.33 390.178 -736.626 386.809 -735.33 382.144L-733.775 381.366ZM-691.27 155.105C-688.937 154.068 -686.864 154.587 -685.568 156.919L-686.086 159.77L-691.27 156.919V155.105ZM-746.215 275.104L-747.252 272.253L-745.956 271.734L-743.364 274.067L-737.144 274.326L-736.626 276.14C-739.995 278.473 -743.364 278.214 -746.215 275.104ZM-720.298 107.935L-722.63 109.749L-714.855 88.4966C-714.855 97.3086 -715.373 106.121 -716.928 114.933L-721.853 116.488L-718.224 110.527V107.676L-720.298 107.935ZM-798.569 478.816C-794.163 474.67 -788.461 472.855 -781.722 473.374L-779.39 468.968C-772.91 468.709 -766.431 469.227 -760.211 470.264C-750.103 470.264 -740.254 468.19 -731.442 464.043C-730.405 463.784 -729.628 463.525 -728.85 463.266C-727.814 463.007 -727.295 462.229 -726.518 461.97C-715.114 460.933 -703.71 461.452 -692.566 463.007C-677.793 465.08 -663.02 465.598 -647.728 465.08C-638.398 463.784 -628.808 463.525 -619.219 463.784C-618.182 464.043 -617.145 464.303 -616.109 464.562C-600.04 463.266 -583.971 463.266 -568.161 465.08C-567.383 464.562 -566.606 464.043 -565.828 463.784C-564.792 463.007 -560.904 462.488 -556.498 462.488V458.341C-553.388 458.082 -550.796 458.082 -550.019 458.082C-547.427 457.564 -545.094 457.564 -543.021 457.823C-540.947 458.082 -538.615 458.342 -537.06 459.119C-535.764 459.378 -534.468 459.897 -533.431 460.415C-525.915 462.229 -518.658 464.821 -511.92 468.19C-506.736 471.041 -501.293 473.633 -496.11 476.484C-490.926 479.594 -485.224 481.149 -479.523 481.667C-479.004 479.594 -479.523 477.78 -480.3 475.706C-482.374 470.782 -482.114 466.117 -479.782 461.452C-459.566 459.378 -439.609 460.674 -419.912 465.339C-415.506 466.635 -411.1 466.894 -406.694 466.376C-376.889 468.449 -347.083 469.227 -317.278 469.227L-316.241 468.449C-313.65 470.264 -311.058 471.3 -307.948 472.596C-307.17 472.855 -305.874 472.855 -305.097 473.115C-303.283 473.115 -301.468 473.374 -299.395 473.374C-298.358 473.374 -297.321 473.374 -296.544 473.115C-294.73 472.855 -292.915 472.596 -291.101 472.078H-288.25C-287.473 472.337 -286.436 472.596 -285.659 473.115C-278.142 475.965 -270.626 477.261 -262.333 477.521C-253.78 477.78 -245.486 477.002 -236.933 475.966C-230.454 474.67 -224.234 475.188 -218.013 477.261C-214.644 478.298 -212.052 480.112 -209.72 482.445C-205.314 487.628 -203.5 494.108 -204.536 501.106C-201.945 501.365 -199.612 501.624 -197.02 501.624C-192.096 501.883 -186.912 502.142 -181.988 502.142H-151.664C-149.073 502.142 -146.481 502.142 -143.889 501.883C-123.414 501.365 -103.457 500.069 -83.5008 497.996C-81.1682 497.996 -79.0948 496.959 -77.799 495.145C-75.7256 493.071 -75.4664 490.739 -76.2439 488.147C-80.1315 476.225 -85.5743 465.08 -92.8312 454.454L-94.1271 453.936L-95.423 451.862L-94.9046 448.234C-93.8679 448.493 -92.8312 448.493 -92.0537 448.752C-89.9803 449.27 -88.4252 450.048 -87.1293 451.085C-83.5008 453.935 -79.6132 456.009 -75.4664 457.305C-70.2828 459.119 -66.136 462.488 -63.8034 467.672C-60.9525 468.19 -57.8424 469.486 -55.2506 471.041C-50.5854 473.892 -46.1794 477.78 -42.2918 481.927C-19.2251 476.225 4.36001 474.151 27.9451 475.447C28.7226 475.966 29.7593 476.225 30.2777 476.743C35.202 479.853 40.1264 482.704 45.3099 485.037C45.8282 485.296 46.3466 485.555 46.6058 485.555C50.2342 485.555 53.6036 485.814 57.4912 486.073H66.8216C73.0418 486.333 79.5212 486.592 85.7414 486.851C88.8516 486.851 91.9617 487.11 95.0718 487.369C98.1819 487.628 101.292 487.628 104.402 487.888C138.873 489.183 172.825 491.516 207.036 495.663C211.442 496.181 215.589 496.44 219.995 496.7C226.215 496.959 230.621 499.032 233.99 503.438H-782.759C-781.204 502.661 -779.908 501.883 -778.353 501.106C-776.28 500.328 -775.502 499.032 -775.502 496.7C-775.502 495.663 -776.021 494.885 -776.539 494.626C-783.277 491.257 -790.016 488.406 -796.496 485.296C-798.569 484.259 -799.865 482.963 -800.124 480.89C-798.828 479.594 -798.828 479.076 -798.569 478.816ZM-734.034 282.361C-731.961 275.881 -727.555 270.957 -721.334 268.106C-716.669 265.514 -711.486 263.7 -706.043 262.404C-705.006 262.145 -703.969 262.145 -703.192 262.922C-699.563 264.996 -695.676 266.032 -692.307 265.773V261.626L-690.233 259.553L-678.57 260.071C-680.384 263.959 -683.495 266.033 -687.901 265.255L-686.864 266.81L-684.79 267.069L-687.123 271.475L-687.901 269.661L-689.196 268.883L-691.27 269.92L-692.047 271.475C-695.417 271.216 -698.786 271.994 -701.637 273.549L-704.229 280.546L-700.6 282.62L-702.155 284.693L-703.451 285.212C-704.747 283.656 -706.302 283.657 -707.857 284.434C-708.375 284.952 -708.894 285.471 -709.412 286.248L-712.522 287.285L-714.855 285.989L-716.669 287.285L-716.151 289.618L-720.038 292.209L-719.52 287.544L-721.075 285.471L-720.038 282.879L-725.481 281.842C-725.74 282.361 -725.999 283.138 -726.259 283.916C-729.369 289.358 -734.034 290.913 -739.995 288.581L-739.477 284.434C-737.403 285.989 -735.33 285.471 -734.034 282.361ZM-694.121 149.144C-687.901 147.848 -683.235 149.662 -679.866 155.105C-677.533 159.511 -678.052 162.88 -682.199 164.954C-682.717 164.176 -682.976 163.399 -683.495 162.621C-684.79 160.288 -685.05 157.956 -684.013 155.364C-686.086 153.291 -688.937 152.513 -691.788 153.291L-695.676 159.511C-698.527 156.66 -701.378 154.587 -705.265 153.291C-714.337 150.44 -717.706 144.479 -714.596 134.63V135.667L-712.522 132.816L-710.449 132.557L-706.043 142.924C-701.637 143.701 -697.49 145.775 -694.121 149.144ZM-814.638 361.15C-812.564 358.818 -811.269 357.781 -810.232 358.299C-810.232 358.559 -810.491 358.818 -810.491 358.818C-813.342 362.187 -814.897 366.075 -815.156 370.481C-813.601 375.664 -813.86 380.848 -816.193 386.031H-817.748C-821.636 382.144 -824.487 377.738 -825.782 372.813L-819.303 370.221C-818.525 367.111 -816.711 364.001 -814.638 361.15ZM-858.439 52.9894C-853.255 52.2119 -848.072 50.916 -843.406 49.6201C-827.338 44.4366 -811.269 43.1407 -794.94 45.9916L-794.163 47.2875C-788.202 45.7325 -782.759 45.7325 -776.798 47.0283C-774.725 44.9549 -772.392 43.3999 -769.282 42.8815C-767.209 43.1407 -765.135 42.8815 -763.321 42.3632C-745.697 38.4755 -727.555 36.4021 -709.412 36.9205L-707.339 39.7714L-677.274 40.8081L-676.238 42.3632H-674.423V41.0673C-674.423 36.4021 -671.832 34.0695 -666.648 34.0695C-663.797 34.3287 -660.687 34.3287 -657.836 34.3287C-651.875 34.3287 -646.173 33.8103 -640.471 33.0328C-626.994 32.5145 -613.517 33.8103 -600.558 37.9572C-600.817 37.4388 -601.076 36.6613 -601.854 36.1429C-602.372 35.3654 -602.891 34.847 -603.15 34.3287C-604.446 33.292 -605.482 33.0328 -606.778 33.0328C-612.739 31.7369 -618.441 30.1819 -624.402 28.1085L-624.921 24.9983L-622.588 22.9249C-616.886 22.4066 -611.184 22.4066 -605.482 21.8882C-596.67 22.9249 -588.118 22.4066 -579.306 20.5923L-580.861 17.7414C-584.489 18.5189 -587.34 18.0006 -589.673 16.1863L-590.191 13.5946C-584.23 11.5212 -577.751 11.0028 -571.271 12.0395L-569.716 14.6313C-567.902 12.817 -561.682 11.262 -555.721 9.9661V14.3721C-554.425 14.6313 -553.647 14.8905 -553.647 15.1496C-550.537 20.8515 -548.464 23.7025 -547.686 23.7025C-546.39 23.9616 -545.613 24.2208 -544.317 24.2208C-540.688 24.7392 -536.801 25.2575 -533.172 26.035C-532.913 26.035 -532.654 26.035 -532.654 26.035V26.8126C-531.358 27.0718 -530.321 27.3309 -529.025 27.3309L-530.062 30.1819C-528.766 30.7002 -527.211 31.2186 -525.656 31.4778C-524.101 31.9961 -522.546 31.9961 -520.991 31.9961L-519.695 30.9594C-513.475 35.3654 -506.477 36.9205 -498.961 35.3654L-498.183 36.9205L-503.367 44.6958C-502.589 44.4366 -501.812 44.1774 -501.034 43.9182C-495.073 41.8448 -491.186 37.698 -489.371 31.4778C-486.78 31.2186 -484.188 31.9961 -482.374 33.0328C-480.3 34.3287 -479.004 36.1429 -478.745 38.2163C-479.523 39.2531 -480.041 40.0306 -480.818 40.5489C-483.151 42.8815 -485.743 44.4366 -488.594 45.4733C-478.486 43.9182 -467.86 42.6223 -457.233 41.8448L-457.752 45.2141C-450.495 46.51 -443.497 46.7692 -435.981 46.51C-434.167 46.51 -432.612 46.7692 -430.797 47.2875C-426.132 49.3609 -421.208 50.3976 -416.024 50.3976C-414.728 50.3976 -413.951 49.8793 -412.914 49.3609C-407.731 45.2141 -403.584 46.51 -400.992 52.9894C-395.809 54.8036 -390.884 57.1362 -385.96 60.2463L-379.221 58.1729L-376.37 52.2119C-377.407 52.7302 -378.185 52.9894 -378.962 53.5078C-384.923 55.5812 -390.625 55.322 -395.809 51.9527C-395.031 50.916 -394.254 50.3976 -393.217 49.8793C-381.813 46.2508 -370.409 43.1407 -358.746 41.0673L-358.228 40.5489L-349.934 41.8448L-348.898 39.7714L-338.79 41.0673L-338.271 42.104L-334.125 42.8815L-332.57 41.8448L-325.831 43.9182L-325.053 45.9916C-322.98 45.4733 -320.907 45.7325 -319.351 46.51C-318.315 47.0283 -317.019 47.5467 -315.982 47.8059L-318.574 49.6201L-311.058 54.2853C-304.578 59.728 -297.321 64.134 -289.287 66.9849C-288.509 70.6134 -289.546 73.7235 -291.62 76.3153C-293.952 79.6846 -296.803 79.9438 -299.654 77.8704C-300.95 77.0928 -302.246 76.5745 -304.06 76.5745C-304.578 76.0561 -305.356 76.0561 -305.356 76.5745C-308.984 80.4621 -313.131 84.0906 -317.019 87.4599L-324.794 84.6089L-325.831 77.352L-331.014 75.0194C-331.533 72.946 -330.755 71.1318 -329.2 69.8359C-327.904 69.3175 -327.645 68.54 -327.904 66.9849C-328.423 63.3565 -330.755 61.0239 -334.643 60.7647C-336.198 58.6913 -338.271 57.1362 -340.086 55.8403C-342.937 54.5445 -345.788 54.5445 -348.12 56.3587C-347.861 56.8771 -347.602 57.3954 -347.343 57.6546C-346.306 59.728 -344.492 61.2831 -342.677 62.0606C-341.381 62.3198 -340.604 62.5789 -339.567 63.0973L-338.79 65.1707C-339.049 66.2074 -339.308 66.9849 -339.567 67.5033C-342.418 71.9093 -346.565 73.4643 -351.23 71.6501C-356.414 69.8359 -360.301 70.3542 -362.634 73.4643C-356.155 74.7602 -349.675 75.7969 -342.677 76.8336C-342.937 78.1295 -343.196 79.9438 -343.196 81.2396C-343.196 80.9805 -343.196 80.9805 -342.677 80.9805C-341.381 80.9805 -340.345 80.7213 -339.049 80.7213C-338.271 80.7213 -337.753 80.9805 -337.235 81.2396C-336.716 81.758 -335.939 81.758 -335.68 82.0172L-334.643 87.7191C-332.569 88.2374 -330.237 89.0149 -327.645 89.2741C-320.129 91.3475 -312.872 91.3475 -305.356 89.7925L-310.28 88.4966V85.3865H-306.911C-306.652 85.3865 -306.393 85.3865 -306.393 85.6456C-306.393 85.9048 -306.393 86.164 -306.133 86.164H-305.356C-305.356 86.164 -305.097 86.164 -304.838 86.164C-304.578 84.3498 -304.578 83.0539 -304.319 81.4988L-297.84 84.0906L-299.913 90.0517L-298.877 92.1251L-291.879 91.6067C-289.805 93.9393 -287.991 96.0127 -285.659 98.0861C-283.585 99.9004 -281.253 100.419 -278.661 100.16L-278.142 103.529L-272.7 105.602L-268.812 104.306L-268.035 104.825L-266.739 107.935C-264.924 107.416 -263.369 107.157 -262.333 107.157C-261.555 107.157 -261.037 106.898 -260.518 106.898C-259.741 106.898 -259.223 106.898 -258.445 107.157L-257.927 108.453C-258.186 108.972 -258.445 108.972 -258.704 109.231C-259.223 109.749 -260 110.008 -260.518 110.267C-261.037 110.527 -261.037 110.527 -261.555 110.786C-262.333 111.045 -262.851 111.045 -263.629 111.045L-266.998 114.673L-269.849 115.451L-268.035 122.449L-266.479 123.226C-257.927 120.375 -250.151 121.412 -243.413 126.077C-244.449 128.928 -244.449 131.779 -243.413 134.63C-242.894 135.926 -241.599 137.481 -240.562 138.777L-242.117 139.295L-242.635 143.701L-243.672 144.479C-245.745 144.738 -247.56 144.997 -249.633 145.256C-251.706 145.775 -253.261 146.552 -255.076 147.07L-258.963 144.997C-260.518 145.256 -262.333 145.256 -264.147 144.997C-266.998 144.22 -269.33 142.924 -271.922 141.369L-271.404 136.444C-272.181 135.926 -272.959 135.148 -273.996 134.371C-276.328 132.297 -279.179 131.002 -282.289 129.965L-282.808 125.3C-283.844 124.263 -284.881 124.004 -286.436 124.004C-291.879 123.226 -297.84 122.708 -303.283 123.226C-304.319 124.522 -305.356 125.3 -306.652 126.077C-312.095 128.928 -317.537 132.557 -322.462 136.444V141.369C-324.276 141.887 -325.313 140.85 -325.313 139.295C-325.572 137.481 -325.831 136.185 -325.831 134.63C-327.645 135.408 -329.2 135.926 -331.014 136.185V135.667C-322.98 131.261 -315.982 125.559 -309.762 118.302C-310.539 118.043 -311.058 117.784 -311.576 118.302C-318.833 121.93 -325.831 126.077 -332.31 130.483C-332.051 132.297 -332.569 134.112 -334.125 135.667C-334.384 135.926 -334.643 135.926 -335.161 135.926C-335.161 136.185 -335.68 136.444 -335.68 136.444L-339.567 140.073L-340.086 142.924L-345.269 144.997L-347.343 141.369L-350.971 141.109L-345.01 134.112C-346.565 132.816 -348.379 132.557 -350.453 133.334C-351.749 133.852 -352.785 134.371 -353.822 134.889L-353.304 139.295L-356.155 140.85L-358.228 144.22C-359.524 144.479 -360.82 144.738 -362.116 144.738C-369.632 145.515 -377.407 145.775 -385.182 144.738C-384.664 146.293 -384.664 147.848 -384.405 149.144C-383.368 153.55 -381.554 157.438 -378.444 160.807C-366.262 162.621 -354.34 161.325 -342.937 157.178C-341.641 156.66 -340.604 156.66 -339.308 156.919C-335.939 157.178 -334.125 159.252 -333.606 162.88C-328.682 162.621 -324.276 161.066 -320.129 158.993C-318.833 158.215 -317.537 157.697 -316.241 157.178C-308.466 157.178 -305.356 153.291 -306.911 146.034L-306.133 144.479C-303.283 143.183 -300.172 142.924 -296.803 143.183C-294.471 143.442 -292.397 143.442 -289.805 142.924C-283.067 142.146 -277.365 143.96 -272.959 148.107C-267.257 148.626 -261.296 148.626 -255.594 148.107L-255.076 150.181L-243.672 158.474C-243.154 161.066 -242.635 163.658 -241.339 165.731C-239.266 169.619 -236.156 171.692 -231.491 172.211L-230.454 175.062L-228.899 176.617V179.208C-226.048 182.059 -223.197 184.91 -220.605 188.02C-220.346 188.539 -220.087 188.539 -220.087 189.316C-222.679 196.832 -222.16 204.348 -218.791 211.605C-218.791 212.124 -219.05 212.383 -219.309 212.901C-219.569 214.716 -219.828 216.53 -220.346 218.085C-220.605 218.862 -220.864 219.381 -221.383 219.899L-222.938 220.158C-224.493 221.972 -225.789 223.787 -226.825 225.86C-229.936 232.858 -235.378 237.523 -242.635 239.337C-243.672 241.67 -245.227 243.225 -247.56 243.484C-252.225 242.966 -256.89 242.188 -261.555 241.411C-270.108 239.337 -278.92 238.56 -287.991 238.56C-288.769 241.411 -290.842 243.225 -293.693 243.743C-295.507 244.262 -297.322 244.002 -298.877 243.225C-300.95 244.521 -302.505 246.594 -303.023 248.927C-304.06 251.259 -303.801 253.851 -302.764 256.184L-301.468 258.257C-301.987 260.331 -302.764 262.663 -304.578 264.218C-310.799 270.698 -314.168 277.695 -314.168 285.989L-315.723 288.581C-315.464 289.877 -315.205 290.913 -314.686 291.691C-312.095 296.615 -310.54 301.28 -309.244 305.946C-308.984 307.242 -309.244 308.019 -309.762 308.797C-314.945 316.831 -317.796 325.643 -318.833 335.492L-319.87 336.01L-320.907 341.712C-325.053 345.6 -327.904 350.265 -329.459 355.967L-328.423 358.299C-328.682 358.818 -328.941 359.077 -329.2 359.595C-331.014 362.446 -333.088 364.001 -336.198 364.52C-338.79 364.26 -340.604 362.965 -341.641 360.891C-344.232 361.15 -346.824 361.15 -349.416 360.373C-363.671 356.744 -372.483 347.932 -375.852 334.455C-376.37 333.937 -376.889 333.937 -377.148 333.937C-378.444 333.159 -379.74 332.382 -381.036 331.086C-382.072 330.049 -382.591 328.494 -382.85 326.939C-383.109 324.347 -382.331 322.015 -381.295 319.941C-385.182 314.499 -390.366 310.352 -396.327 307.501L-397.104 306.205C-401.251 302.836 -402.029 298.43 -399.955 292.728C-398.4 289.099 -397.623 284.952 -397.104 281.065C-397.104 279.769 -397.104 278.214 -397.623 276.918C-400.733 265.255 -407.472 256.702 -417.839 250.741C-419.134 250.223 -420.171 249.186 -421.208 247.89C-427.428 240.633 -432.352 232.08 -436.24 223.268L-435.203 221.195C-431.834 221.713 -428.465 222.491 -425.355 223.268C-421.726 223.528 -418.875 222.232 -416.024 221.195C-409.027 218.603 -402.547 216.789 -397.882 210.05C-397.364 209.532 -397.364 209.014 -397.104 208.495C-396.586 206.94 -395.809 205.644 -394.513 204.608C-390.107 200.461 -388.033 195.536 -388.033 189.575C-387.515 189.316 -386.997 189.057 -386.737 188.798L-382.85 184.91L-382.331 181.282C-381.554 180.504 -381.035 179.727 -380.776 178.949C-378.962 175.321 -376.37 172.211 -373.519 169.619L-377.407 168.064C-377.925 168.582 -378.444 169.1 -378.962 169.36C-382.331 172.47 -384.664 176.357 -386.219 180.245C-387.515 180.245 -388.811 180.763 -389.848 182.059C-390.884 183.614 -391.921 185.169 -391.921 187.243C-392.439 190.871 -394.772 193.204 -398.141 194.241C-400.992 200.202 -403.325 205.904 -405.657 211.865C-406.694 214.456 -408.508 216.011 -410.841 216.271C-418.875 215.234 -426.391 212.642 -433.13 207.977C-434.426 207.199 -435.203 206.681 -436.758 206.163C-447.644 202.793 -453.864 195.796 -455.678 185.429C-455.16 184.91 -454.642 184.651 -454.123 184.392C-449.976 182.578 -446.348 179.986 -443.756 176.098C-442.72 176.876 -441.683 177.653 -440.905 178.431C-438.832 180.504 -436.758 181.023 -434.426 180.504C-431.057 179.727 -428.983 177.653 -428.465 174.025L-426.391 177.912C-426.132 176.617 -425.873 175.839 -425.355 174.802C-424.318 172.729 -423.281 170.656 -421.726 169.36C-419.912 167.805 -419.394 165.731 -420.171 163.139L-421.208 162.621C-421.467 162.88 -421.726 162.88 -421.985 163.139C-428.724 170.915 -437.277 174.802 -447.385 174.543L-447.903 175.839C-454.382 178.431 -461.121 178.69 -467.86 177.135C-474.857 175.839 -480.818 178.431 -485.224 184.651L-489.112 185.429L-485.484 187.243C-485.743 187.502 -486.002 187.761 -486.002 188.28C-487.298 190.353 -489.371 191.649 -491.963 191.39C-492.741 191.13 -493.518 190.871 -494.555 190.612L-495.073 186.984H-496.887C-497.406 194.5 -498.961 202.016 -501.293 209.273C-502.33 209.791 -503.108 210.828 -503.626 212.124C-504.144 213.938 -504.922 215.493 -505.44 217.048C-505.959 217.307 -505.959 217.566 -506.218 217.826C-508.55 220.677 -510.365 223.787 -511.661 227.156C-512.956 230.266 -515.03 231.044 -518.14 229.489C-519.436 226.897 -520.473 224.823 -521.768 222.232C-522.287 221.454 -523.064 220.677 -523.842 219.899C-523.583 217.566 -523.323 215.493 -523.064 213.16C-522.805 211.087 -523.583 209.273 -524.878 207.718C-526.434 206.163 -527.729 204.089 -529.284 202.534C-530.58 201.498 -531.358 200.461 -532.654 199.424V200.461C-533.172 199.942 -533.69 199.165 -533.95 198.647C-534.727 197.61 -536.023 196.573 -537.06 195.796L-540.688 192.945C-543.539 190.871 -546.649 189.575 -550.019 188.539C-550.796 188.28 -552.092 188.02 -553.388 187.761C-553.647 187.761 -554.684 187.502 -555.98 187.502V194.241C-558.312 194.759 -560.386 195.277 -560.645 195.796C-564.014 200.202 -565.828 205.126 -566.088 210.31L-575.418 210.05C-577.232 212.901 -578.269 216.271 -578.269 220.158L-581.12 222.232V234.413C-583.193 235.968 -585.267 238.041 -586.822 240.374C-587.34 240.892 -587.34 241.67 -587.858 242.447C-588.377 243.743 -588.895 245.039 -589.154 246.076C-589.673 247.372 -589.932 248.409 -590.709 249.445C-593.301 252.296 -596.152 254.888 -599.262 257.48C-599.262 256.961 -599.521 256.443 -599.781 255.925C-600.299 253.592 -600.04 251.519 -598.744 248.927C-597.707 246.853 -596.411 245.039 -594.597 243.743C-587.081 237.264 -583.971 229.229 -585.267 219.899C-586.044 219.899 -586.562 219.899 -587.34 220.158C-587.858 220.158 -588.377 220.158 -588.895 220.417C-589.413 220.677 -590.191 220.936 -590.45 221.195C-591.487 221.713 -592.264 222.491 -592.524 223.268C-595.115 228.97 -599.003 232.858 -604.186 234.931L-606.26 232.858L-606.778 228.97L-608.333 227.674C-611.184 227.934 -613.776 227.156 -616.109 225.083C-614.813 217.048 -611.962 209.791 -607.037 203.312C-603.409 198.128 -604.446 194.5 -610.666 192.426L-611.962 193.722L-610.925 199.165L-613.517 202.016L-616.368 201.238C-616.886 195.277 -619.996 192.167 -625.698 191.649C-632.696 190.612 -638.398 187.761 -643.063 182.318C-646.691 177.912 -649.542 172.988 -652.134 168.064C-654.208 164.176 -652.912 161.844 -648.506 160.288L-646.432 150.699C-649.024 149.144 -651.097 147.07 -652.393 144.479L-651.357 143.96C-647.728 145.256 -644.359 144.479 -641.508 142.405V141.369L-650.838 134.371L-650.32 140.073L-651.097 141.109H-652.134C-655.244 138.518 -658.614 137.74 -661.983 139.036L-660.687 144.22L-664.315 145.515L-665.611 154.846C-667.426 156.142 -668.981 156.142 -670.795 155.364C-671.572 154.846 -672.091 154.327 -672.609 153.55C-674.682 151.476 -675.46 148.626 -674.423 145.515C-674.164 144.22 -673.905 142.924 -673.905 141.887C-673.905 136.963 -675.978 133.075 -679.866 129.706C-681.162 129.965 -682.199 129.965 -683.235 130.224C-685.309 130.483 -686.864 129.965 -688.937 129.187C-697.49 124.522 -703.969 118.302 -709.153 110.786C-710.449 108.712 -711.226 106.38 -710.708 103.788C-709.671 95.4944 -705.006 92.1251 -696.972 93.4209C-701.119 88.2374 -706.043 84.3498 -712.004 82.2763C-719.779 79.4254 -727.814 78.6479 -735.848 79.4254C-740.254 79.4254 -744.142 78.3887 -747.511 76.5745C-753.731 73.4644 -760.729 71.1318 -767.727 69.0583C-768.245 70.3542 -768.504 71.3909 -768.764 72.6868C-769.282 75.0194 -768.504 76.8336 -766.69 77.8704C-763.839 79.4254 -761.507 81.4988 -758.915 83.8314C-756.582 85.9048 -755.546 88.7558 -756.064 91.6067C-757.36 97.5678 -756.582 103.01 -753.213 108.194C-758.137 107.157 -761.766 104.566 -764.358 100.16C-766.172 97.0494 -768.245 94.7168 -771.096 92.6434C-774.206 90.57 -776.539 87.7191 -778.612 84.0906C-779.131 82.7947 -779.131 82.0172 -779.131 80.7213C-777.835 75.2786 -779.131 71.3909 -783.277 69.0583L-785.092 74.7602C-787.684 75.0194 -790.275 75.2786 -792.608 75.2786C-794.94 75.2786 -797.014 74.7602 -799.606 74.2419C-808.936 71.3909 -818.785 69.3175 -828.374 68.2808L-829.67 66.9849L-830.188 65.6891L-826.819 62.0606C-828.115 60.7647 -829.411 59.9872 -830.448 59.2096C-831.484 58.6913 -832.521 57.9138 -833.558 57.6546C-839.519 58.4321 -845.221 60.5055 -850.145 64.134C-850.663 63.8748 -851.182 63.6156 -851.7 63.6156C-855.329 62.0606 -857.661 59.2096 -858.698 55.0628L-858.439 52.9894ZM-635.806 286.248L-636.843 288.063C-637.361 288.322 -638.139 288.322 -638.657 288.322C-641.508 288.84 -643.581 288.322 -644.877 285.989H-638.139C-637.361 285.989 -636.584 286.248 -635.806 286.248ZM-806.863 383.439C-802.457 388.623 -797.532 393.547 -791.83 397.694C-788.979 400.027 -788.979 402.1 -791.83 404.433C-795.2 407.025 -797.791 405.988 -800.383 401.582C-801.938 397.953 -804.789 395.88 -809.195 395.362L-808.936 391.474C-809.195 391.474 -809.454 390.956 -809.454 390.956C-811.269 390.437 -812.305 389.401 -812.564 387.327C-811.787 384.476 -809.714 382.921 -806.863 383.439ZM-605.482 273.03C-604.705 271.734 -604.187 270.179 -603.15 268.624C-595.893 256.702 -585.785 247.372 -573.085 241.152L-571.789 241.929C-572.826 244.002 -573.863 245.558 -575.418 247.631C-578.269 252.037 -581.379 256.184 -583.971 260.331C-595.115 277.955 -611.184 286.248 -631.918 284.952C-627.512 282.101 -622.588 280.546 -617.664 280.546C-611.962 280.806 -607.815 278.214 -605.482 273.03ZM-709.931 127.373C-708.894 128.41 -708.375 129.446 -708.375 130.483L-720.038 131.002C-720.298 130.483 -720.816 129.965 -721.334 129.706C-724.185 128.151 -726.518 126.077 -729.11 123.745L-727.814 122.19C-723.408 122.708 -719.52 120.894 -716.41 118.043L-715.373 118.561L-713.559 125.04C-712.263 125.559 -711.226 126.336 -709.931 127.373ZM-671.313 263.182L-672.609 258.776L-675.46 257.48L-675.978 256.184L-674.164 254.888L-672.35 250.741C-669.499 253.074 -668.721 256.184 -669.758 260.59C-670.277 261.367 -670.795 262.404 -671.313 263.182ZM-646.432 217.826C-646.432 219.899 -647.469 221.454 -649.283 222.232C-651.357 218.603 -654.467 217.566 -658.873 219.122L-660.169 217.307L-659.909 216.011L-652.912 214.975C-651.357 213.42 -651.097 211.346 -651.875 209.014C-653.171 205.904 -652.393 203.83 -649.283 202.016C-648.765 202.016 -648.246 201.757 -647.987 201.498C-646.432 206.94 -645.914 212.124 -646.432 217.826ZM-657.058 289.877L-656.799 291.691L-658.095 292.728L-669.758 286.767C-665.611 286.248 -661.205 287.285 -657.058 289.877ZM-643.581 242.447C-641.508 241.152 -639.434 240.374 -637.62 239.596C-637.102 239.337 -636.324 239.337 -635.806 239.337L-631.4 245.298C-630.363 245.817 -629.586 246.594 -629.067 247.372C-627.772 248.668 -626.735 249.445 -625.18 250.223L-620.774 250.741L-618.7 253.592L-615.072 253.074C-612.48 255.147 -612.221 257.998 -614.035 260.849C-615.331 262.922 -616.109 265.255 -616.368 267.847C-622.329 270.179 -628.808 271.475 -635.547 270.698C-636.843 264.477 -639.953 259.035 -644.1 254.629L-640.471 249.186C-640.99 248.409 -641.508 247.89 -642.026 247.113C-643.322 246.076 -643.841 244.521 -643.581 242.447ZM-653.43 181.023C-652.912 180.763 -652.912 180.504 -652.912 180.504C-649.283 183.614 -648.247 186.724 -650.32 190.612L-651.875 187.761L-650.838 184.91L-653.948 182.837L-653.43 181.023ZM-647.21 278.473L-648.247 278.732L-649.802 277.955C-650.061 277.695 -650.061 277.436 -649.802 276.918C-649.283 274.585 -649.283 272.253 -650.32 269.92C-651.616 273.03 -653.689 274.326 -656.799 273.549L-657.577 272.253L-654.467 266.292L-658.873 261.886L-651.357 263.441C-651.097 262.922 -650.838 262.922 -650.838 262.663C-649.802 261.367 -650.061 259.812 -651.097 258.776C-651.616 258.516 -652.393 258.516 -652.912 258.516C-657.836 259.812 -661.724 258.516 -665.093 254.888L-664.056 254.37C-660.687 254.888 -657.318 255.406 -653.948 255.406C-651.357 255.406 -649.542 256.443 -648.765 258.516C-648.247 260.59 -647.469 262.404 -646.691 264.477C-646.173 265.773 -646.173 266.81 -646.173 268.106C-646.173 271.994 -646.432 275.104 -647.21 278.473ZM-659.391 220.677C-659.909 222.75 -660.169 225.083 -660.687 227.156L-662.242 227.674L-663.538 222.232L-662.242 220.677H-659.391V220.677ZM-631.4 326.68C-627.772 331.086 -626.994 336.269 -629.327 341.712C-630.623 344.563 -631.918 346.896 -632.955 349.487C-635.288 354.412 -636.324 359.336 -635.288 364.52C-635.288 365.297 -635.547 365.815 -636.065 366.593C-637.62 368.666 -639.694 368.926 -642.026 368.666C-654.726 365.038 -667.426 360.891 -679.866 356.744C-683.235 355.448 -686.605 355.708 -689.456 358.04C-691.011 359.336 -692.307 360.632 -693.602 361.669C-695.157 363.224 -696.972 363.742 -698.786 363.742C-700.082 363.742 -701.637 363.483 -702.933 363.483L-699.045 368.926L-700.341 369.703C-703.192 368.926 -705.525 369.444 -707.339 371.517C-708.635 372.813 -708.894 374.368 -708.116 375.664C-717.447 379.293 -726.518 379.293 -735.589 375.146C-737.922 373.85 -739.736 372.295 -739.995 369.444C-740.513 366.593 -742.068 364.001 -744.66 361.928C-746.993 360.373 -749.066 358.299 -749.844 355.448C-754.25 345.341 -752.695 336.269 -745.179 327.976C-740.513 323.051 -735.848 317.868 -731.183 312.943C-728.85 310.611 -726.777 308.019 -725.222 305.168C-723.149 299.725 -719.52 295.838 -714.337 293.505C-713.559 293.246 -712.781 292.987 -712.263 292.987L-711.226 293.505C-712.522 298.689 -712.522 303.872 -711.745 309.056C-711.745 309.574 -711.486 310.093 -711.226 310.352C-703.192 310.87 -697.749 307.501 -695.935 300.244C-695.417 298.948 -695.417 297.911 -695.935 296.615L-680.384 292.209L-677.534 296.356L-673.905 297.652L-673.646 304.391H-671.572L-669.499 303.095L-667.166 300.762L-664.056 301.281C-662.76 303.354 -661.205 305.168 -658.873 306.464L-658.614 309.056L-655.763 309.315C-651.875 317.868 -644.877 322.792 -635.547 324.866C-634.251 324.088 -632.696 325.125 -631.4 326.68ZM-658.354 285.471C-654.208 285.471 -650.579 285.989 -647.21 287.544L-647.987 288.84C-652.134 289.099 -655.763 288.322 -658.873 286.248L-658.354 285.471ZM-664.834 228.711L-663.538 232.08C-663.02 232.08 -662.242 232.08 -661.724 231.821C-656.799 230.525 -653.948 232.08 -653.948 236.486L-659.65 235.709C-660.687 238.56 -662.501 240.633 -665.093 241.67L-666.389 240.633L-665.352 237.523L-665.611 237.264C-667.685 237.782 -668.721 237.782 -669.24 236.486L-666.13 228.452L-664.834 228.711ZM-654.985 225.601C-655.503 225.601 -656.022 225.601 -656.281 225.083C-656.799 224.564 -656.799 224.305 -656.799 223.787C-656.799 223.268 -656.799 222.75 -656.281 222.491C-655.763 221.972 -655.503 221.713 -654.985 221.713C-654.467 221.713 -653.948 221.972 -653.689 222.491C-653.171 222.75 -652.912 223.268 -652.912 223.787C-652.912 224.305 -653.171 224.823 -653.689 225.083C-653.948 225.601 -654.467 225.601 -654.985 225.601Z" fill="black"/>
    <path opacity="0.5" d="M1042.62 11.0028C1049.1 10.7436 1055.32 12.0395 1061.28 14.6313C1059.99 15.9272 1058.69 16.9639 1056.88 17.7414C1050.91 21.1107 1043.92 22.1474 1036.4 21.1107C1030.18 21.629 1024.22 22.6658 1018.26 24.48C1016.96 24.9983 1016.19 25.7759 1015.41 26.8126C1012.82 33.5512 1007.89 37.1796 1001.15 38.4755C1001.93 38.9939 1002.45 39.7714 1002.97 40.8081C1002.97 40.8081 1002.71 41.0673 1002.45 41.0673C1001.93 41.5856 1001.15 42.104 1000.89 42.3632C1000.38 42.8815 1000.12 43.3999 1000.12 43.9182C1006.85 46.7692 1007.89 51.1752 1003.49 56.6179C1002.71 57.6546 1002.19 58.4321 1001.41 59.4688C999.079 63.8748 995.451 66.7258 991.045 68.54C985.084 70.6134 978.864 72.6868 972.903 74.5011C969.792 70.6134 967.201 66.4666 965.127 61.8014C964.35 59.9872 963.054 58.9505 961.499 58.1729C957.352 55.8403 952.946 54.0261 948.022 52.4711C945.689 51.6935 943.356 50.916 941.024 50.3976C930.398 49.6201 920.808 46.51 911.478 41.0673L911.737 37.9572C916.143 36.9205 919.253 35.1062 921.067 32.7736L909.923 30.441L908.886 28.3676L904.48 27.8493C904.221 27.3309 903.962 27.0718 903.962 26.5534C903.443 25.2575 903.962 23.9616 904.998 22.9249C903.702 22.6658 902.925 22.4066 901.629 22.1474C899.037 21.3699 897.741 19.5556 897.741 16.9639L903.443 16.1863L902.925 14.3721L900.074 12.817L902.147 10.4845C896.964 11.0028 892.817 9.44775 889.448 5.5601L890.744 4.78257C898.778 5.04175 907.072 6.07846 915.106 7.89269L917.18 5.30093C938.95 4.26422 959.944 3.22752 980.937 3.48669C982.492 4.00504 984.566 4.00504 986.121 4.00504C991.304 4.78257 996.228 5.04175 1001.15 4.78257C1005.3 4.5234 1009.45 4.78257 1013.33 5.30093C1023.44 7.37434 1033.55 8.15187 1043.92 7.89269L1042.62 11.0028ZM815.064 126.336L815.323 127.373L812.213 129.446L811.695 125.818C813.25 125.559 814.287 125.818 815.064 126.336ZM901.629 52.9894L902.925 54.2853C906.294 52.2119 909.923 51.6935 913.81 52.7302C915.625 55.8403 914.847 58.6913 911.478 61.0239C906.553 64.6523 901.37 65.1707 895.15 63.0973C893.595 62.5789 892.299 62.0606 891.003 61.0239C886.078 57.6546 886.597 55.0628 891.78 52.7302L901.629 52.9894ZM793.552 146.034L793.034 141.369L794.071 139.814L802.624 140.591L795.367 145.775L793.552 146.034ZM731.609 148.885L733.942 148.366L738.866 148.885L738.607 150.44C736.015 150.958 733.683 150.44 731.609 148.885ZM1076.31 33.0328C1079.94 31.7369 1083.83 30.7002 1087.72 30.1819C1095.49 29.1452 1103.53 29.1452 1111.3 30.441C1115.19 30.1819 1117.52 31.7369 1119.08 35.6246C1119.34 36.1429 1119.34 36.6613 1119.34 37.1796C1109.23 39.2531 1098.6 40.0306 1088.24 39.7714C1080.98 39.2531 1074.76 41.3265 1069.32 46.51L1069.58 47.8059L1072.43 49.8793L1080.2 48.5834L1084.61 54.5445L1083.57 55.8403C1073.46 55.322 1063.87 56.6179 1054.8 60.2463C1052.99 60.7647 1051.43 61.0239 1049.62 61.2831C1046.77 60.7647 1044.18 59.9872 1041.84 58.6913L1041.58 57.1362L1048.84 51.6935C1043.66 51.9527 1038.73 51.1752 1034.07 49.6201C1047.8 42.8815 1062.06 37.4388 1076.31 33.0328ZM760.637 147.848L768.931 147.33L767.894 149.921L760.378 149.662L760.637 147.848ZM1014.11 102.233C1013.59 101.455 1013.59 100.16 1013.59 99.1228H1016.44L1025.26 112.6C1018.26 115.451 1011 115.71 1004 113.896C1005.3 108.712 1008.41 105.343 1013.59 104.566C1014.11 104.306 1014.63 103.788 1014.89 103.529V103.01C1014.63 103.27 1014.37 102.751 1014.11 102.233ZM1154.59 16.9639C1149.92 19.0373 1146.03 18.5189 1142.4 15.9272C1146.03 14.1129 1149.4 13.3354 1153.81 13.8538C1154.84 14.3721 1155.36 15.1496 1155.1 16.4455C1155.1 16.4455 1154.84 16.7047 1154.59 16.9639ZM1153.81 24.7392C1149.4 25.2575 1145.25 25.2575 1141.11 23.7025C1138 26.035 1135.15 26.5534 1132.3 24.9983V24.2208C1132.3 21.3699 1131 19.2965 1128.93 18.0006C1130.74 14.8905 1133.33 13.5946 1136.7 13.5946L1138 17.223L1138.52 20.074C1142.4 20.3332 1146.29 20.8515 1150.18 21.629C1150.96 21.8882 1151.99 21.629 1152.51 21.1107C1156.92 19.0373 1159.77 19.8148 1160.55 23.9616C1160.29 24.2208 1159.77 24.48 1159.25 24.7392C1157.7 25.2575 1155.88 25.2575 1153.81 24.7392ZM1105.6 57.6546L1105.86 61.5422L1107.93 64.134C1105.08 64.6523 1102.23 65.1707 1099.38 65.6891C1097.57 63.8748 1095.23 63.3565 1092.64 63.3565C1090.83 63.8748 1089.01 63.8748 1087.2 63.8748L1087.98 62.3198C1093.68 59.728 1099.38 57.9138 1105.34 56.8771L1105.6 57.6546ZM1107.42 13.5946C1107.67 13.0762 1107.67 12.817 1107.93 12.2987C1108.71 10.7436 1109.75 9.9661 1111.56 9.9661C1117.52 7.89269 1123.22 8.41105 1128.67 11.0028L1128.41 13.8538C1121.67 17.223 1114.67 17.223 1107.42 13.5946ZM1148.88 37.4388C1147.59 37.4388 1146.29 37.1796 1145 36.9205L1144.48 33.292L1147.33 32.5145L1144.48 30.7002C1147.59 29.6635 1150.44 29.4043 1153.81 29.4043C1154.33 29.4043 1154.84 29.9227 1155.36 29.9227L1154.84 33.0328L1159.25 34.0695C1156.4 36.4021 1152.77 37.4388 1148.88 37.4388ZM1093.16 26.035L1092.64 25.2575C1093.42 23.9616 1094.46 23.4433 1095.75 23.4433C1105.86 23.1841 1116.49 22.9249 1126.85 22.9249C1126.08 23.7025 1125.56 24.2208 1124.52 24.48C1114.15 28.1085 1103.79 28.6268 1093.16 26.035ZM1134.89 30.1819C1138 32.2553 1138.52 34.3287 1136.96 35.8838L1134.11 35.6246C1133.59 35.3654 1133.33 35.1062 1133.07 34.8471C1129.19 34.5879 1126.08 33.0328 1123.74 30.441L1128.41 29.4043C1131 28.6268 1133.33 28.886 1134.89 30.1819ZM1111.04 20.8515C1109.75 21.8882 1107.93 22.4066 1105.86 22.1474C1104.31 21.629 1102.75 21.629 1100.94 22.1474C1093.94 23.1841 1087.72 21.3699 1081.76 17.4822C1080.46 16.7047 1079.16 15.9272 1077.61 15.4088C1065.95 12.0395 1054.28 8.41105 1042.36 5.30093L1052.73 4.78257C1058.17 5.30093 1063.61 5.30093 1069.06 4.26422C1082.53 4.00504 1095.49 5.5601 1107.67 8.67022L1105.6 15.4088L1111.04 20.8515ZM585.174 235.19V234.154L591.136 226.378C593.209 228.452 593.986 230.784 593.986 233.376C593.986 236.227 592.691 238.301 590.099 239.078L585.174 235.19ZM814.805 137.999L810.917 136.444L810.399 132.557L811.176 131.261H815.323C816.101 133.334 815.582 135.667 814.805 137.999ZM640.12 9.18858L647.636 11.262L640.12 11.7803V9.18858ZM647.895 8.41105C651.524 7.11516 654.893 7.89269 656.966 11.0028C657.485 11.5212 657.744 11.5212 658.003 12.0395C653.856 13.3354 650.228 12.2987 647.895 8.41105ZM703.1 330.308C702.322 333.937 700.249 335.233 696.102 334.196C692.733 330.308 690.919 325.643 689.882 320.978C688.327 313.203 687.031 305.687 685.994 297.911C685.735 295.838 686.772 294.283 688.586 293.764L705.692 310.093C704.396 314.758 703.877 319.423 704.137 324.347C704.137 326.421 703.877 328.494 703.1 330.308ZM870.269 100.419C866.64 99.9004 863.789 98.8637 861.198 97.3086C861.198 96.7902 861.197 96.5311 860.938 96.0127C860.42 93.1618 859.902 90.8292 859.642 89.2741L865.604 87.9782L866.899 88.2374L868.454 91.0884L873.379 92.3842V93.6801C873.12 94.976 873.379 96.0127 873.897 97.0494C874.934 98.3453 874.934 99.382 874.416 100.419C873.12 100.678 871.565 100.678 870.269 100.419ZM851.09 93.1618L856.014 94.976L858.087 99.9004L856.792 101.974L857.828 105.343L838.908 100.937L836.576 95.7535C843.574 93.1618 846.943 88.7558 847.461 82.2763C847.461 81.2396 847.202 80.4621 846.943 79.6846L851.867 78.3887L853.422 76.3153L854.459 76.0561C857.828 77.6112 859.383 80.4621 859.383 84.3498C857.569 88.2374 854.977 91.0883 851.09 93.1618ZM660.595 9.70693H665.26L666.297 8.9294C669.148 8.9294 671.48 9.18857 673.813 10.2253C673.813 10.2253 673.813 10.4845 673.813 10.7436C669.407 11.262 664.742 11.7803 660.854 11.7803L660.595 9.70693ZM680.292 37.698L656.448 39.5122L656.966 38.4755C660.336 38.2163 663.446 36.6613 665.778 34.0695C662.15 29.1452 657.226 26.2942 650.228 25.5167C643.23 24.9983 636.751 24.48 630.012 23.1841C630.271 22.6658 630.53 22.1474 631.308 22.1474C644.267 22.1474 656.966 23.7025 669.407 27.0718C673.035 28.1085 676.145 30.1819 678.219 33.5512C679.256 34.8471 679.515 36.1429 680.292 37.698ZM801.846 15.9272L788.369 19.2965L785 16.7047L770.227 16.9639L773.596 14.8905C769.708 15.4088 766.598 14.6313 764.525 12.5579C770.486 10.7436 776.706 10.2253 782.926 11.262L785 13.8538L787.851 13.3354L789.924 15.668L793.812 15.4088L794.071 14.8905C793.552 14.6313 793.552 14.6313 792.775 14.3721L792.257 13.0762L794.848 11.7803L798.736 13.8538L802.364 12.5579L803.401 12.817L803.919 13.8538L803.401 15.1496L801.846 15.9272ZM676.923 12.0395C677.441 11.7803 677.441 11.5212 677.701 11.5212C685.217 8.9294 692.214 8.67022 699.212 10.2253C691.955 12.2987 684.439 12.817 676.923 12.0395ZM1069.83 195.277L1074.24 191.649C1076.57 190.353 1079.16 189.316 1081.5 188.02C1088.24 184.651 1094.2 184.91 1099.64 188.539V190.094C1097.57 191.39 1095.49 191.39 1093.68 190.612C1087.72 188.02 1083.57 189.575 1082.02 195.536C1077.35 197.351 1073.2 197.351 1069.83 195.277ZM1319.16 77.8704L1309.83 72.946L1313.2 76.8336L1311.91 79.4254L1297.13 75.5378L1297.39 72.6868L1295.32 71.3909C1282.62 76.0561 1269.4 78.3887 1255.92 77.6112L1251.52 85.6456L1253.07 88.4966L1250.48 91.0884L1248.41 88.2374L1235.97 100.937L1238.04 103.27L1227.15 108.972L1223.27 135.148L1220.42 135.667C1211.86 147.33 1203.05 158.993 1193.46 170.656L1194.76 171.951L1174.8 191.39L1175.84 186.984C1185.17 179.208 1192.68 170.137 1198.9 159.77L1193.72 161.844C1190.35 169.1 1185.43 174.802 1178.69 178.949L1179.98 179.986L1166.77 190.871L1165.21 195.796L1150.96 202.016L1149.66 204.867L1133.33 210.31L1132.04 207.977H1129.45C1124.26 212.124 1118.56 215.752 1112.86 218.862C1111.04 219.64 1109.75 221.195 1108.45 223.268C1105.6 228.452 1101.45 232.34 1096.01 234.413C1091.61 236.486 1086.68 236.486 1081.76 234.672L1078.91 235.45L1078.65 247.113L1080.98 250.482L1083.05 251.259C1086.16 255.925 1088.24 261.108 1089.79 266.292L1086.16 267.328L1086.42 269.143L1090.57 270.698L1091.61 271.994C1085.64 281.065 1079.94 290.395 1074.24 299.985C1070.35 306.982 1064.91 311.648 1057.65 314.239C1058.17 323.051 1058.69 331.863 1059.73 340.675L1061.8 341.971C1060.76 350.524 1061.28 358.559 1063.87 366.852L1065.95 368.148V371.258L1068.02 371.777C1068.28 374.627 1067.76 377.738 1066.72 380.589C1066.21 382.403 1065.69 384.217 1065.69 386.031L1064.39 387.586L1064.91 389.66L1067.5 389.919L1068.8 390.696C1066.72 394.325 1066.72 397.694 1068.8 400.804L1071.39 401.582V406.247L1068.28 409.616L1069.32 412.467L1068.8 414.022L1065.95 414.541L1065.43 415.059L1064.91 420.243L1059.73 424.13L1055.58 422.575C1049.62 427.24 1043.14 428.277 1035.88 425.426L1036.4 424.13L1045.99 419.724L1045.21 415.318L1049.36 414.281L1050.14 412.986L1049.36 411.431C1044.44 409.357 1041.07 406.247 1039.51 401.323C1042.88 401.841 1045.21 400.286 1046.77 397.435C1047.03 397.176 1047.03 396.917 1047.29 396.398L1042.1 394.843L1041.07 390.178L1036.14 387.068L1037.44 384.995C1040.55 385.513 1042.62 383.958 1044.18 381.107L1032.77 380.589C1031.99 378.774 1031.99 376.96 1033.03 375.405C1028.11 376.183 1023.7 375.923 1019.04 375.146C1015.41 374.368 1013.59 372.036 1013.07 368.148C1014.89 366.852 1015.67 365.038 1015.93 362.965L1018 360.632C1015.15 362.705 1012.82 362.705 1010.22 361.15C1005.3 358.04 1000.38 354.412 995.969 350.783C992.6 348.191 990.527 344.822 988.972 341.453C988.453 339.379 988.453 337.565 989.231 335.233C983.27 332.382 977.309 329.531 971.088 326.68C969.533 325.643 968.237 324.866 967.201 323.57C964.091 319.941 962.017 315.794 961.499 311.648C960.98 309.833 960.98 308.019 960.721 306.464C959.685 299.725 956.574 294.283 951.391 290.136C950.354 289.099 949.577 287.803 949.318 286.507C948.799 279.51 951.909 274.326 959.166 271.216C960.721 270.698 962.276 269.661 963.831 268.883L967.719 267.588H977.049L978.345 269.402L979.641 268.624L979.123 265.255C981.196 262.145 983.788 260.849 987.676 260.849H989.49L988.972 262.922L990.267 264.218L991.304 263.7L990.786 259.812L991.304 259.035L992.6 258.257C995.451 259.035 997.784 260.331 999.598 262.922L1000.63 261.108L1000.12 259.035C998.043 258.776 996.488 257.739 995.71 256.184C997.784 247.372 1003.49 241.67 1011.52 238.819C1012.3 238.56 1013.33 238.56 1014.37 238.819C1018 238.301 1020.59 236.746 1022.92 233.635C1026.55 228.97 1030.7 225.86 1036.14 224.823C1038.22 224.305 1040.29 224.564 1042.36 225.342L1042.88 220.158L1044.18 219.381L1045.21 219.899L1048.06 223.268C1050.4 222.75 1052.47 221.195 1054.28 219.122C1057.91 220.677 1059.99 223.268 1061.02 226.897C1062.32 223.787 1061.8 220.936 1059.73 217.826C1063.1 218.862 1066.47 219.899 1069.58 221.195C1070.87 221.972 1072.17 222.491 1073.46 222.75C1073.72 225.601 1075.28 228.452 1077.61 230.525L1077.09 233.376L1081.76 234.672L1079.16 233.117L1078.91 232.08C1085.13 231.562 1091.35 230.007 1097.57 227.934C1098.08 227.674 1098.34 227.156 1098.08 226.638C1097.83 223.787 1097.57 221.195 1097.05 218.085C1096.79 215.752 1096.79 213.16 1097.57 210.828C1101.97 208.754 1106.64 207.459 1111.3 207.199L1105.34 191.39L1106.12 190.612C1113.38 188.798 1118.3 190.871 1120.89 196.573C1121.41 197.869 1122.19 198.647 1122.97 199.424C1128.41 202.275 1133.33 201.498 1138 196.314C1143.7 189.835 1144.22 182.837 1139.81 175.58C1138.52 173.247 1136.7 171.692 1134.37 170.656C1130.74 168.582 1126.34 167.805 1122.19 168.841L1121.41 169.878L1118.3 169.619L1118.04 166.25H1105.86L1105.08 168.064L1102.23 168.582L1101.71 167.545L1099.64 167.027C1098.08 170.915 1096.79 174.802 1095.23 178.69C1093.16 181.541 1090.83 182.578 1087.46 182.318C1086.68 175.062 1087.98 168.064 1091.35 161.584L1084.87 156.919L1083.83 154.846C1079.42 153.55 1075.54 151.217 1072.17 147.848C1074.76 145.256 1075.54 142.664 1074.24 139.554L1071.39 139.036L1070.61 135.408C1065.17 135.926 1059.99 134.371 1055.32 131.779L1058.17 129.706L1058.43 127.632C1056.36 126.336 1055.06 124.781 1054.8 122.449L1045.99 119.598C1047.8 121.671 1047.8 124.004 1046.25 125.818C1043.92 126.077 1041.84 124.781 1040.55 122.708C1036.4 123.226 1032.77 121.93 1029.66 119.079L1030.44 116.747C1035.62 118.043 1039.77 116.228 1042.88 112.341C1043.66 111.045 1044.18 109.749 1044.69 108.194V107.157C1050.66 106.639 1056.1 107.935 1061.02 111.563C1051.17 103.788 1039.77 100.678 1027.33 101.715C1026.81 102.233 1026.03 102.233 1025.52 101.974C1024.22 101.196 1023.44 99.9004 1023.44 98.3453C1020.59 97.8269 1018.78 96.7902 1017.22 94.7168C1019.81 88.7558 1024.22 85.3865 1031.22 84.0906C1031.74 84.0906 1031.74 83.8314 1031.99 83.3131C1033.29 78.3887 1035.1 74.7602 1038.73 72.1685C1042.1 74.2419 1045.73 75.7969 1049.36 76.3153C1053.77 72.4276 1057.91 68.54 1061.28 64.134C1068.02 60.5055 1074.5 58.6913 1081.24 57.9138L1082.53 59.2096C1080.46 62.8381 1080.2 66.7258 1081.76 70.6134L1079.68 74.2419L1083.31 79.4254L1082.79 80.2029C1079.94 81.2396 1078.91 83.0539 1079.68 85.9048L1087.2 90.8292L1086.68 100.16L1091.09 101.455L1097.57 90.57C1104.56 89.2741 1111.3 86.9415 1117.52 84.3498C1118.82 83.8314 1120.37 83.5722 1121.93 83.8314C1128.15 82.7947 1131.26 79.4254 1131.78 73.7235C1131.78 70.8726 1130.74 68.7992 1128.15 67.5033C1126.08 66.4666 1123.74 65.4299 1121.41 64.6523C1116.49 62.5789 1113.12 58.6913 1111.3 53.7669C1106.38 53.5078 1101.45 53.2486 1096.53 52.2119L1096.01 50.1385L1098.86 47.8059L1097.05 45.7325C1100.42 43.3999 1104.82 42.8815 1109.49 43.9182L1108.19 47.5467L1112.6 49.6201C1119.34 47.8059 1125.3 45.2141 1131 41.0673C1134.63 38.7347 1138.26 38.7347 1141.89 41.5856C1139.29 42.8815 1136.96 44.4366 1134.63 46.51C1134.37 47.0283 1134.11 47.2875 1133.85 47.8059L1137.74 49.6201V51.4343C1140.33 49.3609 1143.18 48.5834 1146.81 48.5834C1151.99 49.1018 1156.92 49.6201 1162.1 50.1385L1163.4 48.5834H1176.87L1174.8 50.1385H1193.72L1194.24 47.2875C1207.98 43.659 1221.97 42.8815 1235.97 44.6958C1242.45 44.1774 1249.18 44.1774 1255.92 45.2141C1259.81 45.9916 1263.96 46.51 1268.1 46.2508C1292.47 43.3999 1317.09 43.1407 1341.45 45.7325C1345.34 45.7325 1349.23 46.2508 1352.6 47.0283L1337.3 57.9138L1358.3 59.2096L1355.45 63.8748L1340.93 63.0973V64.9115L1355.19 70.0951L1352.34 76.0561L1345.08 76.8336L1345.86 80.7213L1341.45 81.758L1340.16 79.6846L1338.6 81.4988L1331.6 80.7213L1364 94.976L1363.22 98.0861L1318.13 80.2029L1319.16 77.8704ZM1205.12 34.3287C1202.01 32.7736 1198.65 30.9594 1195.28 29.4043L1195.54 28.3676C1202.27 26.2942 1208.75 25.7759 1215.23 27.8493C1218.34 28.886 1220.93 30.9594 1222.49 34.0695L1221.97 36.1429C1216.79 37.9572 1211.09 37.1796 1205.12 34.3287ZM1168.32 17.223C1168.06 17.223 1168.06 17.223 1168.32 17.223C1172.73 15.9272 1177.13 16.7047 1181.54 18.7781L1181.28 20.8515C1176.62 21.3699 1172.21 20.3332 1168.32 17.223ZM1176.1 34.3287C1180.5 34.5879 1184.39 34.5879 1188.8 34.5879C1193.2 34.5879 1197.35 35.1062 1201.5 35.6246L1203.57 38.9939C1198.39 45.9916 1190.87 48.5834 1181.02 46.7692C1177.39 46.2508 1173.76 46.2508 1170.14 46.51C1164.43 46.7692 1158.99 45.2141 1154.07 42.8815L1153.55 41.5856C1159.77 40.8081 1164.43 37.1796 1167.29 30.9594C1170.14 32.7736 1173.25 34.0695 1176.1 34.3287ZM1142.4 44.4366L1148.88 43.1407L1151.73 45.2141L1141.63 45.7325L1142.4 44.4366ZM1194.24 24.2208L1191.91 27.8493H1190.35L1186.98 25.7759H1185.69V28.6268C1178.95 28.1085 1172.21 27.3309 1165.99 26.5534C1164.95 26.035 1164.43 25.7759 1163.4 25.2575C1168.06 20.8515 1172.73 20.8515 1176.87 24.9983C1180.5 23.1841 1183.87 21.3699 1187.76 19.5556L1206.94 21.1107L1207.72 22.4066L1205.64 24.7392L1194.24 24.2208ZM1048.32 202.275H1043.4V200.202H1048.32V202.275ZM1082.79 200.461L1076.05 202.016L1075.8 200.72L1082.79 199.165V200.461V200.461ZM1060.5 203.312C1058.17 201.238 1055.32 200.202 1051.69 200.461L1052.47 198.128C1056.62 195.277 1061.02 194.241 1065.95 194.5L1066.98 196.314L1065.69 199.683C1068.28 199.424 1070.09 199.942 1071.65 200.979L1070.35 201.757C1066.72 200.461 1063.61 201.238 1060.5 203.312ZM380.684 381.366C383.276 382.144 385.868 382.921 388.2 383.699L388.719 385.772L386.386 387.586L385.868 392.511L384.831 392.77C384.313 392.511 383.535 392.511 383.276 392.251C379.129 390.178 377.833 386.809 379.129 382.144L380.684 381.366ZM423.189 155.105C425.522 154.068 427.595 154.587 428.891 156.919L428.373 159.77L423.189 156.919V155.105ZM368.244 275.104L367.207 272.253L368.503 271.734L371.095 274.067L377.315 274.326L377.833 276.14C374.464 278.473 371.095 278.214 368.244 275.104ZM394.161 107.935L391.829 109.749L399.604 88.4966C399.604 97.3086 399.086 106.121 397.531 114.933L392.606 116.488L396.235 110.527V107.676L394.161 107.935ZM315.89 478.816C320.296 474.67 325.998 472.855 332.737 473.374L335.069 468.968C341.549 468.709 348.028 469.227 354.248 470.264C364.356 470.264 374.205 468.19 383.017 464.043C384.054 463.784 384.831 463.525 385.609 463.266C386.645 463.007 387.164 462.229 387.941 461.97C399.345 460.933 410.749 461.452 421.893 463.007C436.666 465.08 451.439 465.598 466.731 465.08C476.061 463.784 485.651 463.525 495.24 463.784C496.277 464.043 497.314 464.303 498.35 464.562C514.419 463.266 530.488 463.266 546.298 465.08C547.076 464.562 547.853 464.043 548.631 463.784C549.667 463.007 553.555 462.488 557.961 462.488V458.341C561.071 458.082 563.663 458.082 564.44 458.082C567.032 457.564 569.365 457.564 571.438 457.823C573.512 458.082 575.844 458.342 577.399 459.119C578.695 459.378 579.991 459.897 581.028 460.415C588.544 462.229 595.801 464.821 602.539 468.19C607.723 471.041 613.166 473.633 618.349 476.484C623.533 479.594 629.235 481.149 634.936 481.667C635.455 479.594 634.936 477.78 634.159 475.706C632.085 470.782 632.345 466.117 634.677 461.452C654.893 459.378 674.85 460.674 694.547 465.339C698.953 466.635 703.359 466.894 707.765 466.376C737.57 468.449 767.376 469.227 797.181 469.227L798.218 468.449C800.809 470.264 803.401 471.3 806.511 472.596C807.289 472.855 808.585 472.855 809.362 473.115C811.176 473.115 812.991 473.374 815.064 473.374C816.101 473.374 817.138 473.374 817.915 473.115C819.729 472.855 821.543 472.596 823.358 472.078H826.209C826.986 472.337 828.023 472.596 828.8 473.115C836.317 475.965 843.833 477.261 852.126 477.521C860.679 477.78 868.973 477.002 877.526 475.966C884.005 474.67 890.225 475.188 896.446 477.261C899.815 478.298 902.407 480.112 904.739 482.445C909.145 487.628 910.959 494.108 909.923 501.106C912.514 501.365 914.847 501.624 917.439 501.624C922.363 501.883 927.547 502.142 932.471 502.142H962.795C965.386 502.142 967.978 502.142 970.57 501.883C991.045 501.365 1011 500.069 1030.96 497.996C1033.29 497.996 1035.36 496.959 1036.66 495.145C1038.73 493.071 1038.99 490.739 1038.22 488.147C1034.33 476.225 1028.88 465.08 1021.63 454.454L1020.33 453.936L1019.04 451.862L1019.55 448.234C1020.59 448.493 1021.63 448.493 1022.41 448.752C1024.48 449.27 1026.03 450.048 1027.33 451.085C1030.96 453.935 1034.85 456.009 1038.99 457.305C1044.18 459.119 1048.32 462.488 1050.66 467.672C1053.51 468.19 1056.62 469.486 1059.21 471.041C1063.87 473.892 1068.28 477.78 1072.17 481.927C1095.23 476.225 1118.82 474.151 1142.4 475.447C1143.18 475.966 1144.22 476.225 1144.74 476.743C1149.66 479.853 1154.59 482.704 1159.77 485.037C1160.29 485.296 1160.81 485.555 1161.06 485.555C1164.69 485.555 1168.06 485.814 1171.95 486.073H1181.28C1187.5 486.333 1193.98 486.592 1200.2 486.851C1203.31 486.851 1206.42 487.11 1209.53 487.369C1212.64 487.628 1215.75 487.628 1218.86 487.888C1253.33 489.183 1287.28 491.516 1321.5 495.663C1325.9 496.181 1330.05 496.44 1334.45 496.7C1340.67 496.959 1345.08 499.032 1348.45 503.438H331.7C333.255 502.661 334.551 501.883 336.106 501.106C338.179 500.328 338.957 499.032 338.957 496.7C338.957 495.663 338.438 494.885 337.92 494.626C331.182 491.257 324.443 488.406 317.963 485.296C315.89 484.259 314.594 482.963 314.335 480.89C315.631 479.594 315.631 479.076 315.89 478.816ZM380.425 282.361C382.498 275.881 386.904 270.957 393.125 268.106C397.79 265.514 402.973 263.7 408.416 262.404C409.453 262.145 410.489 262.145 411.267 262.922C414.895 264.996 418.783 266.032 422.152 265.773V261.626L424.226 259.553L435.889 260.071C434.075 263.959 430.964 266.033 426.558 265.255L427.595 266.81L429.669 267.069L427.336 271.475L426.558 269.661L425.263 268.883L423.189 269.92L422.412 271.475C419.042 271.216 415.673 271.994 412.822 273.549L410.23 280.546L413.859 282.62L412.304 284.693L411.008 285.212C409.712 283.656 408.157 283.657 406.602 284.434C406.084 284.952 405.565 285.471 405.047 286.248L401.937 287.285L399.604 285.989L397.79 287.285L398.308 289.618L394.421 292.209L394.939 287.544L393.384 285.471L394.421 282.879L388.978 281.842C388.719 282.361 388.46 283.138 388.2 283.916C385.09 289.358 380.425 290.913 374.464 288.581L374.982 284.434C377.056 285.989 379.129 285.471 380.425 282.361ZM420.338 149.144C426.558 147.848 431.224 149.662 434.593 155.105C436.925 159.511 436.407 162.88 432.26 164.954C431.742 164.176 431.483 163.399 430.964 162.621C429.669 160.288 429.409 157.956 430.446 155.364C428.373 153.291 425.522 152.513 422.671 153.291L418.783 159.511C415.932 156.66 413.081 154.587 409.194 153.291C400.122 150.44 396.753 144.479 399.863 134.63V135.667L401.937 132.816L404.01 132.557L408.416 142.924C412.822 143.701 416.969 145.775 420.338 149.144ZM299.821 361.15C301.895 358.818 303.19 357.781 304.227 358.299C304.227 358.559 303.968 358.818 303.968 358.818C301.117 362.187 299.562 366.075 299.303 370.481C300.858 375.664 300.599 380.848 298.266 386.031H296.711C292.823 382.144 289.972 377.738 288.677 372.813L295.156 370.221C295.933 367.111 297.748 364.001 299.821 361.15ZM256.02 52.9894C261.204 52.2119 266.387 50.916 271.052 49.6201C287.121 44.4366 303.19 43.1407 319.519 45.9916L320.296 47.2875C326.257 45.7325 331.7 45.7325 337.661 47.0283C339.734 44.9549 342.067 43.3999 345.177 42.8815C347.25 43.1407 349.324 42.8815 351.138 42.3632C368.762 38.4755 386.904 36.4021 405.047 36.9205L407.12 39.7714L437.185 40.8081L438.221 42.3632H440.036V41.0673C440.036 36.4021 442.627 34.0695 447.811 34.0695C450.662 34.3287 453.772 34.3287 456.623 34.3287C462.584 34.3287 468.286 33.8103 473.988 33.0328C487.465 32.5145 500.942 33.8103 513.901 37.9572C513.642 37.4388 513.383 36.6613 512.605 36.1429C512.087 35.3654 511.568 34.847 511.309 34.3287C510.013 33.292 508.977 33.0328 507.681 33.0328C501.72 31.7369 496.018 30.1819 490.057 28.1085L489.538 24.9983L491.871 22.9249C497.573 22.4066 503.275 22.4066 508.977 21.8882C517.789 22.9249 526.341 22.4066 535.153 20.5923L533.598 17.7414C529.97 18.5189 527.119 18.0006 524.786 16.1863L524.268 13.5946C530.229 11.5212 536.708 11.0028 543.188 12.0395L544.743 14.6313C546.557 12.817 552.777 11.262 558.738 9.9661V14.3721C560.034 14.6313 560.812 14.8905 560.812 15.1496C563.922 20.8515 565.995 23.7025 566.773 23.7025C568.069 23.9616 568.846 24.2208 570.142 24.2208C573.771 24.7392 577.658 25.2575 581.287 26.035C581.546 26.035 581.805 26.035 581.805 26.035V26.8126C583.101 27.0718 584.138 27.3309 585.434 27.3309L584.397 30.1819C585.693 30.7002 587.248 31.2186 588.803 31.4778C590.358 31.9961 591.913 31.9961 593.468 31.9961L594.764 30.9594C600.984 35.3654 607.982 36.9205 615.498 35.3654L616.276 36.9205L611.092 44.6958C611.87 44.4366 612.647 44.1774 613.425 43.9182C619.386 41.8448 623.273 37.698 625.088 31.4778C627.679 31.2186 630.271 31.9961 632.085 33.0328C634.159 34.3287 635.455 36.1429 635.714 38.2163C634.936 39.2531 634.418 40.0306 633.641 40.5489C631.308 42.8815 628.716 44.4366 625.865 45.4733C635.973 43.9182 646.599 42.6223 657.226 41.8448L656.707 45.2141C663.964 46.51 670.962 46.7692 678.478 46.51C680.292 46.51 681.847 46.7692 683.662 47.2875C688.327 49.3609 693.251 50.3976 698.435 50.3976C699.731 50.3976 700.508 49.8793 701.545 49.3609C706.728 45.2141 710.875 46.51 713.467 52.9894C718.65 54.8036 723.575 57.1362 728.499 60.2463L735.238 58.1729L738.089 52.2119C737.052 52.7302 736.274 52.9894 735.497 53.5078C729.536 55.5812 723.834 55.322 718.65 51.9527C719.428 50.916 720.205 50.3976 721.242 49.8793C732.646 46.2508 744.05 43.1407 755.713 41.0673L756.231 40.5489L764.525 41.8448L765.561 39.7714L775.669 41.0673L776.188 42.104L780.334 42.8815L781.889 41.8448L788.628 43.9182L789.406 45.9916C791.479 45.4733 793.552 45.7325 795.107 46.51C796.144 47.0283 797.44 47.5467 798.477 47.8059L795.885 49.6201L803.401 54.2853C809.881 59.728 817.138 64.134 825.172 66.9849C825.95 70.6134 824.913 73.7235 822.839 76.3153C820.507 79.6846 817.656 79.9438 814.805 77.8704C813.509 77.0928 812.213 76.5745 810.399 76.5745C809.881 76.0561 809.103 76.0561 809.103 76.5745C805.475 80.4621 801.328 84.0906 797.44 87.4599L789.665 84.6089L788.628 77.352L783.445 75.0194C782.926 72.946 783.704 71.1318 785.259 69.8359C786.555 69.3175 786.814 68.54 786.555 66.9849C786.036 63.3565 783.704 61.0239 779.816 60.7647C778.261 58.6913 776.188 57.1362 774.373 55.8403C771.522 54.5445 768.671 54.5445 766.339 56.3587C766.598 56.8771 766.857 57.3954 767.116 57.6546C768.153 59.728 769.967 61.2831 771.782 62.0606C773.077 62.3198 773.855 62.5789 774.892 63.0973L775.669 65.1707C775.41 66.2074 775.151 66.9849 774.892 67.5033C772.041 71.9093 767.894 73.4643 763.229 71.6501C758.045 69.8359 754.158 70.3542 751.825 73.4643C758.304 74.7602 764.784 75.7969 771.782 76.8336C771.522 78.1295 771.263 79.9438 771.263 81.2396C771.263 80.9805 771.263 80.9805 771.782 80.9805C773.077 80.9805 774.114 80.7213 775.41 80.7213C776.188 80.7213 776.706 80.9805 777.224 81.2396C777.743 81.758 778.52 81.758 778.779 82.0172L779.816 87.7191C781.89 88.2374 784.222 89.0149 786.814 89.2741C794.33 91.3475 801.587 91.3475 809.103 89.7925L804.179 88.4966V85.3865H807.548C807.807 85.3865 808.066 85.3865 808.066 85.6456C808.066 85.9048 808.066 86.164 808.326 86.164H809.103C809.103 86.164 809.362 86.164 809.621 86.164C809.881 84.3498 809.881 83.0539 810.14 81.4988L816.619 84.0906L814.546 90.0517L815.582 92.1251L822.58 91.6067C824.654 93.9393 826.468 96.0127 828.8 98.0861C830.874 99.9004 833.206 100.419 835.798 100.16L836.317 103.529L841.759 105.602L845.647 104.306L846.424 104.825L847.72 107.935C849.535 107.416 851.09 107.157 852.126 107.157C852.904 107.157 853.422 106.898 853.941 106.898C854.718 106.898 855.236 106.898 856.014 107.157L856.532 108.453C856.273 108.972 856.014 108.972 855.755 109.231C855.236 109.749 854.459 110.008 853.941 110.267C853.422 110.527 853.422 110.527 852.904 110.786C852.126 111.045 851.608 111.045 850.83 111.045L847.461 114.673L844.61 115.451L846.424 122.449L847.979 123.226C856.532 120.375 864.308 121.412 871.046 126.077C870.01 128.928 870.01 131.779 871.046 134.63C871.565 135.926 872.86 137.481 873.897 138.777L872.342 139.295L871.824 143.701L870.787 144.479C868.714 144.738 866.899 144.997 864.826 145.256C862.753 145.775 861.198 146.552 859.383 147.07L855.496 144.997C853.941 145.256 852.126 145.256 850.312 144.997C847.461 144.22 845.129 142.924 842.537 141.369L843.055 136.444C842.278 135.926 841.5 135.148 840.463 134.371C838.131 132.297 835.28 131.002 832.17 129.965L831.651 125.3C830.615 124.263 829.578 124.004 828.023 124.004C822.58 123.226 816.619 122.708 811.176 123.226C810.14 124.522 809.103 125.3 807.807 126.077C802.364 128.928 796.922 132.557 791.997 136.444V141.369C790.183 141.887 789.146 140.85 789.146 139.295C788.887 137.481 788.628 136.185 788.628 134.63C786.814 135.408 785.259 135.926 783.445 136.185V135.667C791.479 131.261 798.477 125.559 804.697 118.302C803.919 118.043 803.401 117.784 802.883 118.302C795.626 121.93 788.628 126.077 782.149 130.483C782.408 132.297 781.889 134.112 780.334 135.667C780.075 135.926 779.816 135.926 779.298 135.926C779.298 136.185 778.779 136.444 778.779 136.444L774.892 140.073L774.373 142.924L769.19 144.997L767.116 141.369L763.488 141.109L769.449 134.112C767.894 132.816 766.08 132.557 764.006 133.334C762.71 133.852 761.674 134.371 760.637 134.889L761.155 139.295L758.304 140.85L756.231 144.22C754.935 144.479 753.639 144.738 752.343 144.738C744.827 145.515 737.052 145.775 729.277 144.738C729.795 146.293 729.795 147.848 730.054 149.144C731.091 153.55 732.905 157.438 736.015 160.807C748.197 162.621 760.119 161.325 771.522 157.178C772.818 156.66 773.855 156.66 775.151 156.919C778.52 157.178 780.334 159.252 780.853 162.88C785.777 162.621 790.183 161.066 794.33 158.993C795.626 158.215 796.922 157.697 798.218 157.178C805.993 157.178 809.103 153.291 807.548 146.034L808.326 144.479C811.176 143.183 814.287 142.924 817.656 143.183C819.988 143.442 822.062 143.442 824.654 142.924C831.392 142.146 837.094 143.96 841.5 148.107C847.202 148.626 853.163 148.626 858.865 148.107L859.383 150.181L870.787 158.474C871.305 161.066 871.824 163.658 873.12 165.731C875.193 169.619 878.303 171.692 882.968 172.211L884.005 175.062L885.56 176.617V179.208C888.411 182.059 891.262 184.91 893.854 188.02C894.113 188.539 894.372 188.539 894.372 189.316C891.78 196.832 892.299 204.348 895.668 211.605C895.668 212.124 895.409 212.383 895.15 212.901C894.89 214.716 894.631 216.53 894.113 218.085C893.854 218.862 893.595 219.381 893.076 219.899L891.521 220.158C889.966 221.972 888.67 223.787 887.634 225.86C884.523 232.858 879.081 237.523 871.824 239.337C870.787 241.67 869.232 243.225 866.899 243.484C862.234 242.966 857.569 242.188 852.904 241.411C844.351 239.337 835.539 238.56 826.468 238.56C825.69 241.411 823.617 243.225 820.766 243.743C818.952 244.262 817.137 244.002 815.582 243.225C813.509 244.521 811.954 246.594 811.436 248.927C810.399 251.259 810.658 253.851 811.695 256.184L812.991 258.257C812.472 260.331 811.695 262.663 809.881 264.218C803.66 270.698 800.291 277.695 800.291 285.989L798.736 288.581C798.995 289.877 799.254 290.913 799.773 291.691C802.364 296.615 803.919 301.28 805.215 305.946C805.475 307.242 805.215 308.019 804.697 308.797C799.513 316.831 796.663 325.643 795.626 335.492L794.589 336.01L793.552 341.712C789.406 345.6 786.555 350.265 785 355.967L786.036 358.299C785.777 358.818 785.518 359.077 785.259 359.595C783.445 362.446 781.371 364.001 778.261 364.52C775.669 364.26 773.855 362.965 772.818 360.891C770.227 361.15 767.635 361.15 765.043 360.373C750.788 356.744 741.976 347.932 738.607 334.455C738.089 333.937 737.57 333.937 737.311 333.937C736.015 333.159 734.719 332.382 733.423 331.086C732.387 330.049 731.868 328.494 731.609 326.939C731.35 324.347 732.128 322.015 733.164 319.941C729.277 314.499 724.093 310.352 718.132 307.501L717.355 306.205C713.208 302.836 712.43 298.43 714.504 292.728C716.059 289.099 716.836 284.952 717.355 281.065C717.355 279.769 717.355 278.214 716.836 276.918C713.726 265.255 706.987 256.702 696.62 250.741C695.325 250.223 694.288 249.186 693.251 247.89C687.031 240.633 682.107 232.08 678.219 223.268L679.256 221.195C682.625 221.713 685.994 222.491 689.104 223.268C692.733 223.528 695.584 222.232 698.435 221.195C705.432 218.603 711.912 216.789 716.577 210.05C717.095 209.532 717.095 209.014 717.355 208.495C717.873 206.94 718.65 205.644 719.946 204.608C724.352 200.461 726.426 195.536 726.426 189.575C726.944 189.316 727.462 189.057 727.722 188.798L731.609 184.91L732.128 181.282C732.905 180.504 733.423 179.727 733.683 178.949C735.497 175.321 738.089 172.211 740.94 169.619L737.052 168.064C736.534 168.582 736.015 169.1 735.497 169.36C732.128 172.47 729.795 176.357 728.24 180.245C726.944 180.245 725.648 180.763 724.611 182.059C723.575 183.614 722.538 185.169 722.538 187.243C722.02 190.871 719.687 193.204 716.318 194.241C713.467 200.202 711.134 205.904 708.802 211.865C707.765 214.456 705.951 216.011 703.618 216.271C695.584 215.234 688.068 212.642 681.329 207.977C680.033 207.199 679.256 206.681 677.701 206.163C666.815 202.793 660.595 195.796 658.781 185.429C659.299 184.91 659.817 184.651 660.336 184.392C664.483 182.578 668.111 179.986 670.703 176.098C671.739 176.876 672.776 177.653 673.554 178.431C675.627 180.504 677.701 181.023 680.033 180.504C683.402 179.727 685.476 177.653 685.994 174.025L688.068 177.912C688.327 176.617 688.586 175.839 689.104 174.802C690.141 172.729 691.178 170.656 692.733 169.36C694.547 167.805 695.065 165.731 694.288 163.139L693.251 162.621C692.992 162.88 692.733 162.88 692.474 163.139C685.735 170.915 677.182 174.802 667.074 174.543L666.556 175.839C660.077 178.431 653.338 178.69 646.599 177.135C639.602 175.839 633.641 178.431 629.235 184.651L625.347 185.429L628.975 187.243C628.716 187.502 628.457 187.761 628.457 188.28C627.161 190.353 625.088 191.649 622.496 191.39C621.718 191.13 620.941 190.871 619.904 190.612L619.386 186.984H617.572C617.053 194.5 615.498 202.016 613.166 209.273C612.129 209.791 611.351 210.828 610.833 212.124C610.315 213.938 609.537 215.493 609.019 217.048C608.5 217.307 608.5 217.566 608.241 217.826C605.909 220.677 604.094 223.787 602.798 227.156C601.503 230.266 599.429 231.044 596.319 229.489C595.023 226.897 593.986 224.823 592.691 222.232C592.172 221.454 591.395 220.677 590.617 219.899C590.876 217.566 591.136 215.493 591.395 213.16C591.654 211.087 590.876 209.273 589.581 207.718C588.025 206.163 586.73 204.089 585.174 202.534C583.879 201.498 583.101 200.461 581.805 199.424V200.461C581.287 199.942 580.769 199.165 580.509 198.647C579.732 197.61 578.436 196.573 577.399 195.796L573.771 192.945C570.92 190.871 567.81 189.575 564.44 188.539C563.663 188.28 562.367 188.02 561.071 187.761C560.812 187.761 559.775 187.502 558.479 187.502V194.241C556.147 194.759 554.073 195.277 553.814 195.796C550.445 200.202 548.631 205.126 548.371 210.31L539.041 210.05C537.227 212.901 536.19 216.271 536.19 220.158L533.339 222.232V234.413C531.266 235.968 529.192 238.041 527.637 240.374C527.119 240.892 527.119 241.67 526.601 242.447C526.082 243.743 525.564 245.039 525.305 246.076C524.786 247.372 524.527 248.409 523.75 249.445C521.158 252.296 518.307 254.888 515.197 257.48C515.197 256.961 514.938 256.443 514.678 255.925C514.16 253.592 514.419 251.519 515.715 248.927C516.752 246.853 518.048 245.039 519.862 243.743C527.378 237.264 530.488 229.229 529.192 219.899C528.415 219.899 527.896 219.899 527.119 220.158C526.601 220.158 526.082 220.158 525.564 220.417C525.046 220.677 524.268 220.936 524.009 221.195C522.972 221.713 522.195 222.491 521.935 223.268C519.344 228.97 515.456 232.858 510.272 234.931L508.199 232.858L507.681 228.97L506.126 227.674C503.275 227.934 500.683 227.156 498.35 225.083C499.646 217.048 502.497 209.791 507.422 203.312C511.05 198.128 510.013 194.5 503.793 192.426L502.497 193.722L503.534 199.165L500.942 202.016L498.091 201.238C497.573 195.277 494.463 192.167 488.761 191.649C481.763 190.612 476.061 187.761 471.396 182.318C467.768 177.912 464.917 172.988 462.325 168.064C460.251 164.176 461.547 161.844 465.953 160.288L468.027 150.699C465.435 149.144 463.362 147.07 462.066 144.479L463.102 143.96C466.731 145.256 470.1 144.479 472.951 142.405V141.369L463.621 134.371L464.139 140.073L463.362 141.109H462.325C459.215 138.518 455.845 137.74 452.476 139.036L453.772 144.22L450.144 145.515L448.848 154.846C447.033 156.142 445.478 156.142 443.664 155.364C442.887 154.846 442.368 154.327 441.85 153.55C439.776 151.476 438.999 148.626 440.036 145.515C440.295 144.22 440.554 142.924 440.554 141.887C440.554 136.963 438.481 133.075 434.593 129.706C433.297 129.965 432.26 129.965 431.224 130.224C429.15 130.483 427.595 129.965 425.522 129.187C416.969 124.522 410.49 118.302 405.306 110.786C404.01 108.712 403.233 106.38 403.751 103.788C404.788 95.4944 409.453 92.1251 417.487 93.4209C413.34 88.2374 408.416 84.3498 402.455 82.2763C394.68 79.4254 386.645 78.6479 378.611 79.4254C374.205 79.4254 370.317 78.3887 366.948 76.5745C360.728 73.4644 353.73 71.1318 346.732 69.0583C346.214 70.3542 345.955 71.3909 345.695 72.6868C345.177 75.0194 345.955 76.8336 347.769 77.8704C350.62 79.4254 352.952 81.4988 355.544 83.8314C357.877 85.9048 358.913 88.7558 358.395 91.6067C357.099 97.5678 357.877 103.01 361.246 108.194C356.322 107.157 352.693 104.566 350.101 100.16C348.287 97.0494 346.214 94.7168 343.363 92.6434C340.253 90.57 337.92 87.7191 335.847 84.0906C335.328 82.7947 335.328 82.0172 335.328 80.7213C336.624 75.2786 335.328 71.3909 331.181 69.0583L329.367 74.7602C326.775 75.0194 324.184 75.2786 321.851 75.2786C319.519 75.2786 317.445 74.7602 314.853 74.2419C305.523 71.3909 295.674 69.3175 286.085 68.2808L284.789 66.9849L284.271 65.6891L287.64 62.0606C286.344 60.7647 285.048 59.9872 284.011 59.2096C282.975 58.6913 281.938 57.9138 280.901 57.6546C274.94 58.4321 269.238 60.5055 264.314 64.134C263.796 63.8748 263.277 63.6156 262.759 63.6156C259.13 62.0606 256.798 59.2096 255.761 55.0628L256.02 52.9894ZM478.653 286.248L477.616 288.063C477.098 288.322 476.32 288.322 475.802 288.322C472.951 288.84 470.878 288.322 469.582 285.989H476.32C477.098 285.989 477.875 286.248 478.653 286.248ZM307.596 383.439C312.002 388.623 316.927 393.547 322.629 397.694C325.48 400.027 325.48 402.1 322.629 404.433C319.259 407.025 316.668 405.988 314.076 401.582C312.521 397.953 309.67 395.88 305.264 395.362L305.523 391.474C305.264 391.474 305.005 390.956 305.005 390.956C303.19 390.437 302.154 389.401 301.895 387.327C302.672 384.476 304.745 382.921 307.596 383.439ZM508.977 273.03C509.754 271.734 510.272 270.179 511.309 268.624C518.566 256.702 528.674 247.372 541.374 241.152L542.67 241.929C541.633 244.002 540.596 245.558 539.041 247.631C536.19 252.037 533.08 256.184 530.488 260.331C519.344 277.955 503.275 286.248 482.541 284.952C486.947 282.101 491.871 280.546 496.795 280.546C502.497 280.806 506.644 278.214 508.977 273.03ZM404.528 127.373C405.565 128.41 406.083 129.446 406.083 130.483L394.421 131.002C394.161 130.483 393.643 129.965 393.125 129.706C390.274 128.151 387.941 126.077 385.349 123.745L386.645 122.19C391.051 122.708 394.939 120.894 398.049 118.043L399.086 118.561L400.9 125.04C402.196 125.559 403.233 126.336 404.528 127.373ZM443.146 263.182L441.85 258.776L438.999 257.48L438.481 256.184L440.295 254.888L442.109 250.741C444.96 253.074 445.737 256.184 444.701 260.59C444.182 261.367 443.664 262.404 443.146 263.182ZM468.027 217.826C468.027 219.899 466.99 221.454 465.176 222.232C463.102 218.603 459.992 217.566 455.586 219.122L454.29 217.307L454.55 216.011L461.547 214.975C463.102 213.42 463.362 211.346 462.584 209.014C461.288 205.904 462.066 203.83 465.176 202.016C465.694 202.016 466.212 201.757 466.472 201.498C468.027 206.94 468.545 212.124 468.027 217.826ZM457.4 289.877L457.66 291.691L456.364 292.728L444.701 286.767C448.848 286.248 453.254 287.285 457.4 289.877ZM470.878 242.447C472.951 241.152 475.024 240.374 476.839 239.596C477.357 239.337 478.135 239.337 478.653 239.337L483.059 245.298C484.096 245.817 484.873 246.594 485.392 247.372C486.687 248.668 487.724 249.445 489.279 250.223L493.685 250.741L495.759 253.592L499.387 253.074C501.979 255.147 502.238 257.998 500.424 260.849C499.128 262.922 498.35 265.255 498.091 267.847C492.13 270.179 485.651 271.475 478.912 270.698C477.616 264.477 474.506 259.035 470.359 254.629L473.988 249.186C473.469 248.409 472.951 247.89 472.433 247.113C471.137 246.076 470.618 244.521 470.878 242.447ZM461.029 181.023C461.547 180.763 461.547 180.504 461.547 180.504C465.176 183.614 466.212 186.724 464.139 190.612L462.584 187.761L463.621 184.91L460.511 182.837L461.029 181.023ZM467.249 278.473L466.212 278.732L464.657 277.955C464.398 277.695 464.398 277.436 464.657 276.918C465.176 274.585 465.176 272.253 464.139 269.92C462.843 273.03 460.77 274.326 457.66 273.549L456.882 272.253L459.992 266.292L455.586 261.886L463.102 263.441C463.362 262.922 463.621 262.922 463.621 262.663C464.657 261.367 464.398 259.812 463.362 258.776C462.843 258.516 462.066 258.516 461.547 258.516C456.623 259.812 452.735 258.516 449.366 254.888L450.403 254.37C453.772 254.888 457.141 255.406 460.511 255.406C463.102 255.406 464.917 256.443 465.694 258.516C466.212 260.59 466.99 262.404 467.768 264.477C468.286 265.773 468.286 266.81 468.286 268.106C468.286 271.994 468.027 275.104 467.249 278.473ZM455.068 220.677C454.549 222.75 454.29 225.083 453.772 227.156L452.217 227.674L450.921 222.232L452.217 220.677H455.068V220.677ZM483.059 326.68C486.687 331.086 487.465 336.269 485.132 341.712C483.836 344.563 482.541 346.896 481.504 349.487C479.171 354.412 478.135 359.336 479.171 364.52C479.171 365.297 478.912 365.815 478.394 366.593C476.839 368.666 474.765 368.926 472.433 368.666C459.733 365.038 447.033 360.891 434.593 356.744C431.224 355.448 427.854 355.708 425.003 358.04C423.448 359.336 422.152 360.632 420.857 361.669C419.302 363.224 417.487 363.742 415.673 363.742C414.377 363.742 412.822 363.483 411.526 363.483L415.414 368.926L414.118 369.703C411.267 368.926 408.934 369.444 407.12 371.517C405.824 372.813 405.565 374.368 406.343 375.664C397.012 379.293 387.941 379.293 378.87 375.146C376.537 373.85 374.723 372.295 374.464 369.444C373.946 366.593 372.391 364.001 369.799 361.928C367.466 360.373 365.393 358.299 364.615 355.448C360.209 345.341 361.764 336.269 369.28 327.976C373.946 323.051 378.611 317.868 383.276 312.943C385.609 310.611 387.682 308.019 389.237 305.168C391.31 299.725 394.939 295.838 400.122 293.505C400.9 293.246 401.677 292.987 402.196 292.987L403.233 293.505C401.937 298.689 401.937 303.872 402.714 309.056C402.714 309.574 402.973 310.093 403.233 310.352C411.267 310.87 416.71 307.501 418.524 300.244C419.042 298.948 419.042 297.911 418.524 296.615L434.075 292.209L436.925 296.356L440.554 297.652L440.813 304.391H442.887L444.96 303.095L447.293 300.762L450.403 301.281C451.699 303.354 453.254 305.168 455.586 306.464L455.845 309.056L458.696 309.315C462.584 317.868 469.582 322.792 478.912 324.866C480.208 324.088 481.763 325.125 483.059 326.68ZM456.105 285.471C460.251 285.471 463.88 285.989 467.249 287.544L466.472 288.84C462.325 289.099 458.696 288.322 455.586 286.248L456.105 285.471ZM449.625 228.711L450.921 232.08C451.439 232.08 452.217 232.08 452.735 231.821C457.66 230.525 460.511 232.08 460.511 236.486L454.809 235.709C453.772 238.56 451.958 240.633 449.366 241.67L448.07 240.633L449.107 237.523L448.848 237.264C446.774 237.782 445.738 237.782 445.219 236.486L448.329 228.452L449.625 228.711ZM459.474 225.601C458.956 225.601 458.437 225.601 458.178 225.083C457.66 224.564 457.66 224.305 457.66 223.787C457.66 223.268 457.66 222.75 458.178 222.491C458.696 221.972 458.956 221.713 459.474 221.713C459.992 221.713 460.511 221.972 460.77 222.491C461.288 222.75 461.547 223.268 461.547 223.787C461.547 224.305 461.288 224.823 460.77 225.083C460.511 225.601 459.992 225.601 459.474 225.601Z" fill="white"/>
    <animateTransform
      attributeName="transform"
      type="translate"
      repeatCount="indefinite"
      dur="15s"
      keyTimes="0;1"
      values="-1110 0;1112 0"
    ></animateTransform>
  </g>
  </mask>
  <g mask="url(#mask0)">
    <circle cx="252.517" cy="252.517" r="252.517" fill="#1A51A9"/>
  </g>
</svg>
