<svg width="731" height="351" viewBox="0 0 731 351" fill="none" xmlns="http://www.w3.org/2000/svg">
  <circle cx="175.5" cy="175.5" r="175.5" fill="#4384EC"/>
  <path opacity="0.5" d="M351.5 175.5C351.5 272.426 272.926 351 176 351C252.5 333.494 322 272.426 322 175.5C322 78.574 260 9.5 176 0C272.926 0 351.5 78.574 351.5 175.5Z" fill="#0D5AD7"/>
  <mask id="mask0" mask-type="alpha" maskUnits="userSpaceOnUse" x="0" y="31" width="731" height="289">
    <path opacity="0.5" d="M18.3647 101.339C16.4561 100.956 17.6012 103.632 15.6927 104.015C13.7841 104.397 11.8755 105.161 13.4024 105.544C14.9292 105.926 17.983 105.544 18.3647 104.779C18.3647 104.397 18.7464 101.339 18.3647 101.339ZM4.62285 105.161C2.71427 105.161 0.423963 105.161 0.0422454 105.926C-0.339472 106.69 1.95083 107.073 3.4777 107.073C5.00457 107.073 7.67659 106.308 7.29488 105.926C6.53144 105.926 4.62285 105.161 4.62285 105.161ZM16.4561 90.2526C15.6927 90.6349 17.6012 91.7817 18.3647 91.7817C19.1281 91.7817 20.2733 89.8704 18.7464 89.8704C17.2195 89.8704 17.983 89.8704 16.4561 90.2526ZM22.5636 76.4907L23.7087 77.2553C24.8539 78.0198 26.3807 78.4021 27.9076 78.7844C29.4345 78.7844 29.4345 78.0198 28.2893 76.873C27.1442 75.7262 26.7625 76.1085 25.6173 75.7262C24.4722 75.7262 24.4722 74.5794 21.4184 74.5794C18.7464 74.5794 19.1281 73.0503 18.7464 72.668C18.3647 71.9034 21.4184 70.3743 22.1819 70.7566C22.9453 70.7566 25.6173 70.3743 25.6173 70.3743C25.6173 70.3743 30.1979 68.8452 30.5796 68.8452C30.9614 69.2275 33.6334 68.463 34.7785 68.0807C35.9237 67.6984 36.6871 65.787 36.6871 65.787C36.6871 65.787 38.214 66.1693 38.9774 67.3161C39.7409 68.0807 41.6494 67.3161 42.4129 67.3161C42.7946 67.3161 45.8483 67.6984 45.8483 67.6984C45.8483 67.6984 48.5204 67.3161 50.0472 67.3161C51.5741 67.3161 55.3913 68.463 56.9181 68.8452C58.445 69.2275 65.6976 67.6984 66.4611 67.6984C67.2245 67.6984 69.5148 70.7566 71.8051 70.3743C74.0954 69.9921 75.2406 70.7566 75.6223 70.7566C76.004 70.7566 76.7674 70.7566 77.5309 71.9034C78.2943 73.0503 79.4395 71.9034 80.5846 71.5212C81.7298 70.7566 81.7298 69.9921 81.7298 69.9921H82.8749C84.0201 69.9921 84.7835 70.3743 87.4555 70.3743C90.5093 70.3743 89.7458 69.9921 91.6544 69.2275C93.563 68.463 95.8533 69.9921 96.6168 69.9921C97.3802 69.9921 98.1436 68.463 98.5253 69.2275C98.9071 69.9921 100.052 71.1389 100.052 71.1389C100.052 71.1389 102.343 69.6098 103.106 69.6098C103.869 69.6098 107.687 69.9921 108.832 69.6098C109.977 69.6098 113.031 69.6098 113.794 70.7566C114.939 71.5212 117.611 71.5212 118.756 72.2857C120.283 73.0503 121.428 71.5212 120.665 71.1389C119.902 70.7566 118.375 69.6098 118.375 69.6098C118.375 69.6098 115.703 66.5516 115.321 66.1693C114.939 65.787 114.557 65.787 113.794 66.9339C113.031 68.463 110.359 68.463 107.687 68.463C104.633 68.463 106.541 66.9339 103.488 66.9339C100.052 66.9339 101.579 65.4048 102.343 65.4048C103.106 65.4048 104.251 63.4934 104.251 62.3466C104.633 61.1997 105.778 61.1997 108.45 61.582C110.74 61.582 111.504 61.1997 114.176 61.582C116.466 61.9643 116.466 60.4352 118.756 60.8175C121.047 60.8175 119.902 61.1997 121.428 62.3466C122.955 63.1111 123.719 63.1111 125.627 63.8757C127.536 64.6402 126.772 64.6402 127.536 65.0225C128.299 65.0225 131.353 64.6402 133.262 64.6402C135.17 64.6402 136.315 64.2579 137.461 65.4048C138.224 66.5516 138.224 67.6984 139.369 68.463C140.514 69.2275 138.606 65.4048 138.606 63.8757C138.606 62.3466 140.896 63.8757 142.805 63.8757C144.331 63.8757 146.24 63.4934 146.622 63.8757C147.003 64.6402 144.331 65.4048 145.858 66.9339C147.385 68.463 148.53 68.8452 150.057 68.8452C151.584 68.8452 154.638 69.2275 153.111 71.1389C151.584 73.0503 148.149 72.668 147.003 72.668C145.858 72.668 143.568 73.4325 144.331 74.1971C144.713 75.3439 147.767 74.5794 149.675 74.5794C151.584 74.5794 157.692 74.9616 159.218 74.5794C160.745 74.1971 160.364 71.9034 158.837 71.5212C156.928 71.1389 158.455 69.9921 160.364 70.3743C162.272 70.7566 163.799 69.9921 163.417 70.3743C163.036 70.7566 163.417 71.9034 163.417 73.4325C163.417 74.9616 163.799 75.7262 165.326 75.3439C166.471 74.9616 166.471 73.8148 167.616 73.8148C168.761 73.8148 168.38 71.9034 167.998 70.3743C167.234 68.8452 166.853 68.0807 166.853 67.3161C166.853 66.5516 168.761 66.1693 169.906 67.3161C171.052 68.0807 172.197 69.9921 172.197 69.9921C172.197 69.9921 174.105 71.1389 174.869 72.668C175.632 74.1971 175.632 73.8148 177.159 72.668C178.686 71.9034 179.068 71.9034 180.213 72.668C181.358 73.4325 180.595 75.3439 180.595 75.7262C180.595 76.1085 182.503 75.7262 182.503 74.5794C182.885 73.4325 184.412 73.4325 185.175 73.0503C185.939 72.668 185.939 70.7566 185.939 70.7566C185.939 70.7566 183.648 70.3743 181.358 70.3743C179.068 70.3743 178.304 70.3743 176.777 68.8452C174.869 67.6984 176.014 66.9339 175.251 65.787C174.487 64.6402 177.923 63.8757 180.213 62.7288C182.503 61.582 184.793 62.3466 184.412 65.0225C184.03 67.6984 183.648 67.3161 186.32 66.5516C188.992 66.1693 186.32 63.8757 187.465 63.4934C188.611 63.4934 191.664 62.7288 192.81 63.1111C193.955 63.1111 199.68 62.7288 200.826 62.7288C202.352 62.7288 204.643 63.8757 206.17 64.6402C207.697 65.4048 211.895 66.5516 213.041 67.3161C214.186 67.6984 221.438 68.8452 222.202 68.8452C222.965 68.8452 222.965 71.1389 223.729 72.668C224.492 74.1971 226.401 73.0503 227.164 73.0503C227.928 73.0503 230.218 74.1971 230.981 74.9616C231.745 75.7262 237.089 76.4907 237.089 76.4907C237.089 76.4907 235.944 78.0198 235.18 78.4021C234.798 78.7844 233.272 79.1667 232.508 79.9312C231.363 80.6958 230.218 79.9312 228.691 78.7844C227.164 78.0198 224.874 77.2553 224.492 77.6376C224.11 78.0198 224.492 78.7844 224.492 79.1667C224.874 79.5489 227.164 80.3135 228.691 81.4603C230.218 82.6071 229.836 83.3717 229.836 84.9008C229.836 86.4299 228.309 84.5185 226.782 84.1362C224.874 83.754 224.874 85.6653 224.874 85.6653H221.438C220.293 85.6653 221.438 85.6653 219.53 84.1362C217.621 82.6071 218.003 84.9008 216.858 84.1362C215.713 83.3717 214.949 82.6071 214.186 82.6071C213.804 82.9894 211.895 81.078 210.75 81.078C209.605 81.078 205.406 80.6958 204.643 81.078C203.498 81.4603 202.734 81.4603 201.971 81.8426C201.207 82.2249 200.826 79.5489 201.207 78.7844C201.589 78.0198 203.116 77.6376 205.406 78.4021C207.697 78.7844 207.697 78.4021 208.46 77.6376C208.842 76.873 209.605 76.1085 211.895 75.3439C214.186 74.5794 211.895 74.1971 211.132 73.8148C210.369 73.4325 209.605 72.668 209.223 73.8148C208.842 74.9616 207.315 76.1085 207.315 76.1085H203.879C201.971 76.1085 203.498 75.3439 204.261 74.9616C205.024 74.5794 206.17 72.668 205.406 71.9034C204.643 71.5212 204.261 71.1389 202.734 71.5212C201.207 71.9034 202.352 70.3743 201.207 69.9921C200.062 69.6098 200.444 70.3743 200.444 71.1389C200.444 71.9034 198.917 71.5212 198.917 71.5212C198.917 71.5212 196.627 71.1389 195.482 71.5212C194.718 71.9034 193.191 72.668 193.573 73.0503C193.955 73.4325 195.863 73.4325 196.245 74.9616C196.627 76.4907 193.955 76.873 193.573 76.873C193.191 76.873 190.901 77.6376 190.901 77.6376C190.901 77.6376 188.992 77.2553 187.084 77.2553C185.175 77.2553 184.793 77.2553 185.175 78.0198C185.557 78.7844 186.32 78.4021 187.084 78.4021C187.465 78.4021 187.465 79.1667 188.992 78.7844C190.519 78.4021 190.138 78.0198 191.664 79.1667C193.191 80.6958 194.336 80.3135 196.627 81.4603C198.917 82.6071 196.245 84.1362 195.1 84.1362C193.955 84.1362 193.955 82.9894 193.191 82.2249C192.428 81.078 189.756 82.2249 189.756 82.2249C189.756 82.2249 187.465 83.3717 186.32 83.3717C185.175 83.3717 184.412 83.3717 185.939 81.8426C187.465 80.6958 184.03 80.3135 184.03 78.7844C184.03 77.2553 182.885 81.8426 182.885 82.6071C182.885 83.3717 181.74 81.4603 178.686 81.8426C175.632 82.2249 176.396 83.3717 172.579 85.6653C168.761 87.959 169.906 87.5767 169.906 89.8704C170.288 92.164 169.143 92.5463 170.67 92.9286C172.197 93.3108 171.815 95.9868 172.96 95.6045C174.105 95.6045 174.869 94.4577 177.541 95.6045C179.831 96.7513 181.358 97.1336 184.03 97.5159C187.084 97.8981 188.611 97.8981 190.138 97.5159C191.664 97.1336 193.191 98.6627 193.191 100.192C193.191 101.339 194.336 101.721 193.955 103.25C193.955 104.779 195.863 101.721 195.863 101.721C195.863 101.721 196.627 104.397 195.863 104.779C195.1 105.161 195.863 106.69 197.008 106.308C197.772 106.308 198.917 106.69 200.062 105.926C201.207 105.161 199.68 102.485 199.68 101.339C199.68 100.192 198.535 99.8095 198.154 98.6627C197.772 97.5159 199.68 97.5159 200.062 98.6627C200.826 99.8095 201.971 98.6627 203.116 97.8982C204.261 97.1336 204.261 95.6045 204.261 95.6045C204.261 95.6045 202.352 92.9286 200.444 92.164C198.917 91.3995 199.68 91.3995 201.207 91.0172C202.734 90.6349 201.207 90.2526 201.589 88.3413C201.971 86.4299 201.971 85.2831 202.734 85.2831C203.498 85.2831 206.933 84.9008 209.223 84.9008C211.895 84.9008 213.041 86.8122 214.949 87.1944C216.858 87.1944 219.53 87.5767 219.911 88.7235C220.293 89.4881 216.858 90.2526 218.003 91.3995C219.148 92.9286 220.675 92.164 221.82 92.9286C222.965 93.3108 224.492 92.9286 226.019 91.0172C227.546 89.1058 228.309 88.7235 228.691 89.1058C229.073 89.4881 232.508 93.3109 233.272 94.0754C234.035 94.84 234.798 97.5159 235.18 98.2804C235.18 99.045 238.616 98.6627 239.379 98.6627C240.142 98.6627 242.815 100.574 243.196 101.721C243.578 102.868 244.341 103.25 246.632 103.632C248.922 104.015 246.632 105.926 246.25 107.073C245.868 108.22 245.487 108.602 244.723 109.749C243.96 110.896 244.723 109.749 245.487 110.131C246.25 110.513 246.632 111.278 248.159 110.896C249.685 110.513 250.067 110.896 250.831 112.042C251.212 113.189 251.976 113.954 252.739 114.718C253.121 115.483 252.739 117.012 251.976 116.247C251.212 115.483 248.922 115.865 248.922 115.865C248.922 115.865 247.777 117.012 247.395 116.247C247.013 115.865 246.25 115.101 245.105 115.483C243.96 115.865 242.815 115.483 241.288 115.483C239.761 115.483 239.379 114.718 240.142 113.954C240.906 113.189 241.288 110.896 242.815 109.749C244.723 108.602 243.96 107.073 242.815 107.073C241.669 107.073 240.906 108.602 240.524 108.984C239.761 109.366 237.47 108.22 236.325 109.366C235.18 110.131 233.272 110.896 234.417 111.278C235.562 111.66 232.508 112.807 231.745 112.807C230.6 112.807 230.981 110.513 230.981 109.749C230.981 108.984 229.454 110.131 229.454 110.131C229.454 110.131 226.782 108.602 225.637 109.749C224.492 110.896 220.675 110.513 219.53 111.278C218.385 112.425 217.621 115.101 217.621 115.101C217.621 115.101 218.766 114.718 220.675 113.954C222.583 113.571 222.583 113.571 224.492 112.807C226.401 112.042 227.928 111.66 229.073 113.189C230.218 114.718 228.691 115.483 228.691 115.483C228.691 115.483 229.454 116.63 230.218 117.012C230.981 117.394 230.981 116.63 232.126 115.865C233.272 115.101 232.89 117.394 233.272 117.776C233.653 118.541 234.798 118.541 235.562 117.776C236.325 117.012 236.707 116.247 237.47 116.63C237.852 117.012 238.616 118.159 238.997 119.688C239.379 120.835 235.18 121.217 234.798 121.217C234.035 121.217 230.6 121.981 230.218 122.364C229.836 122.364 227.928 123.893 226.401 123.893C224.874 123.893 225.255 121.981 224.874 120.835C224.874 119.688 222.965 120.835 222.965 121.599C222.965 121.981 221.057 121.981 219.911 121.981C218.766 121.981 216.476 123.511 216.476 124.657C216.476 126.187 218.766 127.333 218.385 128.098C218.003 128.862 213.804 128.48 212.659 128.098C211.514 127.716 209.605 128.48 210.369 129.245C210.75 130.009 210.369 130.774 209.223 130.774C208.078 130.774 207.697 131.921 208.46 132.685C208.842 133.45 206.933 135.361 206.551 134.597C206.17 133.832 205.024 133.45 205.024 134.597C205.024 135.743 206.17 136.89 206.933 138.419C208.078 139.948 203.879 139.948 202.734 141.095C201.589 142.242 198.917 145.683 197.008 146.447C195.1 147.212 193.955 149.123 194.718 149.888C195.482 150.652 196.627 154.475 197.008 155.622C197.39 156.769 197.008 160.209 195.1 160.209C193.573 160.209 194.336 157.915 192.81 157.533C191.283 157.151 190.519 154.093 190.138 151.799C189.756 149.888 189.374 151.034 188.229 151.799C187.084 152.563 186.32 150.27 185.557 149.888C185.175 149.505 182.503 151.034 180.213 150.652C178.304 150.652 177.159 151.034 177.159 151.417C177.159 151.799 176.777 153.328 174.869 152.564C172.197 151.034 171.815 151.034 169.906 151.034C167.998 151.034 166.089 151.034 165.708 151.417C165.326 152.181 163.417 153.71 162.272 154.093C161.127 154.475 158.837 156.004 159.982 156.386C161.127 156.769 161.127 159.062 160.364 160.591C159.6 162.12 159.982 164.414 160.364 166.708C160.745 169.001 162.654 170.53 164.562 172.06C166.471 173.589 167.234 173.971 169.143 172.824C171.052 171.295 171.815 172.442 172.197 172.442C172.579 172.442 174.105 171.677 173.724 170.148C173.342 168.619 174.487 167.09 176.014 167.472C177.541 167.472 179.831 167.09 180.976 167.09C182.121 167.09 182.885 170.53 180.976 171.677C179.068 173.206 180.213 175.118 179.831 176.647C179.449 178.176 177.923 178.558 179.831 178.558C181.74 178.558 181.358 178.94 182.503 178.94C183.648 178.94 184.793 177.794 186.32 177.794C187.465 177.794 190.519 180.47 190.138 181.616C189.756 183.146 188.992 185.439 189.374 187.351C189.374 189.644 190.137 189.644 190.519 190.409C190.901 191.173 192.428 192.702 193.955 191.938C195.482 191.173 197.008 190.791 197.772 190.026C198.154 189.262 201.589 191.173 201.207 191.556C200.826 191.938 202.352 192.702 203.498 191.938C204.643 191.556 205.024 190.409 206.17 189.262C207.315 187.733 208.842 186.586 209.987 186.586C210.75 186.586 213.041 184.292 214.186 184.675C215.713 185.057 213.804 186.586 213.422 187.733C213.422 188.88 213.422 191.556 214.186 191.938C214.949 191.938 214.567 190.026 215.331 188.497C216.094 186.968 218.003 186.204 218.766 186.204C219.53 186.204 220.293 189.644 221.438 188.88C222.583 187.733 225.256 188.115 225.637 188.88C226.019 190.026 226.782 190.409 226.782 190.409C226.782 190.409 227.546 189.644 227.546 188.88C227.546 188.115 230.218 187.351 232.126 188.115C234.035 189.262 233.272 189.644 234.035 189.644C234.798 189.644 235.944 187.351 236.325 187.351C236.707 187.351 236.325 190.026 235.18 191.556C234.035 193.085 236.325 192.702 236.325 192.702L236.707 193.085C237.089 193.467 238.997 192.702 239.761 193.467C240.524 194.614 241.669 194.996 242.815 196.525C243.96 198.437 245.105 196.907 247.013 196.525C248.922 196.143 251.976 198.819 254.266 200.73C256.175 203.024 256.175 204.553 257.32 204.553C258.847 204.553 259.228 206.464 259.228 207.229C259.228 207.993 256.175 209.523 254.266 209.905C252.357 210.287 252.357 211.816 255.411 211.434C258.083 211.052 256.938 209.905 258.847 209.523C260.755 209.14 262.282 210.287 260.755 212.198C259.228 214.11 256.175 214.492 258.847 214.874C261.519 215.257 259.992 214.492 261.519 212.581C263.046 210.669 263.046 211.052 263.809 211.052C264.954 211.052 267.244 211.434 268.008 212.198C268.771 212.963 271.062 213.728 272.588 214.874C274.115 215.639 275.642 215.257 276.787 214.874C277.933 214.492 280.986 216.021 281.75 217.168C282.895 218.697 285.567 218.697 286.712 219.079C287.475 219.844 289.384 222.138 289.384 223.667C289.384 225.196 287.475 229.019 287.475 229.783C287.475 230.548 284.422 233.606 281.75 235.517C279.078 237.429 280.605 240.105 280.986 240.869C280.986 242.016 279.078 245.456 279.841 246.603C280.223 247.368 279.078 249.279 277.933 250.426C276.787 251.573 276.024 253.866 275.642 254.631C274.879 255.778 272.588 255.396 270.68 255.778C268.771 256.16 267.626 256.925 267.626 256.925C267.626 256.925 263.809 258.454 261.9 259.983C259.992 261.512 262.664 263.806 261.519 265.717C260.374 267.628 259.61 266.099 258.465 268.011C257.32 270.304 256.556 269.922 255.793 270.304C255.029 270.687 254.266 272.216 254.266 273.362C254.266 274.892 252.357 276.038 250.067 277.95C247.777 279.861 246.25 279.479 243.96 279.097C241.669 278.332 242.051 272.598 241.669 273.362C241.288 274.127 240.142 277.185 240.524 277.567C240.906 277.95 243.196 279.861 244.341 280.626C245.105 281.008 245.105 282.155 244.341 282.919C243.578 283.684 241.669 286.742 240.906 287.124C240.142 287.124 234.798 287.889 233.653 287.507C232.508 287.124 232.126 288.653 232.126 289.8C232.126 290.947 233.272 292.094 231.363 291.712C229.454 291.329 226.782 290.183 226.782 290.947C226.782 291.712 227.164 293.623 228.309 293.623C229.454 293.623 230.218 292.858 229.836 294.005C229.454 295.152 227.928 296.299 227.164 296.681C226.401 297.064 225.637 298.975 223.729 300.122C221.82 301.269 221.82 302.033 222.202 302.415C222.583 302.798 225.256 302.415 225.637 302.798C226.019 303.18 225.256 305.474 224.492 305.856C223.729 306.238 220.675 308.914 219.53 309.296C218.385 310.061 218.385 311.972 218.766 313.119C219.148 314.266 221.82 316.56 223.347 317.324C224.874 317.706 228.309 317.706 227.928 318.089C227.546 318.471 223.729 319.235 223.347 319.235C222.965 319.235 219.911 320 218.766 320C217.239 320 214.567 318.471 214.186 318.471C213.804 318.471 214.567 317.706 216.094 316.56C218.003 315.03 215.331 313.501 214.949 315.413C214.567 317.324 213.804 317.706 213.041 317.706C212.277 317.706 211.132 316.56 210.75 316.177C210.369 315.795 208.078 315.03 208.46 313.119C208.842 311.208 207.315 311.208 206.551 310.443C205.406 309.679 208.078 308.914 207.696 308.149C207.315 307.385 205.788 307.767 205.788 306.62C205.788 305.474 207.315 303.562 207.315 303.18C207.315 302.798 206.17 301.651 206.17 300.886C206.17 300.122 206.933 299.357 208.078 297.828C209.223 296.299 209.987 294.77 209.987 294.388C209.987 294.005 209.223 292.094 209.223 290.565C209.223 289.036 209.987 288.653 210.369 286.742C210.75 284.831 209.223 285.595 209.223 284.066C209.223 282.537 211.132 282.919 210.75 281.39C210.369 279.861 211.514 278.714 212.277 277.95C212.659 276.803 213.422 275.274 214.186 274.127C214.949 272.98 213.422 270.304 213.422 269.54C213.422 269.157 215.713 268.393 214.567 267.246C213.422 266.099 215.331 265.717 216.476 264.952C217.621 264.188 215.713 261.13 216.094 258.071C216.476 255.013 217.239 249.661 217.239 249.279C217.239 248.897 217.239 246.603 216.476 245.456C215.713 243.927 214.567 243.163 213.422 242.398C212.277 242.016 210.75 240.487 209.605 240.105C208.842 240.105 203.498 238.575 203.498 236.282C203.498 233.988 201.589 232.077 201.207 230.165C200.826 228.636 198.154 224.814 198.154 222.902C198.154 221.373 194.336 220.608 193.955 218.697C193.573 216.786 194.718 215.639 195.1 214.492C195.482 213.345 194.718 210.669 194.718 209.905C194.718 209.14 196.245 206.082 197.39 205.7C198.535 205.317 200.444 203.406 201.207 203.406C201.971 203.406 201.589 201.495 202.352 199.583C203.116 197.672 201.971 194.996 201.589 194.996C201.207 194.614 200.444 192.32 199.68 191.938C197.772 192.702 195.863 193.085 195.863 193.085C195.863 193.085 196.245 194.614 194.718 195.378C193.191 196.143 192.81 195.378 192.428 194.614C192.046 194.231 190.138 193.849 188.992 193.085C188.229 192.32 186.702 191.173 185.557 190.409C184.412 190.026 182.121 189.644 182.121 187.351C182.121 185.439 180.976 183.91 180.213 183.91C179.449 183.528 178.304 182.763 177.159 183.146C176.396 183.528 174.869 181.999 173.342 182.381C172.197 182.381 169.525 180.47 168.761 179.323C167.998 178.558 167.234 177.411 165.708 177.411C164.181 177.411 163.799 177.794 163.036 178.94C161.89 180.087 160.364 178.176 159.982 177.411C159.6 177.029 156.928 177.794 155.02 177.794C153.111 177.794 152.347 174.735 151.966 173.971C151.584 171.295 146.24 171.295 145.095 170.913C143.95 170.148 142.805 167.855 143.186 167.09C143.568 166.325 142.423 164.032 142.423 164.032C142.423 164.032 140.133 161.356 138.987 161.356C138.224 161.356 135.17 156.769 133.643 155.239C132.116 153.71 128.299 150.652 127.536 149.123C126.772 147.594 126.772 145.3 124.864 146.447C122.955 147.594 124.482 148.741 126.391 150.27C128.299 151.799 127.918 152.946 130.208 154.857C132.498 156.769 131.735 158.68 132.498 159.444C133.643 160.209 137.079 162.503 135.552 163.649C134.025 165.179 132.498 162.12 131.735 161.738C130.971 161.738 129.444 161.356 129.826 160.209C129.826 159.062 128.299 158.298 127.154 156.769C126.009 155.239 125.246 156.004 123.719 156.004C122.192 156.004 123.719 154.093 124.482 153.328C125.246 152.563 123.719 151.417 122.574 151.034C121.428 150.652 120.283 146.829 118.756 144.536C117.229 142.242 116.466 141.095 114.557 141.095C113.031 141.095 110.359 139.948 109.213 139.184C108.068 138.419 108.45 134.597 106.923 133.067C105.015 131.538 103.488 128.098 103.869 126.187C103.869 124.275 104.633 119.688 104.633 118.541C104.633 117.394 103.106 115.101 103.106 114.718C103.106 114.336 102.724 112.807 101.961 112.425C101.197 112.425 98.9071 110.513 97.3802 110.513C95.8533 110.513 95.0899 108.22 95.4716 107.073C95.8533 105.926 93.9447 104.015 93.1813 104.015C92.4179 104.015 90.891 101.721 90.5093 100.574C90.1276 99.4272 88.6007 99.4273 88.9824 100.192C89.3641 100.956 88.9824 102.103 89.7458 102.485C90.5093 102.868 91.2727 105.544 90.5093 105.926C89.7458 106.308 88.219 104.779 86.3104 104.015C84.4018 103.25 85.1652 99.8095 85.1652 99.045C85.1652 98.2804 82.8749 97.5159 81.7298 97.5159C80.5846 97.5159 79.8212 97.5159 79.4395 95.6045C79.4395 93.3108 76.004 92.164 75.2406 92.164C74.0954 92.164 68.3697 90.6349 66.4611 90.6349C64.5525 90.6349 61.8805 88.7235 61.117 89.1058C59.9719 89.8704 58.0633 87.959 56.9181 87.959C55.773 87.959 56.5364 90.2526 54.6278 91.3995C52.7193 92.5463 51.5741 90.2526 50.4289 91.0172C49.2838 91.7817 46.6118 92.5463 47.7569 90.6349C48.5204 88.7236 48.5204 88.3413 47.3752 88.7235C45.8483 89.1058 45.4666 90.6349 45.4666 91.3995C45.4666 92.164 43.1763 93.6931 43.1763 93.6931H46.2301C46.9935 93.6931 46.2301 95.6045 45.4666 95.9868C44.7032 96.3691 43.558 97.8981 42.0312 97.5159C40.5043 97.1336 40.5043 95.9868 39.7409 95.9868C38.9774 95.9868 37.8323 98.2804 34.7785 99.8095C31.7248 101.339 31.3431 99.045 29.8162 99.8095C28.6711 100.192 24.0904 101.721 22.5636 102.103C21.0367 102.103 21.4184 100.192 22.1819 100.192C22.9453 100.192 26.3807 98.6627 27.1442 98.2804C27.9076 97.8982 31.7248 96.3691 32.8699 95.9868C34.0151 95.6045 35.542 94.4577 34.7785 93.6931C35.1602 92.164 32.8699 93.6931 32.8699 93.6931C32.8699 93.6931 30.9614 92.164 30.5796 91.7817C30.1979 91.3995 29.0528 93.3108 29.0528 93.3108C29.0528 93.3108 26.7625 92.9286 27.1442 91.0172C27.9076 89.1058 26.3807 89.1058 25.999 89.8704C25.6173 90.6349 22.5636 92.164 22.5636 91.3995C22.5636 90.6349 19.8915 88.7235 19.1281 87.5767C18.3647 86.0476 19.5098 85.6653 21.0367 84.5185C22.5636 83.3717 24.8539 82.9894 26.7625 82.9894C28.671 82.9894 29.8162 81.078 29.0528 80.6958C28.2893 80.6958 27.1442 80.3135 25.999 81.078C24.8539 81.8426 22.1819 81.8426 22.1819 81.8426C22.1819 81.8426 18.3647 81.8426 16.8378 80.6958C15.3109 79.5489 14.5475 78.0198 14.5475 78.0198C14.5475 78.0198 17.6012 76.873 20.2733 76.4907H22.5636ZM182.121 126.951C184.03 126.951 184.03 124.657 183.648 123.893C183.648 123.128 183.648 120.452 184.03 119.688C184.793 119.306 185.557 117.776 187.465 117.394C189.374 117.394 190.519 118.541 190.519 120.07C190.519 121.599 190.901 123.128 191.664 123.128C192.428 123.128 194.336 121.981 193.573 120.835C192.81 119.688 193.955 116.247 193.955 117.776C193.955 118.923 195.482 119.688 196.245 119.688C197.008 119.688 195.482 116.63 194.336 116.247H190.138C189.756 116.247 186.702 115.483 185.175 115.483C183.648 115.483 181.74 116.247 180.976 117.394C180.213 118.923 180.976 121.217 180.976 122.364C180.976 123.893 180.595 126.569 182.121 126.951ZM192.046 126.951C192.428 127.716 194.336 126.951 195.482 126.187C196.627 125.04 198.917 124.657 199.68 123.893C200.444 123.128 200.826 123.128 202.734 122.364C204.643 121.599 205.788 121.599 205.024 120.835C204.261 120.07 200.826 120.835 200.062 120.452C199.68 120.07 195.863 124.275 195.863 124.275C195.863 124.275 192.81 125.422 192.428 125.804C192.046 126.569 191.664 125.804 192.046 126.951ZM173.724 113.954C173.724 114.718 175.632 115.101 176.396 114.336C177.541 113.954 179.068 113.571 179.831 113.189C180.595 113.189 180.213 113.954 181.74 113.954C183.267 113.954 185.175 114.336 185.939 114.336C186.32 114.336 187.847 112.042 186.702 112.042C185.557 112.042 183.648 110.513 182.503 109.749C181.358 108.602 179.068 111.278 176.777 112.042C174.487 112.807 173.724 112.425 173.724 113.954ZM102.343 108.22C100.816 107.837 102.724 110.131 103.869 110.896C104.633 111.278 106.541 111.278 106.541 112.425C106.541 113.189 107.305 115.483 108.068 115.101C108.832 115.101 108.832 113.189 108.068 112.425C107.305 111.66 104.633 109.749 104.251 109.749C103.869 109.366 102.724 108.602 102.343 108.22ZM188.611 84.9008C188.229 85.2831 190.519 86.0476 191.283 85.2831C191.664 84.9008 189.756 83.754 188.611 84.9008ZM195.482 86.0476C193.573 86.4299 195.482 87.959 196.627 87.5767C197.39 86.8122 197.008 85.6653 195.482 86.0476ZM108.45 58.5238C108.45 59.2884 109.595 59.2884 111.122 59.2884C112.649 59.2884 114.939 59.2884 115.703 58.9061C116.466 58.5238 119.902 57.7593 119.902 58.9061C119.902 60.0529 121.428 61.582 122.192 61.1997C122.955 60.8175 124.482 59.6706 125.627 60.0529C126.391 60.4352 126.391 61.9643 127.536 62.3466C128.299 62.7288 130.59 62.7288 131.735 62.3466C132.88 61.9643 135.552 61.9643 137.079 62.3466C138.224 62.7288 142.041 63.1111 142.423 62.7288C142.805 61.9643 143.95 61.9643 143.95 61.1997C143.95 60.4352 144.713 58.5238 144.713 58.5238C144.713 58.5238 143.95 57.377 142.805 57.7593C141.659 58.1415 141.278 58.5238 140.133 58.5238C138.987 58.1415 138.987 56.6124 137.079 56.9947C135.17 57.377 134.788 58.5238 134.407 58.9061C133.643 59.2884 132.498 59.6706 132.116 59.2884C131.735 58.9061 129.063 57.7593 129.063 57.7593C129.063 57.7593 123.337 57.377 123.337 56.9947C122.955 56.2302 122.192 55.0833 119.52 55.4656C116.848 55.8479 112.649 56.9947 111.885 56.9947C111.122 56.9947 112.649 58.5238 111.885 58.5238C109.977 57.7593 108.832 57.377 108.45 58.5238ZM128.299 53.9365C126.772 54.3188 127.154 55.4656 128.299 55.4656C129.063 55.4656 131.735 54.7011 132.116 55.0833C132.88 55.4656 134.407 55.0833 134.407 54.7011C134.407 54.3188 135.17 52.0251 133.643 51.6429C132.498 52.0251 130.208 53.172 128.299 53.9365ZM143.95 52.4074C143.95 53.172 144.713 53.9365 146.24 53.9365C147.767 53.9365 150.821 53.172 150.821 53.9365C151.202 54.3188 150.821 55.0833 152.347 55.0833C153.874 55.4656 154.638 55.4656 155.783 55.4656C156.546 55.4656 156.546 53.9365 155.401 52.7897C154.638 51.6429 154.638 52.0251 152.729 51.2606C150.821 50.8783 148.53 50.8783 147.003 50.8783C145.858 51.2606 144.331 50.8783 143.95 52.4074ZM146.24 57.7593C145.477 58.5238 146.24 60.8175 145.858 61.1997C145.477 61.582 145.858 62.3466 147.003 62.3466C147.767 61.9643 148.53 60.0529 148.912 60.0529C149.675 60.0529 153.111 59.2884 153.874 60.4352C154.638 61.582 154.638 61.1997 156.165 61.1997C157.692 61.1997 159.218 59.6706 159.218 58.9061C159.218 58.5238 158.455 57.377 156.165 57.377C153.874 57.377 147.385 56.9947 146.24 57.7593ZM150.439 63.4934C149.675 63.8757 150.057 65.787 151.202 65.787C152.347 65.787 154.638 65.0225 155.02 65.787C155.401 66.5516 156.165 69.6098 158.073 68.463C159.982 67.3161 159.982 66.5516 160.745 66.5516C161.509 66.5516 160.745 63.8757 159.6 63.4934C158.837 63.1111 155.783 63.1111 155.02 63.4934C154.256 63.8757 151.966 62.7288 150.439 63.4934ZM163.799 64.6402C163.799 65.0225 164.944 65.4048 166.471 65.4048C167.998 65.0225 170.288 65.0225 171.052 65.0225C172.197 65.0225 172.197 63.1111 171.052 63.1111C169.906 63.1111 169.143 61.9643 167.998 62.3466C166.853 62.3466 163.417 63.8757 163.799 64.6402ZM163.417 60.0529C163.036 61.1997 167.998 61.9643 167.616 60.4352C166.853 58.9061 164.181 58.5238 163.417 60.0529ZM164.181 53.9365C162.654 53.5542 160.364 53.172 160.364 52.7897C160.364 52.4074 159.6 54.3188 161.127 55.0833C162.272 55.4656 164.562 56.6124 166.089 57.377C167.616 57.7593 170.67 58.1415 171.433 59.2884C172.197 60.4352 175.632 61.1997 175.632 61.1997L179.449 61.582C179.449 61.582 182.121 61.1997 184.793 61.1997C187.465 61.582 191.283 61.582 193.573 61.582C195.863 61.582 196.245 60.8175 196.245 60.4352C196.627 60.0529 192.046 58.9061 191.283 59.2884H177.159C175.632 59.2884 174.869 58.5238 173.724 57.7593C172.579 57.377 170.288 55.4656 169.143 55.0833C166.853 54.7011 167.234 54.7011 164.181 53.9365ZM310.378 77.6376C309.997 78.4021 308.852 78.4021 309.997 79.9312C310.76 81.4603 311.524 82.2249 312.287 82.2249C313.051 82.2249 315.723 81.8426 316.104 82.9894C316.486 83.754 317.249 84.5185 319.54 84.1362C321.448 83.754 322.975 83.3717 323.739 82.6071C324.12 81.8426 327.174 81.8426 327.174 81.8426C327.174 81.8426 329.846 79.9312 328.701 79.1667C327.938 78.4021 325.647 77.6376 324.502 77.6376C323.357 77.6376 322.593 78.4021 319.921 78.4021C317.631 78.4021 316.104 79.1667 314.959 78.4021C314.577 77.6376 310.76 76.873 310.378 77.6376ZM211.132 55.0833C212.277 55.8479 213.041 55.4656 214.567 55.8479C216.094 56.2302 217.621 58.5238 218.385 58.9061C219.148 59.2884 220.293 58.9061 221.057 58.1415C221.438 57.377 222.202 55.0833 222.202 55.0833C222.202 55.0833 222.202 57.377 223.347 57.7593C224.492 58.1415 227.928 57.377 228.691 57.377C229.454 57.377 234.417 58.1415 235.944 58.9061C237.47 59.6706 240.906 60.0529 241.669 61.582C242.815 63.1111 242.815 68.0807 243.196 68.8452C243.578 69.2275 245.487 66.9339 245.868 66.5516C246.25 66.1693 248.54 66.1693 249.304 66.9339C250.067 67.6984 251.594 69.6098 251.594 70.3743C251.594 71.1389 251.212 72.2857 250.449 71.9034C249.685 71.5212 248.922 71.5212 249.304 70.7566C249.685 69.9921 250.067 68.0807 248.922 68.0807H247.395C247.395 68.0807 245.868 67.6984 244.723 69.2275C243.578 70.7566 244.341 72.668 245.105 72.668C245.868 72.668 247.395 72.668 247.395 73.0503C247.395 73.4325 245.487 74.9616 245.868 75.7262C245.868 76.4907 247.395 79.1667 247.777 79.9312C248.159 80.3135 250.449 81.078 251.212 81.078C251.976 81.078 249.685 81.4603 250.067 82.2249C250.449 82.9894 251.594 84.9008 252.739 85.2831C253.884 85.6653 257.32 87.5767 257.701 88.7235C258.083 89.4881 260.755 87.959 261.137 87.959C261.519 87.959 261.519 90.2526 263.046 90.2526C264.572 90.2526 264.954 89.8704 266.481 89.1058C267.626 87.959 267.626 86.8122 267.626 85.6653C267.626 84.5185 267.626 83.754 269.153 84.1362C270.68 84.5185 271.443 83.754 271.062 82.6071C271.062 81.4603 269.916 79.9312 272.207 79.9312C274.497 79.5489 275.642 78.0198 277.169 78.0198C278.696 78.0198 282.513 78.4021 282.895 78.0198C283.277 77.6376 285.185 74.1971 286.33 73.8148C287.475 73.8148 290.529 74.1971 293.201 73.8148C295.873 73.4325 298.927 71.5212 300.072 71.9034C301.217 71.9034 303.508 71.9034 302.744 71.5212C301.981 70.7566 300.836 69.2275 299.309 69.2275C297.782 69.2275 297.4 65.787 297.782 65.787C298.164 65.787 301.981 66.9339 301.981 68.0807C301.981 69.2275 302.744 70.7566 304.653 70.3743C306.943 69.9921 306.561 68.0807 306.18 67.6984C305.798 67.3161 305.416 66.1693 305.034 65.4048C304.653 64.6402 303.508 61.9643 305.798 61.9643C308.088 61.582 312.287 64.2579 312.287 62.3466C312.287 60.4352 312.287 58.5238 313.05 57.7593C313.814 56.6124 314.959 56.2302 314.196 55.8479C313.432 55.4656 312.669 56.2302 311.905 54.7011C311.142 53.172 312.669 51.6429 313.432 51.2606C314.196 50.496 318.776 46.291 321.067 45.5265C323.357 44.7619 325.265 42.086 323.357 41.7037C321.83 41.3214 318.395 40.1746 316.104 42.086C313.814 43.9974 312.669 45.5265 309.997 45.1442C307.325 44.7619 306.943 41.7037 305.416 40.1746C303.126 37.881 304.653 33.6759 302.362 34.0582L300.072 34.4405C300.072 34.4405 297.4 34.0582 295.873 34.4405C293.583 34.8228 292.438 35.9696 291.293 35.9696C289.002 35.5873 286.712 36.7341 286.33 36.7341C280.986 37.881 276.787 36.3519 276.024 36.3519C275.26 36.3519 279.841 36.7341 282.895 36.3519C285.567 35.9696 289.766 35.205 291.674 34.8228C293.583 33.2937 292.056 32.5291 291.293 32.5291C288.621 32.1468 284.422 31 281.368 31C278.696 31 277.169 31.7646 274.497 31.7646C271.443 31.7646 267.244 31.7645 264.954 33.2937C262.664 34.4405 259.992 34.8228 259.61 34.8228C258.465 36.3519 257.32 39.4101 256.175 38.6455C255.029 37.4987 254.648 35.205 253.121 36.3519C251.594 37.1164 253.121 39.4101 251.594 40.9392C250.449 42.4683 246.632 42.4683 245.487 41.7037C244.341 41.3214 243.196 40.5569 238.997 40.9392C234.798 41.3214 230.218 42.4683 230.981 43.9974C232.126 45.5265 229.073 46.291 228.309 45.5265C227.546 44.7619 224.11 46.291 224.492 47.8201C224.874 49.3492 224.11 50.8783 222.202 50.496C220.293 50.1138 219.148 51.2606 219.148 52.4074C219.148 53.5542 214.949 54.3188 214.567 54.3188C214.567 53.9365 209.223 53.9365 211.132 55.0833ZM187.465 164.796C187.465 166.325 188.992 165.943 191.283 165.943C193.191 165.943 197.008 165.561 197.772 166.325C198.535 167.09 201.589 168.619 202.352 169.384C203.116 170.148 206.17 170.148 206.17 169.384C206.17 168.619 204.261 166.708 203.116 167.09C201.971 167.09 199.299 165.943 197.772 164.796C196.245 163.649 193.573 163.649 192.81 163.649C191.664 163.649 187.465 164.796 187.465 164.796ZM200.062 160.209C198.535 160.209 198.917 162.12 200.826 161.738C202.734 161.356 201.589 159.827 200.062 160.209ZM200.826 173.971C199.299 174.353 199.68 177.411 201.589 176.647C203.498 176.265 202.352 173.971 200.826 173.971ZM224.11 172.06C222.583 172.442 222.965 175.5 224.874 174.735C226.782 174.353 225.637 172.06 224.11 172.06ZM208.078 172.824C208.078 172.824 209.987 173.206 211.132 173.206C212.277 173.206 213.041 173.971 214.186 174.353C215.331 174.735 217.239 173.589 218.003 173.589C218.766 173.589 219.53 175.5 219.911 173.589C219.911 171.295 218.003 170.53 216.476 170.148C214.949 169.766 213.422 170.148 212.277 170.148C211.132 170.53 208.078 172.824 208.078 172.824ZM354.276 139.948C355.039 139.566 357.711 138.802 359.238 138.037C360.765 137.272 365.728 135.743 366.491 135.743C367.254 135.743 376.034 135.743 377.179 135.361C378.324 134.979 383.287 134.214 384.432 138.037C385.959 141.86 382.905 140.331 381.378 141.095C379.851 141.86 381.76 143.389 382.523 143.389C383.287 143.389 385.577 145.683 386.722 145.683C387.867 145.683 390.921 146.829 390.921 146.829C390.921 146.829 393.975 149.123 395.501 149.123C397.028 149.123 399.7 151.799 401.609 149.888C403.518 148.358 404.281 144.536 405.808 144.918C407.716 145.3 409.625 146.447 411.915 146.447C414.206 146.447 418.405 146.065 419.168 146.829C419.931 147.594 414.587 150.652 414.969 151.417C415.351 152.181 416.114 151.799 417.641 149.888C419.55 147.976 421.84 147.976 424.13 147.212C426.039 146.829 427.184 149.888 427.566 151.034C427.947 152.181 429.474 154.093 430.619 156.004C431.765 158.298 432.91 161.356 434.437 163.649C435.964 165.943 434.437 170.913 435.582 172.442C437.109 173.971 440.544 175.118 441.689 177.411C442.453 179.323 444.743 181.616 445.506 181.616C446.27 181.616 449.324 185.821 449.324 186.586C449.324 187.733 448.178 189.644 451.232 190.026C453.904 190.026 456.576 188.88 457.34 188.497C458.103 188.115 464.974 185.439 465.737 186.586C466.501 187.733 464.592 191.938 464.211 193.085C464.211 194.231 458.867 199.966 458.867 201.495C458.867 203.024 455.813 205.7 453.904 206.082C451.996 206.464 447.797 211.052 446.652 212.581C445.125 214.11 442.834 217.55 442.071 217.933C440.926 218.315 440.162 222.902 440.926 223.284C441.308 224.049 441.689 227.107 443.216 228.254C444.743 229.783 445.125 230.548 444.743 231.694C443.98 232.841 445.125 235.517 444.743 237.811C444.361 240.105 441.308 242.016 440.544 242.78C439.781 243.545 436.345 245.456 435.2 246.985C433.673 248.515 432.528 250.044 432.91 251.19C433.291 251.955 434.818 256.16 434.437 257.307C434.437 258.454 429.474 258.836 428.329 259.601C426.802 260.365 429.093 262.276 429.474 263.806C429.856 265.335 427.184 267.246 425.657 268.393C424.512 269.54 421.077 273.745 418.786 275.274C416.496 276.803 413.06 276.421 411.152 276.421C408.862 276.421 405.044 277.95 404.281 278.714C403.518 279.479 402.372 279.479 400.464 278.714C398.555 277.95 398.555 276.803 398.555 274.892C398.555 272.98 397.792 271.833 397.792 271.833C397.792 271.833 397.41 268.775 395.883 267.628C394.356 266.099 393.975 264.57 392.829 263.806C392.066 262.659 394.356 259.983 394.356 258.071C394.356 256.16 391.303 253.866 390.157 252.72C389.394 251.573 387.485 248.132 386.722 246.985C385.959 245.839 385.195 243.545 385.195 240.105C385.195 236.664 387.104 234.753 388.631 233.606C390.157 232.459 389.394 231.312 388.249 229.401C387.104 227.489 388.249 224.049 387.485 222.902C386.34 221.755 384.813 215.257 382.905 214.11C380.996 212.963 379.088 212.963 379.851 210.669C380.996 208.376 379.851 206.082 381.76 204.553C383.668 203.024 382.523 201.877 380.615 201.112C378.706 199.966 379.469 199.583 377.942 200.73C376.416 201.877 374.125 202.642 372.98 201.495C371.835 200.348 372.217 198.437 369.926 196.907C367.636 195.378 364.201 196.143 363.056 196.525C362.292 196.907 360.383 199.966 358.093 199.966C355.803 200.348 353.894 199.966 351.604 199.966C349.314 199.966 347.023 199.966 346.642 201.495C346.26 202.642 345.878 203.406 344.351 202.259C342.824 201.112 339.771 198.437 339.771 198.437C339.771 198.437 336.717 193.849 335.954 191.556C335.19 189.644 332.136 189.644 328.701 188.115C325.265 186.586 327.174 185.057 326.792 183.146C326.411 181.616 324.884 180.852 325.647 180.47C326.411 180.47 326.411 178.94 328.319 176.647C330.228 174.353 329.083 171.677 328.701 170.53C328.319 169.001 326.792 167.09 328.319 164.796C330.228 162.503 330.991 157.533 332.518 156.004C334.045 154.475 338.244 153.328 340.152 152.564C342.061 151.799 340.916 149.505 342.061 146.829C343.206 144.153 344.733 143.007 345.115 143.007C345.496 143.007 347.405 141.095 349.695 139.948C350.077 139.184 353.513 139.948 354.276 139.948ZM430.619 209.523C430.238 208.758 427.184 209.14 426.421 209.905C426.039 210.669 425.275 214.492 426.802 214.874C428.711 215.257 431.383 210.669 430.619 209.523ZM462.302 234.37C460.012 233.606 460.012 236.664 458.103 238.575C456.195 240.487 454.286 242.016 453.904 241.634C453.141 241.634 449.324 242.78 450.469 245.456C451.614 248.132 451.614 250.426 450.469 251.573C449.324 252.72 451.614 256.16 451.232 258.071C450.851 259.983 451.614 261.13 454.286 261.13C456.576 261.13 457.721 260.365 458.485 258.071C459.63 255.778 459.63 253.484 460.775 251.955C461.92 250.044 462.684 246.221 463.065 245.074C463.447 243.927 464.592 240.869 464.592 238.958C464.211 237.046 463.829 234.753 462.302 234.37ZM525.667 190.791C524.522 191.173 523.377 199.583 525.285 199.966C527.194 200.73 528.721 194.996 527.957 194.232C527.576 193.467 527.576 190.026 525.667 190.791ZM378.706 127.716C377.179 127.716 376.416 130.392 377.179 131.156C378.324 131.921 379.469 131.921 380.233 130.774C381.378 129.627 379.851 127.716 378.706 127.716ZM365.727 130.392C365.346 131.156 367.254 131.156 367.636 130.392C367.636 130.009 366.873 128.48 365.727 130.392ZM386.34 133.45C385.577 133.832 387.485 134.979 388.249 135.361C389.012 135.743 389.776 136.89 390.539 136.89C391.303 136.89 393.593 136.89 392.829 135.361C392.066 133.832 390.539 133.832 390.157 133.832C389.394 133.45 387.104 132.685 386.34 133.45ZM344.733 99.045C343.206 99.4273 342.824 100.956 342.061 100.956C340.916 100.956 339.771 101.339 340.152 102.485C340.534 103.632 341.298 104.397 340.152 105.161C339.007 105.544 340.152 107.837 341.679 107.837C343.206 107.837 344.733 107.073 345.878 106.308C347.023 105.926 348.932 104.779 348.932 103.25C348.932 101.721 348.55 100.192 347.787 99.8095C347.023 99.045 345.496 99.045 344.733 99.045ZM346.642 94.0754C345.115 94.4577 345.878 96.369 346.642 97.1336C347.405 97.8981 348.55 99.8095 350.459 100.574C352.367 101.339 355.803 102.103 354.658 102.485C353.131 103.25 349.314 106.308 348.932 107.455C348.55 108.602 353.513 107.837 353.513 107.837C353.513 107.837 352.367 108.984 353.513 109.366C354.276 109.749 355.039 108.22 356.185 108.22C357.711 108.22 360.383 108.984 361.91 108.984C363.437 108.984 365.728 107.073 365.346 105.926C365.346 104.779 363.437 102.868 361.91 102.103C360.383 101.339 358.475 98.2804 357.711 97.5159C356.566 96.7513 361.529 94.4577 360.383 93.3108C358.093 92.9286 354.276 93.6931 353.131 92.5463C351.604 91.7817 350.459 92.5463 349.695 93.6931C348.55 94.8399 347.405 93.6931 346.642 94.0754ZM358.093 117.776C358.093 116.247 354.276 114.718 351.986 114.718C349.695 114.336 350.077 113.189 352.367 113.189C354.658 113.189 354.658 112.042 356.566 111.66C358.475 111.278 360.765 110.896 362.292 110.513C363.819 110.513 363.819 108.984 363.819 107.837C363.819 106.69 368.018 106.308 368.018 106.308C368.018 106.308 370.308 104.015 371.835 103.25C373.362 102.103 375.652 102.485 377.561 102.868C379.469 103.25 377.561 101.721 376.797 100.956C376.034 100.192 376.797 98.2804 377.179 97.1336C377.561 95.9868 380.996 95.6045 381.76 95.9868C382.523 96.3691 381.76 97.8981 381.76 99.045C381.76 100.574 383.287 101.339 383.287 101.339H387.104C389.394 101.339 389.394 101.339 391.303 100.956C393.211 100.574 394.356 100.956 395.12 100.574C395.883 100.192 397.792 100.192 400.464 100.956C403.136 101.721 401.609 99.4273 402.372 97.8982C402.754 96.3691 403.899 94.0754 405.808 94.4577C407.716 94.4577 408.862 95.6045 410.388 94.8399C411.915 94.0754 407.716 92.9286 407.716 92.164C407.716 91.7817 411.152 91.7817 413.824 91.3995C416.878 91.3995 418.404 91.3995 419.931 91.0172C421.458 90.6349 418.786 88.3413 418.405 88.3413C418.023 88.3413 414.206 88.7235 412.679 88.3413C410.77 88.3413 408.862 89.4881 407.335 89.8704C405.808 90.2526 405.426 87.959 404.663 86.8122C403.899 85.6654 403.518 83.754 405.808 82.9894C408.098 81.8426 411.915 79.9312 412.679 78.7844C413.442 77.6376 410.007 78.0198 406.571 78.0198C403.136 78.0198 406.953 79.1667 403.899 82.2249C400.846 85.2831 399.319 83.3717 396.647 85.2831C394.356 87.1944 395.883 87.5767 398.173 88.3413C400.464 89.1058 398.555 91.0172 398.173 91.3995C397.792 91.7817 395.12 93.6931 395.501 95.2222C395.883 96.7513 393.593 97.5159 393.593 97.5159C393.593 97.5159 387.104 99.045 385.959 99.045C384.813 99.045 384.432 98.2804 384.813 97.1336C385.195 95.9868 383.287 93.6931 383.287 92.164C383.287 90.6349 380.614 92.9286 380.233 93.6931C380.233 94.8399 376.797 94.84 374.889 94.0754C372.98 93.3109 371.835 91.0172 372.217 90.2526C372.598 89.8704 371.072 87.1944 371.072 86.4299C371.072 85.6653 375.27 80.6958 378.324 80.3135C381.76 79.5489 385.577 78.0198 387.867 76.1085C390.157 74.5794 391.303 72.2857 392.066 71.9034C392.829 71.5212 404.663 65.787 409.243 65.0225C413.442 64.2579 423.367 68.463 424.894 68.8452C426.421 69.2275 427.184 69.6098 431.001 71.1389C434.818 72.668 438.636 71.1389 440.926 71.5212C443.216 71.9034 444.743 74.1971 446.27 74.5794C447.797 75.3439 446.27 75.7262 442.453 76.873C438.636 78.0198 435.964 77.6376 434.055 76.873C431.765 76.1085 430.619 76.1085 432.146 77.2553C433.673 78.4021 433.291 78.7844 433.291 80.3135C433.291 81.8426 435.964 80.3135 436.345 80.3135C436.727 79.9312 436.727 79.1667 438.636 80.3135C440.544 81.4603 441.308 80.6958 442.071 80.6958C442.834 80.6958 442.071 78.7844 442.834 78.0198C443.216 77.2553 445.506 77.2553 445.888 76.873C446.27 76.4907 447.797 76.1085 448.56 75.7262C449.705 75.7262 449.324 77.2553 450.469 77.6376C451.614 78.0198 450.85 75.3439 450.469 74.5794C450.087 73.8148 449.705 71.9034 450.469 71.5212C450.85 71.1389 454.668 70.7566 455.431 71.5212C456.195 72.2857 453.904 74.1971 454.668 75.3439C455.049 76.4907 456.576 74.5794 457.34 73.8148C458.103 72.668 460.012 73.8148 463.447 73.4325C466.501 73.0503 465.737 71.1389 469.173 72.2857C472.608 73.4325 471.463 73.4325 472.608 72.2857C473.754 71.1389 475.662 72.2857 477.571 71.9034C479.479 71.1389 479.479 71.9034 481.006 72.668C482.533 73.4325 484.06 71.1389 484.823 70.7566C485.587 69.9921 488.259 69.9921 489.786 70.3743C491.313 70.3743 492.839 71.5212 494.366 71.5212C495.893 71.5212 498.183 72.668 498.183 72.668C498.183 72.668 501.237 73.8148 502.001 73.0503C502.764 72.2857 502.001 71.5212 499.329 70.3743C496.657 69.2275 497.802 67.3161 499.329 66.9339C500.855 66.9339 500.855 65.787 502.001 65.4048C503.146 64.6402 504.673 62.3466 506.2 62.7288C507.726 63.1111 508.872 64.2579 510.398 65.0225C512.307 65.787 510.398 66.9339 510.398 68.0807C510.017 68.8452 510.78 72.2857 511.162 72.668C511.544 73.0503 510.78 74.9616 509.253 75.7262C507.726 76.4907 505.818 78.4021 506.581 78.7844C506.963 79.1667 511.162 77.2553 511.162 77.2553C511.162 77.2553 513.834 74.1971 514.979 73.4325C516.124 72.668 517.269 72.668 517.651 73.4325C518.033 74.5794 519.941 74.9616 521.85 74.1971C523.758 73.4325 521.85 73.0503 521.85 71.5212C521.85 69.9921 518.796 70.7566 517.269 71.1389C515.742 71.5212 514.597 73.0503 513.834 73.0503C513.452 73.0503 513.452 71.9034 513.834 70.3743C514.216 68.8452 513.07 68.0807 513.07 67.3161C513.07 66.5516 513.452 66.5516 514.979 64.6402C516.124 63.1111 516.124 65.787 516.506 67.3161C516.506 68.8452 518.033 68.0807 518.796 68.0807C519.941 68.0807 519.178 65.787 520.323 65.0225C521.086 63.8757 522.995 63.8757 524.904 65.4048C526.812 66.9339 526.431 66.5516 528.721 66.9339C530.629 67.6984 531.011 67.6984 531.011 69.2275C531.011 70.7566 532.538 70.7566 533.301 70.3743C534.065 69.9921 533.301 67.6984 532.92 67.3161C532.538 66.5516 528.339 65.4048 526.812 64.2579C525.285 63.1111 527.576 63.1111 529.103 63.1111H533.683C533.683 63.1111 537.119 62.3466 538.646 61.1997C540.554 60.0529 541.699 60.0529 543.226 59.2884C545.135 58.5238 547.807 58.5238 549.334 58.9061C551.242 59.2884 552.387 58.1415 553.914 57.377C555.823 56.6124 558.113 52.4074 558.113 56.6124C558.113 56.9947 563.075 58.1415 563.839 57.7593C564.602 57.7593 566.129 57.377 568.801 56.2302C573.763 53.5542 569.565 52.4074 571.473 54.7011C572.237 55.4656 574.145 53.9365 577.962 55.4656C581.78 56.9947 577.962 55.4656 579.108 56.6124C580.253 57.7593 580.634 56.6124 583.306 56.2302C585.597 55.8479 587.505 56.2302 589.032 56.2302C590.559 56.2302 593.995 56.2302 595.521 57.377C597.048 58.5238 594.376 60.4352 593.613 61.1997C592.849 61.9643 595.14 62.3466 595.521 62.3466C596.285 62.3466 602.011 62.3466 604.683 62.7288C607.355 63.1111 608.5 64.2579 609.645 64.2579C610.79 64.2579 612.699 63.8757 613.462 63.1111C614.226 62.3466 618.424 61.9643 619.951 61.9643C621.478 61.9643 625.295 61.9643 625.677 62.3466C626.059 62.7288 626.822 64.2579 626.822 65.787C626.822 67.3161 628.349 68.463 629.494 68.463C630.639 68.463 632.93 66.5516 633.693 66.1693C634.457 65.787 635.602 67.6984 635.983 67.3161C636.365 66.9339 640.946 67.3161 642.473 66.5516C644.381 65.787 645.145 66.5516 646.29 66.1693C647.053 65.787 648.58 63.8757 648.58 63.1111C648.58 62.3466 649.344 61.9643 648.58 60.8175C647.817 59.6706 645.526 60.4352 642.854 59.6706C640.182 58.9061 642.854 55.4656 643.618 57.377C643.999 58.5238 646.29 57.377 648.198 57.7593C650.107 58.1415 649.344 57.377 650.107 57.377C650.87 57.377 654.306 58.1415 655.833 58.1415C657.741 58.1415 658.886 60.0529 658.886 60.0529C658.886 60.0529 653.924 61.582 652.779 61.582C651.634 61.582 652.397 63.1111 653.161 63.1111C653.924 63.1111 655.069 63.4934 656.596 64.6402C657.741 65.4048 663.085 64.6402 663.849 64.6402C664.612 64.6402 666.521 65.4048 668.811 66.5516C670.72 67.6984 672.247 68.0807 672.247 68.0807C672.247 68.0807 675.3 68.0807 678.354 67.6984C681.408 67.3161 685.225 67.3161 685.988 67.6984C686.752 68.0807 688.66 68.8452 690.187 69.9921C691.714 71.1389 692.478 70.7566 694.386 70.3743C696.295 70.3743 698.203 69.9921 700.112 69.9921C702.021 69.9921 707.746 69.9921 708.51 71.5212C709.655 73.0503 710.8 72.668 710.8 72.668C710.8 72.668 712.327 69.9921 713.09 69.6098C713.854 69.2275 716.144 69.9921 717.289 70.7566C718.816 71.5212 725.305 70.7566 727.214 71.1389C729.122 71.5212 731.413 73.0503 729.886 74.5794C728.359 76.1085 731.031 78.4021 730.268 79.5489C729.886 81.078 728.359 81.078 726.832 81.4603C725.305 81.8426 728.359 83.3717 729.504 84.5185C730.649 85.6653 728.741 86.0476 727.596 85.6653C726.45 85.2831 723.397 85.6654 719.198 86.8122C714.999 87.959 713.472 89.8704 709.273 89.8704H701.639C696.295 89.8704 696.676 91.3995 695.531 92.9286C694.386 94.4577 695.913 94.4577 695.531 95.6045C695.15 97.1336 694.004 98.6627 694.004 99.8095C694.004 100.956 690.951 101.339 689.806 102.103C688.66 103.25 687.134 105.544 684.08 107.455C681.026 109.366 679.118 112.042 679.118 112.042C679.118 112.042 679.499 108.984 681.026 107.073C682.553 105.161 679.499 102.103 679.118 99.8095C679.118 97.5159 679.881 96.7513 681.79 94.8399C683.698 92.9286 687.897 92.164 689.424 91.0172C691.332 89.8704 698.203 85.2831 698.203 85.2831L695.15 86.8122C693.241 87.5767 691.332 88.7235 689.806 88.7235C688.279 88.7235 689.042 87.1944 688.66 86.0476C688.66 84.5185 685.225 85.6653 684.08 87.1944C682.935 88.7235 680.644 89.4881 677.972 91.0172C675.682 92.5463 676.064 92.5463 674.537 92.5463C673.01 92.5463 670.338 91.7817 669.193 91.0172C668.048 90.2526 666.902 91.7817 663.085 91.7817C659.268 91.7817 654.688 91.3995 653.161 91.7817C651.252 91.7817 647.053 96.7513 644.381 97.5159C641.709 98.2804 638.274 99.8095 639.419 100.956C640.182 102.103 641.709 99.8095 642.473 99.8095C643.236 99.8095 642.091 102.103 643.618 102.103C645.145 102.103 645.908 101.339 647.817 100.956C649.344 100.956 650.489 102.103 650.87 104.015C651.252 105.926 650.107 107.455 649.344 109.749C648.58 112.042 647.435 114.336 644.763 116.63C642.091 118.541 637.51 122.364 636.365 123.511C635.602 124.657 632.166 123.511 631.785 123.128C631.403 122.364 629.876 124.657 628.349 125.04C627.204 125.422 626.059 126.569 626.059 128.098C626.059 129.627 622.623 129.627 622.623 130.392C622.623 131.156 624.532 133.45 625.677 134.979C626.441 136.126 625.677 139.948 623.768 140.713C622.242 141.478 621.478 142.624 619.57 141.478C617.661 140.331 619.188 139.566 619.951 137.655C620.715 135.743 619.188 134.597 618.806 134.214C618.424 133.832 616.898 135.361 616.516 135.361C615.752 135.361 615.752 133.832 616.516 132.685C616.898 131.538 616.134 129.627 615.752 129.245C615.371 129.245 611.935 131.921 610.408 131.538C608.882 131.538 610.408 128.48 610.79 127.333C611.172 126.569 609.645 127.333 608.881 128.098C607.736 128.862 605.446 130.774 604.683 130.774C603.919 130.774 602.011 132.303 603.537 133.067C605.064 134.214 605.446 134.979 606.209 134.979C606.973 134.979 609.263 134.597 610.408 134.597C611.172 134.597 613.08 135.743 611.172 137.272C609.263 138.802 605.828 138.802 606.591 139.948C607.355 141.095 608.882 142.624 610.408 144.918C611.935 147.212 611.172 149.888 611.554 151.799C611.935 153.71 606.591 157.533 605.064 158.68C603.537 159.827 602.011 162.885 599.339 164.032C596.667 165.561 590.941 166.708 590.177 165.943C589.414 165.561 586.742 166.708 587.124 168.619C587.124 170.53 588.65 170.148 588.65 170.913C588.65 171.295 586.742 173.589 586.36 174.353C585.597 175.118 583.306 174.353 583.688 171.677C584.07 169.001 585.597 168.237 585.597 167.09C585.597 165.943 583.688 165.179 582.925 166.325C581.78 167.472 578.726 170.148 578.726 170.148C578.726 170.148 579.871 173.206 581.398 174.353C582.925 175.5 584.07 177.411 585.978 179.705C587.887 182.381 586.36 184.292 585.978 186.204C585.597 188.115 583.688 188.115 582.161 188.497C580.634 188.88 580.253 189.262 579.871 190.409C579.489 191.556 576.817 196.143 576.436 195.378C576.054 194.614 573.763 188.88 573.763 188.88C573.763 188.88 572.237 185.821 569.946 184.292C567.656 182.763 566.893 181.999 566.893 183.528C566.893 185.057 565.366 187.733 565.366 188.88C565.366 190.026 562.312 185.821 562.312 184.292C562.312 182.763 561.93 179.705 561.93 177.029C561.93 174.353 558.113 177.029 558.113 177.029C558.113 177.029 555.059 183.146 554.296 183.146C553.532 183.146 554.296 177.411 554.296 175.5C554.296 173.589 553.532 171.677 552.769 170.913C552.387 170.148 549.334 167.472 548.57 165.561C548.188 163.649 547.043 164.414 545.898 165.561C544.753 166.708 545.135 166.708 540.936 166.708C536.737 166.708 536.737 169.384 534.828 170.913C532.92 172.442 531.011 175.5 528.721 176.265C526.431 177.411 525.285 178.176 525.285 179.323C525.285 180.47 526.431 184.292 525.667 186.204C525.285 187.733 523.759 189.262 522.613 191.173C521.468 192.702 520.323 195.761 519.178 195.761C518.033 195.761 517.651 193.467 517.651 191.938C517.651 190.409 514.597 186.968 513.834 185.821C513.07 184.675 510.398 179.323 510.398 179.323C510.398 179.323 508.49 173.589 508.49 172.06V166.325C508.49 166.325 505.818 169.001 504.291 169.001C503.146 169.001 502.001 167.09 502.001 164.796C502.001 162.503 500.092 162.885 498.565 162.503C497.42 162.12 495.893 159.062 494.748 159.062C493.985 159.062 493.221 159.062 492.839 160.209C492.076 161.356 488.64 160.974 487.495 160.974C486.732 160.974 481.388 160.974 479.861 160.209C478.334 159.827 476.426 156.769 475.662 156.386C474.899 156.004 472.227 158.298 471.082 157.915C469.936 157.533 468.028 156.004 465.737 154.857C463.447 153.71 462.684 151.417 461.92 149.888C461.157 148.358 458.103 150.652 458.485 152.564C458.867 154.093 462.684 156.386 462.684 157.533C462.684 158.68 463.447 159.062 465.356 160.591C467.264 162.12 465.737 162.885 466.883 163.267C468.028 163.649 469.936 161.738 471.463 160.974C473.372 160.209 472.99 159.062 473.754 159.062C474.517 159.062 474.517 161.356 475.662 161.356C477.189 161.356 480.624 163.649 481.77 164.796C482.533 166.325 481.006 167.09 480.243 168.237C479.479 169.384 477.571 172.824 475.662 174.353C473.754 175.882 471.845 177.411 469.555 178.176C466.883 178.558 466.501 180.087 464.592 180.087C462.684 180.087 456.576 183.146 455.813 183.528C455.049 183.91 450.087 185.439 448.942 185.057C447.415 184.675 447.033 181.234 446.652 178.558C446.27 175.882 445.506 174.735 444.743 173.589C444.361 172.442 440.926 169.766 440.544 169.384C439.781 169.001 438.254 164.796 437.872 163.267C437.872 161.738 435.964 162.12 435.582 160.209C435.2 158.298 433.291 155.622 432.91 154.475C432.528 153.328 429.093 154.475 427.566 154.857C426.039 154.857 423.367 153.71 423.749 151.034C424.13 148.358 425.657 148.358 427.184 148.358C429.093 148.358 428.329 147.594 429.856 145.683C431.765 144.153 432.146 140.713 432.146 138.419C432.146 136.126 431.001 137.272 429.474 137.655C427.947 138.037 426.039 138.419 425.275 138.419C424.512 138.419 421.84 137.272 421.077 138.037C420.695 138.419 417.641 138.037 416.878 137.272C416.114 136.508 412.679 135.361 412.297 134.597C411.915 133.832 412.297 130.009 411.534 128.862C410.77 127.716 409.243 128.862 408.48 129.627C407.716 130.392 405.044 130.774 405.808 131.156C406.571 131.538 408.862 132.685 408.48 134.214C408.48 135.743 406.571 135.743 405.808 136.508C405.044 137.272 401.609 139.948 401.227 139.184C400.846 138.419 400.464 133.067 399.7 132.303C399.319 131.538 397.792 130.009 397.028 128.48C396.647 126.951 394.738 126.569 393.211 125.422C392.066 124.275 388.631 122.364 387.104 121.217C385.577 119.688 383.287 118.923 382.905 120.452C382.905 121.981 385.195 122.364 386.34 124.275C387.485 125.804 389.776 126.951 390.921 127.333C392.066 127.716 395.501 130.009 395.501 130.009C395.501 130.009 393.975 130.392 392.829 130.392C391.684 130.392 393.593 134.214 393.211 135.361C393.211 136.508 390.921 134.979 390.539 133.45C390.157 131.921 389.012 130.392 388.631 130.009C387.867 129.627 383.287 128.098 382.523 127.716C381.76 127.333 378.706 125.422 378.324 123.893C377.942 122.364 375.27 122.364 374.507 122.364C373.744 122.746 371.072 124.657 369.926 124.657C368.781 124.657 366.873 123.893 365.346 123.511C363.819 123.511 363.819 125.804 363.437 126.951C363.055 128.48 360.765 127.333 359.238 128.48C358.093 129.627 355.803 130.774 356.566 131.921C356.948 133.067 358.093 133.067 356.566 133.832C355.039 134.597 354.276 136.508 352.367 136.508C350.841 136.508 348.55 137.272 347.787 136.89C347.023 136.508 346.26 138.419 345.878 139.184C345.496 139.566 344.351 137.655 343.588 136.89C342.824 136.126 340.534 136.89 339.771 136.508C339.007 136.508 338.244 134.979 337.48 134.214C336.717 133.45 336.717 131.921 337.48 131.538C338.244 131.156 339.007 130.009 338.244 128.48C337.862 126.951 337.48 123.511 339.007 122.746C340.916 121.981 345.115 122.746 347.023 122.746C348.932 122.746 352.749 123.511 353.131 122.364C357.711 120.835 358.093 119.306 358.093 117.776ZM423.749 87.959C422.985 89.4881 427.947 91.0172 428.711 89.4881C429.474 88.3413 424.894 85.2831 423.749 87.959ZM418.023 128.862C418.404 129.627 419.931 127.716 421.458 127.716C422.985 127.716 426.039 128.098 426.802 126.951C427.566 125.804 430.619 125.422 432.91 125.804C435.2 126.187 437.109 127.716 438.636 127.716C440.162 127.716 444.361 127.716 445.888 127.333C447.415 126.951 447.033 124.657 444.743 123.511C442.453 122.364 440.544 120.452 438.636 119.688C436.727 118.923 435.964 118.159 437.109 118.159C438.254 117.776 439.781 116.63 438.254 116.63C436.345 116.63 434.818 117.012 434.818 118.159C434.818 118.923 433.673 120.07 432.91 120.452C432.146 120.835 430.619 121.981 429.856 121.217C429.474 120.07 427.566 117.012 426.421 117.012C425.657 117.012 424.13 117.012 422.985 118.541C421.84 120.07 420.695 121.981 419.55 122.746C418.405 123.511 417.259 125.422 418.023 125.804C419.168 125.804 418.023 128.862 418.023 128.862ZM458.103 117.012C455.813 118.541 455.431 120.07 456.195 121.599C456.958 122.746 459.63 126.569 460.775 126.951C461.92 127.333 466.501 128.098 464.592 129.627C462.684 131.156 462.684 131.538 460.775 131.538C459.248 131.538 460.012 135.743 461.157 136.126C462.302 136.508 466.119 137.655 467.264 137.655C468.409 137.655 472.608 137.272 472.227 136.126C472.227 134.979 471.463 131.156 469.936 130.009C468.41 128.862 471.845 128.098 471.082 126.951C470.318 126.187 469.173 126.569 468.409 125.422C467.646 124.275 467.264 123.511 466.501 122.746C465.356 121.981 464.592 123.511 464.592 121.599C464.592 119.688 467.264 118.541 468.409 119.688C469.555 120.835 472.608 120.07 473.372 119.688C474.135 119.306 471.845 117.776 471.463 116.63C471.082 115.483 467.264 114.718 466.883 115.101C466.501 115.483 464.974 116.63 463.447 117.394C461.92 117.776 458.867 116.247 458.103 117.012ZM477.952 68.8452C476.807 69.9921 473.754 69.6098 471.845 68.8452C469.936 67.6984 467.646 67.6984 466.501 67.3161C465.356 66.9339 466.501 65.0225 468.028 64.2579C469.173 63.8757 472.608 62.3466 474.899 61.1997C477.189 60.0529 477.952 58.1415 479.861 58.1415C481.77 58.1415 490.167 56.6124 490.931 56.6124C492.076 56.9947 497.038 57.377 498.183 55.8479C499.329 54.3188 502.764 55.4656 502.001 56.6124C501.237 57.7593 497.802 60.4352 495.893 60.0529C493.985 59.6706 487.877 59.6706 485.205 60.0529C482.533 60.4352 480.243 61.9643 477.952 63.1111C475.662 64.2579 476.044 65.787 477.189 65.787C478.334 66.1693 479.098 68.0807 477.952 68.8452ZM654.688 102.868C653.542 103.25 650.489 102.485 651.634 104.779C652.779 107.073 652.779 108.984 652.779 110.513C652.779 112.425 652.779 116.247 653.161 116.63C653.542 117.012 655.069 118.159 655.833 118.159C656.596 117.776 655.451 114.336 655.451 113.571C655.451 112.807 656.596 112.042 657.36 111.66C658.123 111.66 657.36 108.602 656.596 107.455C655.833 106.308 654.688 105.544 655.069 105.544C655.833 105.544 656.596 104.015 656.215 103.632C655.451 103.632 655.833 102.485 654.688 102.868ZM652.779 120.07C651.634 120.452 650.87 121.981 650.87 122.746C650.87 123.128 645.908 124.275 647.435 125.804C648.962 127.333 650.489 126.187 653.161 125.804C655.451 125.804 657.741 125.04 657.741 125.04C657.741 125.04 661.559 125.04 660.795 123.511C660.413 121.981 656.596 121.599 655.833 121.981C655.451 121.599 654.306 119.688 652.779 120.07ZM648.962 126.569C647.817 127.333 648.58 130.392 647.435 132.303C646.29 134.214 645.526 136.126 644.763 136.126C644 136.126 640.564 137.655 639.419 138.419C638.274 139.566 633.311 137.655 632.548 138.419C631.785 139.184 630.639 140.331 629.494 141.095C628.731 141.86 626.059 141.095 626.822 143.389C627.204 145.3 628.731 147.212 629.494 147.212C630.639 147.212 631.785 146.447 631.785 144.536C631.785 142.624 634.075 144.536 635.602 144.536C636.747 144.536 637.51 143.007 637.892 141.86C638.274 140.331 637.129 142.624 639.419 143.007C641.327 143.389 642.091 142.242 642.091 141.478C642.091 141.095 645.908 139.948 646.672 139.566C647.435 139.184 650.107 138.037 650.489 137.655C650.489 136.89 650.489 133.067 651.252 132.685C652.016 132.303 653.161 132.303 652.016 130.009C650.489 127.716 650.489 125.422 648.962 126.569ZM610.408 159.827C607.736 160.209 606.21 165.561 608.5 165.561C610.408 165.179 612.699 159.444 610.408 159.827ZM718.053 279.861C717.289 280.243 718.053 282.155 718.816 282.919C719.58 283.684 719.961 285.978 719.58 286.742C719.58 287.507 716.526 288.271 717.671 289.036C719.198 289.8 721.87 289.036 721.488 290.183C721.106 291.329 719.58 292.476 721.488 292.858C723.015 293.241 723.397 291.712 724.16 290.565C724.924 289.418 725.305 288.271 726.45 287.507C727.596 286.742 726.45 285.213 725.687 285.213C724.924 285.213 724.542 285.978 723.015 285.213C721.488 284.448 721.87 284.831 720.725 282.919C719.961 281.008 719.961 279.097 718.053 279.861ZM716.908 290.565C716.526 291.329 714.999 291.712 714.236 292.476C713.09 293.241 714.235 293.623 711.182 295.534C708.128 297.064 704.693 298.975 703.929 300.504C703.166 302.033 704.693 302.798 707.365 303.18C710.037 303.18 709.273 303.944 711.563 301.651C713.472 299.739 715.381 298.593 717.671 296.681C719.961 295.152 719.961 292.476 719.961 292.476C719.961 292.476 716.908 290.183 716.908 290.565ZM658.505 292.094C656.596 294.005 660.413 294.005 660.032 295.917C659.65 297.828 662.704 297.064 663.467 296.681C664.23 296.299 666.521 292.476 666.139 291.329C665.757 290.183 662.322 292.858 661.559 292.858C660.413 292.476 658.505 292.094 658.505 292.094ZM645.908 278.714C645.908 276.803 644.763 280.626 643.999 279.097C643.236 277.567 644.763 274.892 642.854 276.038C640.946 277.185 640.182 277.95 640.182 278.714C640.182 279.479 636.747 279.861 637.129 279.097C637.129 278.332 638.655 276.038 637.129 275.274C635.983 274.509 633.693 274.127 632.166 273.745C630.639 273.362 632.166 271.451 627.967 272.216C623.768 272.98 622.242 274.127 622.242 274.127C622.242 274.127 618.424 272.98 617.279 274.127C616.134 275.656 615.371 279.861 615.371 279.861C615.371 279.861 609.263 278.332 608.5 278.332C607.355 278.332 605.828 279.861 604.301 280.243C602.774 280.626 600.102 281.39 598.957 280.243C597.812 279.479 596.285 277.95 596.667 276.803C597.048 275.656 600.865 274.509 599.72 272.598C598.193 271.069 597.43 270.687 597.43 269.54C597.43 268.393 597.812 268.011 595.903 266.099C593.995 264.188 594.376 261.512 595.14 261.512C595.903 261.13 592.086 259.218 591.704 258.454C590.941 257.689 593.231 254.631 594.758 253.866C596.285 253.102 600.484 249.661 601.629 249.661C602.774 249.661 604.683 250.044 605.828 249.279C606.973 248.515 610.79 248.897 610.79 248.132C610.79 247.368 609.645 242.016 610.79 241.251C611.553 240.487 616.516 242.398 617.279 241.634C617.661 240.869 618.806 238.193 619.57 237.429C620.715 237.046 621.478 235.899 623.005 237.429C624.532 238.958 626.059 239.722 626.822 238.193C627.586 236.664 626.822 237.046 628.731 235.517C630.258 233.988 628.731 231.312 630.258 232.841L632.93 235.517C632.93 235.517 632.93 232.077 633.693 232.077C634.838 232.077 635.602 233.606 636.365 233.606C636.747 233.606 641.709 232.459 642.473 233.606C643.236 234.753 640.182 238.193 641.327 239.34C642.473 240.487 645.145 241.251 646.672 242.398C648.58 243.545 650.489 245.839 651.252 243.927C652.016 242.016 653.924 238.958 652.779 237.429C651.634 235.899 653.161 230.93 653.542 230.548C653.924 230.165 655.069 234.37 656.596 236.282C658.505 238.193 660.032 239.34 660.795 241.634C661.559 243.545 661.94 247.368 663.467 248.515C664.994 249.661 671.101 249.661 670.72 251.19C670.72 252.72 671.483 255.778 673.392 258.454C675.3 261.512 679.118 268.011 679.118 270.687C679.118 273.362 673.392 276.421 671.865 278.332C670.338 280.243 669.956 282.919 669.193 284.066C668.429 285.213 668.811 284.831 666.139 285.595C663.467 286.36 661.559 288.271 660.795 287.507C660.032 286.742 657.741 285.595 656.978 286.36C656.214 287.124 655.451 289.036 654.306 287.124C653.161 285.213 650.107 285.595 649.725 285.213C649.344 284.831 649.344 283.684 649.344 282.155C649.344 280.626 647.053 280.243 647.053 279.861C646.29 279.861 645.908 279.097 645.908 278.714ZM726.069 245.456C728.359 246.221 732.176 242.398 730.649 242.016C729.504 241.634 726.069 245.456 726.069 245.456ZM703.929 253.866C703.547 255.396 701.639 254.631 700.494 253.102C699.349 251.573 697.44 250.426 700.494 251.19C703.547 251.955 704.311 253.102 703.929 253.866ZM556.968 198.819C554.678 199.201 560.022 203.024 560.785 203.406C561.167 203.788 566.129 207.993 566.129 209.523C566.129 211.434 567.656 217.168 568.419 217.933C569.183 218.697 575.29 219.844 576.054 220.991C576.817 222.52 578.344 222.52 578.344 220.991C578.344 219.079 578.726 216.786 579.489 216.021C580.253 214.874 579.871 213.345 578.726 213.728C577.199 213.728 576.054 211.434 573.763 209.905C571.473 208.376 569.565 207.229 567.656 205.317C565.747 203.024 563.075 201.877 561.549 200.73C560.022 199.201 557.731 198.819 556.968 198.819ZM563.839 190.026C562.312 190.026 562.312 192.702 563.075 193.467C563.839 194.231 564.984 193.849 566.129 196.907C566.893 199.966 568.801 203.024 569.565 204.171C570.328 205.317 573.382 207.229 574.145 207.993C575.29 208.758 576.817 207.611 576.054 206.464C575.29 205.317 573.763 203.788 573.763 202.642C573.763 201.495 572.618 199.583 571.473 197.672C569.946 195.761 568.801 194.996 568.038 193.849C566.893 192.32 563.839 190.026 563.839 190.026ZM578.344 221.755C577.199 223.284 578.726 224.431 579.108 224.814C579.489 225.196 581.398 225.578 583.306 225.196C585.215 225.196 587.505 224.431 585.597 223.667C583.688 222.52 581.398 223.667 580.634 222.138C580.253 220.991 579.108 220.991 578.344 221.755ZM588.65 223.284C587.505 223.667 585.597 224.049 586.742 225.196C588.269 226.343 589.032 226.725 590.941 226.725C592.849 226.725 596.285 227.872 596.285 226.725C596.285 225.578 594.376 224.049 593.613 224.049C592.849 224.049 588.65 223.284 588.65 223.284ZM605.446 228.636C605.064 230.165 608.118 230.93 608.118 229.019C608.5 227.489 605.828 227.489 605.446 228.636ZM614.989 230.165C615.371 232.077 618.806 229.019 618.806 229.019C618.806 229.019 621.478 228.636 621.478 227.489C621.478 226.343 618.806 224.813 617.661 225.96C616.516 227.489 614.607 228.636 614.989 230.165ZM606.973 211.052C605.828 211.434 606.209 212.198 605.828 214.11C605.446 215.639 603.919 217.168 605.446 217.933C606.973 218.697 609.645 214.874 610.027 216.403C610.79 217.55 610.027 217.933 611.172 219.462C612.317 220.991 614.607 220.991 614.607 220.991C614.607 220.991 614.607 216.786 612.699 216.021C610.79 214.874 609.645 213.728 611.935 214.11C614.226 214.492 615.371 213.728 614.989 212.581C614.607 211.434 611.172 212.198 610.027 212.198C608.881 211.816 606.973 211.052 606.973 211.052ZM608.118 207.611C606.973 208.758 607.736 209.905 609.645 209.905C611.553 209.905 615.752 209.14 616.516 209.14C617.279 209.14 618.424 206.847 618.043 206.847C617.279 206.847 612.317 207.611 611.935 207.993C611.172 207.993 608.118 207.611 608.118 207.611ZM626.059 205.317C624.532 204.553 621.478 211.052 623.768 211.434C625.677 211.816 627.204 205.7 626.059 205.317ZM602.011 196.143C602.011 194.996 599.339 196.525 598.957 197.672C598.957 198.819 600.865 199.966 597.43 199.966C593.994 199.966 593.995 202.642 593.231 203.024C592.468 203.406 591.704 203.788 590.559 204.171C589.032 204.553 588.65 205.7 588.65 206.847C588.269 207.611 585.978 205.317 585.215 206.082C584.452 206.847 585.215 209.905 586.36 212.581C587.505 215.257 590.559 217.168 591.704 217.168C592.468 217.168 594.376 217.168 595.521 217.55C596.667 217.933 600.865 218.315 600.484 216.786C600.484 215.257 600.102 212.963 601.629 211.434C603.537 209.905 605.064 209.14 604.301 206.847C603.537 204.553 601.629 203.406 602.774 202.259C603.919 201.112 605.446 200.73 605.446 199.966C605.446 198.819 602.392 201.877 602.011 196.143ZM610.79 172.442C609.645 172.442 610.79 174.353 609.263 175.5C607.355 176.647 605.446 177.029 606.591 179.323C607.736 181.234 611.172 182.763 610.408 183.91C609.645 184.675 606.973 186.586 606.591 188.115C606.209 189.644 610.79 185.821 611.935 184.292C613.08 182.763 615.752 183.528 616.134 182.763L616.516 181.999C616.516 181.999 614.607 181.616 613.08 181.234C611.554 180.852 609.645 182.763 610.408 179.705C611.172 177.029 613.844 177.411 613.462 175.5C613.08 172.824 611.172 172.442 610.79 172.442ZM612.317 187.351C611.554 187.733 610.408 190.409 612.317 190.409C614.226 190.409 617.661 190.791 616.898 190.026C615.752 189.262 614.226 186.586 612.317 187.351ZM618.043 184.675C617.279 184.675 614.989 188.115 618.043 188.115C621.478 187.733 620.333 184.675 618.043 184.675ZM618.424 190.791C616.134 193.849 616.134 193.085 614.226 192.32C612.317 191.556 609.645 193.849 610.027 194.614C610.408 195.378 614.226 194.614 615.371 196.143C616.134 197.672 616.134 197.672 618.043 197.672C619.951 197.29 621.478 194.996 621.096 193.849C620.715 192.702 618.424 190.791 618.424 190.791ZM630.258 210.669C629.113 211.816 628.349 212.198 631.403 212.581C634.457 212.963 635.22 212.963 634.075 214.492C632.93 216.021 632.166 217.55 632.93 217.55C634.075 217.55 637.129 216.786 637.51 217.55C637.892 218.315 636.747 218.315 640.182 219.079C643.618 219.462 644.381 220.608 645.145 221.373C645.908 222.138 647.817 224.431 646.672 224.431C645.145 224.431 643.618 225.96 644.763 226.343C645.908 226.343 648.962 225.96 648.962 226.343C648.962 226.725 650.87 230.165 652.779 229.783C654.688 229.783 655.451 226.725 656.596 225.578C657.36 224.813 660.795 224.049 661.177 225.578C661.558 227.107 662.704 228.636 664.612 229.783C666.521 230.93 669.193 231.694 669.193 230.93C669.193 230.165 668.048 226.725 666.902 226.343C665.376 225.96 663.085 222.902 663.085 221.755C663.085 220.608 661.177 220.226 660.032 219.462C658.886 218.697 658.123 216.403 655.451 215.639C652.779 215.257 652.016 214.11 649.344 212.963C646.672 211.434 640.182 211.434 640.182 212.581C640.182 213.345 640.182 212.581 638.274 211.816C636.365 211.052 634.457 211.816 634.075 210.669C633.311 209.522 631.785 209.522 630.258 210.669Z" fill="#2C6CD3">
      <animateTransform
        attributeName="transform"
        type="translateX"
        from="-731"
        to="0"
        dur="10s"
        autoReverse="true"
        repeatCount="indefinite"
      />
    </path>
  </mask>
  <g mask="url(#mask0)">
    <circle cx="175.5" cy="175.5" r="175.5" fill="white"/>
  </g>
</svg>
