<svg width="217" height="216" fill="none" xmlns="http://www.w3.org/2000/svg"><path d="M174.661 107.023c-4.63-17.376-13.52-31.4-17.57-36.441-8.083-9.991-6.041-18.713-3.361-23.267 2.681-4.554 12.898-9.562 13.856-13.822.958-4.26-23.41-20.167-26.981-17.747-3.571 2.42-3.05 16.058-6.285 19.89-14.561 17.25-24.997 8.486-47.802 11.36-22.804 2.873-42.298 12.082-56.96 34.248-14.218 21.502-14.285 45.761-7.866 65.818 5.748 17.931 18.898 33.736 37.022 44.205a73.729 73.729 0 0036.845 9.554c29.367 0 57.188-15.082 72.607-39.206 9.848-15.411 12.032-33.829 6.495-54.592z" fill="#191919"/><path d="M95.568 207.543a80.418 80.418 0 01-40.215-10.461c-19.528-11.276-33.753-28.317-40.063-47.97-4.714-14.671-9.865-43.568 8.663-71.573 14.494-21.914 34.114-33.745 61.725-37.207a109.426 109.426 0 0119.628-.47c10.982.47 16.024.697 23.788-8.403.563-1.1 1.168-4.646 1.538-6.78 1.025-5.975 1.991-11.621 6.251-14.487 3.974-2.663 8.848-1.025 13.083.941a80.352 80.352 0 0111.142 6.47c7.638 5.235 14.511 10.924 13.066 17.402-1.042 4.638-5.193 7.848-9.504 11.209-1.68 1.32-4.537 3.53-5.125 4.52-1.252 2.11-3.496 7.849 2.773 15.596 4.688 5.79 13.923 20.502 18.838 38.929 6.05 22.687 3.588 42.853-7.318 59.944-16.68 26.132-46.668 42.34-78.27 42.34zm1.68-154.464a78.074 78.074 0 00-9.848.588C63.95 56.608 47.337 66.557 35.17 84.95c-15.427 23.325-11.058 47.642-7.075 60.053 5.277 16.469 17.351 30.829 33.98 40.433a66.977 66.977 0 0033.493 8.663c27.064 0 52.717-13.831 66.943-36.131 8.797-13.763 10.696-30.325 5.655-49.239-4.496-16.88-13.293-30.25-16.301-33.938-11.923-14.713-5.974-27.384-3.891-30.913 1.883-3.16 5.202-5.739 8.403-8.243.84-.672 2.05-1.596 3.05-2.445a77.893 77.893 0 00-14.914-9.83 85.389 85.389 0 00-.647 3.562c-.841 5.041-1.681 9.84-4.403 13.057-12.1 14.285-23.107 13.814-34.753 13.31-2.328-.11-4.832-.21-7.504-.21h.042z" fill="#191919"/><path d="M174.661 107.023c-4.63-17.376-13.52-31.4-17.57-36.441-8.083-9.991-6.041-18.713-3.361-23.267 2.681-4.554 12.898-9.562 13.856-13.822.958-4.26-23.41-20.167-26.981-17.747-3.571 2.42-3.05 16.058-6.285 19.89-14.561 17.25-24.997 8.486-47.802 11.36-22.804 2.873-42.298 12.082-56.96 34.248-14.218 21.502-14.285 45.761-7.866 65.818 5.748 17.931 18.898 33.736 37.022 44.205a73.729 73.729 0 0036.845 9.554c29.367 0 57.188-15.082 72.607-39.206 9.848-15.411 12.032-33.829 6.495-54.592z" fill="#fff"/><path d="M75.603 133.021L87.99 84.227c.798-3.075 4.2-4.705 7.797-1.563 3.596 3.143 33.409 34.451 33.409 34.451a4.071 4.071 0 01.003 5.645 4.078 4.078 0 01-1.751 1.077l-46.693 14.108a4.084 4.084 0 01-4.024-.946 4.078 4.078 0 01-1.127-3.978z" fill="#191919"/><path d="M157.074 109.032c-4.436-.647-11.763 3.756-15.402 3.957-3.638.202-12.368-3.361-16.107-3.361-3.739 0-11.167 3.286-13.654 3.311-2.488.025-9.134-1.622-13.251-1.622-4.117 0-8.99 1.681-13.075 1.63-4.083-.05-8.629-3.47-13.864-3.428-5.235.042-8.612 2.924-14.645 3.075-6.034.151-11.512-2.722-15.772-3.815-4.26-1.092-11.587-2.646-11.05 19.755.538 22.401 24.166 61.339 69.01 60.498 46.089-.916 67.641-43.693 67.641-60.271 0-16.578-5.386-19.082-9.831-19.729z" fill="#448AFF"/><path opacity=".2" d="M125.842 120.451c-2.185-3.294-8.554-8.831-8.554-8.831a31.172 31.172 0 01-5.453 1.176c-2.336.193-9.688-1.622-13.2-1.681-3.513-.058-11.428 2.051-13.713 1.731a41.804 41.804 0 01-6.16-1.68l-5.385 24.871c-.782 3.008 2.252 5.655 7.419 4.605 5.168-1.05 43.332-13.604 43.332-13.604 2.84-.865 3.899-3.302 1.714-6.587z" fill="#191919"/><path d="M67.436 87.487a6.504 6.504 0 00-8.2-1.78c-2.732 1.495-3.362 4.948-1.354 7.679 2.009 2.73 5.672 3.546 8.201 1.815a5.463 5.463 0 001.353-7.714zM144.614 90.975a4.59 4.59 0 00-5.781-1.278c-1.925 1.05-2.353 3.496-.95 5.42a4.295 4.295 0 005.781 1.277 3.854 3.854 0 001.615-2.51 3.861 3.861 0 00-.665-2.91z" fill="#448AFF"/><path d="M94.56 170.454a4.059 4.059 0 00-5.235-.176 3.17 3.17 0 00-.801 3.784c.2.418.492.787.851 1.081a3.797 3.797 0 005.235.176 3.396 3.396 0 00.998-2.443 3.405 3.405 0 00-1.049-2.422zM109.171 155.279a8.552 8.552 0 00-7.831 7.781c-.285 4.075 3.109 7.201 7.563 6.949 4.453-.252 7.957-3.756 7.831-7.781a7.184 7.184 0 00-2.318-5.067 7.179 7.179 0 00-5.245-1.882zM48.824 120.308a8.463 8.463 0 00-8.755 8.57 9.37 9.37 0 009.243 9.025h1.126c5.041.109 8.73-3.756 8.192-8.588a10.496 10.496 0 00-9.806-9.007z" fill="#fff"/><path d="M147.512 7.109c-3.361 3.302-3.134 11.956-5.243 18.662-2.109 6.705 9.319 14.082 13.268 11.47 3.949-2.614 14.41-10.202 16.662-14.285 2.252-4.084-21.359-19.141-24.687-15.847z" fill="#448AFF"/></svg>
