<svg width="64" height="64" viewBox="0 0 64 64" fill="none" xmlns="http://www.w3.org/2000/svg">
<g clip-path="url(#clip0_49_1630)">
<mask id="mask0_49_1630" style="mask-type:luminance" maskUnits="userSpaceOnUse" x="0" y="0" width="64" height="64">
<path d="M0 0.078125H63.9214V63.9995H0V0.078125Z" fill="white"/>
</mask>
<g mask="url(#mask0_49_1630)">
<path d="M62.7171 29.1923L34.8076 1.28486C34.4253 0.902296 33.9713 0.598813 33.4716 0.391756C32.972 0.184699 32.4364 0.078125 31.8956 0.078125C31.3547 0.078125 30.8192 0.184699 30.3195 0.391756C29.8199 0.598813 29.3659 0.902296 28.9836 1.28486L23.1902 7.08104L30.5404 14.4313C31.4046 14.1378 32.3336 14.092 33.2225 14.299C34.1113 14.5061 34.9245 14.9577 35.57 15.6028C36.2191 16.2526 36.6723 17.0719 36.8776 17.9672C37.0829 18.8624 37.0321 19.7973 36.7311 20.665L43.8177 27.7496C44.6856 27.4481 45.6209 27.3973 46.5164 27.603C47.4119 27.8088 48.2313 28.2627 48.8806 28.9127C49.3355 29.3675 49.6963 29.9074 49.9425 30.5016C50.1886 31.0959 50.3154 31.7328 50.3154 32.376C50.3154 33.0192 50.1886 33.6561 49.9425 34.2504C49.6963 34.8446 49.3355 35.3845 48.8806 35.8393C47.961 36.7579 46.7144 37.2739 45.4145 37.2739C44.1147 37.2739 42.868 36.7579 41.9484 35.8393C41.2653 35.155 40.7999 34.284 40.6107 33.3358C40.4216 32.3876 40.5172 31.4046 40.8855 30.5106L34.2768 23.904V41.2932C34.9743 41.6378 35.5797 42.1436 36.0429 42.7687C36.506 43.3939 36.8136 44.1203 36.94 44.888C37.0665 45.6557 37.0083 46.4424 36.7701 47.1831C36.532 47.9237 36.1208 48.597 35.5707 49.1471C35.1159 49.602 34.576 49.9628 33.9818 50.209C33.3875 50.4552 32.7506 50.5819 32.1074 50.5819C31.4642 50.5819 30.8273 50.4552 30.233 50.209C29.6388 49.9628 29.0989 49.602 28.6441 49.1471C28.1891 48.6923 27.8282 48.1524 27.582 47.5581C27.3357 46.9638 27.209 46.3268 27.209 45.6835C27.209 45.0402 27.3357 44.4032 27.582 43.8089C27.8282 43.2146 28.1891 42.6746 28.6441 42.2198C29.1024 41.7606 29.6471 41.3967 30.2469 41.1492V23.6C29.6496 23.354 29.1068 22.9924 28.6497 22.536C28.1926 22.0796 27.8302 21.5373 27.5832 20.9404C27.3363 20.3435 27.2097 19.7037 27.2108 19.0578C27.2119 18.4118 27.3406 17.7724 27.5895 17.1763L20.3422 9.92764L1.2034 29.0616C0.432169 29.8343 -0.000976562 30.8815 -0.000976562 31.9732C-0.000976563 33.065 0.432169 34.1121 1.2034 34.8849L29.1144 62.7958C29.8871 63.5668 30.9341 63.9999 32.0257 63.9999C33.1172 63.9999 34.1643 63.5668 34.937 62.7958L62.7171 35.0156C63.4884 34.2429 63.9215 33.1957 63.9215 32.104C63.9215 31.0122 63.4884 29.9651 62.7171 29.1923Z" fill="#F03C2E"/>
</g>
</g>
<defs>
<clipPath id="clip0_49_1630">
<rect width="64" height="64" fill="white"/>
</clipPath>
</defs>
</svg>
