<svg width="86" height="86" viewBox="0 0 86 86" fill="none" xmlns="http://www.w3.org/2000/svg">
<g clip-path="url(#clip0_49_1630)">
<mask id="mask0_49_1630" style="mask-type:luminance" maskUnits="userSpaceOnUse" x="0" y="0" width="86" height="86">
<path d="M0 0.105469H85.8944V85.9998H0V0.105469Z" fill="white"/>
</mask>
<g mask="url(#mask0_49_1630)">
<path d="M84.2765 39.2277L46.773 1.72702C46.2593 1.21295 45.6493 0.805143 44.9779 0.52691C44.3064 0.248677 43.5868 0.105469 42.86 0.105469C42.1332 0.105469 41.4136 0.248677 40.7422 0.52691C40.0708 0.805143 39.4608 1.21295 38.947 1.72702L31.1621 9.51563L41.0391 19.3925C42.2003 18.9982 43.4487 18.9366 44.643 19.2148C45.8374 19.493 46.9301 20.0998 47.7975 20.9667C48.6698 21.8399 49.2787 22.9409 49.5546 24.1438C49.8305 25.3468 49.7623 26.6031 49.3577 27.7691L58.8803 37.289C60.0466 36.8839 61.3035 36.8156 62.5068 37.0921C63.71 37.3685 64.8111 37.9784 65.6837 38.8519C66.2949 39.463 66.7797 40.1885 67.1105 40.9871C67.4413 41.7856 67.6116 42.6414 67.6116 43.5057C67.6116 44.37 67.4413 45.2259 67.1105 46.0244C66.7797 46.8229 66.2949 47.5484 65.6837 48.1595C64.448 49.394 62.7728 50.0873 61.0261 50.0873C59.2795 50.0873 57.6043 49.394 56.3686 48.1595C55.4506 47.2401 54.8252 46.0696 54.571 44.7954C54.3168 43.5213 54.4453 42.2004 54.9402 40.9991L46.0598 32.1215V55.4882C46.9971 55.9513 47.8106 56.6309 48.433 57.471C49.0553 58.311 49.4686 59.2872 49.6385 60.3187C49.8085 61.3503 49.7302 62.4075 49.4102 63.4027C49.0902 64.398 48.5377 65.3027 47.7985 66.0419C47.1874 66.6532 46.4618 67.138 45.6633 67.4688C44.8648 67.7996 44.009 67.9699 43.1447 67.9699C42.2803 67.9699 41.4245 67.7996 40.626 67.4688C39.8275 67.138 39.1019 66.6532 38.4908 66.0419C37.8795 65.4308 37.3945 64.7052 37.0636 63.9066C36.7327 63.108 36.5624 62.2521 36.5624 61.3877C36.5624 60.5232 36.7327 59.6673 37.0636 58.8687C37.3945 58.0701 37.8795 57.3445 38.4908 56.7334C39.1067 56.1163 39.8387 55.6273 40.6446 55.2947V31.713C39.842 31.3824 39.1126 30.8965 38.4984 30.2832C37.8841 29.6699 37.3971 28.9413 37.0653 28.1392C36.7335 27.3371 36.5634 26.4774 36.5649 25.6093C36.5663 24.7413 36.7392 23.8822 37.0737 23.0812L27.3351 13.3408L1.6174 39.052C0.581062 40.0903 -0.000976562 41.4974 -0.000976562 42.9645C-0.000976563 44.4315 0.581062 45.8386 1.6174 46.877L39.1228 84.3824C40.1611 85.4184 41.568 86.0003 43.0348 86.0003C44.5016 86.0003 45.9086 85.4184 46.9469 84.3824L84.2765 47.0528C85.3128 46.0144 85.8949 44.6073 85.8949 43.1402C85.8949 41.6732 85.3128 40.2661 84.2765 39.2277Z" fill="#F03C2E"/>
</g>
</g>
<defs>
<clipPath id="clip0_49_1630">
<rect width="86" height="86" fill="white"/>
</clipPath>
</defs>
</svg>
