<svg width="86" height="86" viewBox="0 0 86 86" fill="none" xmlns="http://www.w3.org/2000/svg">
<path d="M29.2098 67.7586C29.2098 68.0945 28.8234 68.3633 28.3363 68.3633C27.782 68.4137 27.3957 68.1449 27.3957 67.7586C27.3957 67.4227 27.782 67.1539 28.2691 67.1539C28.773 67.1035 29.2098 67.3723 29.2098 67.7586ZM23.9859 67.0027C23.8684 67.3387 24.2043 67.725 24.7082 67.8258C25.1449 67.9937 25.6488 67.8258 25.7496 67.4898C25.8504 67.1539 25.5312 66.7676 25.0273 66.6164C24.5906 66.4988 24.1035 66.6668 23.9859 67.0027ZM31.4102 66.7172C30.923 66.8348 30.5871 67.1539 30.6375 67.5402C30.6879 67.8762 31.1246 68.0945 31.6285 67.977C32.1156 67.8594 32.4516 67.5402 32.4012 67.2043C32.3508 66.8852 31.8973 66.6668 31.4102 66.7172ZM42.4625 2.35156C19.1652 2.35156 1.34375 20.0387 1.34375 43.3359C1.34375 61.9637 13.068 77.9039 29.8145 83.5141C31.9645 83.9004 32.7203 82.5734 32.7203 81.4816C32.7203 80.4402 32.6699 74.6957 32.6699 71.1684C32.6699 71.1684 20.9121 73.6879 18.443 66.1629C18.443 66.1629 16.5281 61.275 13.7734 60.0152C13.7734 60.0152 9.92695 57.3781 14.0422 57.4285C14.0422 57.4285 18.2246 57.7645 20.5258 61.7621C24.2043 68.2457 30.3688 66.3813 32.7707 65.2727C33.157 62.5852 34.2488 60.7207 35.4582 59.6121C26.0688 58.5707 16.5953 57.2102 16.5953 41.0516C16.5953 36.4324 17.8719 34.1145 20.5594 31.1582C20.1227 30.0664 18.6949 25.5648 20.9961 19.7531C24.5066 18.6613 32.5859 24.2883 32.5859 24.2883C35.9453 23.3477 39.5566 22.8605 43.1344 22.8605C46.7121 22.8605 50.3234 23.3477 53.6828 24.2883C53.6828 24.2883 61.7621 18.6445 65.2727 19.7531C67.5738 25.5816 66.1461 30.0664 65.7094 31.1582C68.3969 34.1313 70.043 36.4492 70.043 41.0516C70.043 57.2605 60.1496 58.5539 50.7602 59.6121C52.3055 60.9391 53.6156 63.4586 53.6156 67.4059C53.6156 73.0664 53.5652 80.0707 53.5652 81.448C53.5652 82.5398 54.3379 83.8668 56.4711 83.4805C73.268 77.9039 84.6562 61.9637 84.6562 43.3359C84.6562 20.0387 65.7598 2.35156 42.4625 2.35156ZM17.6703 60.284C17.452 60.452 17.5023 60.8383 17.7879 61.1574C18.0566 61.4262 18.443 61.5438 18.6613 61.3254C18.8797 61.1574 18.8293 60.7711 18.5438 60.452C18.275 60.1832 17.8887 60.0656 17.6703 60.284ZM15.8563 58.9234C15.7387 59.1418 15.9066 59.4105 16.2426 59.5785C16.5113 59.7465 16.8473 59.6961 16.9648 59.4609C17.0824 59.2426 16.9145 58.9738 16.5785 58.8059C16.2426 58.7051 15.9738 58.7555 15.8563 58.9234ZM21.2984 64.9031C21.0297 65.1215 21.1305 65.6254 21.5168 65.9445C21.9031 66.3309 22.3902 66.3813 22.6086 66.1125C22.827 65.8941 22.7262 65.3902 22.3902 65.0711C22.0207 64.6848 21.5168 64.6344 21.2984 64.9031ZM19.3836 62.434C19.1148 62.602 19.1148 63.0387 19.3836 63.425C19.6523 63.8113 20.1059 63.9793 20.3242 63.8113C20.593 63.593 20.593 63.1563 20.3242 62.7699C20.0891 62.3836 19.6523 62.2156 19.3836 62.434Z" fill="black"/>
</svg>
