<svg width="64" height="64" viewBox="0 0 64 64" fill="none" xmlns="http://www.w3.org/2000/svg">
<path d="M21.7375 50.425C21.7375 50.675 21.45 50.875 21.0875 50.875C20.675 50.9125 20.3875 50.7125 20.3875 50.425C20.3875 50.175 20.675 49.975 21.0375 49.975C21.4125 49.9375 21.7375 50.1375 21.7375 50.425ZM17.85 49.8625C17.7625 50.1125 18.0125 50.4 18.3875 50.475C18.7125 50.6 19.0875 50.475 19.1625 50.225C19.2375 49.975 19 49.6875 18.625 49.575C18.3 49.4875 17.9375 49.6125 17.85 49.8625ZM23.375 49.65C23.0125 49.7375 22.7625 49.975 22.8 50.2625C22.8375 50.5125 23.1625 50.675 23.5375 50.5875C23.9 50.5 24.15 50.2625 24.1125 50.0125C24.075 49.775 23.7375 49.6125 23.375 49.65ZM31.6 1.75C14.2625 1.75 1 14.9125 1 32.25C1 46.1125 9.725 57.975 22.1875 62.15C23.7875 62.4375 24.35 61.45 24.35 60.6375C24.35 59.8625 24.3125 55.5875 24.3125 52.9625C24.3125 52.9625 15.5625 54.8375 13.725 49.2375C13.725 49.2375 12.3 45.6 10.25 44.6625C10.25 44.6625 7.3875 42.7 10.45 42.7375C10.45 42.7375 13.5625 42.9875 15.275 45.9625C18.0125 50.7875 22.6 49.4 24.3875 48.575C24.675 46.575 25.4875 45.1875 26.3875 44.3625C19.4 43.5875 12.35 42.575 12.35 30.55C12.35 27.1125 13.3 25.3875 15.3 23.1875C14.975 22.375 13.9125 19.025 15.625 14.7C18.2375 13.8875 24.25 18.075 24.25 18.075C26.75 17.375 29.4375 17.0125 32.1 17.0125C34.7625 17.0125 37.45 17.375 39.95 18.075C39.95 18.075 45.9625 13.875 48.575 14.7C50.2875 19.0375 49.225 22.375 48.9 23.1875C50.9 25.4 52.125 27.125 52.125 30.55C52.125 42.6125 44.7625 43.575 37.775 44.3625C38.925 45.35 39.9 47.225 39.9 50.1625C39.9 54.375 39.8625 59.5875 39.8625 60.6125C39.8625 61.425 40.4375 62.4125 42.025 62.125C54.525 57.975 63 46.1125 63 32.25C63 14.9125 48.9375 1.75 31.6 1.75ZM13.15 44.8625C12.9875 44.9875 13.025 45.275 13.2375 45.5125C13.4375 45.7125 13.725 45.8 13.8875 45.6375C14.05 45.5125 14.0125 45.225 13.8 44.9875C13.6 44.7875 13.3125 44.7 13.15 44.8625ZM11.8 43.85C11.7125 44.0125 11.8375 44.2125 12.0875 44.3375C12.2875 44.4625 12.5375 44.425 12.625 44.25C12.7125 44.0875 12.5875 43.8875 12.3375 43.7625C12.0875 43.6875 11.8875 43.725 11.8 43.85ZM15.85 48.3C15.65 48.4625 15.725 48.8375 16.0125 49.075C16.3 49.3625 16.6625 49.4 16.825 49.2C16.9875 49.0375 16.9125 48.6625 16.6625 48.425C16.3875 48.1375 16.0125 48.1 15.85 48.3ZM14.425 46.4625C14.225 46.5875 14.225 46.9125 14.425 47.2C14.625 47.4875 14.9625 47.6125 15.125 47.4875C15.325 47.325 15.325 47 15.125 46.7125C14.95 46.425 14.625 46.3 14.425 46.4625Z" fill="black"/>
</svg>
