<svg width="64" height="64" viewBox="0 0 64 64" fill="none" xmlns="http://www.w3.org/2000/svg">
<path d="M13.5498 0H16.4248V2.85H19.0748V0H21.9498V8.625H19.0748V5.75H16.4498V8.625H13.5498M25.7498 2.875H23.2123V0H31.1748V2.875H28.6248V8.625H25.7498M32.4373 0H35.4498L37.2998 3.0375L39.1498 0H42.1623V8.625H39.2873V4.35L37.2748 7.45L35.2623 4.35V8.625H32.4373M43.5873 0H46.4623V5.775H50.5373V8.625H43.5873" fill="black"/>
<path d="M13.4502 58.8752L9.3252 12.5752H54.6752L50.5502 58.8502L31.9627 64.0002" fill="#E44D26"/>
<path d="M32 60.0625V16.375H50.5375L47 55.875" fill="#F16529"/>
<path d="M17.75 22.0371H32V27.7121H23.975L24.5 33.5246H32V39.1871H19.3M19.55 42.0371H25.25L25.65 46.5746L32 48.2746V54.1996L20.35 50.9496" fill="#EBEBEB"/>
<path d="M46.2001 22.0371H31.9751V27.7121H45.6751M45.1626 33.5246H31.9751V39.1996H38.9751L38.3126 46.5746L31.9751 48.2746V54.1746L43.6001 50.9496" fill="white"/>
</svg>
