<svg width="86" height="86" viewBox="0 0 86 86" fill="none" xmlns="http://www.w3.org/2000/svg">
<path d="M18.208 0H22.0713V3.82969H25.6322V0H29.4955V11.5898H25.6322V7.72656H22.1049V11.5898H18.208M34.6018 3.86328H31.192V0H41.8916V3.86328H38.465V11.5898H34.6018M43.5881 0H47.6361L50.1221 4.08164L52.608 0H56.6561V11.5898H52.7928V5.84531L50.0885 10.0109L47.3842 5.84531V11.5898H43.5881M58.5709 0H62.4342V7.76016H67.91V11.5898H58.5709" fill="black"/>
<path d="M18.0732 79.1131L12.5303 16.8975H73.4693L67.9264 79.0795L42.9494 85.9998" fill="#E44D26"/>
<path d="M43 80.709V22.0039H67.9098L63.1562 75.082" fill="#F16529"/>
<path d="M23.8516 29.6133H43V37.2391H32.2164L32.9219 45.0496H43V52.6586H25.9344M26.2703 56.4883H33.9297L34.4672 62.5855L43 64.8699V72.8316L27.3453 68.4645" fill="#EBEBEB"/>
<path d="M62.0812 29.6133H42.9663V37.2391H61.3757M60.687 45.0496H42.9663V52.6754H52.3726L51.4823 62.5855L42.9663 64.8699V72.798L58.5874 68.4645" fill="white"/>
</svg>
