<svg width="86" height="86" viewBox="0 0 86 86" fill="none" xmlns="http://www.w3.org/2000/svg">
<path d="M81.9688 4.03125H4.03125V81.9688H81.9688V4.03125Z" fill="#F7DF1E"/>
<path d="M55.8342 64.3591C57.3949 66.9092 59.4254 68.7836 63.0166 68.7836C66.0334 68.7836 67.9606 67.2747 67.9606 65.1899C67.9606 62.6914 65.9806 61.8065 62.6599 60.353L60.8397 59.5715C55.5858 57.3315 52.0954 54.5254 52.0954 48.5932C52.0954 43.1287 56.2561 38.9688 62.7583 38.9688C67.3875 38.9688 70.7155 40.581 73.1137 44.8025L67.4441 48.4455C66.1958 46.2056 64.8491 45.3231 62.7583 45.3231C60.6258 45.3231 59.2741 46.6769 59.2741 48.4455C59.2741 50.6313 60.627 51.5162 63.7508 52.8701L65.571 53.6504C71.7572 56.3051 75.25 59.0115 75.25 65.0963C75.25 71.6562 70.1006 75.25 63.1851 75.25C56.4233 75.25 52.0549 72.0254 49.9174 67.799L55.8342 64.3591ZM30.1142 64.9905C31.258 67.0212 32.2984 68.7381 34.7999 68.7381C37.192 68.7381 38.7011 67.8015 38.7011 64.1597V39.3847H45.9818V64.2582C45.9818 71.8027 41.5617 75.2365 35.1099 75.2365C29.2803 75.2365 25.9044 72.2174 24.1875 68.5812L30.1142 64.9905Z" fill="black"/>
</svg>
