<svg width="64" height="64" viewBox="0 0 64 64" fill="none" xmlns="http://www.w3.org/2000/svg">
<path d="M61 3H3V61H61V3Z" fill="#F7DF1E"/>
<path d="M41.551 47.8951C42.7125 49.7929 44.2236 51.1878 46.8961 51.1878C49.1412 51.1878 50.5753 50.0649 50.5753 48.5134C50.5753 46.6541 49.1018 45.9956 46.6307 44.9139L45.2761 44.3323C41.3662 42.6653 38.7687 40.5771 38.7687 36.1624C38.7687 32.0958 41.865 29 46.7039 29C50.1488 29 52.6255 30.1998 54.4102 33.3414L50.1909 36.0525C49.262 34.3855 48.2598 33.7288 46.7039 33.7288C45.1168 33.7288 44.111 34.7363 44.111 36.0525C44.111 37.6791 45.1178 38.3377 47.4425 39.3452L48.797 39.9258C53.4007 41.9015 56 43.9155 56 48.4438C56 53.3256 52.1679 56 47.0215 56C41.9895 56 38.7385 53.6003 37.1478 50.4551L41.551 47.8951ZM22.4106 48.365C23.2617 49.8763 24.036 51.1539 25.8976 51.1539C27.6778 51.1539 28.8008 50.4569 28.8008 47.7468V29.3096H34.219V47.82C34.219 53.4345 30.9296 55.9899 26.1283 55.9899C21.79 55.9899 19.2777 53.7432 18 51.0372L22.4106 48.365Z" fill="black"/>
</svg>
