<svg width="86" height="86" viewBox="0 0 86 86" fill="none" xmlns="http://www.w3.org/2000/svg">
<path fill-rule="evenodd" clip-rule="evenodd" d="M50.5022 1.00781C49.8944 1.00781 49.33 1.13807 48.809 1.31173C49.9161 2.0498 50.5239 3.02667 50.8278 4.13379C50.8496 4.28574 50.893 4.39429 50.9147 4.54624C50.9365 4.67649 50.9581 4.80674 50.9581 4.93699C51.045 6.8473 50.4588 7.08609 50.0463 8.21491C49.4168 9.66936 49.5905 11.2323 50.3502 12.4914C50.4154 12.6434 50.5022 12.817 50.6108 12.969C49.7858 7.47684 54.3663 6.65193 55.2129 4.93699C55.278 3.43912 54.0406 2.44055 53.0638 1.74589C52.1303 1.18148 51.2837 1.00781 50.5022 1.00781ZM57.4054 2.24518C57.3185 2.74446 57.3837 2.61421 57.362 2.87471C57.3403 3.04838 57.3403 3.26546 57.3186 3.43912C57.2753 3.61279 57.2318 3.78645 57.1667 3.96013C57.1233 4.13379 57.0581 4.30745 56.993 4.48111C56.9061 4.65479 56.8411 4.80674 56.7542 4.9804C56.6891 5.06727 56.6457 5.15406 56.5806 5.2409C56.5372 5.30603 56.4937 5.37115 56.4503 5.43627C56.3418 5.58824 56.2332 5.74019 56.1247 5.87044C55.9944 6.00069 55.8859 6.15264 55.7339 6.26119C55.7339 6.28292 55.7339 6.28292 55.7339 6.28292C55.6037 6.39146 55.4734 6.52171 55.3215 6.63025C54.8656 6.97758 54.3446 7.23808 53.867 7.5637C53.7151 7.67224 53.5631 7.75908 53.4329 7.88933C53.2809 7.99786 53.1507 8.1064 53.0204 8.23665C52.8685 8.3669 52.7599 8.49715 52.6297 8.64911C52.5211 8.77936 52.3909 8.93131 52.3041 9.08328C52.1955 9.23523 52.087 9.38719 52.0001 9.53914C51.9133 9.7128 51.8482 9.86477 51.7613 10.0384C51.6962 10.2121 51.6311 10.3641 51.5877 10.5377C51.5226 10.7331 51.4791 10.9068 51.4357 11.0804C51.414 11.1673 51.414 11.2758 51.3923 11.3626C51.3706 11.4495 51.3706 11.5363 51.349 11.6231C51.349 11.7968 51.3272 11.9922 51.3272 12.1658C51.3272 12.2961 51.3272 12.4263 51.349 12.5566C51.349 12.7302 51.3707 12.9039 51.4141 13.0993C51.4358 13.2729 51.4792 13.4466 51.5226 13.6203C51.5878 13.7939 51.6312 13.9676 51.6963 14.1413C51.7397 14.2498 51.8048 14.3584 51.8483 14.4452L46.8554 12.5132C46.0088 12.2744 45.1839 12.0573 44.3372 11.8619C43.8814 11.7534 43.4255 11.6448 42.9696 11.5363C41.6671 11.2758 40.3429 11.0804 39.0187 10.9502C38.9754 10.9502 38.9536 10.9284 38.9102 10.9284C37.6077 10.7982 36.3269 10.7331 35.0244 10.7331C34.0693 10.7331 33.1141 10.7764 32.1807 10.8416C30.8565 10.9285 29.5323 11.1021 28.2081 11.3192C27.8825 11.3626 27.5568 11.4277 27.2312 11.4929C26.5583 11.6231 25.907 11.7751 25.2775 11.927C24.9519 12.0139 24.6262 12.1007 24.3006 12.1875C23.975 12.3178 23.6711 12.4697 23.3672 12.6C23.1284 12.7085 22.8896 12.817 22.6508 12.9256C22.6074 12.9473 22.5639 12.9473 22.5423 12.969C22.3252 13.0775 22.1298 13.1643 21.9344 13.2729C21.8693 13.2946 21.8259 13.3163 21.7825 13.338C21.5437 13.4465 21.3049 13.5768 21.1095 13.6853C20.9576 13.7505 20.8056 13.8373 20.6754 13.9024C20.6102 13.9458 20.5234 13.9893 20.48 14.011C20.2846 14.1195 20.0892 14.228 19.9156 14.3366C19.7202 14.4451 19.5465 14.5537 19.3946 14.6622C19.2426 14.7707 19.0907 14.8576 18.9604 14.9661C18.9387 14.9878 18.917 14.9879 18.8953 15.0095C18.765 15.0964 18.6131 15.2049 18.4828 15.3134C18.4828 15.3134 18.4611 15.3352 18.4395 15.3568C18.3309 15.4437 18.2224 15.5305 18.1138 15.6173C18.0704 15.639 18.027 15.6824 17.9836 15.7042C17.875 15.791 17.7665 15.8995 17.658 15.9864C17.6362 16.0298 17.5928 16.0515 17.5711 16.0732C17.4408 16.2035 17.3106 16.312 17.1803 16.4423C17.1586 16.4423 17.1586 16.464 17.137 16.4857C17.0067 16.5942 16.8765 16.7244 16.7462 16.8547C16.7245 16.8764 16.7245 16.8981 16.7028 16.8981C16.5943 17.0066 16.4858 17.1152 16.3772 17.2454C16.3338 17.2888 16.2687 17.3323 16.2253 17.3756C16.1167 17.5059 15.9865 17.6362 15.8562 17.7664C15.8345 17.8098 15.7911 17.8315 15.7694 17.8749C15.5957 18.0486 15.4437 18.2223 15.2701 18.3959C15.2483 18.4177 15.2267 18.4393 15.2049 18.4611C14.8576 18.8301 14.4886 19.1991 14.0978 19.5248C13.7071 19.8721 13.2946 20.1977 12.8822 20.4799C12.448 20.7838 12.0355 21.0443 11.5797 21.3048C11.1455 21.5436 10.6896 21.7607 10.2121 21.9561C9.75619 22.1514 9.27861 22.3251 8.80104 22.4771C7.88929 22.6724 6.95584 23.0415 6.15264 23.1066C5.97898 23.1066 5.7836 23.15 5.60994 23.1717C5.41456 23.2151 5.2409 23.2586 5.06724 23.302C4.89357 23.3671 4.7199 23.4322 4.54624 23.4973C4.37257 23.5625 4.19891 23.6493 4.02525 23.7361C3.87329 23.8447 3.69962 23.9315 3.54766 24.0401C3.39571 24.1486 3.24375 24.2788 3.1135 24.4091C2.96155 24.5176 2.80959 24.6696 2.67934 24.7998C2.54909 24.9518 2.41884 25.082 2.3103 25.234C2.20176 25.4077 2.07151 25.5596 1.98467 25.7333C1.87614 25.8853 1.7676 26.0589 1.68076 26.2326C1.59389 26.428 1.5071 26.6016 1.44197 26.797C1.37685 26.9707 1.31172 27.166 1.2466 27.3614C1.20322 27.5351 1.15973 27.7087 1.13806 27.8824C1.13806 27.9042 1.11632 27.9258 1.11632 27.9475C1.07294 28.1429 1.07294 28.4034 1.05119 28.5337C1.02945 28.6856 1.00781 28.8158 1.00781 28.9678C1.00781 29.0547 1.00781 29.1632 1.02955 29.25C1.0513 29.402 1.07294 29.5322 1.11642 29.6625C1.1598 29.7927 1.20329 29.923 1.26837 30.0532C1.26837 30.0749 1.26837 30.075 1.26837 30.075C1.3335 30.2052 1.42033 30.3355 1.50716 30.4657C1.59403 30.596 1.68083 30.7262 1.78937 30.8565C1.89791 30.965 2.02816 31.0952 2.15841 31.2038C2.28866 31.334 2.41891 31.4426 2.57086 31.5511C3.09186 32.007 3.22211 32.1589 3.89506 32.5063C4.0036 32.5714 4.11215 32.6148 4.2424 32.6799C4.26414 32.6799 4.28578 32.7017 4.30752 32.7017C4.30752 32.745 4.30752 32.7668 4.32927 32.8102C4.35101 32.9839 4.39439 33.1575 4.4378 33.3312C4.48119 33.5266 4.54635 33.7003 4.61148 33.8522C4.6766 33.9825 4.72002 34.1127 4.78514 34.243C4.80688 34.2863 4.82852 34.3298 4.85027 34.3515C4.93713 34.5252 5.02393 34.6771 5.11076 34.8291C5.2193 34.981 5.32784 35.133 5.43638 35.285C5.54492 35.4152 5.67517 35.5672 5.80542 35.6974C5.93567 35.8277 6.06592 35.9362 6.21788 36.0664C6.21788 36.0664 6.23962 36.0882 6.26126 36.0882C6.39151 36.1967 6.52176 36.3053 6.65201 36.3921C6.80396 36.5007 6.95592 36.5875 7.12959 36.6743C7.28155 36.7612 7.45521 36.848 7.62887 36.9131C7.75912 36.9782 7.91107 37.0217 8.06304 37.0651C8.08478 37.0868 8.10642 37.0868 8.1499 37.1085C8.23677 37.1302 8.34527 37.1518 8.4321 37.1736C8.36698 38.3458 8.34524 39.4529 8.51897 39.8437C8.71434 40.2778 9.6695 38.9536 10.6247 37.4341C10.4944 38.9319 10.4076 40.6903 10.6247 41.2113C10.8634 41.754 12.1659 40.0608 13.2948 38.1939C28.6858 34.6337 42.731 45.2707 44.2072 60.2927C43.9249 57.9483 41.0378 56.6458 39.7136 56.9714C39.0623 58.5778 37.9552 60.6401 36.1751 61.9209C36.3271 60.4881 36.262 59.012 35.9581 57.5792C35.4805 59.5764 34.547 61.4433 33.2662 63.0497C31.204 63.2016 29.1417 62.2031 28.0563 60.7052C27.9694 60.6401 27.9477 60.5098 27.8826 60.423C27.8175 60.271 27.7524 60.1191 27.709 59.9671C27.6438 59.8152 27.6004 59.6632 27.5787 59.5113C27.557 59.3593 27.557 59.2073 27.557 59.0337C27.557 58.9251 27.557 58.8166 27.557 58.7081C27.5787 58.5561 27.6221 58.4041 27.6655 58.2522C27.7089 58.1002 27.7524 57.9483 27.8175 57.7963C27.9043 57.6444 27.9694 57.4924 28.078 57.3404C28.447 56.2984 28.447 55.4518 27.7741 54.9525C27.6438 54.8657 27.5136 54.8006 27.3616 54.7355C27.2747 54.7137 27.1662 54.6703 27.0794 54.6486C27.0143 54.6269 26.9709 54.6052 26.9057 54.5835C26.7538 54.5401 26.6018 54.4966 26.4499 54.4749C26.2979 54.4315 26.1459 54.4098 25.994 54.4098C25.842 54.388 25.6684 54.3664 25.5164 54.3664C25.4079 54.3664 25.2993 54.3882 25.1908 54.3882C25.0171 54.3882 24.8652 54.4099 24.7132 54.4533C24.5612 54.475 24.4093 54.4967 24.2573 54.5401C24.1054 54.5835 23.9534 54.627 23.8015 54.6921C23.6495 54.7572 23.5193 54.8224 23.3673 54.8875C23.2371 54.9526 23.1068 55.0394 22.9548 55.1046C17.8968 58.4042 20.9143 66.1323 24.3659 68.3682C23.0634 68.607 21.7392 68.8892 21.3702 69.1714C21.3484 69.1932 21.3268 69.2148 21.3268 69.2148C22.2602 69.7792 23.2371 70.2568 24.2574 70.6693C25.6467 71.1251 27.1228 71.5376 27.7741 71.7113V71.733C29.5759 72.102 31.3993 72.2323 33.2445 72.1237C42.8612 71.4508 50.7413 64.1351 52.174 54.4967C52.2174 54.6921 52.2609 54.8658 52.3043 55.0611C52.3694 55.4519 52.4562 55.8643 52.4997 56.2768C52.4997 56.2768 52.4997 56.2768 52.4997 56.2986C52.543 56.4939 52.5648 56.6893 52.5865 56.863C52.5865 56.9063 52.5865 56.9281 52.5865 56.9498C52.6083 57.1452 52.6299 57.3406 52.6299 57.5142C52.6516 57.753 52.6733 57.9918 52.6733 58.2306C52.6733 58.3392 52.6733 58.4477 52.6733 58.5779C52.6733 58.6865 52.695 58.8167 52.695 58.9253C52.695 59.0555 52.6733 59.1858 52.6733 59.316C52.6733 59.4246 52.6733 59.5331 52.6733 59.6199C52.6733 59.7719 52.6515 59.9021 52.6515 60.0541C52.6515 60.141 52.6515 60.2278 52.6298 60.3363C52.6298 60.4883 52.6081 60.6402 52.6081 60.8139C52.5863 60.879 52.5863 60.9441 52.5863 61.0093C52.5646 61.1829 52.5429 61.3349 52.5212 61.5085C52.5212 61.5737 52.5212 61.6388 52.4994 61.7039C52.4777 61.921 52.4343 62.1164 52.4126 62.3335V62.3552V62.377C52.3692 62.5723 52.3257 62.7894 52.2823 62.9848C52.2823 63.0065 52.2823 63.0282 52.2823 63.0499C52.2389 63.2453 52.1954 63.4407 52.1521 63.636C52.1521 63.6578 52.1303 63.7012 52.1303 63.7229C52.0869 63.9183 52.0435 64.1136 51.9784 64.309C51.9784 64.3308 51.9784 64.3524 51.9784 64.3741C51.9133 64.5912 51.8481 64.7866 51.8047 64.982C51.783 65.0037 51.783 65.0253 51.783 65.0253C51.7178 65.2424 51.6527 65.4595 51.5876 65.6766C51.5007 65.8937 51.4356 66.089 51.3488 66.3061C51.262 66.5232 51.1969 66.7403 51.11 66.9357C51.0232 67.1527 50.9364 67.3481 50.8495 67.5652H50.8278C50.7409 67.7606 50.6541 67.9777 50.5455 68.173C50.5238 68.2381 50.5022 68.2816 50.4804 68.325C50.4587 68.3467 50.4587 68.3684 50.437 68.3901C49.026 71.2339 46.942 73.7303 44.3371 75.684C44.1634 75.7926 43.9897 75.9228 43.8161 76.0531C43.7727 76.0965 43.7075 76.1182 43.6641 76.1616C43.5121 76.2702 43.3602 76.3787 43.1865 76.4872L43.2516 76.6175H43.2734C43.5773 76.5741 43.8812 76.5306 44.1851 76.4872H44.2069C44.7713 76.4004 45.3357 76.2919 45.9001 76.1833C46.052 76.1616 46.2257 76.1182 46.3777 76.0748C46.4862 76.053 46.573 76.0314 46.6816 76.0097C46.8335 75.9879 46.9855 75.9445 47.1375 75.9228C47.2677 75.8794 47.398 75.8577 47.5282 75.8143C49.699 75.2933 51.8047 74.5769 53.8236 73.7303C50.372 78.4409 45.7481 82.2399 40.3428 84.7363C42.8393 84.5626 45.3357 84.1502 47.7453 83.4555C56.4937 80.8722 63.8527 74.9893 68.2595 67.0659C67.3694 72.0805 65.3723 76.8562 62.42 81.0242C64.5257 79.6349 66.4577 78.0285 68.2161 76.205C73.0787 71.1253 76.2698 64.678 77.3552 57.7531C78.0933 61.183 78.3104 64.7214 77.9847 68.2164C93.658 46.3563 79.2872 23.693 73.2741 17.7233C73.2523 17.6799 73.2307 17.6581 73.2307 17.6147C73.2089 17.6365 73.2089 17.6365 73.2089 17.6581C73.2089 17.6364 73.2089 17.6364 73.1872 17.6147C73.1872 17.8752 73.1654 18.1357 73.1438 18.3962C73.0787 18.8955 73.0135 19.3731 72.9267 19.8507C72.8182 20.3282 72.6879 20.8058 72.5577 21.2834C72.4057 21.7393 72.2321 22.2168 72.0367 22.6727C71.8413 23.1069 71.6242 23.5628 71.3854 23.9969C71.1466 24.4094 70.8861 24.8435 70.6039 25.2343C70.3217 25.6467 70.0178 26.0375 69.7139 26.4065C69.3883 26.7973 69.041 27.1446 68.6936 27.4919C68.4765 27.6873 68.2812 27.861 68.0641 28.0346C67.8904 28.1866 67.7385 28.3168 67.5648 28.4688C67.174 28.7727 66.7833 29.0549 66.3491 29.3154C65.9367 29.5759 65.5025 29.8364 65.0684 30.0535C64.6125 30.2706 64.1566 30.4659 63.7008 30.6613C63.2449 30.835 62.7673 30.9869 62.2897 31.1172C61.8121 31.2474 61.3129 31.356 60.8353 31.4428C60.336 31.5297 59.8367 31.5731 59.3591 31.6165C59.0118 31.6382 58.6645 31.6599 58.3171 31.6599C57.8178 31.6599 57.3186 31.6165 56.841 31.573C56.3417 31.5296 55.8424 31.4644 55.3648 31.3559C54.8655 31.269 54.388 31.1388 53.9104 30.9869H53.8886C54.3662 30.9435 54.8438 30.9 55.3214 30.8132C55.8207 30.7263 56.2982 30.6178 56.7758 30.4876C57.2534 30.3573 57.731 30.2054 58.1869 30.0317C58.6644 29.858 59.1203 29.641 59.5545 29.4239C60.0103 29.2068 60.4228 28.968 60.857 28.7075C61.2694 28.4253 61.6819 28.1431 62.0726 27.8392C62.4634 27.5353 62.8324 27.2097 63.1797 26.8623C63.5488 26.5367 63.8744 26.1677 64.2 25.7986C64.5256 25.4079 64.8295 25.0171 65.1118 24.6264C65.1551 24.5613 65.1986 24.4744 65.242 24.4093C65.4591 24.062 65.6762 23.7146 65.8715 23.3673C66.1103 22.9331 66.3274 22.499 66.5228 22.0431C66.7182 21.5872 66.8918 21.1314 67.0438 20.6538C67.1957 20.1979 67.3043 19.7203 67.4128 19.2428C67.4997 18.7435 67.5865 18.2659 67.6299 17.7883C67.6733 17.289 67.7168 16.7897 67.7168 16.3122C67.7168 15.9648 67.695 15.6175 67.6734 15.2702C67.63 14.7709 67.5648 14.2933 67.4997 13.8157C67.4128 13.3164 67.3043 12.8389 67.1741 12.3613C67.0221 11.9054 66.8702 11.4278 66.6965 10.972C66.5228 10.5161 66.3058 10.0602 66.0887 9.62606C65.8499 9.1919 65.6111 8.75774 65.3506 8.34529C65.0684 7.93284 64.7862 7.54209 64.4823 7.15133C64.1567 6.7823 63.831 6.41326 63.4837 6.04422C63.31 5.87056 63.1147 5.67518 62.9193 5.50152C61.9424 4.74173 60.9221 4.02536 59.9019 3.37412C59.7499 3.28726 59.6197 3.22216 59.4677 3.15703C58.7513 2.70117 58.0783 2.46225 57.4054 2.24518Z" fill="#E0234E"/>
</svg>
