<svg width="64" height="64" viewBox="0 0 64 64" fill="none" xmlns="http://www.w3.org/2000/svg">
<g clip-path="url(#clip0_49_1606)">
<path fill-rule="evenodd" clip-rule="evenodd" d="M37.583 0.75C37.1307 0.75 36.7107 0.846933 36.323 0.976169C37.1469 1.52543 37.5992 2.25241 37.8254 3.07631C37.8416 3.18939 37.8738 3.27017 37.89 3.38325C37.9062 3.48018 37.9223 3.57711 37.9223 3.67404C37.9869 5.09567 37.5507 5.27337 37.2438 6.11342C36.7753 7.19581 36.9045 8.35896 37.47 9.29594C37.5184 9.40902 37.583 9.53826 37.6638 9.65135C37.0499 5.56416 40.4586 4.95027 41.0886 3.67404C41.1371 2.55935 40.2163 1.81622 39.4893 1.29927C38.7947 0.87924 38.1646 0.75 37.583 0.75ZM42.7203 1.67083C42.6556 2.04239 42.7041 1.94546 42.688 2.13932C42.6718 2.26856 42.6718 2.43011 42.6557 2.55935C42.6234 2.68859 42.5911 2.81782 42.5426 2.94707C42.5104 3.07631 42.4619 3.20555 42.4134 3.33478C42.3488 3.46403 42.3003 3.57711 42.2357 3.70635C42.1872 3.77099 42.1549 3.83558 42.1065 3.90021C42.0742 3.94867 42.0418 3.99714 42.0095 4.0456C41.9288 4.15869 41.848 4.27177 41.7672 4.3687C41.6703 4.46563 41.5895 4.57871 41.4764 4.65949C41.4764 4.67566 41.4764 4.67566 41.4764 4.67566C41.3795 4.75644 41.2826 4.85337 41.1695 4.93414C40.8302 5.19262 40.4425 5.38648 40.0871 5.6288C39.974 5.70957 39.8609 5.7742 39.764 5.87113C39.6509 5.9519 39.554 6.03267 39.4571 6.1296C39.344 6.22653 39.2632 6.32346 39.1663 6.43655C39.0855 6.53348 38.9886 6.64656 38.9239 6.75965C38.8432 6.87273 38.7624 6.98581 38.6978 7.0989C38.6331 7.22813 38.5847 7.34122 38.5201 7.47046C38.4716 7.59969 38.4231 7.71278 38.3908 7.84202C38.3424 7.98741 38.3101 8.11665 38.2777 8.2459C38.2616 8.31054 38.2616 8.39129 38.2455 8.45591C38.2293 8.52055 38.2293 8.58514 38.2132 8.64977C38.2132 8.779 38.197 8.9244 38.197 9.05364C38.197 9.15057 38.197 9.2475 38.2132 9.34443C38.2132 9.47367 38.2294 9.6029 38.2616 9.7483C38.2778 9.87753 38.3101 10.0068 38.3424 10.136C38.3909 10.2653 38.4232 10.3945 38.4717 10.5237C38.5039 10.6045 38.5524 10.6853 38.5847 10.7499L34.8691 9.31211C34.2391 9.13441 33.6252 8.97287 32.9951 8.82747C32.6559 8.7467 32.3166 8.66592 31.9774 8.58515C31.0081 8.39129 30.0227 8.2459 29.0372 8.14897C29.0049 8.14897 28.9887 8.13279 28.9564 8.13279C27.9871 8.03586 27.034 7.9874 26.0647 7.9874C25.3539 7.9874 24.6431 8.01968 23.9484 8.06817C22.963 8.13282 21.9775 8.26203 20.9921 8.42358C20.7497 8.45586 20.5074 8.50436 20.2651 8.55282C19.7643 8.64974 19.2796 8.76283 18.8111 8.87592C18.5688 8.94056 18.3265 9.00516 18.0842 9.06977C17.8419 9.1667 17.6157 9.27979 17.3895 9.37672C17.2118 9.45749 17.0341 9.53827 16.8564 9.61904C16.8241 9.63522 16.7918 9.63522 16.7756 9.65133C16.6141 9.7321 16.4687 9.79672 16.3233 9.8775C16.2748 9.89367 16.2425 9.90978 16.2102 9.92596C16.0325 10.0067 15.8548 10.1037 15.7094 10.1844C15.5963 10.2329 15.4832 10.2975 15.3863 10.346C15.3378 10.3783 15.2732 10.4106 15.2409 10.4268C15.0955 10.5075 14.9501 10.5883 14.8209 10.6691C14.6755 10.7499 14.5463 10.8306 14.4332 10.9114C14.3201 10.9922 14.207 11.0568 14.1101 11.1376C14.0939 11.1537 14.0778 11.1538 14.0616 11.1699C13.9647 11.2345 13.8516 11.3153 13.7547 11.396C13.7547 11.396 13.7385 11.4122 13.7224 11.4283C13.6416 11.493 13.5608 11.5576 13.4801 11.6222C13.4478 11.6383 13.4154 11.6706 13.3831 11.6868C13.3024 11.7515 13.2216 11.8322 13.1408 11.8968C13.1246 11.9291 13.0923 11.9453 13.0762 11.9615C12.9792 12.0584 12.8823 12.1392 12.7854 12.2361C12.7692 12.2361 12.7692 12.2523 12.7531 12.2684C12.6562 12.3492 12.5592 12.4461 12.4623 12.543C12.4461 12.5592 12.4461 12.5753 12.43 12.5753C12.3492 12.6561 12.2685 12.7369 12.1877 12.8338C12.1554 12.8661 12.1069 12.8984 12.0746 12.9307C11.9938 13.0276 11.8969 13.1246 11.8 13.2215C11.7838 13.2538 11.7515 13.27 11.7353 13.3023C11.6061 13.4315 11.493 13.5608 11.3638 13.69C11.3476 13.7062 11.3315 13.7223 11.3153 13.7385C11.0568 14.0131 10.7822 14.2877 10.4914 14.5301C10.2006 14.7885 9.89367 15.0309 9.58673 15.2409C9.26363 15.467 8.95669 15.6609 8.61743 15.8548C8.29433 16.0325 7.95508 16.194 7.59968 16.3394C7.26042 16.4848 6.90501 16.614 6.54961 16.7271C5.8711 16.8725 5.17644 17.1471 4.57871 17.1956C4.44947 17.1956 4.30407 17.2279 4.17484 17.2441C4.02944 17.2764 3.9002 17.3087 3.77097 17.341C3.64173 17.3895 3.51248 17.4379 3.38325 17.4864C3.25401 17.5349 3.12477 17.5995 2.99553 17.6641C2.88245 17.7449 2.75321 17.8095 2.64012 17.8903C2.52704 17.971 2.41395 18.068 2.31702 18.1649C2.20394 18.2457 2.09086 18.3588 1.99393 18.4557C1.89699 18.5688 1.80007 18.6657 1.71929 18.7788C1.63852 18.908 1.54159 19.0211 1.47697 19.1504C1.39619 19.2634 1.31542 19.3927 1.2508 19.5219C1.18615 19.6673 1.12156 19.7965 1.0731 19.9419C1.02463 20.0712 0.976167 20.2166 0.927702 20.362C0.895417 20.4912 0.863056 20.6204 0.846929 20.7497C0.846929 20.7659 0.83075 20.782 0.83075 20.7981C0.798465 20.9435 0.798465 21.1374 0.782284 21.2343C0.766105 21.3474 0.75 21.4443 0.75 21.5574C0.75 21.6221 0.75 21.7028 0.76618 21.7674C0.78236 21.8805 0.798464 21.9775 0.830825 22.0744C0.86311 22.1713 0.89547 22.2682 0.943905 22.3652C0.943905 22.3814 0.943905 22.3814 0.943905 22.3814C0.99237 22.4783 1.05699 22.5752 1.12161 22.6721C1.18625 22.7691 1.25085 22.866 1.33163 22.9629C1.4124 23.0437 1.50933 23.1406 1.60626 23.2214C1.70319 23.3183 1.80012 23.3991 1.9132 23.4799C2.30092 23.8191 2.39785 23.9322 2.89865 24.1907C2.97942 24.2392 3.0602 24.2715 3.15713 24.32C3.17331 24.32 3.18942 24.3361 3.2056 24.3361C3.2056 24.3684 3.2056 24.3846 3.22178 24.4169C3.23796 24.5461 3.27024 24.6754 3.30255 24.8046C3.33484 24.95 3.38333 25.0793 3.4318 25.1923C3.48026 25.2893 3.51257 25.3862 3.56103 25.4831C3.57721 25.5154 3.59332 25.5478 3.6095 25.5639C3.67415 25.6931 3.73874 25.8062 3.80335 25.9193C3.88413 26.0324 3.96491 26.1455 4.04568 26.2586C4.12645 26.3555 4.22338 26.4686 4.32031 26.5655C4.41724 26.6624 4.51417 26.7432 4.62726 26.8401C4.62726 26.8401 4.64344 26.8563 4.65954 26.8563C4.75647 26.9371 4.8534 27.0179 4.95033 27.0825C5.06341 27.1633 5.1765 27.2279 5.30574 27.2925C5.41883 27.3572 5.54806 27.4218 5.6773 27.4702C5.77423 27.5187 5.88731 27.551 6.0004 27.5833C6.01658 27.5995 6.03268 27.5995 6.06504 27.6156C6.12969 27.6318 6.21043 27.6479 6.27505 27.6641C6.22659 28.5364 6.21041 29.3603 6.3397 29.6511C6.48509 29.9742 7.19591 28.9888 7.90672 27.8579C7.80979 28.9726 7.74517 30.2811 7.90672 30.6689C8.08443 31.0727 9.05372 29.8127 9.89377 28.4233C21.3476 25.7739 31.7998 33.6898 32.8983 44.869C32.6883 43.1243 30.5397 42.155 29.5543 42.3973C29.0696 43.5928 28.2457 45.1275 26.921 46.0806C27.0341 45.0144 26.9857 43.9159 26.7595 42.8497C26.4041 44.3359 25.7094 45.7252 24.7563 46.9207C23.2216 47.0338 21.6868 46.2906 20.8791 45.176C20.8145 45.1275 20.7983 45.0306 20.7499 44.966C20.7014 44.8529 20.6529 44.7398 20.6206 44.6267C20.5722 44.5136 20.5398 44.4005 20.5237 44.2874C20.5075 44.1744 20.5075 44.0613 20.5075 43.932C20.5075 43.8513 20.5075 43.7705 20.5075 43.6897C20.5237 43.5766 20.556 43.4635 20.5883 43.3505C20.6206 43.2374 20.6529 43.1243 20.7014 43.0112C20.766 42.8981 20.8144 42.785 20.8952 42.672C21.1699 41.8965 21.1699 41.2665 20.6691 40.8949C20.5721 40.8303 20.4752 40.7818 20.3621 40.7334C20.2975 40.7172 20.2167 40.6849 20.1521 40.6687C20.1036 40.6525 20.0713 40.6364 20.0229 40.6203C19.9098 40.588 19.7967 40.5556 19.6836 40.5395C19.5705 40.5072 19.4574 40.491 19.3444 40.491C19.2313 40.4748 19.102 40.4587 18.989 40.4587C18.9082 40.4587 18.8274 40.4749 18.7466 40.4749C18.6174 40.4749 18.5043 40.4911 18.3912 40.5234C18.2781 40.5396 18.1651 40.5557 18.052 40.588C17.9389 40.6203 17.8258 40.6527 17.7127 40.7011C17.5996 40.7496 17.5027 40.798 17.3896 40.8465C17.2927 40.895 17.1958 40.9596 17.0827 41.008C13.3186 43.4636 15.5641 49.2147 18.1327 50.8787C17.1634 51.0564 16.178 51.2664 15.9034 51.4764C15.8872 51.4926 15.8711 51.5087 15.8711 51.5087C16.5657 51.9287 17.2927 52.2841 18.052 52.5911C19.0859 52.9303 20.1844 53.2373 20.6691 53.3665V53.3827C22.0099 53.6573 23.367 53.7543 24.7401 53.6735C31.8967 53.1727 37.761 47.7285 38.8272 40.5557C38.8595 40.7011 38.8918 40.8303 38.9241 40.9757C38.9726 41.2665 39.0372 41.5735 39.0695 41.8804C39.0695 41.8804 39.0695 41.8804 39.0695 41.8966C39.1018 42.042 39.118 42.1874 39.1342 42.3166C39.1342 42.3489 39.1342 42.3651 39.1342 42.3813C39.1504 42.5267 39.1664 42.6721 39.1664 42.8013C39.1826 42.979 39.1987 43.1567 39.1987 43.3344C39.1987 43.4152 39.1987 43.496 39.1987 43.5929C39.1987 43.6737 39.2149 43.7706 39.2149 43.8514C39.2149 43.9483 39.1987 44.0452 39.1987 44.1422C39.1987 44.2229 39.1987 44.3037 39.1987 44.3683C39.1987 44.4814 39.1825 44.5783 39.1825 44.6914C39.1825 44.7561 39.1825 44.8207 39.1664 44.9014C39.1664 45.0145 39.1502 45.1276 39.1502 45.2568C39.134 45.3053 39.134 45.3538 39.134 45.4022C39.1178 45.5315 39.1017 45.6446 39.0855 45.7738C39.0855 45.8223 39.0855 45.8707 39.0693 45.9192C39.0531 46.0807 39.0209 46.2261 39.0047 46.3877V46.4039V46.4201C38.9724 46.5655 38.94 46.727 38.9078 46.8724C38.9078 46.8886 38.9078 46.9047 38.9078 46.9209C38.8755 47.0663 38.8431 47.2117 38.8108 47.357C38.8108 47.3732 38.7947 47.4055 38.7947 47.4217C38.7624 47.5671 38.73 47.7125 38.6816 47.8579C38.6816 47.8741 38.6816 47.8902 38.6816 47.9063C38.6331 48.0679 38.5847 48.2133 38.5523 48.3587C38.5362 48.3748 38.5362 48.391 38.5362 48.391C38.4877 48.5525 38.4392 48.7141 38.3908 48.8756C38.3261 49.0372 38.2777 49.1825 38.2131 49.3441C38.1484 49.5056 38.1 49.6672 38.0354 49.8126C37.9707 49.9741 37.9061 50.1195 37.8415 50.2811H37.8253C37.7607 50.4265 37.6961 50.588 37.6153 50.7334C37.5991 50.7819 37.583 50.8142 37.5668 50.8465C37.5506 50.8627 37.5506 50.8788 37.5345 50.895C36.4845 53.0113 34.9336 54.8691 32.995 56.323C32.8658 56.4038 32.7365 56.5007 32.6073 56.5976C32.575 56.6299 32.5265 56.6461 32.4942 56.6784C32.3811 56.7592 32.268 56.84 32.1388 56.9207L32.1873 57.0177H32.2034C32.4296 56.9854 32.6558 56.953 32.882 56.9207H32.8981C33.3182 56.8561 33.7382 56.7753 34.1582 56.6946C34.2713 56.6784 34.4005 56.6461 34.5136 56.6138C34.5944 56.5976 34.659 56.5815 34.7398 56.5653C34.8529 56.5491 34.966 56.5169 35.079 56.5007C35.176 56.4684 35.2729 56.4522 35.3698 56.4199C36.9853 56.0322 38.5523 55.4991 40.0547 54.869C37.4861 58.3746 34.0451 61.2018 30.0226 63.0596C31.8804 62.9303 33.7382 62.6234 35.5314 62.1064C42.0418 60.184 47.5183 55.806 50.7977 49.9095C50.1354 53.6413 48.6491 57.1953 46.4521 60.2971C48.0191 59.2632 49.4569 58.0677 50.7654 56.7107C54.3841 52.9304 56.7589 48.1325 57.5667 42.979C58.1159 45.5315 58.2775 48.1648 58.0351 50.7657C69.699 34.4977 59.0044 17.632 54.5295 13.1894C54.5133 13.1571 54.4972 13.1409 54.4972 13.1086C54.481 13.1248 54.481 13.1248 54.481 13.1409C54.481 13.1247 54.481 13.1247 54.4649 13.1086C54.4649 13.3025 54.4487 13.4963 54.4326 13.6902C54.3841 14.0618 54.3357 14.4172 54.271 14.7726C54.1903 15.128 54.0933 15.4834 53.9964 15.8388C53.8833 16.1781 53.7541 16.5335 53.6087 16.8727C53.4633 17.1958 53.3017 17.5351 53.124 17.8582C52.9463 18.1651 52.7525 18.4882 52.5425 18.779C52.3325 19.0859 52.1063 19.3767 51.8801 19.6514C51.6378 19.9422 51.3793 20.2006 51.1208 20.4591C50.9593 20.6045 50.8139 20.7337 50.6523 20.863C50.5231 20.9761 50.41 21.073 50.2808 21.1861C49.99 21.4122 49.6992 21.6223 49.3761 21.8161C49.0692 22.01 48.7461 22.2038 48.423 22.3654C48.0837 22.5269 47.7445 22.6723 47.4052 22.8177C47.066 22.947 46.7106 23.06 46.3551 23.157C45.9997 23.2539 45.6282 23.3347 45.2728 23.3993C44.9012 23.4639 44.5296 23.4962 44.1742 23.5285C43.9158 23.5447 43.6573 23.5608 43.3988 23.5608C43.0272 23.5608 42.6557 23.5285 42.3003 23.4962C41.9287 23.4639 41.5571 23.4154 41.2017 23.3346C40.8302 23.27 40.4748 23.1731 40.1194 23.06H40.1032C40.4586 23.0277 40.814 22.9953 41.1694 22.9308C41.541 22.8661 41.8964 22.7854 42.2518 22.6884C42.6072 22.5915 42.9626 22.4784 43.3018 22.3492C43.6573 22.2199 43.9965 22.0584 44.3196 21.8968C44.6589 21.7353 44.9658 21.5576 45.2889 21.3637C45.5958 21.1537 45.9028 20.9437 46.1936 20.7175C46.4844 20.4914 46.759 20.249 47.0175 19.9906C47.2921 19.7482 47.5344 19.4736 47.7768 19.199C48.0191 18.9082 48.2452 18.6174 48.4553 18.3266C48.4875 18.2781 48.5199 18.2135 48.5522 18.1651C48.7137 17.9066 48.8753 17.6481 49.0207 17.3896C49.1984 17.0665 49.3599 16.7434 49.5053 16.4042C49.6507 16.0649 49.78 15.7257 49.893 15.3703C50.0061 15.031 50.0869 14.6756 50.1677 14.3202C50.2323 13.9486 50.2969 13.5932 50.3292 13.2378C50.3615 12.8663 50.3939 12.4947 50.3939 12.1393C50.3939 11.8808 50.3777 11.6223 50.3616 11.3639C50.3293 10.9923 50.2808 10.6369 50.2323 10.2815C50.1677 9.90991 50.087 9.55451 49.99 9.1991C49.8769 8.85985 49.7639 8.50444 49.6346 8.16519C49.5054 7.82593 49.3438 7.48668 49.1823 7.16358C49.0046 6.84048 48.8269 6.51739 48.633 6.21045C48.423 5.90351 48.213 5.61272 47.9868 5.32192C47.7445 5.04729 47.5022 4.77266 47.2437 4.49803C47.1144 4.36879 46.9691 4.22339 46.8237 4.09416C46.0967 3.52873 45.3374 2.99562 44.5781 2.51097C44.4651 2.44633 44.3681 2.39789 44.255 2.34942C43.7219 2.01017 43.2211 1.83237 42.7203 1.67083Z" fill="#E0234E"/>
</g>
<defs>
<clipPath id="clip0_49_1606">
<rect width="64" height="64" fill="white"/>
</clipPath>
</defs>
</svg>
