<svg width="86" height="86" viewBox="0 0 86 86" fill="none" xmlns="http://www.w3.org/2000/svg">
<g clip-path="url(#clip0_49_1601)">
<path d="M43 86C66.7482 86 86 66.7482 86 43C86 19.2518 66.7482 0 43 0C19.2518 0 0 19.2518 0 43C0 66.7482 19.2518 86 43 86Z" fill="#8CC84B"/>
<path d="M40.0788 8.08434C41.8476 7.07241 44.1524 7.06668 45.9211 8.08434C54.8135 13.1096 63.7116 18.1263 72.604 23.1544C74.2753 24.0975 75.3962 25.958 75.379 27.8844V58.1191C75.3904 60.1258 74.1635 62.0321 72.3976 62.9523C63.5339 67.9489 54.673 72.9541 45.8122 77.9507C44.0062 78.9827 41.6555 78.9025 39.9068 77.7873C37.2494 76.2479 34.5863 74.7143 31.9289 73.1749C31.3871 72.8509 30.7736 72.5929 30.3895 72.0655C30.7278 71.6097 31.3355 71.5523 31.8286 71.3517C32.938 70.9991 33.9556 70.4315 34.9762 69.8839C35.2342 69.7062 35.5495 69.775 35.796 69.9327C38.0693 71.237 40.3196 72.5757 42.6015 73.8657C43.0888 74.1467 43.579 73.774 43.9976 73.5418C52.695 68.6255 61.4068 63.7292 70.1014 58.81C70.4225 58.6552 70.6031 58.3141 70.5744 57.9586C70.5801 47.9855 70.5773 38.0095 70.5773 28.0363C70.6146 27.635 70.3824 27.2681 70.0212 27.1047C61.189 22.131 52.3596 17.1487 43.5274 12.1722C43.215 11.9572 42.8022 11.9572 42.4868 12.1693C33.6546 17.1459 24.8282 22.1339 15.996 27.1075C15.6348 27.2709 15.394 27.635 15.437 28.0363C15.4398 38.0095 15.437 47.9855 15.437 57.9615C15.4054 58.3141 15.5975 58.6495 15.9186 58.8014C18.275 60.1373 20.6342 61.4645 22.9935 62.7975C24.3208 63.5113 25.9548 63.9385 27.4168 63.3909C28.7096 62.9265 29.6126 61.6107 29.5897 60.2376C29.6012 50.3218 29.584 40.406 29.5983 30.4902C29.5668 30.0487 29.9824 29.6875 30.4124 29.7277C31.5448 29.7191 32.68 29.7133 33.8123 29.7305C34.2853 29.7191 34.6092 30.1949 34.5519 30.6364C34.5462 40.6153 34.5634 50.5941 34.5433 60.5701C34.5462 63.2304 33.454 66.1229 30.9944 67.4243C27.9643 68.9953 24.2176 68.6599 21.2248 67.1549C18.6333 65.862 16.1594 64.3341 13.6138 62.9495C11.845 62.035 10.621 60.1201 10.6353 58.1163V27.8844C10.6066 25.9179 11.7676 24.023 13.4934 23.0942C22.3571 18.0919 31.218 13.0867 40.0788 8.08434Z" fill="white"/>
<path d="M47.8104 29.0283C51.6747 28.7789 55.8141 28.8821 59.2914 30.7856C61.9832 32.2447 63.4767 35.3063 63.5255 38.2991C63.4509 38.7033 63.0295 38.9241 62.6425 38.8983C61.5217 38.8954 60.3979 38.9126 59.2771 38.8897C58.8012 38.9069 58.526 38.4683 58.4658 38.0497C58.1447 36.6193 57.3621 35.2003 56.0148 34.5094C53.9451 33.4745 51.5485 33.5261 49.2925 33.5462C47.647 33.6322 45.8754 33.7755 44.4793 34.7445C43.4072 35.4783 43.0833 36.9575 43.4645 38.1501C43.8257 39.0072 44.8119 39.2824 45.6231 39.5375C50.2815 40.7559 55.2179 40.6355 59.7873 42.2379C61.6793 42.8915 63.5283 44.1615 64.1762 46.1423C65.0219 48.7969 64.6521 51.9703 62.7629 54.1002C61.2321 55.8546 59.0019 56.8092 56.7745 57.3281C53.8132 57.9874 50.743 58.0046 47.7359 57.7122C44.9093 57.3911 41.9681 56.6487 39.7866 54.7223C37.9204 53.1026 37.0088 50.5771 37.1005 48.1404C37.1235 47.7276 37.5305 47.4409 37.9261 47.4753C39.0556 47.4667 40.1851 47.4639 41.3145 47.4782C41.7646 47.4467 42.1 47.8365 42.1229 48.2608C42.3322 49.6253 42.8453 51.0558 44.0321 51.8642C46.3283 53.3463 49.2065 53.2431 51.8352 53.2861C54.0139 53.1886 56.4563 53.1599 58.2336 51.7209C59.171 50.901 59.4491 49.5279 59.1968 48.3439C58.9216 47.3463 57.8781 46.8819 56.9837 46.5781C52.3856 45.1247 47.3947 45.6521 42.8396 44.0067C40.9906 43.3531 39.2018 42.1175 38.4937 40.2198C37.5019 37.5309 37.9577 34.2055 40.0446 32.1473C42.0799 30.0976 45.0183 29.3093 47.8104 29.0283Z" fill="white"/>
</g>
<defs>
<clipPath id="clip0_49_1601">
<rect width="86" height="86" fill="white"/>
</clipPath>
</defs>
</svg>
