<svg width="64" height="64" viewBox="0 0 64 64" fill="none" xmlns="http://www.w3.org/2000/svg">
<g clip-path="url(#clip0_49_1601)">
<path d="M32 64C49.6731 64 64 49.6731 64 32C64 14.3269 49.6731 0 32 0C14.3269 0 0 14.3269 0 32C0 49.6731 14.3269 64 32 64Z" fill="#8CC84B"/>
<path d="M29.8259 6.01562C31.1422 5.26255 32.8574 5.25829 34.1736 6.01562C40.7912 9.75535 47.4131 13.4887 54.0307 17.2306C55.2744 17.9324 56.1086 19.317 56.0958 20.7506V43.2508C56.1043 44.7442 55.1912 46.1628 53.8771 46.8476C47.2808 50.566 40.6867 54.2908 34.0926 58.0092C32.7486 58.7772 30.9992 58.7175 29.6979 57.8876C27.7203 56.742 25.7385 55.6007 23.7609 54.4551C23.3577 54.214 22.9011 54.022 22.6152 53.6295C22.867 53.2903 23.3193 53.2476 23.6862 53.0983C24.5118 52.8359 25.2691 52.4135 26.0286 52.006C26.2206 51.8738 26.4552 51.925 26.6387 52.0423C28.3304 53.013 30.0051 54.0092 31.7032 54.9692C32.0659 55.1783 32.4307 54.901 32.7422 54.7282C39.2147 51.0695 45.6979 47.4258 52.1683 43.765C52.4072 43.6498 52.5416 43.3959 52.5203 43.1314C52.5246 35.7095 52.5224 28.2855 52.5224 20.8636C52.5502 20.565 52.3774 20.2919 52.1086 20.1703C45.5358 16.469 38.9651 12.7612 32.3923 9.05775C32.1598 8.89775 31.8526 8.89775 31.6179 9.05562C25.0451 12.7591 18.4766 16.4711 11.9038 20.1724C11.635 20.294 11.4558 20.565 11.4878 20.8636C11.4899 28.2855 11.4878 35.7095 11.4878 43.1335C11.4643 43.3959 11.6072 43.6455 11.8462 43.7586C13.5998 44.7527 15.3555 45.7404 17.1112 46.7324C18.099 47.2636 19.315 47.5815 20.403 47.174C21.3651 46.8284 22.0371 45.8492 22.02 44.8274C22.0286 37.4482 22.0158 30.069 22.0264 22.6898C22.003 22.3612 22.3123 22.0924 22.6323 22.1223C23.475 22.1159 24.3198 22.1116 25.1624 22.1244C25.5144 22.1159 25.7555 22.47 25.7129 22.7986C25.7086 30.2247 25.7214 37.6508 25.7064 45.0748C25.7086 47.0546 24.8958 49.2071 23.0654 50.1756C20.8104 51.3447 18.0222 51.0951 15.795 49.9751C13.8664 49.013 12.0254 47.8759 10.131 46.8455C8.81472 46.165 7.90378 44.7399 7.91445 43.2487V20.7506C7.89312 19.2871 8.75712 17.877 10.0414 17.1858C16.6376 13.4631 23.2318 9.73829 29.8259 6.01562Z" fill="white"/>
<path d="M35.5793 21.6017C38.455 21.4161 41.5356 21.4929 44.1233 22.9095C46.1265 23.9953 47.238 26.2737 47.2742 28.5009C47.2188 28.8017 46.9052 28.966 46.6172 28.9468C45.783 28.9447 44.9468 28.9575 44.1126 28.9404C43.7585 28.9532 43.5537 28.6268 43.5089 28.3153C43.27 27.2508 42.6876 26.1948 41.6849 25.6807C40.1446 24.9105 38.3612 24.9489 36.6822 24.9639C35.4577 25.0279 34.1393 25.1345 33.1004 25.8556C32.3025 26.4017 32.0614 27.5025 32.3452 28.39C32.614 29.0279 33.3478 29.2327 33.9516 29.4225C37.4182 30.3292 41.0918 30.2396 44.4924 31.4321C45.9004 31.9185 47.2764 32.8636 47.7585 34.3377C48.3878 36.3132 48.1126 38.6748 46.7068 40.2599C45.5676 41.5655 43.9078 42.2759 42.2502 42.662C40.0465 43.1527 37.7617 43.1655 35.5238 42.9479C33.4204 42.7089 31.2316 42.1564 29.6081 40.7228C28.2193 39.5175 27.5409 37.638 27.6092 35.8247C27.6262 35.5175 27.9292 35.3041 28.2236 35.3297C29.0641 35.3233 29.9046 35.3212 30.7452 35.3319C31.0801 35.3084 31.3297 35.5985 31.3468 35.9143C31.5025 36.9297 31.8844 37.9943 32.7676 38.5959C34.4764 39.6988 36.6182 39.622 38.5745 39.654C40.1958 39.5815 42.0134 39.5601 43.3361 38.4892C44.0337 37.8791 44.2406 36.8572 44.0529 35.9761C43.8481 35.2337 43.0716 34.8881 42.406 34.662C38.9841 33.5804 35.27 33.9729 31.8801 32.7484C30.5041 32.262 29.1729 31.3425 28.646 29.9303C27.9078 27.9292 28.247 25.4545 29.8001 23.9228C31.3148 22.3975 33.5014 21.8108 35.5793 21.6017Z" fill="white"/>
</g>
<defs>
<clipPath id="clip0_49_1601">
<rect width="64" height="64" fill="white"/>
</clipPath>
</defs>
</svg>
