<svg width="64" height="64" viewBox="0 0 64 64" fill="none" xmlns="http://www.w3.org/2000/svg">
<g clip-path="url(#clip0_49_1609)">
<path d="M31.92 37.8975L23.6225 24.9275L23.61 35.825L9.31 11.75H-0.75V52.3925H9.1975L9.23 28.3475L23.3825 51.315L31.92 37.8975Z" fill="#002F56"/>
<path d="M23.6251 22.1975H33.5601L33.5826 22.0825V11.75H23.6351L23.6226 22.0825L23.6251 22.1975Z" fill="#002F56"/>
<path d="M48.9149 33.4649C46.5348 33.4198 44.3845 34.879 43.5474 37.1074C44.9411 35.0232 47.5948 34.1857 49.9324 35.0924C51.0124 35.5324 52.4324 36.2424 53.5574 35.8624C52.4874 34.3609 50.7586 33.468 48.9149 33.4649Z" fill="#96D8E9"/>
<path d="M60.1875 38.3554C60.1875 37.1379 59.525 36.8554 58.15 36.3554C57.13 36.0004 55.9725 35.6004 55.13 34.5004C54.965 34.2829 54.8125 34.0379 54.65 33.7779C54.286 33.1045 53.7924 32.5097 53.1975 32.0279C52.395 31.4379 51.3425 31.1504 49.9775 31.1504C47.2386 31.1523 44.7711 32.8055 43.7275 35.3379C45.0468 33.5073 47.2392 32.5155 49.4851 32.7333C51.7309 32.951 53.692 34.3455 54.635 36.3954C55.1062 37.1728 56.0354 37.5441 56.9125 37.3054C58.255 37.0179 58.1625 38.2879 60.19 38.7179L60.1875 38.3554Z" fill="#48C4E5"/>
<path d="M64.615 38.0948V38.0673C64.585 30.0073 58.0425 23.1123 49.9775 23.1123C45.0518 23.1089 40.4554 25.5861 37.75 29.7023L37.6975 29.6123L33.5575 23.1123L23.625 23.1123L33.0625 37.8923L23.8525 52.3923H33.5L37.6975 45.9448L41.97 52.3923H51.62L42.87 38.6223C42.7248 38.354 42.6459 38.0548 42.64 37.7498C42.6393 35.8049 43.4117 33.9395 44.7869 32.5642C46.1622 31.189 48.0276 30.4166 49.9725 30.4173C54.0275 30.4173 54.705 32.8423 55.58 33.9823C57.3075 36.2323 60.7575 35.2473 60.7575 38.1823C60.7678 38.87 61.1442 39.5001 61.7449 39.835C62.3456 40.17 63.0794 40.159 63.6699 39.8063C64.2604 39.4535 64.6178 38.8125 64.6075 38.1248V38.0948H64.615Z" fill="#002F56"/>
<path d="M64.6248 40.1699C64.7229 40.8554 64.6259 41.5546 64.3448 42.1874C63.7948 43.4599 62.8773 43.0349 62.8773 43.0349C62.8773 43.0349 62.0873 42.6499 62.5673 41.9124C63.0998 41.0899 64.1523 41.1849 64.6248 40.1699Z" fill="#002F56"/>
</g>
<defs>
<clipPath id="clip0_49_1609">
<rect width="64" height="64" fill="white"/>
</clipPath>
</defs>
</svg>
