<svg width="86" height="86" viewBox="0 0 86 86" fill="none" xmlns="http://www.w3.org/2000/svg">
<g clip-path="url(#clip0_49_1609)">
<path d="M42.8925 50.9248L31.7427 33.4963L31.7259 48.1398L12.5103 15.7891H-1.00781V70.4024H12.3591L12.4028 38.092L31.4202 68.9545L42.8925 50.9248Z" fill="#002F56"/>
<path d="M31.746 29.8279H45.0962L45.1264 29.6734V15.7891H31.7595L31.7427 29.6734L31.746 29.8279Z" fill="#002F56"/>
<path d="M65.7297 44.9682C62.5315 44.9075 59.6421 46.8684 58.5171 49.8628C60.3899 47.0621 63.9558 45.9367 67.0969 47.1551C68.5482 47.7464 70.4563 48.7004 71.968 48.1898C70.5303 46.1721 68.2072 44.9724 65.7297 44.9682Z" fill="#96D8E9"/>
<path d="M80.8769 51.5391C80.8769 49.9031 79.9867 49.5235 78.139 48.8516C76.7684 48.3746 75.213 47.8371 74.0809 46.359C73.8592 46.0667 73.6543 45.7375 73.4359 45.3881C72.9467 44.4832 72.2834 43.6841 71.4841 43.0366C70.4057 42.2438 68.9914 41.8574 67.1572 41.8574C63.4768 41.86 60.1611 44.0815 58.7588 47.4844C60.5315 45.0246 63.4776 43.6918 66.4955 43.9844C69.5133 44.277 72.1485 46.1509 73.4157 48.9054C74.0489 49.9501 75.2974 50.449 76.4761 50.1282C78.2801 49.7419 78.1558 51.4484 80.8803 52.0263L80.8769 51.5391Z" fill="#48C4E5"/>
<path d="M86.8264 51.1904V51.1534C86.7861 40.3228 77.9946 31.0576 67.1573 31.0576C60.5383 31.053 54.362 34.3817 50.7266 39.9129L50.656 39.792L45.0929 31.0576L31.7461 31.0576L44.4277 50.9182L32.0518 70.4026H45.0156L50.656 61.7388L56.3972 70.4026H69.3644L57.6066 51.8992C57.4114 51.5387 57.3054 51.1366 57.2975 50.7268C57.2966 48.1133 58.3344 45.6066 60.1824 43.7586C62.0304 41.9106 64.5371 40.8728 67.1505 40.8737C72.5995 40.8737 73.5098 44.1323 74.6856 45.6642C77.007 48.6876 81.6429 47.364 81.6429 51.3079C81.6567 52.2321 82.1625 53.0787 82.9697 53.5288C83.7769 53.9789 84.763 53.9642 85.5564 53.4901C86.3499 53.0161 86.8301 52.1548 86.8163 51.2307V51.1904H86.8264Z" fill="#002F56"/>
<path d="M86.8399 53.9785C86.9717 54.8996 86.8413 55.8392 86.4636 56.6895C85.7246 58.3995 84.4917 57.8284 84.4917 57.8284C84.4917 57.8284 83.4301 57.311 84.0751 56.32C84.7907 55.2148 86.205 55.3424 86.8399 53.9785Z" fill="#002F56"/>
</g>
<defs>
<clipPath id="clip0_49_1609">
<rect width="86" height="86" fill="white"/>
</clipPath>
</defs>
</svg>
