<svg width="64" height="64" viewBox="0 0 64 64" fill="none" xmlns="http://www.w3.org/2000/svg">
<path d="M46.7397 39.5616L48.5442 34.9984H53.7545L51.2818 28.0763L54.3743 20.2559L63.2319 43.7737H56.6997L55.1861 39.5616H46.7397Z" fill="#3D3D3D"/>
<path d="M41.1672 43.7737L50.6495 20.2559L44.3631 20.2559L37.8767 35.4537L33.2642 20.2559H28.4322L23.4796 35.4537L19.9869 28.5284L16.8262 38.266L20.0353 43.7737H26.2219L30.6973 30.1446L34.9643 43.7737H41.1672Z" fill="#5A0FC8"/>
<path d="M6.7353 35.7004H10.6074C11.7803 35.7004 12.8248 35.5695 13.7407 35.3077L14.7421 32.2226L17.5408 23.6004C17.3276 23.2624 17.0841 22.9428 16.8104 22.6417C15.3735 21.0511 13.2711 20.2559 10.5032 20.2559H0.768066V43.7737H6.7353V35.7004ZM11.8606 25.6664C12.4219 26.2313 12.7025 26.9872 12.7025 27.9342C12.7025 28.8885 12.4557 29.6454 11.9621 30.2048C11.421 30.8264 10.4246 31.1372 8.97299 31.1372H6.7353V24.819H8.98944C10.3423 24.819 11.2994 25.1014 11.8606 25.6664Z" fill="#3D3D3D"/>
</svg>
