<svg width="86" height="86" viewBox="0 0 86 86" fill="none" xmlns="http://www.w3.org/2000/svg">
<path d="M62.8066 53.1608L65.2314 47.029H72.2327L68.9101 37.7275L73.0656 27.2188L84.968 58.8208H76.1904L74.1565 53.1608H62.8066Z" fill="#3D3D3D"/>
<path d="M55.3186 58.8209L68.0604 27.2188L59.6131 27.2188L50.897 47.6408L44.6989 27.2188H38.2059L31.5509 47.6408L26.8576 38.3349L22.6104 51.4199L26.9226 58.8209H35.2358L41.2496 40.5068L46.9835 58.8209H55.3186Z" fill="#5A0FC8"/>
<path d="M9.05069 47.9724H14.2538C15.8299 47.9724 17.2334 47.7965 18.4643 47.4446L19.8099 43.2991L23.5706 31.7129C23.284 31.2587 22.9569 30.8293 22.5892 30.4247C20.6582 28.2874 17.8331 27.2188 14.1138 27.2188H1.03223V58.8208H9.05069V47.9724ZM15.9378 34.4891C16.6921 35.2482 17.0691 36.264 17.0691 37.5366C17.0691 38.8189 16.7375 39.836 16.0742 40.5877C15.3471 41.423 14.0082 41.8406 12.0576 41.8406H9.05069V33.3504H12.0797C13.8976 33.3504 15.1837 33.73 15.9378 34.4891Z" fill="#3D3D3D"/>
</svg>
