<svg width="86" height="86" viewBox="0 0 86 86" fill="none" xmlns="http://www.w3.org/2000/svg">
<path d="M8.12281 53.4487C6.50554 48.4103 6.03902 43.092 6.97206 37.6182C7.37638 35.3478 7.99841 33.1707 8.68264 30.9625C8.68264 30.9625 12.9746 16.8735 27.499 10.4356C27.499 10.4356 32.5063 7.79194 40.0328 7.60533C40.0328 7.60533 39.0065 6.61008 38.3533 6.17467C34.8078 3.81096 29.5206 3.03343 26.3171 6.36127C25.353 7.35652 24.5443 8.44507 23.6424 9.44031C22.616 10.56 21.372 11.493 19.9413 12.0217C18.6973 12.4882 17.4532 12.3949 16.1781 12.6126C14.8718 12.8304 13.5344 13.2969 12.477 14.1366C11.3263 15.0697 10.8597 16.3137 10.7353 17.7444C10.6109 18.864 10.642 20.0148 10.5798 21.1344C10.4243 24.4312 9.36687 25.3642 7.00316 27.1992C6.00792 27.9456 5.16818 28.9409 4.54615 29.9983C2.68007 33.2951 5.6658 36.7162 5.82131 40.0441C5.85241 40.7283 5.79021 41.4125 5.5414 42.0656C5.29259 42.781 4.79497 43.2475 4.39065 43.8384C3.83082 44.616 3.45761 45.549 3.61311 46.5131C3.76862 47.4773 4.26624 48.3792 4.73276 49.219C5.6347 50.7118 6.75435 52.0492 7.9362 53.3243C7.99841 53.3243 8.06061 53.3865 8.12281 53.4487Z" fill="#E32286"/>
<path d="M67.4642 65.3914C74.6175 62.2813 77.6655 56.9007 77.6655 56.9007C84.3523 47.788 82.0819 38.1777 82.0819 38.1777C77.821 47.4459 73.9333 49.9962 73.9333 49.9962C84.4145 34.0412 73.9955 24.3998 73.9955 24.3998C78.2564 33.4814 72.5959 44.5535 72.5959 44.5535C67.8374 54.5681 61.0884 58.1448 61.0884 58.1448C68.615 59.5443 74.151 54.4748 74.151 54.4748C63.3588 66.1378 51.6647 65.578 51.6647 65.578C56.5787 71.0829 63.9498 70.6164 63.9498 70.6164C54.3083 72.8868 45.2578 69.6834 37.8246 63.4942C36.4251 62.3435 35.0877 61.0994 33.8436 59.762C33.8436 59.762 32.724 58.5802 32.5063 58.2692L32.4752 58.2381C32.3197 63.9918 38.3222 69.3413 38.3222 69.3413C30.7957 66.2311 27.3435 59.4821 27.3435 59.4821C27.3435 59.4821 22.2739 50.8359 25.9439 40.9768C29.6139 31.1177 40.717 29.0028 40.717 29.0028C49.8919 33.4503 57.6673 34.8498 57.6673 34.8498C74.0577 37.5868 73.1247 29.5626 73.1247 29.5626C73.2802 22.6581 62.8612 15.3182 62.8612 15.3182C44.2937 1.54028 27.499 10.4353 27.499 10.4353C12.9746 16.8733 8.68263 30.9622 8.68263 30.9622C7.9984 33.1704 7.37638 35.3475 6.97206 37.6179C5.38589 46.855 7.78069 55.5945 12.9746 63.3698C21.061 75.4371 34.1858 79.6047 34.1858 79.6047C53.6241 86.1982 66.9044 76.4946 66.9044 76.4946C79.1272 68.0972 81.5842 58.3936 81.5842 58.3936C71.7251 66.1067 67.4642 65.3914 67.4642 65.3914ZM52.2868 20.0145C53.2198 20.0145 53.9662 20.7609 53.9662 21.694C53.9662 22.627 53.2198 23.3734 52.2868 23.3734C51.3537 23.3734 50.6073 22.627 50.6073 21.694C50.6073 20.7609 51.3537 20.0145 52.2868 20.0145Z" fill="url(#paint0_linear_49_1666)"/>
<path d="M73.0937 29.5322C73.2492 22.6277 62.8303 15.2878 62.8303 15.2878C44.2627 1.54097 27.468 10.436 27.468 10.436C12.9437 16.8739 8.65168 30.9629 8.65168 30.9629C7.81195 33.3577 7.06551 37.0276 7.06551 37.0276C6.16357 41.6306 6.56789 45.8915 6.56789 45.8915C6.94111 49.9658 7.84305 52.7027 7.84305 52.7027C8.77609 55.6262 9.21151 56.5282 9.21151 56.5282C9.18041 56.4349 9.0249 55.7507 9.0249 55.7507C9.0249 55.7507 7.71864 49.4682 8.9316 43.4345C8.9316 43.4345 9.98904 37.152 14.281 32.3002C14.281 32.3002 21.2477 22.3789 34.217 26.2666C34.217 26.2666 37.0161 27.2618 37.9803 27.7594C38.9444 28.2259 40.6239 28.9413 40.6239 28.9413C49.7988 33.3888 57.5741 34.7883 57.5741 34.7883C74.0268 37.5564 73.0937 29.5322 73.0937 29.5322ZM52.2869 23.4052C51.3539 23.4052 50.6074 22.6588 50.6074 21.7258C50.6074 20.7927 51.3539 20.0463 52.2869 20.0463C53.2199 20.0463 53.9664 20.7927 53.9664 21.7258C53.9664 22.6588 53.2199 23.4052 52.2869 23.4052Z" fill="url(#paint1_radial_49_1666)"/>
<path d="M41.65 17.0289L31.0444 13.7322C30.9822 13.7322 30.6712 13.5767 30.1114 13.7322C30.1114 13.7322 23.86 15.3184 24.9486 18.7395C24.9486 18.7395 25.6017 20.8855 27.3745 22.9693L39.0375 22.4095L41.65 17.0289Z" fill="url(#paint2_linear_49_1666)"/>
<defs>
<linearGradient id="paint0_linear_49_1666" x1="15.5548" y1="75.9662" x2="54.2561" y2="34.7948" gradientUnits="userSpaceOnUse">
<stop stop-color="#E01D84"/>
<stop offset="0.401" stop-color="#DF1D85"/>
<stop offset="0.77" stop-color="#932C87"/>
<stop offset="1" stop-color="#5D2F88"/>
</linearGradient>
<radialGradient id="paint1_radial_49_1666" cx="0" cy="0" r="1" gradientUnits="userSpaceOnUse" gradientTransform="translate(58.1513 23.8728) rotate(0.136937) scale(37.8138 31.6199)">
<stop stop-color="#E01D84"/>
<stop offset="0.139" stop-color="#DE1E85"/>
<stop offset="0.285" stop-color="#D62085"/>
<stop offset="0.434" stop-color="#C92386"/>
<stop offset="0.586" stop-color="#B72786"/>
<stop offset="0.739" stop-color="#9D2B87"/>
<stop offset="0.891" stop-color="#7C2E88"/>
<stop offset="1" stop-color="#5D2F88"/>
</radialGradient>
<linearGradient id="paint2_linear_49_1666" x1="24.7968" y1="18.3153" x2="41.641" y2="18.3153" gradientUnits="userSpaceOnUse">
<stop stop-color="#E01D84"/>
<stop offset="0.238" stop-color="#DA1E85"/>
<stop offset="0.658" stop-color="#C72085"/>
<stop offset="0.999" stop-color="#B52284"/>
</linearGradient>
</defs>
</svg>
