<svg width="64" height="64" viewBox="0 0 64 64" fill="none" xmlns="http://www.w3.org/2000/svg">
<path d="M6.04505 39.7761C4.8415 36.0266 4.49432 32.0688 5.18868 27.9952C5.48957 26.3056 5.95247 24.6855 6.46167 23.0421C6.46167 23.0421 9.65571 12.5574 20.4645 7.76631C20.4645 7.76631 24.1909 5.79897 29.792 5.6601C29.792 5.6601 29.0282 4.91945 28.5422 4.59542C25.9036 2.83638 21.969 2.25775 19.585 4.73429C18.8675 5.47494 18.2657 6.28502 17.5945 7.02566C16.8307 7.85889 15.9049 8.55325 14.8402 8.94672C13.9144 9.29389 12.9886 9.22446 12.0397 9.38648C11.0676 9.54849 10.0723 9.89567 9.28538 10.5206C8.42901 11.2149 8.08183 12.1408 7.98925 13.2054C7.89667 14.0387 7.91982 14.895 7.87352 15.7283C7.7578 18.1817 6.97086 18.876 5.21183 20.2416C4.47118 20.7971 3.84626 21.5377 3.38336 22.3246C1.99464 24.778 4.21658 27.324 4.33231 29.8005C4.35545 30.3097 4.30916 30.8189 4.124 31.305C3.93884 31.8373 3.56852 32.1845 3.26763 32.6243C2.85102 33.2029 2.57327 33.8972 2.689 34.6147C2.80473 35.3322 3.17505 36.0035 3.52223 36.6284C4.19344 37.7394 5.02666 38.7346 5.90618 39.6835C5.95247 39.6835 5.99876 39.7298 6.04505 39.7761Z" fill="#E32286"/>
<path d="M50.2061 48.6639C55.5295 46.3494 57.7977 42.3453 57.7977 42.3453C62.7739 35.5637 61.0843 28.4118 61.0843 28.4118C57.9134 35.3091 55.0203 37.207 55.0203 37.207C62.8202 25.3335 55.0665 18.1585 55.0665 18.1585C58.2374 24.9169 54.025 33.1566 54.025 33.1566C50.4838 40.6094 45.4613 43.2711 45.4613 43.2711C51.0624 44.3126 55.1823 40.5399 55.1823 40.5399C47.1509 49.2194 38.4483 48.8028 38.4483 48.8028C42.1052 52.8995 47.5907 52.5523 47.5907 52.5523C40.4156 54.2419 33.6804 51.8579 28.1487 47.252C27.1071 46.3957 26.1119 45.4699 25.1861 44.4746C25.1861 44.4746 24.3529 43.5951 24.1908 43.3636L24.1677 43.3405C24.052 47.6224 28.519 51.6033 28.519 51.6033C22.9179 49.2888 20.3487 44.2663 20.3487 44.2663C20.3487 44.2663 16.5761 37.8319 19.3072 30.4949C22.0383 23.1579 30.3012 21.584 30.3012 21.584C37.129 24.8938 42.9153 25.9353 42.9153 25.9353C55.1128 27.9721 54.4185 22.0006 54.4185 22.0006C54.5342 16.8624 46.7806 11.4001 46.7806 11.4001C32.9629 1.1468 20.4645 7.76633 20.4645 7.76633C9.65566 12.5574 6.46162 23.0422 6.46162 23.0422C5.95243 24.6855 5.48952 26.3056 5.18863 27.9952C4.00823 34.8694 5.79041 41.3732 9.65566 47.1595C15.6734 56.1398 25.4407 59.2413 25.4407 59.2413C39.9064 64.148 49.7894 56.9267 49.7894 56.9267C58.8855 50.6775 60.714 43.4562 60.714 43.4562C53.3769 49.1962 50.2061 48.6639 50.2061 48.6639ZM38.9112 14.895C39.6056 14.895 40.161 15.4505 40.161 16.1449C40.161 16.8392 39.6056 17.3947 38.9112 17.3947C38.2168 17.3947 37.6614 16.8392 37.6614 16.1449C37.6614 15.4505 38.2168 14.895 38.9112 14.895Z" fill="url(#paint0_linear_49_1666)"/>
<path d="M54.3951 21.9767C54.5109 16.8385 46.7572 11.3762 46.7572 11.3762C32.9395 1.14606 20.4411 7.76559 20.4411 7.76559C9.63232 12.5566 6.43828 23.0414 6.43828 23.0414C5.81336 24.8236 5.25788 27.5547 5.25788 27.5547C4.58666 30.9802 4.88755 34.1511 4.88755 34.1511C5.16529 37.1831 5.83651 39.2199 5.83651 39.2199C6.53086 41.3956 6.85489 42.0668 6.85489 42.0668C6.83175 41.9974 6.71602 41.4882 6.71602 41.4882C6.71602 41.4882 5.74392 36.8128 6.64659 32.3227C6.64659 32.3227 7.43352 27.6473 10.6276 24.0367C10.6276 24.0367 15.8121 16.6534 25.4636 19.5465C25.4636 19.5465 27.5467 20.2871 28.2642 20.6575C28.9817 21.0046 30.2316 21.537 30.2316 21.537C37.0594 24.8468 42.8457 25.8883 42.8457 25.8883C55.0895 27.9482 54.3951 21.9767 54.3951 21.9767ZM38.911 17.4171C38.2166 17.4171 37.6612 16.8617 37.6612 16.1673C37.6612 15.4729 38.2166 14.9175 38.911 14.9175C39.6054 14.9175 40.1608 15.4729 40.1608 16.1673C40.1608 16.8617 39.6054 17.4171 38.911 17.4171Z" fill="url(#paint1_radial_49_1666)"/>
<path d="M30.9954 12.6728L23.1029 10.2194C23.0566 10.2194 22.8251 10.1037 22.4085 10.2194C22.4085 10.2194 17.7563 11.3998 18.5664 13.9458C18.5664 13.9458 19.0525 15.5428 20.3717 17.0935L29.0512 16.6769L30.9954 12.6728Z" fill="url(#paint2_linear_49_1666)"/>
<defs>
<linearGradient id="paint0_linear_49_1666" x1="11.5758" y1="56.5335" x2="40.3767" y2="25.8943" gradientUnits="userSpaceOnUse">
<stop stop-color="#E01D84"/>
<stop offset="0.401" stop-color="#DF1D85"/>
<stop offset="0.77" stop-color="#932C87"/>
<stop offset="1" stop-color="#5D2F88"/>
</linearGradient>
<radialGradient id="paint1_radial_49_1666" cx="0" cy="0" r="1" gradientUnits="userSpaceOnUse" gradientTransform="translate(43.2752 17.7651) rotate(0.136937) scale(28.1405 23.5311)">
<stop stop-color="#E01D84"/>
<stop offset="0.139" stop-color="#DE1E85"/>
<stop offset="0.285" stop-color="#D62085"/>
<stop offset="0.434" stop-color="#C92386"/>
<stop offset="0.586" stop-color="#B72786"/>
<stop offset="0.739" stop-color="#9D2B87"/>
<stop offset="0.891" stop-color="#7C2E88"/>
<stop offset="1" stop-color="#5D2F88"/>
</radialGradient>
<linearGradient id="paint2_linear_49_1666" x1="18.4535" y1="13.6301" x2="30.9887" y2="13.6301" gradientUnits="userSpaceOnUse">
<stop stop-color="#E01D84"/>
<stop offset="0.238" stop-color="#DA1E85"/>
<stop offset="0.658" stop-color="#C72085"/>
<stop offset="0.999" stop-color="#B52284"/>
</linearGradient>
</defs>
</svg>
