<svg width="938" height="1397" viewBox="0 0 938 1397" fill="none" xmlns="http://www.w3.org/2000/svg">
<g id="Frame" clip-path="url(#clip0_9_2)">
<g id="Group" filter="url(#filter0_d_9_2)">
<g id="Mask group">
<mask id="mask0_9_2" style="mask-type:alpha" maskUnits="userSpaceOnUse" x="240" y="226" width="422" height="340">
<g id="Group_2">
<path id="Vector" d="M662 226H240V566H662V226Z" fill="white"/>
<path id="Vector_2" fill-rule="evenodd" clip-rule="evenodd" d="M437 241H247C245.409 241 243.883 241.632 242.757 242.757C241.632 243.883 241 245.409 241 247V545C241 546.591 241.632 548.117 242.757 549.243C243.883 550.368 245.409 551 247 551H437C437 558.732 443.268 565 451 565C458.732 565 465 558.732 465 551H655C656.591 551 658.117 550.368 659.243 549.243C660.368 548.117 661 546.591 661 545V247C661 245.409 660.368 243.883 659.243 242.757C658.117 241.632 656.591 241 655 241H465C465 233.268 458.732 227 451 227C443.268 227 437 233.268 437 241ZM451 247C452.857 247 454.637 246.262 455.95 244.95C457.263 243.637 458 241.857 458 240C458 238.143 457.263 236.363 455.95 235.05C454.637 233.738 452.857 233 451 233C449.143 233 447.363 233.738 446.05 235.05C444.737 236.363 444 238.143 444 240C444 241.857 444.737 243.637 446.05 244.95C447.363 246.262 449.143 247 451 247ZM458 551C458 552.857 457.263 554.637 455.95 555.95C454.637 557.263 452.857 558 451 558C449.143 558 447.363 557.263 446.05 555.95C444.737 554.637 444 552.857 444 551C444 549.143 444.737 547.363 446.05 546.05C447.363 544.737 449.143 544 451 544C452.857 544 454.637 544.737 455.95 546.05C457.263 547.363 458 549.143 458 551Z" fill="black"/>
</g>
</mask>
<g mask="url(#mask0_9_2)">
<g id="Group_3">
<path id="Vector_3" fill-rule="evenodd" clip-rule="evenodd" d="M437 241H247C245.409 241 243.883 241.632 242.757 242.757C241.632 243.883 241 245.409 241 247V545C241 546.591 241.632 548.117 242.757 549.243C243.883 550.368 245.409 551 247 551H437C437 558.732 443.268 565 451 565C458.732 565 465 558.732 465 551H655C656.591 551 658.117 550.368 659.243 549.243C660.368 548.117 661 546.591 661 545V247C661 245.409 660.368 243.883 659.243 242.757C658.117 241.632 656.591 241 655 241H465C465 233.268 458.732 227 451 227C443.268 227 437 233.268 437 241ZM451 247C452.857 247 454.637 246.262 455.95 244.95C457.263 243.637 458 241.857 458 240C458 238.143 457.263 236.363 455.95 235.05C454.637 233.738 452.857 233 451 233C449.143 233 447.363 233.738 446.05 235.05C444.737 236.363 444 238.143 444 240C444 241.857 444.737 243.637 446.05 244.95C447.363 246.262 449.143 247 451 247ZM458 551C458 552.857 457.263 554.637 455.95 555.95C454.637 557.263 452.857 558 451 558C449.143 558 447.363 557.263 446.05 555.95C444.737 554.637 444 552.857 444 551C444 549.143 444.737 547.363 446.05 546.05C447.363 544.737 449.143 544 451 544C452.857 544 454.637 544.737 455.95 546.05C457.263 547.363 458 549.143 458 551Z" fill="white"/>
<path id="Vector_4" d="M437 241V242H438V241H437ZM437 551H438V550H437V551ZM465 551V550H464V551H465ZM465 241H464V242H465V241ZM247 242H437V240H247V242ZM242 247C242 245.674 242.527 244.402 243.464 243.464C244.402 242.527 245.674 242 247 242V240C245.143 240 243.363 240.738 242.05 242.05C240.737 243.363 240 245.143 240 247H242ZM242 545V247H240V545H242ZM247 550C245.674 550 244.402 549.473 243.464 548.536C242.527 547.598 242 546.326 242 545H240C240 546.857 240.737 548.637 242.05 549.95C243.363 551.263 245.143 552 247 552V550ZM437 550H247V552H437V550ZM451 564C443.82 564 438 558.18 438 551H436C436 559.284 442.716 566 451 566V564ZM464 551C464 558.18 458.18 564 451 564V566C459.284 566 466 559.284 466 551H464ZM655 550H465V552H655V550ZM660 545C660 546.326 659.473 547.598 658.536 548.536C657.598 549.473 656.326 550 655 550V552C656.857 552 658.637 551.263 659.95 549.95C661.263 548.637 662 546.857 662 545H660ZM660 247V545H662V247H660ZM655 242C656.326 242 657.598 242.527 658.536 243.464C659.473 244.402 660 245.674 660 247H662C662 245.143 661.263 243.363 659.95 242.05C658.637 240.738 656.857 240 655 240V242ZM465 242H655V240H465V242ZM451 228C458.18 228 464 233.82 464 241H466C466 232.716 459.284 226 451 226V228ZM438 241C438 233.82 443.82 228 451 228V226C442.716 226 436 232.716 436 241H438ZM457 240C457 241.591 456.368 243.117 455.243 244.243C454.117 245.368 452.591 246 451 246V248C453.122 248 455.157 247.157 456.657 245.657C458.157 244.157 459 242.122 459 240H457ZM451 234C452.591 234 454.117 234.632 455.243 235.757C456.368 236.883 457 238.409 457 240H459C459 237.878 458.157 235.843 456.657 234.343C455.157 232.843 453.122 232 451 232V234ZM445 240C445 238.409 445.632 236.883 446.757 235.757C447.883 234.632 449.409 234 451 234V232C448.878 232 446.843 232.843 445.343 234.343C443.843 235.843 443 237.878 443 240H445ZM451 246C449.409 246 447.883 245.368 446.757 244.243C445.632 243.117 445 241.591 445 240H443C443 242.122 443.843 244.157 445.343 245.657C446.843 247.157 448.878 248 451 248V246ZM451 559C453.122 559 455.157 558.157 456.657 556.657C458.157 555.157 459 553.122 459 551H457C457 552.591 456.368 554.117 455.243 555.243C454.117 556.368 452.591 557 451 557V559ZM443 551C443 553.122 443.843 555.157 445.343 556.657C446.843 558.157 448.878 559 451 559V557C449.409 557 447.883 556.368 446.757 555.243C445.632 554.117 445 552.591 445 551H443ZM451 543C448.878 543 446.843 543.843 445.343 545.343C443.843 546.843 443 548.878 443 551H445C445 549.409 445.632 547.883 446.757 546.757C447.883 545.632 449.409 545 451 545V543ZM459 551C459 548.878 458.157 546.843 456.657 545.343C455.157 543.843 453.122 543 451 543V545C452.591 545 454.117 545.632 455.243 546.757C456.368 547.883 457 549.409 457 551H459Z" fill="#1B1F23" fill-opacity="0.05"/>
<path id="Vector_5" d="M241 501H661" stroke="#EAECEF" stroke-miterlimit="10"/>
<path id="Vector_6" d="M241 331H661" stroke="#EAECEF" stroke-miterlimit="10"/>
<g id="Group_4" filter="url(#filter1_i_9_2)">
<path id="Vector_7" d="M607.999 315C624.014 315 636.997 302.016 636.997 286C636.997 269.984 624.014 257 607.999 257C591.983 257 579 269.984 579 286C579 302.016 591.983 315 607.999 315Z" fill="white"/>
</g>
<path id="Vector_8" d="M636.497 286C636.497 301.74 623.738 314.5 607.999 314.5C592.259 314.5 579.5 301.74 579.5 286C579.5 270.26 592.259 257.5 607.999 257.5C623.738 257.5 636.497 270.26 636.497 286Z" stroke="#1B1F23" stroke-opacity="0.02"/>
</g>
</g>
</g>
<path id="Vector_9" d="M272 276H465M272 296H375" stroke="#E1E4E8" stroke-opacity="0.7" stroke-width="5" stroke-linecap="round"/>
</g>
<g id="Frame_2">
<path id="Vector_10" fill-rule="evenodd" clip-rule="evenodd" d="M462.166 352.5C461.261 352.5 460.421 352.694 459.646 352.952C461.294 354.051 462.198 355.505 462.651 357.153C462.683 357.379 462.748 357.54 462.78 357.766C462.812 357.96 462.845 358.154 462.845 358.348C462.974 361.191 462.101 361.547 461.488 363.227C460.551 365.392 460.809 367.718 461.94 369.592C462.037 369.818 462.166 370.076 462.328 370.303C461.1 362.128 467.917 360.901 469.177 358.348C469.274 356.119 467.433 354.632 465.979 353.599C464.589 352.758 463.329 352.5 462.166 352.5ZM472.441 354.342C472.311 355.085 472.408 354.891 472.376 355.279C472.344 355.537 472.344 355.86 472.311 356.119C472.247 356.377 472.182 356.636 472.085 356.894C472.021 357.153 471.924 357.411 471.827 357.67C471.697 357.928 471.601 358.154 471.471 358.413C471.374 358.542 471.31 358.671 471.213 358.8C471.148 358.897 471.084 358.994 471.019 359.091C470.858 359.317 470.696 359.544 470.534 359.737C470.341 359.931 470.179 360.157 469.953 360.319C469.953 360.351 469.953 360.351 469.953 360.351C469.759 360.513 469.565 360.707 469.339 360.868C468.66 361.385 467.885 361.773 467.174 362.258C466.948 362.419 466.722 362.548 466.528 362.742C466.302 362.904 466.108 363.065 465.914 363.259C465.688 363.453 465.526 363.647 465.333 363.873C465.171 364.067 464.977 364.293 464.848 364.519C464.686 364.745 464.525 364.972 464.396 365.198C464.266 365.456 464.169 365.682 464.04 365.941C463.943 366.199 463.846 366.426 463.782 366.684C463.685 366.975 463.62 367.233 463.555 367.492C463.523 367.621 463.523 367.783 463.491 367.912C463.459 368.041 463.459 368.17 463.426 368.3C463.426 368.558 463.394 368.849 463.394 369.107C463.394 369.301 463.394 369.495 463.426 369.689C463.426 369.947 463.459 370.206 463.523 370.497C463.556 370.755 463.62 371.014 463.685 371.272C463.782 371.53 463.846 371.789 463.943 372.048C464.008 372.209 464.105 372.371 464.17 372.5L456.738 369.624C455.478 369.269 454.25 368.946 452.99 368.655C452.312 368.493 451.633 368.332 450.955 368.17C449.016 367.783 447.045 367.492 445.074 367.298C445.01 367.298 444.977 367.266 444.913 367.266C442.974 367.072 441.068 366.975 439.129 366.975C437.708 366.975 436.286 367.039 434.897 367.136C432.926 367.266 430.955 367.524 428.984 367.847C428.5 367.912 428.015 368.009 427.53 368.106C426.529 368.3 425.559 368.526 424.622 368.752C424.138 368.881 423.653 369.01 423.168 369.14C422.684 369.333 422.231 369.56 421.779 369.753C421.424 369.915 421.068 370.076 420.713 370.238C420.648 370.27 420.583 370.27 420.551 370.303C420.228 370.464 419.937 370.593 419.647 370.755C419.55 370.787 419.485 370.82 419.42 370.852C419.065 371.013 418.71 371.207 418.419 371.369C418.193 371.466 417.966 371.595 417.773 371.692C417.676 371.757 417.546 371.821 417.482 371.854C417.191 372.015 416.9 372.177 416.642 372.338C416.351 372.5 416.092 372.661 415.866 372.823C415.64 372.984 415.414 373.114 415.22 373.275C415.188 373.307 415.156 373.308 415.123 373.34C414.929 373.469 414.703 373.631 414.509 373.792C414.509 373.792 414.477 373.824 414.445 373.857C414.283 373.986 414.122 374.115 413.96 374.244C413.895 374.277 413.831 374.341 413.766 374.374C413.605 374.503 413.443 374.664 413.282 374.794C413.249 374.858 413.185 374.891 413.152 374.923C412.958 375.117 412.765 375.278 412.571 375.472C412.538 375.472 412.538 375.505 412.506 375.537C412.312 375.698 412.119 375.892 411.925 376.086C411.892 376.118 411.892 376.151 411.86 376.151C411.698 376.312 411.537 376.474 411.375 376.668C411.311 376.732 411.214 376.797 411.149 376.861C410.988 377.055 410.794 377.249 410.6 377.443C410.568 377.508 410.503 377.54 410.471 377.605C410.212 377.863 409.986 378.122 409.728 378.38C409.695 378.412 409.663 378.445 409.631 378.477C409.114 379.026 408.564 379.575 407.983 380.06C407.401 380.577 406.787 381.062 406.174 381.482C405.527 381.934 404.913 382.322 404.235 382.709C403.589 383.065 402.91 383.388 402.199 383.679C401.521 383.97 400.81 384.228 400.099 384.454C398.742 384.745 397.353 385.294 396.157 385.391C395.899 385.391 395.608 385.456 395.35 385.488C395.059 385.553 394.8 385.617 394.542 385.682C394.283 385.779 394.025 385.876 393.766 385.973C393.508 386.07 393.25 386.199 392.991 386.328C392.765 386.49 392.506 386.619 392.28 386.781C392.054 386.942 391.828 387.136 391.634 387.33C391.408 387.491 391.182 387.718 390.988 387.911C390.794 388.138 390.6 388.331 390.439 388.558C390.277 388.816 390.083 389.042 389.954 389.301C389.792 389.527 389.631 389.785 389.502 390.044C389.372 390.335 389.243 390.593 389.146 390.884C389.049 391.142 388.952 391.433 388.855 391.724C388.791 391.982 388.726 392.241 388.694 392.499C388.694 392.532 388.662 392.564 388.662 392.596C388.597 392.887 388.597 393.275 388.565 393.469C388.532 393.695 388.5 393.889 388.5 394.115C388.5 394.244 388.5 394.406 388.532 394.535C388.565 394.761 388.597 394.955 388.662 395.149C388.726 395.343 388.791 395.537 388.888 395.73C388.888 395.763 388.888 395.763 388.888 395.763C388.985 395.957 389.114 396.151 389.243 396.344C389.373 396.538 389.502 396.732 389.663 396.926C389.825 397.087 390.019 397.281 390.213 397.443C390.406 397.637 390.6 397.798 390.826 397.96C391.602 398.638 391.796 398.864 392.797 399.381C392.959 399.478 393.12 399.543 393.314 399.64C393.347 399.64 393.379 399.672 393.411 399.672C393.411 399.737 393.411 399.769 393.444 399.834C393.476 400.092 393.54 400.351 393.605 400.609C393.67 400.9 393.767 401.159 393.864 401.385C393.961 401.579 394.025 401.772 394.122 401.966C394.154 402.031 394.187 402.096 394.219 402.128C394.348 402.386 394.477 402.612 394.607 402.839C394.768 403.065 394.93 403.291 395.091 403.517C395.253 403.711 395.447 403.937 395.641 404.131C395.834 404.325 396.028 404.486 396.255 404.68C396.255 404.68 396.287 404.713 396.319 404.713C396.513 404.874 396.707 405.036 396.901 405.165C397.127 405.327 397.353 405.456 397.611 405.585C397.838 405.714 398.096 405.844 398.355 405.94C398.548 406.037 398.775 406.102 399.001 406.167C399.033 406.199 399.065 406.199 399.13 406.231C399.259 406.264 399.421 406.296 399.55 406.328C399.453 408.073 399.421 409.721 399.679 410.302C399.97 410.948 401.392 408.977 402.814 406.716C402.62 408.945 402.49 411.562 402.814 412.338C403.169 413.145 405.107 410.625 406.788 407.847C429.695 402.548 450.6 418.38 452.797 440.738C452.377 437.249 448.08 435.31 446.109 435.795C445.139 438.186 443.491 441.255 440.842 443.161C441.068 441.029 440.971 438.832 440.519 436.699C439.808 439.672 438.419 442.451 436.512 444.841C433.443 445.068 430.374 443.581 428.758 441.352C428.629 441.255 428.597 441.061 428.5 440.932C428.403 440.706 428.306 440.48 428.241 440.253C428.144 440.027 428.08 439.801 428.047 439.575C428.015 439.349 428.015 439.122 428.015 438.864C428.015 438.702 428.015 438.541 428.015 438.38C428.047 438.153 428.112 437.927 428.177 437.701C428.241 437.475 428.306 437.249 428.403 437.022C428.532 436.796 428.629 436.57 428.791 436.344C429.34 434.793 429.34 433.533 428.338 432.79C428.144 432.661 427.95 432.564 427.724 432.467C427.595 432.434 427.433 432.37 427.304 432.337C427.207 432.305 427.143 432.273 427.046 432.241C426.82 432.176 426.593 432.111 426.367 432.079C426.141 432.014 425.915 431.982 425.689 431.982C425.463 431.95 425.204 431.917 424.978 431.917C424.816 431.917 424.655 431.95 424.493 431.95C424.235 431.95 424.009 431.982 423.782 432.047C423.556 432.079 423.33 432.111 423.104 432.176C422.878 432.241 422.652 432.305 422.425 432.402C422.199 432.499 422.005 432.596 421.779 432.693C421.585 432.79 421.392 432.919 421.165 433.016C413.637 437.927 418.128 449.429 423.266 452.757C421.327 453.113 419.356 453.533 418.807 453.953C418.774 453.985 418.742 454.017 418.742 454.017C420.131 454.857 421.585 455.568 423.104 456.182C425.172 456.861 427.369 457.475 428.338 457.733V457.765C431.02 458.315 433.734 458.509 436.48 458.347C450.793 457.345 462.522 446.457 464.654 432.111C464.719 432.402 464.784 432.661 464.848 432.951C464.945 433.533 465.074 434.147 465.139 434.761C465.139 434.761 465.139 434.761 465.139 434.793C465.204 435.084 465.236 435.375 465.268 435.633C465.268 435.698 465.268 435.73 465.268 435.762C465.301 436.053 465.333 436.344 465.333 436.603C465.365 436.958 465.397 437.313 465.397 437.669C465.397 437.83 465.397 437.992 465.397 438.186C465.397 438.347 465.43 438.541 465.43 438.703C465.43 438.897 465.397 439.09 465.397 439.284C465.397 439.446 465.397 439.607 465.397 439.737C465.397 439.963 465.365 440.157 465.365 440.383C465.365 440.512 465.365 440.641 465.333 440.803C465.333 441.029 465.3 441.255 465.3 441.514C465.268 441.611 465.268 441.708 465.268 441.805C465.236 442.063 465.203 442.289 465.171 442.548C465.171 442.645 465.171 442.741 465.139 442.838C465.106 443.161 465.042 443.452 465.009 443.775V443.808V443.84C464.945 444.131 464.88 444.454 464.816 444.745C464.816 444.777 464.816 444.809 464.816 444.842C464.751 445.133 464.686 445.423 464.622 445.714C464.622 445.746 464.589 445.811 464.589 445.843C464.525 446.134 464.46 446.425 464.363 446.716C464.363 446.748 464.363 446.78 464.363 446.813C464.266 447.136 464.169 447.427 464.105 447.717C464.072 447.75 464.072 447.782 464.072 447.782C463.975 448.105 463.878 448.428 463.782 448.751C463.652 449.074 463.555 449.365 463.426 449.688C463.297 450.011 463.2 450.334 463.071 450.625C462.942 450.948 462.812 451.239 462.683 451.562H462.651C462.521 451.853 462.392 452.176 462.231 452.467C462.198 452.564 462.166 452.628 462.134 452.693C462.101 452.725 462.101 452.758 462.069 452.79C459.969 457.023 456.867 460.738 452.99 463.646C452.732 463.808 452.473 464.001 452.215 464.195C452.15 464.26 452.053 464.292 451.988 464.357C451.762 464.518 451.536 464.68 451.278 464.841L451.374 465.035H451.407C451.859 464.971 452.312 464.906 452.764 464.841H452.796C453.636 464.712 454.476 464.551 455.316 464.389C455.543 464.357 455.801 464.292 456.027 464.228C456.189 464.195 456.318 464.163 456.48 464.131C456.706 464.098 456.932 464.034 457.158 464.001C457.352 463.937 457.546 463.904 457.74 463.84C460.971 463.064 464.105 461.998 467.11 460.738C461.972 467.749 455.09 473.404 447.045 477.119C450.761 476.861 454.476 476.247 458.063 475.213C471.084 471.368 482.037 462.612 488.596 450.819C487.271 458.283 484.298 465.391 479.904 471.594C483.038 469.526 485.914 467.135 488.531 464.421C495.768 456.861 500.518 447.265 502.133 436.958C503.232 442.063 503.555 447.33 503.07 452.531C526.398 419.995 505.009 386.264 496.059 377.379C496.027 377.314 495.995 377.282 495.995 377.217C495.962 377.25 495.962 377.25 495.962 377.282C495.962 377.25 495.962 377.25 495.93 377.217C495.93 377.605 495.897 377.993 495.865 378.38C495.768 379.124 495.671 379.834 495.542 380.545C495.381 381.256 495.187 381.967 494.993 382.678C494.767 383.356 494.508 384.067 494.217 384.745C493.927 385.392 493.603 386.07 493.248 386.716C492.893 387.33 492.505 387.976 492.085 388.558C491.665 389.172 491.213 389.753 490.76 390.303C490.276 390.884 489.759 391.401 489.242 391.918C488.919 392.209 488.628 392.468 488.305 392.726C488.046 392.952 487.82 393.146 487.562 393.372C486.98 393.824 486.398 394.245 485.752 394.632C485.138 395.02 484.492 395.408 483.846 395.731C483.167 396.054 482.489 396.345 481.811 396.635C481.132 396.894 480.421 397.12 479.71 397.314C478.999 397.508 478.256 397.669 477.546 397.799C476.802 397.928 476.059 397.993 475.348 398.057C474.832 398.089 474.315 398.122 473.798 398.122C473.054 398.122 472.311 398.057 471.601 397.992C470.857 397.928 470.114 397.831 469.403 397.669C468.66 397.54 467.95 397.346 467.239 397.12H467.206C467.917 397.055 468.628 396.991 469.339 396.862C470.082 396.732 470.793 396.571 471.504 396.377C472.214 396.183 472.925 395.957 473.604 395.698C474.314 395.44 474.993 395.117 475.639 394.794C476.318 394.471 476.932 394.115 477.578 393.727C478.192 393.307 478.806 392.887 479.387 392.435C479.969 391.983 480.518 391.498 481.035 390.981C481.584 390.496 482.069 389.947 482.553 389.398C483.038 388.816 483.49 388.235 483.911 387.653C483.975 387.556 484.04 387.427 484.104 387.33C484.427 386.813 484.751 386.296 485.041 385.779C485.397 385.133 485.72 384.487 486.011 383.808C486.301 383.13 486.56 382.451 486.786 381.741C487.012 381.062 487.174 380.351 487.335 379.64C487.465 378.897 487.594 378.186 487.658 377.476C487.723 376.732 487.788 375.989 487.788 375.279C487.788 374.762 487.755 374.245 487.723 373.728C487.659 372.985 487.562 372.274 487.465 371.563C487.335 370.82 487.174 370.109 486.98 369.398C486.754 368.72 486.528 368.009 486.269 367.33C486.011 366.652 485.688 365.973 485.365 365.327C485.009 364.681 484.654 364.035 484.266 363.421C483.846 362.807 483.426 362.225 482.974 361.644C482.489 361.095 482.004 360.545 481.487 359.996C481.229 359.738 480.938 359.447 480.647 359.188C479.193 358.057 477.675 356.991 476.156 356.022C475.93 355.893 475.736 355.796 475.51 355.699C474.444 355.02 473.442 354.665 472.441 354.342Z" fill="#E0234E"/>
</g>
<g id="Group_5" filter="url(#filter2_d_9_2)">
<g id="Mask group_2">
<mask id="mask1_9_2" style="mask-type:alpha" maskUnits="userSpaceOnUse" x="0" y="636" width="422" height="340">
<g id="Group_6">
<path id="Vector_11" d="M422 636H0V976H422V636Z" fill="white"/>
<path id="Vector_12" fill-rule="evenodd" clip-rule="evenodd" d="M197 651H7C5.4087 651 3.88257 651.632 2.75735 652.757C1.63214 653.883 1 655.409 1 657V955C1 958.31 3.686 961 7 961H197C197 968.73 203.268 975 211 975C218.732 975 225 968.73 225 961H415C418.314 961 421 958.31 421 955V657C421 655.409 420.368 653.883 419.243 652.757C418.117 651.632 416.591 651 415 651H225C225 643.268 218.732 637 211 637C203.268 637 197 643.268 197 651ZM211 657C212.857 657 214.637 656.263 215.95 654.95C217.262 653.637 218 651.857 218 650C218 648.143 217.262 646.363 215.95 645.05C214.637 643.737 212.857 643 211 643C209.143 643 207.363 643.737 206.05 645.05C204.738 646.363 204 648.143 204 650C204 651.857 204.738 653.637 206.05 654.95C207.363 656.263 209.143 657 211 657ZM218 961C218 964.87 214.866 968 211 968C207.134 968 204 964.87 204 961C204 957.13 207.134 954 211 954C214.866 954 218 957.13 218 961Z" fill="black"/>
</g>
</mask>
<g mask="url(#mask1_9_2)">
<g id="Group_7">
<path id="Vector_13" fill-rule="evenodd" clip-rule="evenodd" d="M197 651H7C5.4087 651 3.88257 651.632 2.75735 652.757C1.63214 653.883 1 655.409 1 657V955C1 958.31 3.686 961 7 961H197C197 968.73 203.268 975 211 975C218.732 975 225 968.73 225 961H415C418.314 961 421 958.31 421 955V657C421 655.409 420.368 653.883 419.243 652.757C418.117 651.632 416.591 651 415 651H225C225 643.268 218.732 637 211 637C203.268 637 197 643.268 197 651ZM211 657C212.857 657 214.637 656.263 215.95 654.95C217.262 653.637 218 651.857 218 650C218 648.143 217.262 646.363 215.95 645.05C214.637 643.737 212.857 643 211 643C209.143 643 207.363 643.737 206.05 645.05C204.738 646.363 204 648.143 204 650C204 651.857 204.738 653.637 206.05 654.95C207.363 656.263 209.143 657 211 657ZM218 961C218 964.87 214.866 968 211 968C207.134 968 204 964.87 204 961C204 957.13 207.134 954 211 954C214.866 954 218 957.13 218 961Z" fill="white"/>
<path id="Vector_14" d="M197 651V652H198V651H197ZM197 961H198V960H197V961ZM225 961V960H224V961H225ZM225 651H224V652H225V651ZM7 652H197V650H7V652ZM2 657C2 655.674 2.5268 654.402 3.46448 653.464C4.40216 652.527 5.67392 652 7 652V650C5.14348 650 3.36302 650.737 2.05026 652.05C0.737508 653.363 0 655.143 0 657H2ZM2 955V657H0V955H2ZM7 960C4.239 960 2 957.76 2 955H0C0 958.87 3.134 962 7 962V960ZM197 960H7V962H197V960ZM211 974C203.82 974 198 968.18 198 961H196C196 969.28 202.716 976 211 976V974ZM224 961C224 968.18 218.18 974 211 974V976C219.284 976 226 969.28 226 961H224ZM415 960H225V962H415V960ZM420 955C420 957.76 417.761 960 415 960V962C418.866 962 422 958.87 422 955H420ZM420 657V955H422V657H420ZM415 652C416.326 652 417.598 652.527 418.536 653.464C419.473 654.402 420 655.674 420 657H422C422 655.143 421.263 653.363 419.95 652.05C418.637 650.737 416.857 650 415 650V652ZM225 652H415V650H225V652ZM211 638C218.18 638 224 643.82 224 651H226C226 642.716 219.284 636 211 636V638ZM198 651C198 643.82 203.82 638 211 638V636C202.716 636 196 642.716 196 651H198ZM217 650C217 651.591 216.368 653.117 215.243 654.243C214.117 655.368 212.591 656 211 656V658C213.122 658 215.157 657.157 216.657 655.657C218.157 654.157 219 652.122 219 650H217ZM211 644C212.591 644 214.117 644.632 215.243 645.757C216.368 646.883 217 648.409 217 650H219C219 647.878 218.157 645.843 216.657 644.343C215.157 642.843 213.122 642 211 642V644ZM205 650C205 648.409 205.632 646.883 206.757 645.757C207.883 644.632 209.409 644 211 644V642C208.878 642 206.843 642.843 205.343 644.343C203.843 645.843 203 647.878 203 650H205ZM211 656C209.409 656 207.883 655.368 206.757 654.243C205.632 653.117 205 651.591 205 650H203C203 652.122 203.843 654.157 205.343 655.657C206.843 657.157 208.878 658 211 658V656ZM211 969C213.122 969 215.157 968.157 216.657 966.657C218.157 965.157 219 963.122 219 961H217C217 964.31 214.314 967 211 967V969ZM203 961C203 963.122 203.843 965.157 205.343 966.657C206.843 968.157 208.878 969 211 969V967C207.686 967 205 964.31 205 961H203ZM211 953C208.878 953 206.843 953.843 205.343 955.343C203.843 956.843 203 958.878 203 961H205C205 957.69 207.686 955 211 955V953ZM219 961C219 958.878 218.157 956.843 216.657 955.343C215.157 953.843 213.122 953 211 953V955C214.314 955 217 957.69 217 961H219Z" fill="#1B1F23" fill-opacity="0.05"/>
<path id="Vector_15" d="M1 911H421" stroke="#EAECEF" stroke-miterlimit="10"/>
<path id="Vector_16" d="M1 741H421" stroke="#EAECEF" stroke-miterlimit="10"/>
<g id="Group_8" filter="url(#filter3_i_9_2)">
<path id="Vector_17" d="M367.999 725C384.014 725 396.997 712.016 396.997 696C396.997 679.984 384.014 667 367.999 667C351.983 667 339 679.984 339 696C339 712.016 351.983 725 367.999 725Z" fill="white"/>
</g>
<path id="Vector_18" d="M396.497 696C396.497 711.74 383.738 724.5 367.999 724.5C352.259 724.5 339.5 711.74 339.5 696C339.5 680.26 352.259 667.5 367.999 667.5C383.738 667.5 396.497 680.26 396.497 696Z" stroke="#1B1F23" stroke-opacity="0.02"/>
</g>
</g>
</g>
<path id="Vector_19" d="M33 687H226M33 707H136" stroke="#E1E4E8" stroke-opacity="0.7" stroke-width="5" stroke-linecap="round"/>
</g>
<g id="Group_9" filter="url(#filter4_d_9_2)">
<path id="Vector_20" d="M691 1153C710.33 1153 726 1137.33 726 1118C726 1098.67 710.33 1083 691 1083C671.67 1083 656 1098.67 656 1118C656 1137.33 671.67 1153 691 1153Z" stroke="white" stroke-width="4" stroke-miterlimit="10" stroke-linecap="round"/>
<path id="Vector_21" d="M691 996V1063" stroke="white" stroke-width="7" stroke-miterlimit="10" stroke-linecap="round" stroke-dasharray="0.5 20"/>
<path id="Vector_22" d="M211 972V1052" stroke="white" stroke-width="4" stroke-miterlimit="10"/>
<path id="Vector_23" d="M691 641C691 576.307 451 625.747 451 561" stroke="white" stroke-width="4" stroke-miterlimit="10"/>
<path id="Vector_24" d="M451 561C451 625.693 211 576.253 211 641" stroke="white" stroke-width="4" stroke-miterlimit="10"/>
<path id="Vector_25" d="M451 152V231" stroke="white" stroke-width="4" stroke-miterlimit="10"/>
</g>
<g id="Group_10" filter="url(#filter5_d_9_2)">
<g id="Mask group_3">
<mask id="mask2_9_2" style="mask-type:alpha" maskUnits="userSpaceOnUse" x="0" y="1047" width="422" height="340">
<g id="Group_11">
<path id="Vector_26" d="M422 1047H0V1387H422V1047Z" fill="white"/>
<path id="Vector_27" fill-rule="evenodd" clip-rule="evenodd" d="M197 1062H7C3.686 1062 1 1064.69 1 1068V1366C1 1369.31 3.686 1372 7 1372H197C197 1379.73 203.268 1386 211 1386C218.732 1386 225 1379.73 225 1372H415C418.314 1372 421 1369.31 421 1366V1068C421 1064.69 418.314 1062 415 1062H225C225 1054.27 218.732 1048 211 1048C203.268 1048 197 1054.27 197 1062ZM211 1068C214.866 1068 218 1064.87 218 1061C218 1057.13 214.866 1054 211 1054C207.134 1054 204 1057.13 204 1061C204 1064.87 207.134 1068 211 1068ZM218 1372C218 1375.87 214.866 1379 211 1379C207.134 1379 204 1375.87 204 1372C204 1368.13 207.134 1365 211 1365C214.866 1365 218 1368.13 218 1372Z" fill="black"/>
</g>
</mask>
<g mask="url(#mask2_9_2)">
<g id="Group_12">
<path id="Vector_28" fill-rule="evenodd" clip-rule="evenodd" d="M197 1062H7C3.686 1062 1 1064.69 1 1068V1366C1 1369.31 3.686 1372 7 1372H197C197 1379.73 203.268 1386 211 1386C218.732 1386 225 1379.73 225 1372H415C418.314 1372 421 1369.31 421 1366V1068C421 1064.69 418.314 1062 415 1062H225C225 1054.27 218.732 1048 211 1048C203.268 1048 197 1054.27 197 1062ZM211 1068C214.866 1068 218 1064.87 218 1061C218 1057.13 214.866 1054 211 1054C207.134 1054 204 1057.13 204 1061C204 1064.87 207.134 1068 211 1068ZM218 1372C218 1375.87 214.866 1379 211 1379C207.134 1379 204 1375.87 204 1372C204 1368.13 207.134 1365 211 1365C214.866 1365 218 1368.13 218 1372Z" fill="white"/>
<path id="Vector_29" d="M197 1062V1063H198V1062H197ZM197 1372H198V1371H197V1372ZM225 1372V1371H224V1372H225ZM225 1062H224V1063H225V1062ZM7 1063H197V1061H7V1063ZM2 1068C2 1065.24 4.239 1063 7 1063V1061C3.134 1061 0 1064.13 0 1068H2ZM2 1366V1068H0V1366H2ZM7 1371C4.239 1371 2 1368.76 2 1366H0C0 1369.87 3.134 1373 7 1373V1371ZM197 1371H7V1373H197V1371ZM211 1385C203.82 1385 198 1379.18 198 1372H196C196 1380.28 202.716 1387 211 1387V1385ZM224 1372C224 1379.18 218.18 1385 211 1385V1387C219.284 1387 226 1380.28 226 1372H224ZM415 1371H225V1373H415V1371ZM420 1366C420 1368.76 417.761 1371 415 1371V1373C418.866 1373 422 1369.87 422 1366H420ZM420 1068V1366H422V1068H420ZM415 1063C417.761 1063 420 1065.24 420 1068H422C422 1064.13 418.866 1061 415 1061V1063ZM225 1063H415V1061H225V1063ZM211 1049C218.18 1049 224 1054.82 224 1062H226C226 1053.72 219.284 1047 211 1047V1049ZM198 1062C198 1054.82 203.82 1049 211 1049V1047C202.716 1047 196 1053.72 196 1062H198ZM217 1061C217 1064.31 214.314 1067 211 1067V1069C213.122 1069 215.157 1068.16 216.657 1066.66C218.157 1065.16 219 1063.12 219 1061H217ZM211 1055C214.314 1055 217 1057.69 217 1061H219C219 1058.88 218.157 1056.84 216.657 1055.34C215.157 1053.84 213.122 1053 211 1053V1055ZM205 1061C205 1057.69 207.686 1055 211 1055V1053C208.878 1053 206.843 1053.84 205.343 1055.34C203.843 1056.84 203 1058.88 203 1061H205ZM211 1067C207.686 1067 205 1064.31 205 1061H203C203 1063.12 203.843 1065.16 205.343 1066.66C206.843 1068.16 208.878 1069 211 1069V1067ZM211 1380C213.122 1380 215.157 1379.16 216.657 1377.66C218.157 1376.16 219 1374.12 219 1372H217C217 1375.31 214.314 1378 211 1378V1380ZM203 1372C203 1374.12 203.843 1376.16 205.343 1377.66C206.843 1379.16 208.878 1380 211 1380V1378C207.686 1378 205 1375.31 205 1372H203ZM211 1364C208.878 1364 206.843 1364.84 205.343 1366.34C203.843 1367.84 203 1369.88 203 1372H205C205 1368.69 207.686 1366 211 1366V1364ZM219 1372C219 1369.88 218.157 1367.84 216.657 1366.34C215.157 1364.84 213.122 1364 211 1364V1366C214.314 1366 217 1368.69 217 1372H219Z" fill="#1B1F23" fill-opacity="0.05"/>
<path id="Vector_30" d="M1 1322H421" stroke="#EAECEF" stroke-miterlimit="10"/>
<path id="Vector_31" d="M1 1152H421" stroke="#EAECEF" stroke-miterlimit="10"/>
<g id="Group_13" filter="url(#filter6_i_9_2)">
<path id="Vector_32" d="M367.999 1136C384.014 1136 396.997 1123.02 396.997 1107C396.997 1090.98 384.014 1078 367.999 1078C351.983 1078 339 1090.98 339 1107C339 1123.02 351.983 1136 367.999 1136Z" fill="white"/>
</g>
<path id="Vector_33" d="M396.497 1107C396.497 1122.74 383.738 1135.5 367.999 1135.5C352.259 1135.5 339.5 1122.74 339.5 1107C339.5 1091.26 352.259 1078.5 367.999 1078.5C383.738 1078.5 396.497 1091.26 396.497 1107Z" stroke="#1B1F23" stroke-opacity="0.02"/>
</g>
</g>
</g>
<path id="Vector_34" d="M33 1098H226M33 1118H136" stroke="#E1E4E8" stroke-opacity="0.7" stroke-width="5" stroke-linecap="round"/>
</g>
<g id="Group_14" filter="url(#filter7_d_9_2)">
<g id="Mask group_4">
<mask id="mask3_9_2" style="mask-type:alpha" maskUnits="userSpaceOnUse" x="480" y="636" width="422" height="340">
<g id="Group_15">
<path id="Vector_35" d="M902 636H480V976H902V636Z" fill="white"/>
<path id="Vector_36" fill-rule="evenodd" clip-rule="evenodd" d="M677 651H487C485.409 651 483.883 651.632 482.757 652.757C481.632 653.883 481 655.409 481 657V955C481 958.31 483.686 961 487 961H677C677 968.73 683.268 975 691 975C698.732 975 705 968.73 705 961H895C898.31 961 901 958.31 901 955V657C901 653.686 898.31 651 895 651H705C705 643.268 698.732 637 691 637C683.268 637 677 643.268 677 651ZM691 657C692.857 657 694.637 656.263 695.95 654.95C697.263 653.637 698 651.857 698 650C698 648.143 697.263 646.363 695.95 645.05C694.637 643.737 692.857 643 691 643C689.143 643 687.363 643.737 686.05 645.05C684.737 646.363 684 648.143 684 650C684 651.857 684.737 653.637 686.05 654.95C687.363 656.263 689.143 657 691 657ZM698 961C698 964.87 694.866 968 691 968C687.134 968 684 964.87 684 961C684 957.13 687.134 954 691 954C694.866 954 698 957.13 698 961Z" fill="black"/>
</g>
</mask>
<g mask="url(#mask3_9_2)">
<g id="Group_16">
<path id="Vector_37" fill-rule="evenodd" clip-rule="evenodd" d="M677 651H487C485.409 651 483.883 651.632 482.757 652.757C481.632 653.883 481 655.409 481 657V955C481 958.31 483.686 961 487 961H677C677 968.73 683.268 975 691 975C698.732 975 705 968.73 705 961H895C898.31 961 901 958.31 901 955V657C901 653.686 898.31 651 895 651H705C705 643.268 698.732 637 691 637C683.268 637 677 643.268 677 651ZM691 657C692.857 657 694.637 656.263 695.95 654.95C697.263 653.637 698 651.857 698 650C698 648.143 697.263 646.363 695.95 645.05C694.637 643.737 692.857 643 691 643C689.143 643 687.363 643.737 686.05 645.05C684.737 646.363 684 648.143 684 650C684 651.857 684.737 653.637 686.05 654.95C687.363 656.263 689.143 657 691 657ZM698 961C698 964.87 694.866 968 691 968C687.134 968 684 964.87 684 961C684 957.13 687.134 954 691 954C694.866 954 698 957.13 698 961Z" fill="white"/>
<path id="Vector_38" d="M677 651V652H678V651H677ZM677 961H678V960H677V961ZM705 961V960H704V961H705ZM705 651H704V652H705V651ZM487 652H677V650H487V652ZM482 657C482 655.674 482.527 654.402 483.464 653.464C484.402 652.527 485.674 652 487 652V650C485.143 650 483.363 650.737 482.05 652.05C480.737 653.363 480 655.143 480 657H482ZM482 955V657H480V955H482ZM487 960C484.239 960 482 957.76 482 955H480C480 958.87 483.134 962 487 962V960ZM677 960H487V962H677V960ZM691 974C683.82 974 678 968.18 678 961H676C676 969.28 682.716 976 691 976V974ZM704 961C704 968.18 698.18 974 691 974V976C699.284 976 706 969.28 706 961H704ZM895 960H705V962H895V960ZM900 955C900 957.76 897.76 960 895 960V962C898.87 962 902 958.87 902 955H900ZM900 657V955H902V657H900ZM895 652C897.76 652 900 654.239 900 657H902C902 653.134 898.87 650 895 650V652ZM705 652H895V650H705V652ZM691 638C698.18 638 704 643.82 704 651H706C706 642.716 699.284 636 691 636V638ZM678 651C678 643.82 683.82 638 691 638V636C682.716 636 676 642.716 676 651H678ZM697 650C697 651.591 696.368 653.117 695.243 654.243C694.117 655.368 692.591 656 691 656V658C693.122 658 695.157 657.157 696.657 655.657C698.157 654.157 699 652.122 699 650H697ZM691 644C692.591 644 694.117 644.632 695.243 645.757C696.368 646.883 697 648.409 697 650H699C699 647.878 698.157 645.843 696.657 644.343C695.157 642.843 693.122 642 691 642V644ZM685 650C685 648.409 685.632 646.883 686.757 645.757C687.883 644.632 689.409 644 691 644V642C688.878 642 686.843 642.843 685.343 644.343C683.843 645.843 683 647.878 683 650H685ZM691 656C689.409 656 687.883 655.368 686.757 654.243C685.632 653.117 685 651.591 685 650H683C683 652.122 683.843 654.157 685.343 655.657C686.843 657.157 688.878 658 691 658V656ZM691 969C693.122 969 695.157 968.157 696.657 966.657C698.157 965.157 699 963.122 699 961H697C697 964.31 694.314 967 691 967V969ZM683 961C683 963.122 683.843 965.157 685.343 966.657C686.843 968.157 688.878 969 691 969V967C687.686 967 685 964.31 685 961H683ZM691 953C688.878 953 686.843 953.843 685.343 955.343C683.843 956.843 683 958.878 683 961H685C685 957.69 687.686 955 691 955V953ZM699 961C699 958.878 698.157 956.843 696.657 955.343C695.157 953.843 693.122 953 691 953V955C694.314 955 697 957.69 697 961H699Z" fill="#1B1F23" fill-opacity="0.05"/>
<path id="Vector_39" d="M481 911H901" stroke="#EAECEF" stroke-miterlimit="10"/>
<path id="Vector_40" d="M481 741H901" stroke="#EAECEF" stroke-miterlimit="10"/>
<g id="Group_17" filter="url(#filter8_i_9_2)">
<path id="Vector_41" d="M848 725C864.01 725 877 712.016 877 696C877 679.984 864.01 667 848 667C831.98 667 819 679.984 819 696C819 712.016 831.98 725 848 725Z" fill="white"/>
</g>
<path id="Vector_42" d="M876.5 696C876.5 711.74 863.74 724.5 848 724.5C832.26 724.5 819.5 711.74 819.5 696C819.5 680.26 832.26 667.5 848 667.5C863.74 667.5 876.5 680.26 876.5 696Z" stroke="#1B1F23" stroke-opacity="0.02"/>
</g>
</g>
</g>
<path id="Vector_43" d="M513 687H706M513 707H616" stroke="#E1E4E8" stroke-opacity="0.7" stroke-width="5" stroke-linecap="round"/>
</g>
<g id="Group_18" filter="url(#filter9_d_9_2)">
<path id="Vector_44" opacity="0.8" d="M515.526 767.5H881.47C887.01 767.5 891.5 763.183 891.5 757.864V671.136C891.5 665.817 887.01 661.5 881.47 661.5H515.526C509.992 661.5 505.5 665.817 505.5 671.136V757.864C505.5 763.183 509.992 767.5 515.526 767.5Z" fill="white"/>
<path id="Vector_45" opacity="0.8" d="M515.526 768H881.47C887.27 768 892 763.478 892 757.864V671.136C892 665.522 887.27 661 881.47 661H515.526C509.734 661 505 665.522 505 671.136V757.864C505 763.478 509.734 768 515.526 768Z" stroke="#1B1F23" stroke-opacity="0.05"/>
<path id="Vector_46" d="M838.5 743.5C854.52 743.5 867.5 730.516 867.5 714.5C867.5 698.484 854.52 685.5 838.5 685.5C822.48 685.5 809.5 698.484 809.5 714.5C809.5 730.516 822.48 743.5 838.5 743.5Z" fill="#34D058"/>
<path id="Vector_47" d="M848.83 707.5L834.17 722.167L827.5 715.5" stroke="white" stroke-width="2" stroke-linecap="round" stroke-linejoin="round"/>
<path id="Vector_48" opacity="0.8" d="M867 714.5C867 730.24 854.24 743 838.5 743C822.76 743 810 730.24 810 714.5C810 698.76 822.76 686 838.5 686C854.24 686 867 698.76 867 714.5Z" stroke="#1B1F23" stroke-opacity="0.02"/>
</g>
<g id="Group_19" filter="url(#filter10_d_9_2)">
<g id="Mask group_5">
<mask id="mask4_9_2" style="mask-type:alpha" maskUnits="userSpaceOnUse" x="240" y="0" width="422" height="156">
<g id="Group_20">
<path id="Vector_49" d="M662 0H240V156H662V0Z" fill="white"/>
<path id="Vector_50" fill-rule="evenodd" clip-rule="evenodd" d="M241 7C241 5.4087 241.632 3.88258 242.757 2.75736C243.883 1.63214 245.409 1 247 1H655C656.591 1 658.117 1.63214 659.243 2.75736C660.368 3.88258 661 5.4087 661 7V135C661 136.591 660.368 138.117 659.243 139.243C658.117 140.368 656.591 141 655 141H465C465 148.732 458.732 155 451 155C443.268 155 437 148.732 437 141H247C245.409 141 243.883 140.368 242.757 139.243C241.632 138.117 241 136.591 241 135V7ZM458 141C458 142.857 457.263 144.637 455.95 145.95C454.637 147.263 452.857 148 451 148C449.143 148 447.363 147.263 446.05 145.95C444.737 144.637 444 142.857 444 141C444 139.143 444.737 137.363 446.05 136.05C447.363 134.737 449.143 134 451 134C452.857 134 454.637 134.737 455.95 136.05C457.263 137.363 458 139.143 458 141Z" fill="black"/>
</g>
</mask>
<g mask="url(#mask4_9_2)">
<g id="Group_21">
<path id="Vector_51" fill-rule="evenodd" clip-rule="evenodd" d="M241 7C241 5.4087 241.632 3.88258 242.757 2.75736C243.883 1.63214 245.409 1 247 1H655C656.591 1 658.117 1.63214 659.243 2.75736C660.368 3.88258 661 5.4087 661 7V135C661 136.591 660.368 138.117 659.243 139.243C658.117 140.368 656.591 141 655 141H465C465 148.732 458.732 155 451 155C443.268 155 437 148.732 437 141H247C245.409 141 243.883 140.368 242.757 139.243C241.632 138.117 241 136.591 241 135V7ZM458 141C458 142.857 457.263 144.637 455.95 145.95C454.637 147.263 452.857 148 451 148C449.143 148 447.363 147.263 446.05 145.95C444.737 144.637 444 142.857 444 141C444 139.143 444.737 137.363 446.05 136.05C447.363 134.737 449.143 134 451 134C452.857 134 454.637 134.737 455.95 136.05C457.263 137.363 458 139.143 458 141Z" fill="white"/>
<path id="Vector_52" d="M465 141V140H464V141H465ZM437 141H438V140H437V141ZM247 0C245.143 0 243.363 0.737496 242.05 2.05025C240.737 3.36301 240 5.14348 240 7H242C242 5.67392 242.527 4.40215 243.464 3.46447C244.402 2.52678 245.674 2 247 2V0ZM655 0H247V2H655V0ZM662 7C662 5.14348 661.263 3.36301 659.95 2.05025C658.637 0.737496 656.857 0 655 0V2C656.326 2 657.598 2.52678 658.536 3.46447C659.473 4.40215 660 5.67392 660 7H662ZM662 135V7H660V135H662ZM655 142C656.857 142 658.637 141.263 659.95 139.95C661.263 138.637 662 136.857 662 135H660C660 136.326 659.473 137.598 658.536 138.536C657.598 139.473 656.326 140 655 140V142ZM465 142H655V140H465V142ZM451 156C459.284 156 466 149.284 466 141H464C464 148.18 458.18 154 451 154V156ZM436 141C436 149.284 442.716 156 451 156V154C443.82 154 438 148.18 438 141H436ZM247 142H437V140H247V142ZM240 135C240 136.857 240.737 138.637 242.05 139.95C243.363 141.263 245.143 142 247 142V140C245.674 140 244.402 139.473 243.464 138.536C242.527 137.598 242 136.326 242 135H240ZM240 7V135H242V7H240ZM451 149C453.122 149 455.157 148.157 456.657 146.657C458.157 145.157 459 143.122 459 141H457C457 142.591 456.368 144.117 455.243 145.243C454.117 146.368 452.591 147 451 147V149ZM443 141C443 143.122 443.843 145.157 445.343 146.657C446.843 148.157 448.878 149 451 149V147C449.409 147 447.883 146.368 446.757 145.243C445.632 144.117 445 142.591 445 141H443ZM451 133C448.878 133 446.843 133.843 445.343 135.343C443.843 136.843 443 138.878 443 141H445C445 139.409 445.632 137.883 446.757 136.757C447.883 135.632 449.409 135 451 135V133ZM459 141C459 138.878 458.157 136.843 456.657 135.343C455.157 133.843 453.122 133 451 133V135C452.591 135 454.117 135.632 455.243 136.757C456.368 137.883 457 139.409 457 141H459Z" fill="#1B1F23" fill-opacity="0.05"/>
</g>
</g>
</g>
</g>
<g id="Frame_3">
<path id="Vector_53" d="M359.341 1121.55C359.341 1121.76 359.098 1121.93 358.793 1121.93C358.445 1121.96 358.202 1121.79 358.202 1121.55C358.202 1121.34 358.445 1121.17 358.75 1121.17C359.067 1121.13 359.341 1121.3 359.341 1121.55ZM356.061 1121.07C355.987 1121.28 356.198 1121.52 356.514 1121.59C356.789 1121.69 357.105 1121.59 357.168 1121.38C357.232 1121.17 357.031 1120.92 356.715 1120.83C356.441 1120.76 356.135 1120.86 356.061 1121.07ZM360.723 1120.89C360.417 1120.97 360.206 1121.17 360.238 1121.41C360.269 1121.62 360.543 1121.76 360.86 1121.68C361.166 1121.61 361.377 1121.41 361.345 1121.2C361.313 1121 361.029 1120.86 360.723 1120.89ZM367.663 1080.48C353.034 1080.48 341.844 1091.58 341.844 1106.21C341.844 1117.91 349.205 1127.92 359.721 1131.44C361.071 1131.68 361.545 1130.85 361.545 1130.16C361.545 1129.51 361.514 1125.9 361.514 1123.69C361.514 1123.69 354.131 1125.27 352.58 1120.54C352.58 1120.54 351.378 1117.48 349.648 1116.68C349.648 1116.68 347.233 1115.03 349.817 1115.06C349.817 1115.06 352.443 1115.27 353.888 1117.78C356.198 1121.85 360.069 1120.68 361.577 1119.99C361.82 1118.3 362.505 1117.13 363.264 1116.43C357.369 1115.78 351.42 1114.92 351.42 1104.78C351.42 1101.88 352.222 1100.42 353.909 1098.56C353.635 1097.88 352.739 1095.05 354.184 1091.4C356.388 1090.72 361.461 1094.25 361.461 1094.25C363.57 1093.66 365.838 1093.35 368.084 1093.35C370.331 1093.35 372.598 1093.66 374.708 1094.25C374.708 1094.25 379.781 1090.71 381.985 1091.4C383.43 1095.06 382.534 1097.88 382.259 1098.56C383.947 1100.43 384.98 1101.89 384.98 1104.78C384.98 1114.95 378.768 1115.77 372.873 1116.43C373.843 1117.26 374.666 1118.85 374.666 1121.32C374.666 1124.88 374.634 1129.28 374.634 1130.14C374.634 1130.83 375.119 1131.66 376.459 1131.42C387.005 1127.92 394.156 1117.91 394.156 1106.21C394.156 1091.58 382.291 1080.48 367.663 1080.48ZM352.095 1116.85C351.958 1116.96 351.99 1117.2 352.169 1117.4C352.338 1117.57 352.58 1117.64 352.718 1117.51C352.855 1117.4 352.823 1117.16 352.644 1116.96C352.475 1116.79 352.232 1116.72 352.095 1116.85ZM350.956 1116C350.882 1116.14 350.988 1116.3 351.199 1116.41C351.368 1116.52 351.579 1116.48 351.652 1116.34C351.726 1116.2 351.621 1116.03 351.41 1115.92C351.199 1115.86 351.03 1115.89 350.956 1116ZM354.373 1119.75C354.205 1119.89 354.268 1120.21 354.511 1120.41C354.753 1120.65 355.059 1120.68 355.196 1120.51C355.333 1120.38 355.27 1120.06 355.059 1119.86C354.827 1119.62 354.511 1119.58 354.373 1119.75ZM353.171 1118.2C353.002 1118.31 353.002 1118.58 353.171 1118.83C353.34 1119.07 353.625 1119.17 353.762 1119.07C353.93 1118.93 353.93 1118.66 353.762 1118.41C353.614 1118.17 353.34 1118.07 353.171 1118.2Z" fill="black"/>
</g>
<g id="Frame_4" clip-path="url(#clip1_9_2)">
<g id="Clip path group">
<mask id="mask5_9_2" style="mask-type:luminance" maskUnits="userSpaceOnUse" x="147" y="1174" width="128" height="128">
<g id="clip0_49_1630">
<path id="Vector_54" d="M275 1174H147V1302H275V1174Z" fill="white"/>
</g>
</mask>
<g mask="url(#mask5_9_2)">
<g id="Group_22">
<g id="Mask group_6">
<mask id="mask6_9_2" style="mask-type:luminance" maskUnits="userSpaceOnUse" x="147" y="1174" width="128" height="128">
<g id="Group_23">
<path id="Vector_55" d="M147 1174.16H274.843V1302H147V1174.16Z" fill="white"/>
</g>
</mask>
<g mask="url(#mask6_9_2)">
<g id="Group_24">
<path id="Vector_56" d="M272.435 1232.39L216.616 1176.57C215.851 1175.81 214.943 1175.2 213.944 1174.78C212.944 1174.37 211.873 1174.16 210.792 1174.16C209.71 1174.16 208.639 1174.37 207.64 1174.78C206.64 1175.2 205.732 1175.81 204.968 1176.57L193.381 1188.16L208.081 1202.86C209.81 1202.28 211.668 1202.18 213.445 1202.6C215.223 1203.01 216.849 1203.92 218.14 1205.21C219.439 1206.51 220.345 1208.14 220.756 1209.93C221.166 1211.73 221.065 1213.6 220.463 1215.33L234.636 1229.5C236.372 1228.9 238.242 1228.8 240.033 1229.21C241.824 1229.62 243.463 1230.53 244.762 1231.83C245.671 1232.74 246.393 1233.82 246.885 1235C247.378 1236.19 247.631 1237.47 247.631 1238.75C247.631 1240.04 247.378 1241.31 246.885 1242.5C246.393 1243.69 245.671 1244.77 244.762 1245.68C242.923 1247.52 240.429 1248.55 237.83 1248.55C235.23 1248.55 232.737 1247.52 230.897 1245.68C229.531 1244.31 228.6 1242.57 228.222 1240.67C227.844 1238.78 228.035 1236.81 228.771 1235.02L215.554 1221.81V1256.59C216.949 1257.28 218.16 1258.29 219.086 1259.54C220.013 1260.79 220.628 1262.24 220.881 1263.78C221.134 1265.31 221.017 1266.89 220.541 1268.37C220.064 1269.85 219.242 1271.19 218.142 1272.29C217.232 1273.2 216.152 1273.93 214.964 1274.42C213.776 1274.91 212.502 1275.16 211.215 1275.16C209.929 1275.16 208.655 1274.91 207.467 1274.42C206.278 1273.93 205.198 1273.2 204.289 1272.29C203.379 1271.39 202.657 1270.31 202.164 1269.12C201.672 1267.93 201.418 1266.65 201.418 1265.37C201.418 1264.08 201.672 1262.81 202.164 1261.62C202.657 1260.43 203.379 1259.35 204.289 1258.44C205.205 1257.52 206.295 1256.79 207.494 1256.3V1221.2C206.3 1220.71 205.214 1219.99 204.3 1219.07C203.386 1218.16 202.661 1217.08 202.167 1215.88C201.673 1214.69 201.42 1213.41 201.422 1212.12C201.424 1210.82 201.682 1209.55 202.179 1208.35L187.685 1193.86L149.407 1232.12C147.865 1233.67 146.999 1235.76 146.999 1237.95C146.999 1240.13 147.865 1242.22 149.407 1243.77L205.229 1299.59C206.775 1301.13 208.869 1302 211.052 1302C213.235 1302 215.329 1301.13 216.874 1299.59L272.435 1244.03C273.977 1242.49 274.844 1240.39 274.844 1238.21C274.844 1236.03 273.977 1233.93 272.435 1232.39Z" fill="#F03C2E"/>
</g>
</g>
</g>
</g>
</g>
</g>
</g>
<g id="Frame_5" clip-path="url(#clip2_9_2)">
<g id="Clip path group_2">
<mask id="mask7_9_2" style="mask-type:luminance" maskUnits="userSpaceOnUse" x="348" y="674" width="44" height="44">
<g id="clip0_49_1609">
<path id="Vector_57" d="M392 674H348V718H392V674Z" fill="white"/>
</g>
</mask>
<g mask="url(#mask7_9_2)">
<g id="Group_25">
<path id="Vector_58" d="M369.945 700.055L364.24 691.138L364.232 698.63L354.401 682.078H347.484V710.02H354.323L354.346 693.489L364.075 709.279L369.945 700.055Z" fill="#002F56"/>
<path id="Vector_59" d="M364.242 689.261H371.072L371.088 689.182V682.078H364.249L364.24 689.182L364.242 689.261Z" fill="#002F56"/>
<path id="Vector_60" d="M381.629 697.007C379.993 696.976 378.515 697.979 377.939 699.511C378.897 698.078 380.722 697.503 382.329 698.126C383.071 698.428 384.047 698.917 384.821 698.655C384.085 697.623 382.897 697.009 381.629 697.007Z" fill="#96D8E9"/>
<path id="Vector_61" d="M389.379 700.369C389.379 699.532 388.923 699.337 387.978 698.994C387.277 698.75 386.481 698.475 385.902 697.718C385.788 697.569 385.684 697.4 385.572 697.222C385.322 696.759 384.982 696.35 384.573 696.019C384.022 695.613 383.298 695.415 382.359 695.415C380.476 695.417 378.78 696.553 378.063 698.294C378.97 697.036 380.477 696.354 382.021 696.504C383.565 696.653 384.913 697.612 385.562 699.021C385.885 699.556 386.524 699.811 387.127 699.647C388.05 699.449 387.987 700.322 389.381 700.618L389.379 700.369Z" fill="#48C4E5"/>
<path id="Vector_62" d="M392.423 700.19V700.171C392.402 694.63 387.904 689.89 382.36 689.89C378.973 689.888 375.813 691.591 373.953 694.421L373.917 694.359L371.071 689.89H364.242L370.73 700.051L364.399 710.02H371.031L373.917 705.587L376.854 710.02H383.489L377.473 700.553C377.373 700.369 377.319 700.163 377.315 699.953C377.315 698.616 377.846 697.334 378.791 696.388C379.736 695.443 381.019 694.912 382.356 694.912C385.144 694.912 385.61 696.579 386.211 697.363C387.399 698.91 389.771 698.233 389.771 700.251C389.778 700.723 390.037 701.157 390.45 701.387C390.863 701.617 391.367 701.61 391.773 701.367C392.179 701.124 392.425 700.684 392.418 700.211V700.19H392.423Z" fill="#002F56"/>
<path id="Vector_63" d="M392.43 701.617C392.497 702.088 392.43 702.569 392.237 703.004C391.859 703.879 391.228 703.587 391.228 703.587C391.228 703.587 390.685 703.322 391.015 702.815C391.381 702.249 392.105 702.315 392.43 701.617Z" fill="#002F56"/>
</g>
</g>
</g>
</g>
<g id="Frame 7">
<g id="Frame_6">
<path id="Vector_64" d="M87.5501 759H90.4252V761.85H93.0751V759H95.9501V767.625H93.0751V764.75H90.4502V767.625H87.5501M99.7502 761.875H97.2127V759H105.175V761.875H102.625V767.625H99.7502M106.438 759H109.45L111.3 762.037L113.15 759H116.163V767.625H113.288V763.35L111.275 766.45L109.263 763.35V767.625H106.438M117.588 759H120.463V764.775H124.538V767.625H117.588" fill="black"/>
<path id="Vector_65" d="M87.4498 817.875L83.3249 771.575H128.675L124.55 817.85L105.962 823" fill="#E44D26"/>
<path id="Vector_66" d="M106 819.063V775.375H124.538L121 814.875" fill="#F16529"/>
<path id="Vector_67" d="M91.75 781.038H106V786.713H97.975L98.5 792.525H106V798.188H93.3M93.55 801.038H99.25L99.65 805.575L106 807.275V813.2L94.35 809.95" fill="#EBEBEB"/>
<path id="Vector_68" d="M120.2 781.038H105.975V786.713H119.675M119.162 792.525H105.975V798.2H112.975L112.312 805.575L105.975 807.275V813.175L117.6 809.95" fill="white"/>
</g>
<g id="Frame_7">
<path id="Vector_69" d="M239 762H181V820H239V762Z" fill="#F7DF1E"/>
<path id="Vector_70" d="M219.551 806.895C220.712 808.793 222.224 810.188 224.896 810.188C227.141 810.188 228.575 809.065 228.575 807.513C228.575 805.654 227.102 804.995 224.631 803.914L223.276 803.332C219.366 801.665 216.769 799.577 216.769 795.162C216.769 791.096 219.865 788 224.704 788C228.149 788 230.625 789.2 232.41 792.341L228.191 795.052C227.262 793.386 226.26 792.729 224.704 792.729C223.117 792.729 222.111 793.736 222.111 795.052C222.111 796.679 223.118 797.338 225.442 798.345L226.797 798.926C231.401 800.901 234 802.915 234 807.444C234 812.326 230.168 815 225.021 815C219.989 815 216.739 812.6 215.148 809.455L219.551 806.895ZM200.411 807.365C201.262 808.876 202.036 810.154 203.898 810.154C205.678 810.154 206.801 809.457 206.801 806.747V788.31H212.219V806.82C212.219 812.435 208.93 814.99 204.128 814.99C199.79 814.99 197.278 812.743 196 810.037L200.411 807.365Z" fill="black"/>
</g>
<g id="Frame_8">
<path id="Vector_71" d="M285 791V820H314H343V791V762H314H285V791ZM331.741 788.689C333.214 789.057 334.337 789.711 335.368 790.779C335.902 791.35 336.694 792.39 336.758 792.639C336.776 792.712 334.254 794.406 332.726 795.355C332.671 795.391 332.449 795.152 332.201 794.784C331.455 793.697 330.673 793.228 329.476 793.145C327.717 793.025 326.585 793.946 326.594 795.484C326.594 795.935 326.659 796.202 326.843 796.57C327.23 797.371 327.948 797.849 330.203 798.825C334.355 800.611 336.132 801.79 337.237 803.465C338.47 805.334 338.747 808.317 337.909 810.536C336.988 812.948 334.705 814.587 331.492 815.13C330.498 815.305 328.141 815.277 327.073 815.084C324.744 814.67 322.534 813.519 321.172 812.009C320.638 811.42 319.597 809.882 319.662 809.772C319.69 809.735 319.929 809.588 320.196 809.431C320.454 809.284 321.43 808.722 322.35 808.188L324.017 807.222L324.366 807.737C324.854 808.483 325.922 809.505 326.567 809.845C328.417 810.821 330.958 810.683 332.21 809.56C332.744 809.072 332.965 808.566 332.965 807.82C332.965 807.148 332.882 806.853 332.532 806.347C332.081 805.703 331.161 805.159 328.546 804.027C325.554 802.738 324.265 801.937 323.087 800.667C322.405 799.93 321.761 798.752 321.494 797.767C321.273 796.947 321.218 794.894 321.393 794.066C322.01 791.175 324.191 789.159 327.34 788.56C328.362 788.367 330.737 788.441 331.741 788.689ZM318.124 791.111L318.143 793.486H314.368H310.594V804.211V814.937H307.924H305.254V804.211V793.486H301.479H297.705V791.157C297.705 789.868 297.732 788.791 297.769 788.763C297.797 788.726 302.391 788.708 307.961 788.717L318.097 788.744L318.124 791.111Z" fill="#007ACC"/>
</g>
<g id="Frame_9">
<path id="Vector_72" d="M106 833.853L133.52 849.42V880.559L106 896.125L78.48 880.559V849.42L106 833.853Z" fill="white"/>
<path id="Vector_73" d="M128.606 879.485L106.91 891.759V882.202L120.429 874.764L128.606 879.485ZM130.093 878.141V852.477L122.157 857.064V873.562L130.093 878.141ZM83.3085 879.485L105.005 891.759V882.202L91.4792 874.764L83.3085 879.485ZM81.8223 878.141V852.477L89.7583 857.064V873.562L81.8223 878.141ZM82.7539 850.813L105.005 838.227V847.464L90.7468 855.308L90.633 855.372L82.7539 850.813ZM129.161 850.813L106.91 838.227V847.464L121.168 855.301L121.282 855.365L129.161 850.813Z" fill="#8ED6FB"/>
<path id="Vector_74" d="M105.004 880.026L91.6638 872.687V858.159L105.004 865.86V880.026ZM106.91 880.026L120.251 872.694V858.159L106.91 865.86V880.026ZM92.567 856.481L105.957 849.121L119.347 856.481L105.957 864.21L92.567 856.481Z" fill="#1C78C0"/>
</g>
<g id="Frame_10">
<path id="Vector_75" d="M239.801 844.267L211.616 894.223C211.034 895.254 209.54 895.26 208.949 894.234L180.205 844.272C179.561 843.153 180.526 841.799 181.805 842.025L210.02 847.024C210.2 847.056 210.385 847.056 210.565 847.023L238.19 842.032C239.464 841.802 240.434 843.146 239.801 844.267Z" fill="url(#paint0_linear_9_2)"/>
<path id="Vector_76" d="M223.335 835.015L202.866 839.089C202.53 839.156 202.281 839.446 202.26 839.793L201.001 861.395C200.972 861.904 201.432 862.299 201.921 862.184L207.62 860.848C208.153 860.723 208.634 861.201 208.525 861.745L206.832 870.167C206.718 870.734 207.242 871.219 207.787 871.051L211.307 869.964C211.852 869.796 212.377 870.282 212.261 870.849L209.57 884.079C209.402 884.906 210.486 885.357 210.938 884.648L211.239 884.174L227.919 850.361C228.198 849.795 227.716 849.149 227.104 849.269L221.238 850.419C220.687 850.527 220.218 850.006 220.374 849.458L224.202 835.976C224.358 835.427 223.887 834.905 223.335 835.015Z" fill="url(#paint1_linear_9_2)"/>
</g>
<g id="Frame_11" clip-path="url(#clip3_9_2)">
<g id="Clip path group_3">
<mask id="mask8_9_2" style="mask-type:luminance" maskUnits="userSpaceOnUse" x="282" y="833" width="64" height="64">
<g id="clip0_49_1601">
<path id="Vector_77" d="M346 833H282V897H346V833Z" fill="white"/>
</g>
</mask>
<g mask="url(#mask8_9_2)">
<g id="Group_26">
<path id="Vector_78" d="M314 897C331.673 897 346 882.673 346 865C346 847.327 331.673 833 314 833C296.327 833 282 847.327 282 865C282 882.673 296.327 897 314 897Z" fill="#8CC84B"/>
<path id="Vector_79" d="M311.826 839.016C313.142 838.263 314.858 838.259 316.174 839.016C322.791 842.756 329.413 846.489 336.031 850.231C337.275 850.933 338.109 852.318 338.096 853.751V876.252C338.104 877.745 337.191 879.164 335.877 879.848C329.281 883.567 322.687 887.292 316.093 891.01C314.749 891.778 312.999 891.718 311.698 890.888C309.72 889.743 307.739 888.601 305.761 887.456C305.358 887.215 304.901 887.023 304.615 886.63C304.867 886.291 305.319 886.248 305.686 886.099C306.512 885.837 307.269 885.414 308.029 885.007C308.221 884.874 308.455 884.926 308.639 885.043C310.331 886.014 312.005 887.01 313.703 887.97C314.066 888.179 314.431 887.902 314.742 887.729C321.215 884.07 327.698 880.426 334.168 876.766C334.407 876.65 334.542 876.397 334.52 876.132C334.525 868.71 334.523 861.286 334.523 853.864C334.55 853.566 334.378 853.293 334.109 853.171C327.536 849.47 320.965 845.762 314.392 842.058C314.16 841.898 313.853 841.898 313.618 842.056C307.045 845.76 300.477 849.472 293.904 853.173C293.635 853.295 293.456 853.566 293.488 853.864C293.49 861.286 293.488 868.71 293.488 876.134C293.464 876.397 293.607 876.646 293.846 876.759C295.6 877.753 297.356 878.741 299.111 879.733C300.099 880.264 301.315 880.582 302.403 880.175C303.365 879.829 304.037 878.85 304.02 877.828C304.029 870.449 304.016 863.07 304.027 855.69C304.003 855.362 304.312 855.093 304.632 855.123C305.475 855.117 306.32 855.112 307.163 855.125C307.515 855.117 307.756 855.471 307.713 855.799C307.709 863.225 307.722 870.652 307.707 878.076C307.709 880.055 306.896 882.208 305.066 883.176C302.811 884.345 300.022 884.096 297.795 882.976C295.867 882.014 294.026 880.877 292.131 879.846C290.815 879.166 289.904 877.741 289.915 876.249V853.751C289.893 852.288 290.757 850.878 292.042 850.186C298.638 846.464 305.232 842.739 311.826 839.016Z" fill="white"/>
<path id="Vector_80" d="M317.58 854.602C320.456 854.417 323.536 854.494 326.124 855.91C328.127 856.996 329.238 859.274 329.275 861.502C329.219 861.802 328.906 861.967 328.618 861.948C327.784 861.945 326.947 861.958 326.113 861.941C325.759 861.954 325.554 861.628 325.509 861.316C325.27 860.252 324.688 859.196 323.685 858.681C322.145 857.911 320.362 857.95 318.683 857.965C317.458 858.029 316.14 858.135 315.101 858.856C314.303 859.402 314.062 860.503 314.346 861.391C314.614 862.029 315.348 862.233 315.952 862.423C319.419 863.33 323.092 863.24 326.493 864.433C327.901 864.919 329.277 865.864 329.759 867.338C330.388 869.314 330.113 871.676 328.707 873.261C327.568 874.566 325.908 875.277 324.251 875.663C322.047 876.153 319.762 876.166 317.524 875.949C315.421 875.71 313.232 875.157 311.609 873.724C310.22 872.518 309.541 870.639 309.61 868.825C309.627 868.518 309.93 868.305 310.224 868.33C311.065 868.324 311.905 868.322 312.746 868.333C313.081 868.309 313.33 868.599 313.347 868.915C313.503 869.93 313.885 870.995 314.768 871.597C316.477 872.7 318.619 872.623 320.575 872.655C322.196 872.582 324.014 872.561 325.337 871.49C326.034 870.88 326.241 869.858 326.053 868.977C325.849 868.234 325.072 867.889 324.406 867.663C320.985 866.581 317.27 866.974 313.881 865.749C312.505 865.263 311.173 864.343 310.646 862.931C309.908 860.93 310.248 858.455 311.801 856.924C313.315 855.398 315.502 854.812 317.58 854.602Z" fill="white"/>
</g>
</g>
</g>
</g>
</g>
<g id="Group_27" filter="url(#filter11_d_9_2)">
<path id="Vector_81" opacity="0.8" d="M515.526 899.5H881.474C887.008 899.5 891.5 895.183 891.5 889.864V803.136C891.5 797.817 887.008 793.5 881.474 793.5H515.526C509.992 793.5 505.5 797.817 505.5 803.136V889.864C505.5 895.183 509.992 899.5 515.526 899.5Z" fill="white"/>
<path id="Vector_82" opacity="0.8" d="M515.526 900H881.474C887.266 900 892 895.478 892 889.864V803.136C892 797.522 887.266 793 881.474 793H515.526C509.734 793 505 797.522 505 803.136V889.864C505 895.478 509.734 900 515.526 900Z" stroke="#1B1F23" stroke-opacity="0.05"/>
<path id="Vector_83" d="M838.5 875.5C854.516 875.5 867.5 862.516 867.5 846.5C867.5 830.484 854.516 817.5 838.5 817.5C822.484 817.5 809.5 830.484 809.5 846.5C809.5 862.516 822.484 875.5 838.5 875.5Z" fill="#EA4A5A"/>
<path id="Vector_84" d="M867 846.5C867 862.24 854.24 875 838.5 875C822.76 875 810 862.24 810 846.5C810 830.76 822.76 818 838.5 818C854.24 818 867 830.76 867 846.5Z" stroke="#1B1F23" stroke-opacity="0.02"/>
<path id="Vector_85" d="M846.5 838.5L830.5 854.5" stroke="white" stroke-width="2" stroke-linecap="round" stroke-linejoin="round"/>
<path id="Vector_86" d="M830.5 838.5L846.5 854.5" stroke="white" stroke-width="2" stroke-linecap="round" stroke-linejoin="round"/>
</g>
<g id="Group 7">
<g id="Frame_12">
<path id="Vector_87" d="M549.494 81.3423L552.201 74.4975H560.016L556.308 64.1144L560.946 52.3838L574.233 87.6604H564.434L562.164 81.3423H549.494Z" fill="#3D3D3D"/>
<path id="Vector_88" d="M541.136 87.6606L555.359 52.3838H545.929L536.2 75.1804L529.281 52.3838H522.033L514.604 75.1804L509.365 64.7925L504.624 79.399L509.438 87.6606H518.718L525.431 67.2169L531.831 87.6606H541.136Z" fill="#5A0FC8"/>
<path id="Vector_89" d="M489.488 75.5506H495.296C497.055 75.5506 498.622 75.3542 499.996 74.9614L501.498 70.3339L505.696 57.4005C505.376 56.8934 505.011 56.4141 504.6 55.9625C502.445 53.5766 499.291 52.3838 495.14 52.3838H480.537V87.6604H489.488V75.5506ZM497.176 60.4995C498.018 61.3468 498.438 62.4808 498.438 63.9013C498.438 65.3327 498.068 66.4681 497.328 67.3072C496.516 68.2396 495.022 68.7058 492.844 68.7058H489.488V59.2284H492.869C494.898 59.2284 496.334 59.6521 497.176 60.4995Z" fill="#3D3D3D"/>
</g>
<g id="angular.dev">
<mask id="mask9_9_2" style="mask-type:luminance" maskUnits="userSpaceOnUse" x="326" y="34" width="68" height="72">
<g id="a">
<path id="Vector_90" d="M326 34H393.385V106H326V34Z" fill="white"/>
</g>
</mask>
<g mask="url(#mask9_9_2)">
<g id="Group_28">
<path id="Vector_91" d="M393.106 45.9569L390.683 84.3741L367.515 34L393.106 45.9569ZM377.059 95.6323L359.553 105.717L342.047 95.6323L345.607 86.9203H373.498L377.059 95.6323ZM359.553 53.1212L368.726 75.6374H350.38L359.553 53.1212ZM328.398 84.3741L326 45.9569L351.591 34L328.398 84.3741Z" fill="url(#paint2_linear_9_2)"/>
<path id="Vector_92" d="M393.106 45.9569L390.683 84.3741L367.515 34L393.106 45.9569ZM377.059 95.6323L359.553 105.717L342.047 95.6323L345.607 86.9203H373.498L377.059 95.6323ZM359.553 53.1212L368.726 75.6374H350.38L359.553 53.1212ZM328.398 84.3741L326 45.9569L351.591 34L328.398 84.3741Z" fill="url(#paint3_linear_9_2)"/>
</g>
</g>
</g>
</g>
</g>
<defs>
<filter id="filter0_d_9_2" x="240" y="226" width="432" height="350" filterUnits="userSpaceOnUse" color-interpolation-filters="sRGB">
<feFlood flood-opacity="0" result="BackgroundImageFix"/>
<feColorMatrix in="SourceAlpha" type="matrix" values="0 0 0 0 0 0 0 0 0 0 0 0 0 0 0 0 0 0 127 0" result="hardAlpha"/>
<feOffset dx="5" dy="5"/>
<feGaussianBlur stdDeviation="2.5"/>
<feColorMatrix type="matrix" values="0 0 0 0 0.105882 0 0 0 0 0.121569 0 0 0 0 0.137255 0 0 0 0.1 0"/>
<feBlend mode="normal" in2="BackgroundImageFix" result="effect1_dropShadow_9_2"/>
<feBlend mode="normal" in="SourceGraphic" in2="effect1_dropShadow_9_2" result="shape"/>
</filter>
<filter id="filter1_i_9_2" x="579" y="257" width="60.997" height="61" filterUnits="userSpaceOnUse" color-interpolation-filters="sRGB">
<feFlood flood-opacity="0" result="BackgroundImageFix"/>
<feBlend mode="normal" in="SourceGraphic" in2="BackgroundImageFix" result="shape"/>
<feColorMatrix in="SourceAlpha" type="matrix" values="0 0 0 0 0 0 0 0 0 0 0 0 0 0 0 0 0 0 127 0" result="hardAlpha"/>
<feOffset dx="3" dy="3"/>
<feGaussianBlur stdDeviation="2.5"/>
<feComposite in2="hardAlpha" operator="arithmetic" k2="-1" k3="1"/>
<feColorMatrix type="matrix" values="0 0 0 0 0 0 0 0 0 0 0 0 0 0 0 0 0 0 0.08 0"/>
<feBlend mode="normal" in2="shape" result="effect1_innerShadow_9_2"/>
</filter>
<filter id="filter2_d_9_2" x="0" y="636" width="432" height="350" filterUnits="userSpaceOnUse" color-interpolation-filters="sRGB">
<feFlood flood-opacity="0" result="BackgroundImageFix"/>
<feColorMatrix in="SourceAlpha" type="matrix" values="0 0 0 0 0 0 0 0 0 0 0 0 0 0 0 0 0 0 127 0" result="hardAlpha"/>
<feOffset dx="5" dy="5"/>
<feGaussianBlur stdDeviation="2.5"/>
<feColorMatrix type="matrix" values="0 0 0 0 0.105882 0 0 0 0 0.121569 0 0 0 0 0.137255 0 0 0 0.1 0"/>
<feBlend mode="normal" in2="BackgroundImageFix" result="effect1_dropShadow_9_2"/>
<feBlend mode="normal" in="SourceGraphic" in2="effect1_dropShadow_9_2" result="shape"/>
</filter>
<filter id="filter3_i_9_2" x="339" y="667" width="60.997" height="61" filterUnits="userSpaceOnUse" color-interpolation-filters="sRGB">
<feFlood flood-opacity="0" result="BackgroundImageFix"/>
<feBlend mode="normal" in="SourceGraphic" in2="BackgroundImageFix" result="shape"/>
<feColorMatrix in="SourceAlpha" type="matrix" values="0 0 0 0 0 0 0 0 0 0 0 0 0 0 0 0 0 0 127 0" result="hardAlpha"/>
<feOffset dx="3" dy="3"/>
<feGaussianBlur stdDeviation="2.5"/>
<feComposite in2="hardAlpha" operator="arithmetic" k2="-1" k3="1"/>
<feColorMatrix type="matrix" values="0 0 0 0 0 0 0 0 0 0 0 0 0 0 0 0 0 0 0.08 0"/>
<feBlend mode="normal" in2="shape" result="effect1_innerShadow_9_2"/>
</filter>
<filter id="filter4_d_9_2" x="209" y="152" width="525" height="1009" filterUnits="userSpaceOnUse" color-interpolation-filters="sRGB">
<feFlood flood-opacity="0" result="BackgroundImageFix"/>
<feColorMatrix in="SourceAlpha" type="matrix" values="0 0 0 0 0 0 0 0 0 0 0 0 0 0 0 0 0 0 127 0" result="hardAlpha"/>
<feOffset dx="3" dy="3"/>
<feGaussianBlur stdDeviation="1.5"/>
<feColorMatrix type="matrix" values="0 0 0 0 0.105882 0 0 0 0 0.121569 0 0 0 0 0.137255 0 0 0 0.08 0"/>
<feBlend mode="normal" in2="BackgroundImageFix" result="effect1_dropShadow_9_2"/>
<feBlend mode="normal" in="SourceGraphic" in2="effect1_dropShadow_9_2" result="shape"/>
</filter>
<filter id="filter5_d_9_2" x="0" y="1047" width="432" height="350" filterUnits="userSpaceOnUse" color-interpolation-filters="sRGB">
<feFlood flood-opacity="0" result="BackgroundImageFix"/>
<feColorMatrix in="SourceAlpha" type="matrix" values="0 0 0 0 0 0 0 0 0 0 0 0 0 0 0 0 0 0 127 0" result="hardAlpha"/>
<feOffset dx="5" dy="5"/>
<feGaussianBlur stdDeviation="2.5"/>
<feColorMatrix type="matrix" values="0 0 0 0 0.105882 0 0 0 0 0.121569 0 0 0 0 0.137255 0 0 0 0.1 0"/>
<feBlend mode="normal" in2="BackgroundImageFix" result="effect1_dropShadow_9_2"/>
<feBlend mode="normal" in="SourceGraphic" in2="effect1_dropShadow_9_2" result="shape"/>
</filter>
<filter id="filter6_i_9_2" x="339" y="1078" width="60.997" height="61" filterUnits="userSpaceOnUse" color-interpolation-filters="sRGB">
<feFlood flood-opacity="0" result="BackgroundImageFix"/>
<feBlend mode="normal" in="SourceGraphic" in2="BackgroundImageFix" result="shape"/>
<feColorMatrix in="SourceAlpha" type="matrix" values="0 0 0 0 0 0 0 0 0 0 0 0 0 0 0 0 0 0 127 0" result="hardAlpha"/>
<feOffset dx="3" dy="3"/>
<feGaussianBlur stdDeviation="2.5"/>
<feComposite in2="hardAlpha" operator="arithmetic" k2="-1" k3="1"/>
<feColorMatrix type="matrix" values="0 0 0 0 0 0 0 0 0 0 0 0 0 0 0 0 0 0 0.08 0"/>
<feBlend mode="normal" in2="shape" result="effect1_innerShadow_9_2"/>
</filter>
<filter id="filter7_d_9_2" x="480" y="636" width="432" height="350" filterUnits="userSpaceOnUse" color-interpolation-filters="sRGB">
<feFlood flood-opacity="0" result="BackgroundImageFix"/>
<feColorMatrix in="SourceAlpha" type="matrix" values="0 0 0 0 0 0 0 0 0 0 0 0 0 0 0 0 0 0 127 0" result="hardAlpha"/>
<feOffset dx="5" dy="5"/>
<feGaussianBlur stdDeviation="2.5"/>
<feColorMatrix type="matrix" values="0 0 0 0 0.105882 0 0 0 0 0.121569 0 0 0 0 0.137255 0 0 0 0.1 0"/>
<feBlend mode="normal" in2="BackgroundImageFix" result="effect1_dropShadow_9_2"/>
<feBlend mode="normal" in="SourceGraphic" in2="effect1_dropShadow_9_2" result="shape"/>
</filter>
<filter id="filter8_i_9_2" x="819" y="667" width="61" height="61" filterUnits="userSpaceOnUse" color-interpolation-filters="sRGB">
<feFlood flood-opacity="0" result="BackgroundImageFix"/>
<feBlend mode="normal" in="SourceGraphic" in2="BackgroundImageFix" result="shape"/>
<feColorMatrix in="SourceAlpha" type="matrix" values="0 0 0 0 0 0 0 0 0 0 0 0 0 0 0 0 0 0 127 0" result="hardAlpha"/>
<feOffset dx="3" dy="3"/>
<feGaussianBlur stdDeviation="2.5"/>
<feComposite in2="hardAlpha" operator="arithmetic" k2="-1" k3="1"/>
<feColorMatrix type="matrix" values="0 0 0 0 0 0 0 0 0 0 0 0 0 0 0 0 0 0 0.08 0"/>
<feBlend mode="normal" in2="shape" result="effect1_innerShadow_9_2"/>
</filter>
<filter id="filter9_d_9_2" x="504.5" y="660.5" width="433" height="147" filterUnits="userSpaceOnUse" color-interpolation-filters="sRGB">
<feFlood flood-opacity="0" result="BackgroundImageFix"/>
<feColorMatrix in="SourceAlpha" type="matrix" values="0 0 0 0 0 0 0 0 0 0 0 0 0 0 0 0 0 0 127 0" result="hardAlpha"/>
<feOffset dx="30" dy="24"/>
<feGaussianBlur stdDeviation="7.5"/>
<feColorMatrix type="matrix" values="0 0 0 0 0.105882 0 0 0 0 0.121569 0 0 0 0 0.137255 0 0 0 0.08 0"/>
<feBlend mode="normal" in2="BackgroundImageFix" result="effect1_dropShadow_9_2"/>
<feBlend mode="normal" in="SourceGraphic" in2="effect1_dropShadow_9_2" result="shape"/>
</filter>
<filter id="filter10_d_9_2" x="240" y="0" width="432" height="166" filterUnits="userSpaceOnUse" color-interpolation-filters="sRGB">
<feFlood flood-opacity="0" result="BackgroundImageFix"/>
<feColorMatrix in="SourceAlpha" type="matrix" values="0 0 0 0 0 0 0 0 0 0 0 0 0 0 0 0 0 0 127 0" result="hardAlpha"/>
<feOffset dx="5" dy="5"/>
<feGaussianBlur stdDeviation="2.5"/>
<feColorMatrix type="matrix" values="0 0 0 0 0.105882 0 0 0 0 0.121569 0 0 0 0 0.137255 0 0 0 0.1 0"/>
<feBlend mode="normal" in2="BackgroundImageFix" result="effect1_dropShadow_9_2"/>
<feBlend mode="normal" in="SourceGraphic" in2="effect1_dropShadow_9_2" result="shape"/>
</filter>
<filter id="filter11_d_9_2" x="504.5" y="792.5" width="433" height="147" filterUnits="userSpaceOnUse" color-interpolation-filters="sRGB">
<feFlood flood-opacity="0" result="BackgroundImageFix"/>
<feColorMatrix in="SourceAlpha" type="matrix" values="0 0 0 0 0 0 0 0 0 0 0 0 0 0 0 0 0 0 127 0" result="hardAlpha"/>
<feOffset dx="30" dy="24"/>
<feGaussianBlur stdDeviation="7.5"/>
<feColorMatrix type="matrix" values="0 0 0 0 0.105882 0 0 0 0 0.121569 0 0 0 0 0.137255 0 0 0 0.08 0"/>
<feBlend mode="normal" in2="BackgroundImageFix" result="effect1_dropShadow_9_2"/>
<feBlend mode="normal" in="SourceGraphic" in2="effect1_dropShadow_9_2" result="shape"/>
</filter>
<linearGradient id="paint0_linear_9_2" x1="179.503" y1="840.24" x2="214.18" y2="887.752" gradientUnits="userSpaceOnUse">
<stop stop-color="#41D1FF"/>
<stop offset="1" stop-color="#BD34FE"/>
</linearGradient>
<linearGradient id="paint1_linear_9_2" x1="208.556" y1="836.121" x2="214.978" y2="879.486" gradientUnits="userSpaceOnUse">
<stop stop-color="#FFEA83"/>
<stop offset="0.0833333" stop-color="#FFDD35"/>
<stop offset="1" stop-color="#FFA800"/>
</linearGradient>
<linearGradient id="paint2_linear_9_2" x1="340.809" y1="99.2119" x2="394.427" y2="73.9749" gradientUnits="userSpaceOnUse">
<stop stop-color="#E40035"/>
<stop offset="0.24" stop-color="#F60A48"/>
<stop offset="0.352" stop-color="#F20755"/>
<stop offset="0.494" stop-color="#DC087D"/>
<stop offset="0.745" stop-color="#9717E7"/>
<stop offset="1" stop-color="#6C00F5"/>
</linearGradient>
<linearGradient id="paint3_linear_9_2" x1="338.397" y1="42.6473" x2="373.743" y2="82.5825" gradientUnits="userSpaceOnUse">
<stop stop-color="#FF31D9"/>
<stop offset="1" stop-color="#FF5BE1" stop-opacity="0"/>
</linearGradient>
<clipPath id="clip0_9_2">
<rect width="938" height="1397" fill="white"/>
</clipPath>
<clipPath id="clip1_9_2">
<rect width="128" height="128" fill="white" transform="translate(147 1174)"/>
</clipPath>
<clipPath id="clip2_9_2">
<rect width="44" height="44" fill="white" transform="translate(348 674)"/>
</clipPath>
<clipPath id="clip3_9_2">
<rect width="64" height="64" fill="white" transform="translate(282 833)"/>
</clipPath>
</defs>
</svg>
