<svg width="64" height="64" viewBox="0 0 64 64" fill="none" xmlns="http://www.w3.org/2000/svg">
<path d="M3 32V61H32H61V32V3H32H3V32ZM49.7406 29.6892C51.2136 30.0575 52.3368 30.7111 53.3679 31.779C53.9019 32.3498 54.6936 33.3902 54.7581 33.6387C54.7765 33.7124 52.254 35.4063 50.7257 36.3546C50.6705 36.3914 50.4495 36.1521 50.201 35.7838C49.4552 34.6975 48.6727 34.2279 47.4759 34.1451C45.7175 34.0254 44.5851 34.946 44.5943 36.4835C44.5943 36.9346 44.6587 37.2016 44.8429 37.5698C45.2295 38.3708 45.9476 38.8495 48.2032 39.8254C52.3552 41.6114 54.1321 42.7898 55.2368 44.4654C56.4705 46.3343 56.7467 49.3171 55.9089 51.5359C54.9883 53.9479 52.7051 55.5867 49.4921 56.1298C48.4978 56.3048 46.141 56.2771 45.073 56.0838C42.7438 55.6695 40.5343 54.5187 39.1717 53.0089C38.6378 52.4197 37.5975 50.8822 37.6619 50.7717C37.6895 50.7349 37.9289 50.5876 38.1959 50.4311C38.4537 50.2838 39.4295 49.7222 40.3502 49.1883L42.0165 48.2216L42.3663 48.7371C42.8543 49.4829 43.9222 50.5048 44.5667 50.8454C46.4171 51.8213 48.9581 51.6832 50.2102 50.56C50.7441 50.0721 50.9651 49.5657 50.9651 48.82C50.9651 48.1479 50.8822 47.8533 50.5324 47.347C50.0813 46.7025 49.1606 46.1594 46.546 45.027C43.554 43.7381 42.2651 42.9371 41.0867 41.6667C40.4054 40.9302 39.761 39.7517 39.494 38.7667C39.273 37.9473 39.2178 35.8943 39.3927 35.0657C40.0095 32.1749 42.1914 30.1587 45.34 29.5603C46.3619 29.367 48.7371 29.4406 49.7406 29.6892ZM36.1244 32.1105L36.1429 34.4857H32.3683H28.5937V45.2111V55.9365H25.9238H23.254V45.2111V34.4857H19.4794H15.7048V32.1565C15.7048 30.8676 15.7324 29.7905 15.7692 29.7629C15.7968 29.726 20.3908 29.7076 25.9606 29.7168L36.0968 29.7444L36.1244 32.1105Z" fill="#007ACC"/>
</svg>
