<svg width="86" height="86" viewBox="0 0 86 86" fill="none" xmlns="http://www.w3.org/2000/svg">
<path d="M4.03125 43V81.9688H43H81.9687V43V4.03125H43H4.03125V43ZM66.839 39.8949C68.8183 40.3897 70.3276 41.2681 71.7132 42.7031C72.4307 43.4701 73.4946 44.868 73.5812 45.202C73.6059 45.301 70.2163 47.5773 68.1627 48.8515C68.0885 48.901 67.7915 48.5793 67.4575 48.0845C66.4555 46.6247 65.4039 45.9938 63.7957 45.8825C61.4328 45.7216 59.9112 46.9587 59.9236 49.0247C59.9236 49.6309 60.0102 49.9896 60.2576 50.4845C60.7772 51.5608 61.7421 52.204 64.773 53.5154C70.3524 55.9154 72.74 57.4988 74.2245 59.7504C75.8822 62.2617 76.2533 66.2699 75.1276 69.2513C73.8905 72.4925 70.8224 74.6946 66.505 75.4245C65.1689 75.6595 62.0019 75.6224 60.5669 75.3626C57.437 74.8059 54.4679 73.2595 52.637 71.2307C51.9195 70.4389 50.5216 68.373 50.6082 68.2245C50.6453 68.175 50.9669 67.9771 51.3257 67.7668C51.6721 67.5689 52.9834 66.8142 54.2205 66.0967L56.4597 64.7978L56.9298 65.4905C57.5854 66.4926 59.0205 67.8658 59.8865 68.3235C62.373 69.6348 65.7874 69.4493 67.4699 67.94C68.1874 67.2843 68.4843 66.6039 68.4843 65.6019C68.4843 64.6988 68.373 64.3029 67.9029 63.6225C67.2967 62.7565 66.0596 62.0266 62.5462 60.505C58.5256 58.7731 56.7937 57.6968 55.2102 55.9896C54.2948 54.9999 53.4288 53.4164 53.07 52.0927C52.7731 50.9917 52.6989 48.2329 52.9339 47.1196C53.7628 43.2351 56.6947 40.5258 60.9256 39.7217C62.2988 39.4619 65.4905 39.5609 66.839 39.8949ZM48.5422 43.1485L48.567 46.3402H43.4948H38.4227V60.7524V75.1647H34.8351H31.2475V60.7524V46.3402H26.1754H21.1033V43.2103C21.1033 41.4784 21.1404 40.031 21.1899 39.9938C21.227 39.9444 27.4001 39.9196 34.8846 39.932L48.5051 39.9691L48.5422 43.1485Z" fill="#007ACC"/>
</svg>
