<svg width="64" height="64" viewBox="0 0 64 64" fill="none" xmlns="http://www.w3.org/2000/svg">
<path d="M61.8015 11.267L33.6165 61.2228C33.0345 62.2542 31.5395 62.2602 30.9488 61.2339L2.20494 11.2718C1.56146 10.1533 2.5264 8.79851 3.80514 9.02505L32.0203 14.0239C32.2003 14.0558 32.3846 14.0555 32.5646 14.023L60.1897 9.03222C61.4642 8.80198 62.4336 10.1463 61.8015 11.267Z" fill="url(#paint0_linear_49_1620)"/>
<path d="M45.3354 2.01474L24.8663 6.08901C24.5299 6.15597 24.2808 6.44559 24.2605 6.79316L23.0014 28.3952C22.9717 28.904 23.4317 29.2989 23.9206 29.1844L29.6195 27.8484C30.1527 27.7235 30.6345 28.2005 30.5249 28.7452L28.8318 37.1673C28.7178 37.7342 29.2417 38.2188 29.7866 38.0507L33.3065 36.9644C33.8522 36.7961 34.3766 37.2822 34.2611 37.8495L31.5704 51.0787C31.4021 51.9062 32.4856 52.3574 32.9375 51.648L33.2393 51.1741L49.9187 17.3611C50.198 16.795 49.7163 16.1494 49.1042 16.2694L43.2382 17.4195C42.6869 17.5274 42.2179 17.006 42.3735 16.4581L46.2022 2.97563C46.3579 2.42685 45.8872 1.90492 45.3354 2.01474Z" fill="url(#paint1_linear_49_1620)"/>
<defs>
<linearGradient id="paint0_linear_49_1620" x1="1.50314" y1="7.23971" x2="36.1802" y2="54.7524" gradientUnits="userSpaceOnUse">
<stop stop-color="#41D1FF"/>
<stop offset="1" stop-color="#BD34FE"/>
</linearGradient>
<linearGradient id="paint1_linear_49_1620" x1="30.5562" y1="3.1209" x2="36.9777" y2="46.4862" gradientUnits="userSpaceOnUse">
<stop stop-color="#FFEA83"/>
<stop offset="0.0833333" stop-color="#FFDD35"/>
<stop offset="1" stop-color="#FFA800"/>
</linearGradient>
</defs>
</svg>
