<svg width="86" height="86" viewBox="0 0 86 86" fill="none" xmlns="http://www.w3.org/2000/svg">
<path d="M83.0457 15.14L45.1721 82.2681C44.3901 83.654 42.3812 83.6622 41.5875 82.283L2.96289 15.1465C2.09821 13.6435 3.39484 11.823 5.11315 12.1274L43.0273 18.8447C43.2691 18.8875 43.5168 18.8871 43.7586 18.8434L80.8799 12.137C82.5925 11.8277 83.8952 13.6341 83.0457 15.14Z" fill="url(#paint0_linear_49_1620)"/>
<path d="M60.9194 2.70731L33.4141 8.18211C32.962 8.27209 32.6273 8.66126 32.6 9.12831L30.9081 38.1561C30.8683 38.8398 31.4864 39.3704 32.1433 39.2166L39.8012 37.4213C40.5177 37.2534 41.1651 37.8945 41.0178 38.6264L38.7427 49.9436C38.5896 50.7053 39.2936 51.3566 40.0258 51.1307L44.7557 49.6709C45.4889 49.4448 46.1935 50.0979 46.0384 50.8602L42.4228 68.637C42.1965 69.7489 43.6525 70.3553 44.2598 69.4019L44.6654 68.7652L67.0782 23.329C67.4536 22.5683 66.8063 21.7008 65.9838 21.862L58.1013 23.4074C57.3606 23.5525 56.7303 22.8517 56.9394 22.1156L62.0841 3.99851C62.2934 3.26108 61.661 2.55973 60.9194 2.70731Z" fill="url(#paint1_linear_49_1620)"/>
<defs>
<linearGradient id="paint0_linear_49_1620" x1="2.01985" y1="9.72836" x2="48.6171" y2="73.5735" gradientUnits="userSpaceOnUse">
<stop stop-color="#41D1FF"/>
<stop offset="1" stop-color="#BD34FE"/>
</linearGradient>
<linearGradient id="paint1_linear_49_1620" x1="41.0599" y1="4.19371" x2="49.6888" y2="62.4658" gradientUnits="userSpaceOnUse">
<stop stop-color="#FFEA83"/>
<stop offset="0.0833333" stop-color="#FFDD35"/>
<stop offset="1" stop-color="#FFA800"/>
</linearGradient>
</defs>
</svg>
