<svg width="86" height="86" viewBox="0 0 86 86" fill="none" xmlns="http://www.w3.org/2000/svg">
<path d="M24.3017 21.9922L32.0404 48.3028L39.779 21.9922H45.3825H60.759V24.6071L52.8604 38.2153C55.6353 39.1062 57.7342 40.7254 59.1573 43.0729C60.5803 45.4205 61.2925 48.1778 61.2925 51.3437C61.2925 55.2581 60.2524 58.5489 58.1709 61.2176C56.0895 63.8863 53.3939 65.2193 50.0856 65.2193C47.5943 65.2193 45.4241 64.4278 43.5751 62.8449C41.7248 61.2619 40.3555 59.1187 39.4659 56.4137L43.8412 54.5996C44.4822 56.2363 45.3274 57.5263 46.3768 58.4683C47.4263 59.4116 48.6626 59.8819 50.0856 59.8819C51.5798 59.8819 52.843 59.0461 53.875 57.3745C54.907 55.7015 55.423 53.6926 55.423 51.3437C55.423 48.7463 54.8707 46.736 53.7688 45.313C52.4869 43.6413 50.4766 42.8055 47.7367 42.8055H45.6028V40.2443L53.0754 27.3282H44.0562L43.5429 28.2017L32.5738 65.2193H32.0404L24.0343 38.4303L16.0282 65.2206H15.4948L2.6875 21.9922H8.29094L16.0296 48.3028L21.2608 30.5855L18.6996 21.9922H24.3017Z" fill="#005A9C"/>
<path d="M83.0105 21.5L83.9188 27.0188L80.7059 33.1664C80.7059 33.1664 79.4724 30.5582 77.4231 29.115C75.6964 27.8989 74.5717 27.6342 72.8127 27.997C70.5539 28.4633 67.9927 31.1643 66.8747 34.4941C65.5377 38.4783 65.5242 40.4066 65.4772 42.1776C65.402 45.017 65.8494 46.6953 65.8494 46.6953C65.8494 46.6953 63.8996 43.086 63.9171 37.7997C63.9292 34.0264 64.5231 30.6053 66.2687 27.2284C67.8046 24.2601 70.0876 22.4783 72.114 22.2686C74.2089 22.0523 75.8644 23.0614 77.1436 24.1552C78.486 25.3028 79.8446 27.8103 79.8446 27.8103L83.0105 21.5Z" fill="black"/>
<path d="M83.4067 52.7264C83.4067 52.7264 81.9864 55.2648 81.1022 56.243C80.2166 57.2213 78.6337 58.944 76.6786 59.8053C74.7221 60.6666 73.6981 60.8292 71.7658 60.6438C69.8348 60.4584 68.0396 59.3404 67.4107 58.8741C66.7818 58.4078 65.1747 57.0345 64.2677 55.7539C63.3593 54.472 61.939 51.9121 61.939 51.9121C61.939 51.9121 62.7304 54.48 63.2263 55.5685C63.5112 56.1946 64.3873 58.1135 65.6316 59.7825C66.7899 61.3399 69.0434 64.0206 72.4659 64.6253C75.8884 65.2314 78.24 63.6941 78.8218 63.3205C79.4037 62.9483 80.6305 61.9217 81.4072 61.0913C82.2175 60.2245 82.9848 59.1186 83.4094 58.4548C83.7198 57.9711 84.2251 56.9875 84.2251 56.9875L83.4067 52.7264Z" fill="black"/>
</svg>
