<svg width="64" height="64" viewBox="0 0 64 64" fill="none" xmlns="http://www.w3.org/2000/svg">
<path d="M18.085 16.3662L23.844 35.9462L29.603 16.3662H33.773H45.216V18.3122L39.338 28.4392C41.403 29.1022 42.965 30.3072 44.024 32.0542C45.083 33.8012 45.613 35.8532 45.613 38.2092C45.613 41.1222 44.839 43.5712 43.29 45.5572C41.741 47.5432 39.735 48.5352 37.273 48.5352C35.419 48.5352 33.804 47.9462 32.428 46.7682C31.051 45.5902 30.032 43.9952 29.37 41.9822L32.626 40.6322C33.103 41.8502 33.732 42.8102 34.513 43.5112C35.294 44.2132 36.214 44.5632 37.273 44.5632C38.385 44.5632 39.325 43.9412 40.093 42.6972C40.861 41.4522 41.245 39.9572 41.245 38.2092C41.245 36.2762 40.834 34.7802 40.014 33.7212C39.06 32.4772 37.564 31.8552 35.525 31.8552H33.937V29.9492L39.498 20.3372H32.786L32.404 20.9872L24.241 48.5352H23.844L17.886 28.5992L11.928 48.5362H11.531L2 16.3662H6.17L11.929 35.9462L15.822 22.7612L13.916 16.3662H18.085Z" fill="#005A9C"/>
<path d="M61.775 16L62.451 20.107L60.06 24.682C60.06 24.682 59.142 22.741 57.617 21.667C56.332 20.762 55.495 20.565 54.186 20.835C52.505 21.182 50.599 23.192 49.767 25.67C48.772 28.635 48.762 30.07 48.727 31.388C48.671 33.501 49.004 34.75 49.004 34.75C49.004 34.75 47.553 32.064 47.566 28.13C47.575 25.322 48.017 22.776 49.316 20.263C50.459 18.054 52.158 16.728 53.666 16.572C55.225 16.411 56.457 17.162 57.409 17.976C58.408 18.83 59.419 20.696 59.419 20.696L61.775 16Z" fill="black"/>
<path d="M62.0702 39.2378C62.0702 39.2378 61.0132 41.1268 60.3552 41.8548C59.6962 42.5828 58.5182 43.8648 57.0632 44.5058C55.6072 45.1468 54.8452 45.2678 53.4072 45.1298C51.9702 44.9918 50.6342 44.1598 50.1662 43.8128C49.6982 43.4658 48.5022 42.4438 47.8272 41.4908C47.1512 40.5368 46.0942 38.6318 46.0942 38.6318C46.0942 38.6318 46.6832 40.5428 47.0522 41.3528C47.2642 41.8188 47.9162 43.2468 48.8422 44.4888C49.7042 45.6478 51.3812 47.6428 53.9282 48.0928C56.4752 48.5438 58.2252 47.3998 58.6582 47.1218C59.0912 46.8448 60.0042 46.0808 60.5822 45.4628C61.1852 44.8178 61.7562 43.9948 62.0722 43.5008C62.3032 43.1408 62.6792 42.4088 62.6792 42.4088L62.0702 39.2378Z" fill="black"/>
</svg>
