<svg width="64" height="64" viewBox="0 0 64 64" fill="none" xmlns="http://www.w3.org/2000/svg">
<path d="M32 0.853516L59.52 16.4197V47.5593L32 63.1255L4.47998 47.5593V16.4197L32 0.853516Z" fill="white"/>
<path d="M54.6063 46.4852L32.9103 58.759V49.2017L46.4285 41.7635L54.6063 46.4852ZM56.0925 45.1412V19.4772L48.1565 24.0639V40.5617L56.0925 45.1412ZM9.30849 46.4852L31.0045 58.759V49.2017L17.4792 41.7635L9.30849 46.4852ZM7.82227 45.1412V19.4772L15.7583 24.0639V40.5617L7.82227 45.1412ZM8.75382 17.8132L31.0045 5.22656V14.4639L16.7467 22.3075L16.6329 22.3715L8.75382 17.8132ZM55.1609 17.8132L32.9103 5.22656V14.4639L47.168 22.3003L47.2818 22.3643L55.1609 17.8132Z" fill="#8ED6FB"/>
<path d="M31.0045 47.026L17.6641 39.6873V25.1593L31.0045 32.8606V47.026ZM32.9103 47.026L46.2507 39.6944V25.1593L32.9103 32.8606V47.026ZM18.5672 23.4811L31.9574 16.1211L45.3476 23.4811L31.9574 31.2109L18.5672 23.4811Z" fill="#1C78C0"/>
</svg>
