<svg width="86" height="86" viewBox="0 0 86 86" fill="none" xmlns="http://www.w3.org/2000/svg">
<path d="M43 1.14648L79.98 22.0636V63.9074L43 84.8245L6.02002 63.9074V22.0636L43 1.14648Z" fill="white"/>
<path d="M73.3772 62.4648L44.2232 78.9577V66.115L62.3883 56.1199L73.3772 62.4648ZM75.3743 60.6588V26.1728L64.7103 32.3361V54.505L75.3743 60.6588ZM12.5083 62.4648L41.6623 78.9577V66.115L23.4877 56.1199L12.5083 62.4648ZM10.5112 60.6588V26.1728L21.1752 32.3361V54.505L10.5112 60.6588ZM11.763 23.9368L41.6623 7.02344V19.4361L22.5035 29.9759L22.3506 30.0619L11.763 23.9368ZM74.1226 23.9368L44.2232 7.02344V19.4361L63.3821 29.9663L63.535 30.0523L74.1226 23.9368Z" fill="#8ED6FB"/>
<path d="M41.6621 63.1906L23.7358 53.3292V33.8072L41.6621 44.1559V63.1906ZM44.2229 63.1906L62.1492 53.3388V33.8072L44.2229 44.1559V63.1906ZM24.9494 31.5521L42.9425 21.6621L60.9356 31.5521L42.9425 41.939L24.9494 31.5521Z" fill="#1C78C0"/>
</svg>
